<?xml version="1.0" encoding="utf-8"?> <!-- Generator: IcoMoon.io --> <!DOCTYPE svg PUBLIC "-//W3C//DTD SVG 1.1//EN" "http://www.w3.org/Graphics/SVG/1.1/DTD/svg11.dtd"> <svg width="512" height="512" viewBox="0 0 512 512" xmlns="http://www.w3.org/2000/svg" xmlns:xlink="http://www.w3.org/1999/xlink" fill="#242424"><path d="M 32.00,224.00L 80.00,224.00L 80.00,304.00L 32.00,304.00zM 32.00,128.00L 80.00,128.00L 80.00,208.00L 32.00,208.00zM 32.00,320.00L 80.00,320.00L 80.00,400.00L 32.00,400.00zM 32.00,416.00L 80.00,416.00L 80.00,496.00L 32.00,496.00zM 96.00,0.00l0.00,512.00 l 384.00,0.00 L 480.00,0.00 L 96.00,0.00 z M 288.00,128.165c 35.255,0.00, 63.835,28.58, 63.835,63.835s-28.58,63.835-63.835,63.835 c-35.255,0.00-63.835-28.58-63.835-63.835S 252.745,128.165, 288.00,128.165z M 384.00,384.00L 192.00,384.00 l0.00-32.00 c0.00-35.347, 28.654-64.00, 64.00-64.00l0.00,0.00 l 64.00,0.00 c 35.348,0.00, 64.00,28.653, 64.00,64.00L 384.00,384.00 zM 32.00,32.00L 80.00,32.00L 80.00,112.00L 32.00,112.00z" ></path></svg>