<?xml version="1.0" encoding="utf-8"?>
<!-- Generator: Adobe Illustrator 16.0.0, SVG Export Plug-In . SVG Version: 6.00 Build 0)  -->
<!DOCTYPE svg PUBLIC "-//W3C//DTD SVG 1.1//EN" "http://www.w3.org/Graphics/SVG/1.1/DTD/svg11.dtd">
<svg version="1.1" xmlns="http://www.w3.org/2000/svg" xmlns:xlink="http://www.w3.org/1999/xlink" x="0px" y="0px" width="512px"
	 height="512px" viewBox="0 0 512 512" enable-background="new 0 0 512 512" xml:space="preserve">
<g id="Layer_1">
	<path d="M290.25,399.75v-288h-64v288H290.25z M322.25,431.75L322.25,431.75h-128v-352h128V431.75z M481.75,79.25v224h-128v-224
		H481.75z M160.75,79.25v224h-128v-224H160.75z"/>
</g>
<g id="Layer_2" display="none">
	<g id="svgGrid" display="inline">
		<line fill="none" stroke="#B35047" x1="31" y1="-1" x2="31" y2="511"/>
		<line fill="none" stroke="#B35047" x1="63" y1="-1" x2="63" y2="511"/>
		<line fill="none" stroke="#B35047" x1="95" y1="-1" x2="95" y2="511"/>
		<line fill="none" stroke="#B35047" x1="127" y1="-1" x2="127" y2="511"/>
		<line fill="none" stroke="#B35047" x1="159" y1="-1" x2="159" y2="511"/>
		<line fill="none" stroke="#B35047" x1="191" y1="-1" x2="191" y2="511"/>
		<line fill="none" stroke="#B35047" x1="223" y1="-1" x2="223" y2="511"/>
		<line fill="none" stroke="#B35047" x1="255" y1="-1" x2="255" y2="511"/>
		<line fill="none" stroke="#B35047" x1="287" y1="-1" x2="287" y2="511"/>
		<line fill="none" stroke="#B35047" x1="319" y1="-1" x2="319" y2="511"/>
		<line fill="none" stroke="#B35047" x1="351" y1="-1" x2="351" y2="511"/>
		<line fill="none" stroke="#B35047" x1="383" y1="-1" x2="383" y2="511"/>
		<line fill="none" stroke="#B35047" x1="415" y1="-1" x2="415" y2="511"/>
		<line fill="none" stroke="#B35047" x1="447" y1="-1" x2="447" y2="511"/>
		<line fill="none" stroke="#B35047" x1="479" y1="-1" x2="479" y2="511"/>
		<line fill="none" stroke="#B35047" x1="-1" y1="31" x2="511" y2="31"/>
		<line fill="none" stroke="#B35047" x1="-1" y1="63" x2="511" y2="63"/>
		<line fill="none" stroke="#B35047" x1="-1" y1="95" x2="511" y2="95"/>
		<line fill="none" stroke="#B35047" x1="-1" y1="127" x2="511" y2="127"/>
		<line fill="none" stroke="#B35047" x1="-1" y1="159" x2="511" y2="159"/>
		<line fill="none" stroke="#B35047" x1="-1" y1="191" x2="511" y2="191"/>
		<line fill="none" stroke="#B35047" x1="-1" y1="223" x2="511" y2="223"/>
		<line fill="none" stroke="#B35047" x1="-1" y1="255" x2="511" y2="255"/>
		<line fill="none" stroke="#B35047" x1="-1" y1="287" x2="511" y2="287"/>
		<line fill="none" stroke="#B35047" x1="-1" y1="319" x2="511" y2="319"/>
		<line fill="none" stroke="#B35047" x1="-1" y1="351" x2="511" y2="351"/>
		<line fill="none" stroke="#B35047" x1="-1" y1="383" x2="511" y2="383"/>
		<line fill="none" stroke="#B35047" x1="-1" y1="415" x2="511" y2="415"/>
		<line fill="none" stroke="#B35047" x1="-1" y1="447" x2="511" y2="447"/>
		<line fill="none" stroke="#B35047" x1="-1" y1="479" x2="511" y2="479"/>
		<rect x="-1" y="-1" fill="none" stroke="#B35047" width="512" height="512"/>
	</g>
</g>
</svg>
