<?xml version="1.0" encoding="utf-8"?> <!-- Generator: IcoMoon.io --> <!DOCTYPE svg PUBLIC "-//W3C//DTD SVG 1.1//EN" "http://www.w3.org/Graphics/SVG/1.1/DTD/svg11.dtd"> <svg width="512" height="512" viewBox="0 0 512 512" xmlns="http://www.w3.org/2000/svg" xmlns:xlink="http://www.w3.org/1999/xlink" fill="#242424"><path d="M 448.00,288.00l0.00,66.098 c-40.261,41.123-96.519,80.825-160.00,91.254L 288.00,256.00 l 96.00,0.00 l0.00-32.00 l-96.00-37.465l0.00-0.006 c 37.282-13.18, 64.00-48.731, 64.00-90.529 c0.00-53.02-42.98-96.00-96.00-96.00c-53.021,0.00-96.00,42.98-96.00,96.00c0.00,41.798, 26.715,77.35, 64.00,90.529l0.00,0.006 L 128.00,224.00l0.00,32.00 l 96.00,0.00 l0.00,189.352 c-63.484-10.429-119.742-50.131-160.00-91.254L 64.00,288.00 L0.00,288.00 l0.00,32.00 c0.00,64.00, 128.00,192.00, 256.00,192.00s 256.00-128.00, 256.00-192.00l0.00-32.00 L 448.00,288.00 z M 288.00,96.00 c0.00,17.673-14.327,32.00-32.00,32.00c-17.673,0.00-32.00-14.327-32.00-32.00s 14.327-32.00, 32.00-32.00C 273.673,64.00, 288.00,78.327, 288.00,96.00z" ></path></svg>