<?xml version="1.0" encoding="utf-8"?> <!-- Generator: IcoMoon.io --> <!DOCTYPE svg PUBLIC "-//W3C//DTD SVG 1.1//EN" "http://www.w3.org/Graphics/SVG/1.1/DTD/svg11.dtd"> <svg width="512" height="512" viewBox="0 0 512 512" xmlns="http://www.w3.org/2000/svg" xmlns:xlink="http://www.w3.org/1999/xlink" fill="#242424"><path d="M 256.00,158.653c-42.276-43.218-224.00-71.03-224.00,134.179c0.00,126.782, 160.518,267.145, 223.965,203.193l 0.07,0.00 C 319.483,559.977, 480.00,419.614, 480.00,292.832C 480.00,87.624, 298.276,115.435, 256.00,158.653z M 416.552,341.25 c-12.045,46.402-51.907,89.539-98.744,120.021c 48.953-58.283, 79.127-156.949, 49.948-233.464 c-8.688-22.783-18.648-42.083-29.535-58.319C 395.741,188.772, 443.145,238.795, 416.552,341.25zM 240.162,102.028c 6.817-1.627, 13.289-3.756, 19.451-6.256C 257.372,106.106, 256.00,116.995, 256.00,128.00l 10.67,0.00 c 9.286-43.374, 44.19-94.00, 90.727-94.00c0.00-23.833-16.166-34.00-34.355-34.00c-17.31,8.583-32.418,23.974-44.621,45.713 c-6.589,11.738-13.463,27.834-17.835,45.851c-0.872-5.087-2.174-10.19-3.983-15.276C 236.858,20.757, 168.043-11.655, 102.90,3.894 c-7.376,1.761-14.368,4.085-20.977,6.861c 0.827,6.278, 2.301,12.591, 4.537,18.878C 106.204,85.165, 175.019,117.577, 240.162,102.028z" ></path></svg>