<?xml version="1.0" encoding="utf-8"?> <!-- Generator: IcoMoon.io --> <!DOCTYPE svg PUBLIC "-//W3C//DTD SVG 1.1//EN" "http://www.w3.org/Graphics/SVG/1.1/DTD/svg11.dtd"> <svg width="544" height="512" viewBox="0 0 544 512" xmlns="http://www.w3.org/2000/svg" xmlns:xlink="http://www.w3.org/1999/xlink" fill="#242424"><path d="M 128.00,32.00L 32.00,32.00 C 14.40,32.00,0.00,46.40,0.00,64.00l0.00,384.00 c0.00,17.60, 14.40,32.00, 32.00,32.00l 96.00,0.00 c 17.60,0.00, 32.00-14.40, 32.00-32.00L 160.00,64.00 C 160.00,46.40, 145.60,32.00, 128.00,32.00z M 96.00,404.00 c0.00,6.60-5.40,12.00-12.00,12.00l-8.00,0.00 c-6.60,0.00-12.00-5.40-12.00-12.00l0.00-8.00 c0.00-6.60, 5.40-12.00, 12.00-12.00l 8.00,0.00 c 6.60,0.00, 12.00,5.40, 12.00,12.00L 96.00,404.00 z M 128.00,320.00L 32.00,320.00 L 32.00,160.00 l 96.00,0.00 L 128.00,320.00 z M 128.00,128.00L 32.00,128.00 L 32.00,96.00 l 96.00,0.00 L 128.00,128.00 zM 320.00,32.00l-96.00,0.00 c-17.60,0.00-32.00,14.40-32.00,32.00l0.00,384.00 c0.00,17.60, 14.40,32.00, 32.00,32.00l 96.00,0.00 c 17.60,0.00, 32.00-14.40, 32.00-32.00L 352.00,64.00 C 352.00,46.40, 337.60,32.00, 320.00,32.00z M 288.00,404.00c0.00,6.60-5.40,12.00-12.00,12.00l-8.00,0.00 c-6.60,0.00-12.00-5.40-12.00-12.00l0.00-8.00 c0.00-6.60, 5.40-12.00, 12.00-12.00l 8.00,0.00 c 6.60,0.00, 12.00,5.40, 12.00,12.00L 288.00,404.00 z M 320.00,320.00l-96.00,0.00 L 224.00,160.00 l 96.00,0.00 L 320.00,320.00 z M 320.00,128.00l-96.00,0.00 L 224.00,96.00 l 96.00,0.00 L 320.00,128.00 zM 512.00,32.00l-96.00,0.00 c-17.60,0.00-32.00,14.40-32.00,32.00l0.00,384.00 c0.00,17.60, 14.40,32.00, 32.00,32.00l 96.00,0.00 c 17.60,0.00, 32.00-14.40, 32.00-32.00L 544.00,64.00 C 544.00,46.40, 529.60,32.00, 512.00,32.00z M 480.00,404.00c0.00,6.60-5.40,12.00-12.00,12.00l-8.00,0.00 c-6.60,0.00-12.00-5.40-12.00-12.00l0.00-8.00 c0.00-6.60, 5.40-12.00, 12.00-12.00l 8.00,0.00 c 6.60,0.00, 12.00,5.40, 12.00,12.00L 480.00,404.00 z M 512.00,320.00l-96.00,0.00 L 416.00,160.00 l 96.00,0.00 L 512.00,320.00 z M 512.00,128.00l-96.00,0.00 L 416.00,96.00 l 96.00,0.00 L 512.00,128.00 z" ></path></svg>