<?xml version="1.0" encoding="utf-8"?> <!-- Generator: IcoMoon.io --> <!DOCTYPE svg PUBLIC "-//W3C//DTD SVG 1.1//EN" "http://www.w3.org/Graphics/SVG/1.1/DTD/svg11.dtd"> <svg width="512" height="512" viewBox="0 0 512 512" xmlns="http://www.w3.org/2000/svg" xmlns:xlink="http://www.w3.org/1999/xlink" fill="#242424"><path d="M0.00,255.999L 256.00,512.00L 256.00,352.00 l 255.999,0.00 L 512.00,160.00L 256.00,160.00 L 256.00,0.00 L0.00,255.999z M 76.00,225.254l 8.00-8.00l0.00,77.49 l-8.00-8.00L 76.00,225.254 z M 68.00,278.744l-8.00-8.00l0.00-29.49 l 8.00-8.00 L 68.00,278.744 z M 92.00,209.254l 8.00-8.00l0.00,109.491 l-8.00-8.00L 92.00,209.254 z M 108.00,193.254l 8.00-8.00l0.00,141.491 l-8.00-8.00L 108.00,193.254 z M 124.00,177.254l 8.00-8.00l0.00,173.491 l-8.00-8.00L 124.00,177.254 z M 140.00,161.254l 8.00-7.999l0.00,205.49 l-8.00-8.00L 140.00,161.254 z M 156.00,145.255l 8.00-8.00l0.00,237.49 l-8.00-8.00L 156.00,145.255 z M 172.00,129.255l 8.00-8.00l0.00,269.49 l-8.00-8.00L 172.00,129.255 z M 188.00,113.255l 8.00-8.00l0.00,301.49 l-8.00-8.00L 188.00,113.255 z M 204.00,97.255l 8.00-8.00l0.00,333.49 l-8.00-8.00L 204.00,97.255 z M 52.00,249.254l0.00,13.49 l-6.745-6.745L 52.00,249.254z M 236.00,320.00 L 236.00,192.00 l 8.00,0.00 l0.00,128.00 L 236.00,320.00 z M 252.00,320.00L 252.00,192.00 l 8.00,0.00 l0.00,128.00 L 252.00,320.00 z M 268.00,320.00L 268.00,192.00 l 8.00,0.00 l0.00,128.00 L 268.00,320.00 z M 284.00,320.00L 284.00,192.00 l 8.00,0.00 l0.00,128.00 L 284.00,320.00 z M 300.00,320.00L 300.00,192.00 l 8.00,0.00 l0.00,128.00 L 300.00,320.00 z M 316.00,320.00L 316.00,192.00 l 8.00,0.00 l0.00,128.00 L 316.00,320.00 z M 332.00,320.00L 332.00,192.00 l 8.00,0.00 l0.00,128.00 L 332.00,320.00 z M 348.00,320.00L 348.00,192.00 l 8.00,0.00 l0.00,128.00 L 348.00,320.00 z M 364.00,320.00L 364.00,192.00 l 8.00,0.00 l0.00,128.00 L 364.00,320.00 z M 380.00,320.00L 380.00,192.00 l 8.00,0.00 l0.00,128.00 L 380.00,320.00 z M 396.00,320.00L 396.00,192.00 l 8.00,0.00 l0.00,128.00 L 396.00,320.00 z M 412.00,320.00L 412.00,192.00 l 8.00,0.00 l0.00,128.00 L 412.00,320.00 z M 428.00,320.00L 428.00,192.00 l 8.00,0.00 l0.00,128.00 L 428.00,320.00 z M 444.00,320.00L 444.00,192.00 l 8.00,0.00 l0.00,128.00 L 444.00,320.00 z M 460.00,320.00L 460.00,192.00 l 8.00,0.00 l0.00,128.00 L 460.00,320.00 z M 479.999,320.00L 476.00,320.00 L 476.00,192.00 l 4.00,0.00 L 479.999,320.00z M 224.00,192.00l 4.00,0.00 l0.00,128.00 l-4.00,0.00 l0.00,114.745 l-4.00-4.00L 220.00,81.255 l 4.00-4.00L 224.00,192.00 z" ></path></svg>