<?xml version="1.0" encoding="utf-8"?> <!-- Generator: IcoMoon.io --> <!DOCTYPE svg PUBLIC "-//W3C//DTD SVG 1.1//EN" "http://www.w3.org/Graphics/SVG/1.1/DTD/svg11.dtd"> <svg width="512" height="512" viewBox="0 0 512 512" xmlns="http://www.w3.org/2000/svg" xmlns:xlink="http://www.w3.org/1999/xlink" fill="#242424"><path d="M 361.372,182.628L 402.745,224.00l-293.49,0.00 l 41.373-41.372C 156.876,176.379, 160.00,168.189, 160.00,160.00s-3.124-16.379-9.373-22.628 c-12.497-12.496-32.758-12.496-45.255,0.00l-96.00,96.00c-12.497,12.498-12.497,32.759,0.00,45.255l 96.00,96.00c 12.497,12.497, 32.758,12.497, 45.255,0.00 c 12.497-12.496, 12.497-32.758,0.00-45.254L 109.255,288.00l 293.49,0.00 l-41.373,41.372c-12.496,12.497-12.496,32.758,0.00,45.255 c 12.497,12.497, 32.759,12.497, 45.256,0.00l 96.00-96.00C 508.876,272.379, 512.00,264.189, 512.00,256.00s-3.124-16.379-9.372-22.628l-96.00-96.00 c-12.497-12.496-32.759-12.496-45.256,0.00C 348.876,149.87, 348.876,170.13, 361.372,182.628z" ></path></svg>