<?xml version="1.0" encoding="utf-8"?> <!-- Generator: IcoMoon.io --> <!DOCTYPE svg PUBLIC "-//W3C//DTD SVG 1.1//EN" "http://www.w3.org/Graphics/SVG/1.1/DTD/svg11.dtd"> <svg width="512" height="512" viewBox="0 0 512 512" xmlns="http://www.w3.org/2000/svg" xmlns:xlink="http://www.w3.org/1999/xlink" fill="#242424"><path d="M 256.00,512.00C 397.385,512.00, 512.00,397.385, 512.00,256.00s -114.615-256.00, -256.00-256.00s -256.00,114.615, -256.00,256.00S 114.615,512.00, 256.00,512.00z M 128.00,192.00 c0.00-17.673 14.327-32.00 32.00-32.00s 32.00,14.327 32.00,32.00l0.00,82.745 L 329.373,137.372C 335.621,131.124, 343.811,128.00, 352.00,128.00 s 16.379,3.124 22.627,9.372c 12.497,12.497 12.497,32.759,0.00,45.256L 237.256,320.00L 320.00,320.00 c 17.673,0.00 32.00,14.327 32.00,32.00s -14.327,32.00, -32.00,32.00 l-192.00,0.00 L 128.00,192.00 z" ></path></svg>