<?xml version="1.0" encoding="utf-8"?> <!-- Generator: IcoMoon.io --> <!DOCTYPE svg PUBLIC "-//W3C//DTD SVG 1.1//EN" "http://www.w3.org/Graphics/SVG/1.1/DTD/svg11.dtd"> <svg width="512" height="512" viewBox="0 0 512 512" xmlns="http://www.w3.org/2000/svg" xmlns:xlink="http://www.w3.org/1999/xlink" fill="#242424"><path d="M0.00,224.00c0.00,17.673, 14.327,32.00, 32.00,32.00s 32.00-14.327, 32.00-32.00L 64.00,109.256 L 402.744,448.00L 288.00,448.00 c-17.673,0.00-32.00,14.326-32.00,32.00 c0.00,17.673, 14.327,32.00, 32.00,32.00l 224.00,0.00 L 512.00,288.00 c0.00-17.674-14.327-32.00-32.00-32.00s-32.00,14.326-32.00,32.00l0.00,114.744 L 109.255,64.00L 224.00,64.00 c 17.673,0.00, 32.00-14.327, 32.00-32.00 S 241.673,0.00, 224.00,0.00L0.00,0.00 L0.00,224.00 z" ></path></svg>