<?xml version="1.0" encoding="utf-8"?> <!-- Generator: IcoMoon.io --> <!DOCTYPE svg PUBLIC "-//W3C//DTD SVG 1.1//EN" "http://www.w3.org/Graphics/SVG/1.1/DTD/svg11.dtd"> <svg width="512" height="512" viewBox="0 0 512 512" xmlns="http://www.w3.org/2000/svg" xmlns:xlink="http://www.w3.org/1999/xlink" fill="#242424"><path d="M 0.00,256.00C 0.00,114.615, 114.615,0.00, 256.00,0.00s 256.00,114.615, 256.00,256.00s -114.615,256.00, -256.00,256.00S 0.00,397.385, 0.00,256.00z M 448.00,256.00 c 0.00-106.039 -85.961-192.00 -192.00-192.00c-106.039,0.00, -192.00,85.961, -192.00,192.00c 0.00,106.039, 85.961,192.00, 192.00,192.00C 362.039,448.00, 448.00,362.039, 448.00,256.00zM 368.00,288.00 L 288.00,288.00 L 288.00,128.00 L 224.00,128.00 L 224.00,288.00 L 144.00,288.00 L 256.00,400.00 Z" ></path></svg>