<?xml version="1.0" encoding="utf-8"?> <!-- Generator: IcoMoon.io --> <!DOCTYPE svg PUBLIC "-//W3C//DTD SVG 1.1//EN" "http://www.w3.org/Graphics/SVG/1.1/DTD/svg11.dtd"> <svg width="512" height="512" viewBox="0 0 512 512" xmlns="http://www.w3.org/2000/svg" xmlns:xlink="http://www.w3.org/1999/xlink" fill="#242424"><path d="M 288.00,0.00c-17.673,0.00-32.00,14.327-32.00,32.00s 14.327,32.00, 32.00,32.00l 114.744,0.00 L 64.00,402.744L 64.00,288.00 c0.00-17.673-14.327-32.00-32.00-32.00S0.00,270.327,0.00,288.00l0.00,224.00 l 224.00,0.00 c 17.673,0.00, 32.00-14.327, 32.00-32.00s-14.327-32.00-32.00-32.00L 109.255,448.00 L 448.00,109.255L 448.00,224.00 c0.00,17.673, 14.327,32.00, 32.00,32.00s 32.00-14.327, 32.00-32.00L 512.00,0.00 L 288.00,0.00 z" ></path></svg>