<?xml version="1.0" encoding="utf-8"?> <!-- Generator: IcoMoon.io --> <!DOCTYPE svg PUBLIC "-//W3C//DTD SVG 1.1//EN" "http://www.w3.org/Graphics/SVG/1.1/DTD/svg11.dtd"> <svg width="512" height="512" viewBox="0 0 512 512" xmlns="http://www.w3.org/2000/svg" xmlns:xlink="http://www.w3.org/1999/xlink" fill="#242424"><path d="M 329.372,361.372L 288.00,402.745l0.00-293.49 l 41.372,41.373C 335.621,156.876, 343.811,160.00, 352.00,160.00s 16.379-3.124, 22.628-9.373 c 12.496-12.497, 12.496-32.758,0.00-45.255l-96.00-96.00c-12.498-12.497-32.758-12.497-45.255,0.00l-96.00,96.00c-12.497,12.497-12.497,32.758,0.00,45.255 c 12.497,12.497, 32.758,12.497, 45.255,0.00L 224.00,109.255l0.00,293.49 l-41.373-41.373c-12.497-12.496-32.758-12.496-45.255,0.00 c-12.497,12.497-12.497,32.759,0.00,45.256l 96.00,96.00C 239.621,508.876, 247.811,512.00, 256.00,512.00s 16.379-3.124, 22.628-9.372l 96.00-96.00 c 12.496-12.497, 12.496-32.759,0.00-45.256C 362.13,348.876, 341.87,348.876, 329.372,361.372z" ></path></svg>