<?xml version="1.0" encoding="utf-8"?>
<!-- Generator: IcoMoon.io -->
<!DOCTYPE svg PUBLIC "-//W3C//DTD SVG 1.1//EN" "http://www.w3.org/Graphics/SVG/1.1/DTD/svg11.dtd">
<svg xmlns="http://www.w3.org/2000/svg" xmlns:xlink="http://www.w3.org/1999/xlink" width="512" height="512" viewBox="0 0 512 512" fill="#fff"><path d="M 256.00,0.00C 114.615,0.00,0.00,114.615,0.00,256.00s 114.615,256.00, 256.00,256.00s 256.00-114.615, 256.00-256.00S 397.385,0.00, 256.00,0.00z M 406.628,278.628 l-128.001,128.00C 272.379,412.876, 264.189,416.00, 256.00,416.00s-16.379-3.124-22.627-9.372c-12.497-12.497-12.497-32.759,0.00-45.256L 306.745,288.00 L 128.00,288.00 c-17.673,0.00-32.00-14.327-32.00-32.00c0.00-17.673, 14.327-32.00, 32.00-32.00l 178.745,0.00 l-73.373-73.373c-12.497-12.497-12.497-32.758,0.00-45.255 c 12.497-12.497, 32.758-12.497, 45.254,0.00l 128.001,128.00C 419.124,245.869, 419.124,266.131, 406.628,278.628z"/></svg>
