<?xml version="1.0" encoding="utf-8"?> <!-- Generator: IcoMoon.io --> <!DOCTYPE svg PUBLIC "-//W3C//DTD SVG 1.1//EN" "http://www.w3.org/Graphics/SVG/1.1/DTD/svg11.dtd"> <svg width="512" height="512" viewBox="0 0 512 512" xmlns="http://www.w3.org/2000/svg" xmlns:xlink="http://www.w3.org/1999/xlink" fill="#242424"><path d="M 416.00,128.00L 128.00,128.00 C 57.308,128.00,0.00,185.308,0.00,256.00s 57.308,128.00, 128.00,128.00l 288.00,0.00 l0.00-32.00 L 128.00,352.00 c-53.02,0.00-96.00-42.98-96.00-96.00s 42.98-96.00, 96.00-96.00l 288.00,0.00 c 35.347,0.00, 64.00,28.654, 64.00,64.00c0.00,35.347-28.653,64.00-64.00,64.00L 192.00,288.00 c-17.673,0.00-32.00-14.327-32.00-32.00s 14.327-32.00, 32.00-32.00l 224.00,0.00 l0.00-32.00 L 192.00,192.00 c-35.346,0.00-64.00,28.654-64.00,64.00c0.00,35.347, 28.654,64.00, 64.00,64.00l 224.00,0.00 c 53.02,0.00, 96.00-42.98, 96.00-96.00S 469.02,128.00, 416.00,128.00z" ></path></svg>