<?xml version="1.0" encoding="utf-8"?> <!-- Generator: IcoMoon.io --> <!DOCTYPE svg PUBLIC "-//W3C//DTD SVG 1.1//EN" "http://www.w3.org/Graphics/SVG/1.1/DTD/svg11.dtd"> <svg width="512" height="512" viewBox="0 0 512 512" xmlns="http://www.w3.org/2000/svg" xmlns:xlink="http://www.w3.org/1999/xlink" fill="#242424"><path d="M 512.00,368.00M 448.00,160.00 L 202.51,160.00 L 90.51,272.00 L 202.51,384.00 L 448.00,384.00 L 448.00,160.00 Z M 512.00,96.00 L 512.00,96.00 L 512.00,448.00 L 176.00,448.00 L 0.00,272.00 L 176.00,96.00 L 512.00,96.00 ZM 370.744,192.00 L 416.00,192.00 L 416.00,237.256 L 381.256,272.00 L 416.00,306.744 L 416.00,352.00 L 370.744,352.00 L 336.00,317.256 L 301.256,352.00 L 256.00,352.00 L 256.00,306.745 L 290.745,272.00 L 256.00,237.255 L 256.00,192.00 L 301.255,192.00 L 336.00,226.745 Z" ></path></svg>