<?xml version="1.0" encoding="utf-8"?> <!-- Generator: IcoMoon.io --> <!DOCTYPE svg PUBLIC "-//W3C//DTD SVG 1.1//EN" "http://www.w3.org/Graphics/SVG/1.1/DTD/svg11.dtd"> <svg width="512" height="512" viewBox="0 0 512 512" xmlns="http://www.w3.org/2000/svg" xmlns:xlink="http://www.w3.org/1999/xlink" fill="#242424"><path d="M 480.00,128.00L 197.255,128.00 l-144.00,144.00l 144.00,144.00L 480.00,416.00 L 480.00,128.00 z M 512.00,96.00L 512.00,96.00l0.00,352.00 L 176.00,448.00 L0.00,272.00L 176.00,96.00L 512.00,96.00 z M 416.00,322.301L 416.00,352.00 l-29.699,0.00 L 336.00,301.699L 285.699,352.00L 256.00,352.00 l0.00,0.00l0.00-29.698 L 306.302,272.00L 256.00,221.698L 256.00,192.00 l0.00,0.00l 29.699,0.00 L 336.00,242.301L 386.301,192.00L 416.00,192.00 l0.00,29.699 L 365.699,272.00 L 416.00,322.301z" ></path></svg>