<?xml version="1.0" encoding="utf-8"?> <!-- Generator: IcoMoon.io --> <!DOCTYPE svg PUBLIC "-//W3C//DTD SVG 1.1//EN" "http://www.w3.org/Graphics/SVG/1.1/DTD/svg11.dtd"> <svg width="512" height="512" viewBox="0 0 512 512" xmlns="http://www.w3.org/2000/svg" xmlns:xlink="http://www.w3.org/1999/xlink" fill="#242424"><path d="M 352.00,96.00L 352.00,80.00 c0.00-44.183-35.817-80.00-80.00-80.00c-18.011,0.00-34.629,5.955-48.00,15.999C 210.629,5.955, 194.011,0.00, 176.00,0.00 c-44.183,0.00-80.00,35.817-80.00,80.00l0.00,54.40 L 32.00,144.00l0.00,336.00 l 64.00,0.00 l 32.00,32.00l 320.00-48.00L 448.00,128.00 L 352.00,96.00z M 96.00,448.00L 64.00,448.00 L 64.00,171.558 l 32.00-4.80L 96.00,448.00 z M 272.00,32.00 c 26.468,0.00, 48.00,21.533, 48.00,48.00l0.00,20.80 l-64.00,9.60L 256.00,80.00 c0.00-14.531-3.894-28.145-10.666-39.89C 252.967,34.992, 262.14,32.00, 272.00,32.00z M 128.00,80.00 c0.00-26.467, 21.533-48.00, 48.00-48.00c 9.86,0.00, 19.033,2.992, 26.666,8.111C 195.894,51.855, 192.00,65.469, 192.00,80.00l0.00,40.00 l-64.00,9.60L 128.00,80.00 z M 416.00,436.442 l-256.00,38.399L 160.00,203.558 l 256.00-38.40L 416.00,436.442 z" ></path></svg>