<?xml version="1.0" encoding="utf-8"?> <!-- Generator: IcoMoon.io --> <!DOCTYPE svg PUBLIC "-//W3C//DTD SVG 1.1//EN" "http://www.w3.org/Graphics/SVG/1.1/DTD/svg11.dtd"> <svg width="512" height="512" viewBox="0 0 512 512" xmlns="http://www.w3.org/2000/svg" xmlns:xlink="http://www.w3.org/1999/xlink" fill="#242424"><path d="M 432.00,160.00l-80.00,0.00 c0.00-88.365-42.98-160.00-96.00-160.00s-96.00,71.635-96.00,160.00L 80.00,160.00 c-8.80,0.00-16.00,7.20-16.00,16.00l0.00,320.00 c0.00,8.80, 7.20,16.00, 16.00,16.00l 352.00,0.00 c 8.80,0.00, 16.00-7.20, 16.00-16.00L 448.00,176.00 C 448.00,167.20, 440.80,160.00, 432.00,160.00z M 256.00,32.00c 35.347,0.00, 64.00,57.308, 64.00,128.00L 192.00,160.00 C 192.00,89.308, 220.654,32.00, 256.00,32.00z" ></path></svg>