<?xml version="1.0" encoding="utf-8"?> <!-- Generator: IcoMoon.io --> <!DOCTYPE svg PUBLIC "-//W3C//DTD SVG 1.1//EN" "http://www.w3.org/Graphics/SVG/1.1/DTD/svg11.dtd"> <svg width="512" height="512" viewBox="0 0 512 512" xmlns="http://www.w3.org/2000/svg" xmlns:xlink="http://www.w3.org/1999/xlink" fill="#242424"><path d="M 28.302,224.00L 80.00,141.283L 131.698,224.00L 160.00,224.00L 80.00,96.00L0.00,224.00 zM 128.00,320.00L 160.00,288.00L 160.00,256.00L0.00,256.00L0.00,288.00L 32.00,320.00 zM 348.302,224.00L 400.00,141.283L 451.698,224.00L 480.00,224.00L 400.00,96.00L 320.00,224.00 zM 320.00,288.00L 352.00,320.00L 448.00,320.00L 480.00,288.00L 480.00,256.00L 320.00,256.00 zM 256.00,416.00L 256.00,125.258 c 13.635-4.821, 24.438-15.623, 29.258-29.258L 400.00,96.00 l 16.00,0.00 L 416.00,64.00 L 285.258,64.00 C 278.667,45.359, 260.899,32.00, 240.00,32.00 c-20.898,0.00-38.667,13.359-45.258,32.00L 64.00,64.00 l0.00,32.00 l 16.00,0.00 l 114.742,0.00 c 4.821,13.635, 15.623,24.437, 29.258,29.258L 224.00,416.00 L 64.00,416.00 l-32.00,64.00l 416.00,0.00 l-32.00-64.00L 256.00,416.00 z M 216.80,80.00c0.00-12.813, 10.387-23.20, 23.20-23.20c 12.813,0.00, 23.20,10.387, 23.20,23.20c0.00,12.813-10.388,23.20-23.20,23.20 C 227.187,103.20, 216.80,92.813, 216.80,80.00z" ></path></svg>