<?xml version="1.0" encoding="utf-8"?> <!-- Generator: IcoMoon.io --> <!DOCTYPE svg PUBLIC "-//W3C//DTD SVG 1.1//EN" "http://www.w3.org/Graphics/SVG/1.1/DTD/svg11.dtd"> <svg width="512" height="512" viewBox="0 0 512 512" xmlns="http://www.w3.org/2000/svg" xmlns:xlink="http://www.w3.org/1999/xlink" fill="#242424"><path d="M 448.00,224.00C 448.00,100.288, 362.039,0.00, 256.00,0.00C 149.962,0.00, 64.00,100.288, 64.00,224.00c0.00,111.292, 69.573,203.611, 160.743,221.029L 208.00,512.00l 96.00,0.00 l-16.743-66.971C 378.427,427.611, 448.00,335.293, 448.00,224.00z M 141.353,256.00L 93.351,256.00 C 91.811,245.601, 91.00,234.912, 91.00,224.00 c0.00-22.483, 3.409-44.038, 9.654-64.00l 48.008,0.00 c-6.246,19.963-9.662,41.515-9.662,64.00C 139.00,234.912, 139.813,245.601, 141.353,256.00z" ></path></svg>