<?xml version="1.0" encoding="utf-8"?> <!-- Generator: IcoMoon.io --> <!DOCTYPE svg PUBLIC "-//W3C//DTD SVG 1.1//EN" "http://www.w3.org/Graphics/SVG/1.1/DTD/svg11.dtd"> <svg width="512" height="512" viewBox="0 0 512 512" xmlns="http://www.w3.org/2000/svg" xmlns:xlink="http://www.w3.org/1999/xlink" fill="#242424"><path d="M 320.00,128.00L 192.00,128.00 l0.00,384.00 l 128.00,0.00 L 320.00,128.00 L 320.00,128.00z M 224.00,164.00l0.00-4.00 l 64.00,0.00 l0.00,4.00 L 224.00,164.00 L 224.00,164.00z M 224.00,180.00l0.00-8.00 l 64.00,0.00 l0.00,8.00 L 224.00,180.00 L 224.00,180.00z M 224.00,196.00l0.00-8.00 l 64.00,0.00 l0.00,8.00 L 224.00,196.00 L 224.00,196.00z M 224.00,212.00l0.00-8.00 l 64.00,0.00 l0.00,8.00 L 224.00,212.00 L 224.00,212.00z M 224.00,228.00l0.00-8.00 l 64.00,0.00 l0.00,8.00 L 224.00,228.00 L 224.00,228.00z M 224.00,244.00l0.00-8.00 l 64.00,0.00 l0.00,8.00 L 224.00,244.00 L 224.00,244.00z M 224.00,260.00l0.00-8.00 l 64.00,0.00 l0.00,8.00 L 224.00,260.00 L 224.00,260.00z M 224.00,276.00l0.00-8.00 l 64.00,0.00 l0.00,8.00 L 224.00,276.00 L 224.00,276.00z M 224.00,292.00l0.00-8.00 l 64.00,0.00 l0.00,8.00 L 224.00,292.00 L 224.00,292.00z M 224.00,308.00l0.00-8.00 l 64.00,0.00 l0.00,8.00 L 224.00,308.00 L 224.00,308.00z M 224.00,324.00l0.00-8.00 l 64.00,0.00 l0.00,8.00 L 224.00,324.00 L 224.00,324.00z M 224.00,340.00l0.00-8.00 l 64.00,0.00 l0.00,8.00 L 224.00,340.00 L 224.00,340.00z M 224.00,356.00l0.00-8.00 l 64.00,0.00 l0.00,8.00 L 224.00,356.00 L 224.00,356.00z M 224.00,372.00l0.00-8.00 l 64.00,0.00 l0.00,8.00 L 224.00,372.00 L 224.00,372.00z M 224.00,388.00l0.00-8.00 l 64.00,0.00 l0.00,8.00 L 224.00,388.00 L 224.00,388.00z M 224.00,404.00l0.00-8.00 l 64.00,0.00 l0.00,8.00 L 224.00,404.00 L 224.00,404.00z M 224.00,420.00l0.00-8.00 l 64.00,0.00 l0.00,8.00 L 224.00,420.00 L 224.00,420.00z M 224.00,436.00l0.00-8.00 l 64.00,0.00 l0.00,8.00 L 224.00,436.00 L 224.00,436.00z M 224.00,452.00l0.00-8.00 l 64.00,0.00 l0.00,8.00 L 224.00,452.00 L 224.00,452.00z M 224.00,468.00l0.00-8.00 l 64.00,0.00 l0.00,8.00 L 224.00,468.00 L 224.00,468.00z M 224.00,480.00l0.00-4.00 l 64.00,0.00 l0.00,4.00 L 224.00,480.00 L 224.00,480.00zM0.00,288.00L 128.00,288.00L 128.00,512.00L0.00,512.00zM 384.00,0.00L 512.00,0.00L 512.00,512.00L 384.00,512.00z" ></path></svg>