<?xml version="1.0" encoding="utf-8"?> <!-- Generator: IcoMoon.io --> <!DOCTYPE svg PUBLIC "-//W3C//DTD SVG 1.1//EN" "http://www.w3.org/Graphics/SVG/1.1/DTD/svg11.dtd"> <svg width="512" height="512" viewBox="0 0 512 512" xmlns="http://www.w3.org/2000/svg" xmlns:xlink="http://www.w3.org/1999/xlink" fill="#242424"><path d="M 406.494,192.00L 317.573,76.235C 319.134,72.465, 320.00,68.334, 320.00,64.00c0.00-17.673-14.326-32.00-32.00-32.00c-17.673,0.00-32.00,14.327-32.00,32.00 s 14.327,32.00, 32.00,32.00c 1.421,0.00, 2.816-0.102, 4.188-0.282L 366.144,192.00L 145.857,192.00 l 73.956-96.282C 221.184,95.898, 222.58,96.00, 224.00,96.00 c 17.673,0.00, 32.00-14.327, 32.00-32.00s-14.327-32.00-32.00-32.00s-32.00,14.327-32.00,32.00c0.00,4.334, 0.866,8.465, 2.427,12.234L 105.506,192.00L0.00,192.00 l0.00,64.00 l 32.00,0.00 l 32.00,256.00l 384.00,0.00 l 32.00-256.00l 32.00,0.00 l0.00-64.00 L 406.494,192.00 z M 160.00,448.00L 96.00,448.00 l0.00-64.00 l 64.00,0.00 L 160.00,448.00 z M 160.00,320.00L 96.00,320.00 l0.00-64.00 l 64.00,0.00 L 160.00,320.00 z M 288.00,448.00l-64.00,0.00 l0.00-64.00 l 64.00,0.00 L 288.00,448.00 z M 288.00,320.00l-64.00,0.00 l0.00-64.00 l 64.00,0.00 L 288.00,320.00 z M 416.00,448.00l-64.00,0.00 l0.00-64.00 l 64.00,0.00 L 416.00,448.00 z M 416.00,320.00l-64.00,0.00 l0.00-64.00 l 64.00,0.00 L 416.00,320.00 z" ></path></svg>