<?xml version="1.0" encoding="utf-8"?> <!-- Generator: IcoMoon.io --> <!DOCTYPE svg PUBLIC "-//W3C//DTD SVG 1.1//EN" "http://www.w3.org/Graphics/SVG/1.1/DTD/svg11.dtd"> <svg width="512" height="512" viewBox="0 0 512 512" xmlns="http://www.w3.org/2000/svg" xmlns:xlink="http://www.w3.org/1999/xlink" fill="#242424"><path d="M 64.00,512.00l 383.459,0.00 c0.00,0.00, 32.541-64.00, 64.00-256.00L0.00,256.00 C 32.00,448.00, 64.00,512.00, 64.00,512.00z M 368.00,288.00l 48.00,0.00 l0.00,192.00 l-48.00,0.00 L 368.00,288.00 z M 277.333,288.00l 48.00,0.00 l0.00,192.00 l-48.00,0.00 L 277.333,288.00 z M 186.667,288.00l 48.00,0.00 l0.00,192.00 l-48.00,0.00 L 186.667,288.00 z M 96.00,288.00l 48.00,0.00 l0.00,192.00 L 96.00,480.00 L 96.00,288.00 zM 437.768,160.00L 347.90,47.666c 2.606-4.631, 4.10-9.973, 4.10-15.666c0.00-17.673-14.327-32.00-32.00-32.00c-17.674,0.00-32.00,14.327-32.00,32.00 s 14.326,32.00, 32.00,32.00c 3.185,0.00, 6.259-0.472, 9.162-1.338L 407.032,160.00L 104.968,160.00 l 77.871-97.338C 185.742,63.528, 188.815,64.00, 192.00,64.00 c 17.673,0.00, 32.00-14.327, 32.00-32.00S 209.673,0.00, 192.00,0.00s-32.00,14.327-32.00,32.00c0.00,5.693, 1.493,11.034, 4.10,15.666L 74.232,160.00L0.00,160.00 l0.00,64.00 l 512.00,0.00 l0.00-64.00 L 437.768,160.00 z" ></path></svg>