<?xml version="1.0" encoding="utf-8"?> <!-- Generator: IcoMoon.io --> <!DOCTYPE svg PUBLIC "-//W3C//DTD SVG 1.1//EN" "http://www.w3.org/Graphics/SVG/1.1/DTD/svg11.dtd"> <svg width="512" height="512" viewBox="0 0 512 512" xmlns="http://www.w3.org/2000/svg" xmlns:xlink="http://www.w3.org/1999/xlink" fill="#242424"><path d="M 480.00,160.00c-17.673,0.00-32.00,14.327-32.00,32.00l0.00,64.00 c0.00-26.51-21.49-48.00-48.00-48.00l-192.00,0.00 c-26.51,0.00-48.00,21.49-48.00,48.00l0.00,16.00 l 288.00,0.00 l0.00,16.00 L 112.00,288.00 c-26.51,0.00-48.00-21.49-48.00-48.00l0.00-16.00 L 64.00,96.00 c0.00-17.673-14.327-32.00-32.00-32.00S0.00,78.327,0.00,96.00l0.00,320.00 l 64.00,0.00 l0.00-64.00 l 384.00,0.00 l0.00,64.00 l 64.00,0.00 L 512.00,192.00 C 512.00,174.327, 497.673,160.00, 480.00,160.00zM 64.00,224.00A48.00,48.00 10800.00 1 1 160.00,224A48.00,48.00 10800.00 1 1 64.00,224z" ></path></svg>