<?xml version="1.0" encoding="utf-8"?> <!-- Generator: IcoMoon.io --> <!DOCTYPE svg PUBLIC "-//W3C//DTD SVG 1.1//EN" "http://www.w3.org/Graphics/SVG/1.1/DTD/svg11.dtd"> <svg width="512" height="512" viewBox="0 0 512 512" xmlns="http://www.w3.org/2000/svg" xmlns:xlink="http://www.w3.org/1999/xlink" fill="#242424"><path d="M0.00,448.00L 64.00,448.00L 64.00,512.00L 128.00,512.00L 128.00,448.00L 384.00,448.00L 384.00,512.00L 448.00,512.00L 448.00,448.00L 512.00,448.00L 512.00,416.00L0.00,416.00 zM 416.00,160.00L 256.00,160.00L 96.00,160.00L0.00,384.00L 512.00,384.00 zM 176.00,128.00c 44.183,0.00, 80.00,14.327, 80.00,32.00c0.00-17.673, 35.817-32.00, 80.00-32.00s 80.00,14.327, 80.00,32.00L 416.00,32.00 c0.00-17.673-14.326-32.00-32.00-32.00L 128.00,0.00 c-17.673,0.00-32.00,14.327-32.00,32.00l0.00,128.00 C 96.00,142.327, 131.818,128.00, 176.00,128.00z" ></path></svg>