<?xml version="1.0" encoding="utf-8"?> <!-- Generator: IcoMoon.io --> <!DOCTYPE svg PUBLIC "-//W3C//DTD SVG 1.1//EN" "http://www.w3.org/Graphics/SVG/1.1/DTD/svg11.dtd"> <svg width="512" height="512" viewBox="0 0 512 512" xmlns="http://www.w3.org/2000/svg" xmlns:xlink="http://www.w3.org/1999/xlink" fill="#242424"><path d="M 192.00,96.00l0.00,48.00 c 47.011,0.00, 91.209,18.307, 124.451,51.549S 368.00,272.988, 368.00,320.00l 48.00,0.00 C 416.00,196.289, 315.712,96.00, 192.00,96.00zM 192.00,0.00l0.00,48.00 c 36.741,0.00, 72.357,7.185, 105.859,21.355c 32.384,13.697, 61.478,33.316, 86.474,58.312 c 24.995,24.996, 44.614,54.09, 58.312,86.474C 456.815,247.643, 464.00,283.26, 464.00,320.00l 48.00,0.00 C 512.00,143.27, 368.73,0.00, 192.00,0.00zM 178.745,242.745L 44.18,377.311l 90.51,90.51l 134.565-134.565c 24.993-24.993, 24.994-65.516,0.00-90.51 C 244.261,217.751, 203.738,217.752, 178.745,242.745zM0.00,512.00L 106.806,493.675L 18.325,405.194 z" ></path></svg>