<?xml version="1.0" encoding="utf-8"?> <!-- Generator: IcoMoon.io --> <!DOCTYPE svg PUBLIC "-//W3C//DTD SVG 1.1//EN" "http://www.w3.org/Graphics/SVG/1.1/DTD/svg11.dtd"> <svg width="512" height="512" viewBox="0 0 512 512" xmlns="http://www.w3.org/2000/svg" xmlns:xlink="http://www.w3.org/1999/xlink" fill="#242424"><path d="M 320.771,238.502l0.00-4.307 c 58.147-10.768, 126.522-40.379, 126.522-116.83c0.00-38.76-18.309-71.062-47.919-89.908 C 368.689,7.538, 328.848,0.00, 267.473,0.00L 32.20,0.00 l0.00,27.995 c 56.53,5.383, 64.606,10.229, 64.606,77.528l0.00,300.417 c0.00,65.894-7.625,71.844-64.807,77.559L 31.999,512.00 l 200.479,0.00 c 67.297,0.00, 128.134-11.846, 168.513-33.919 c 46.303-24.224, 75.37-65.681, 75.37-117.369C 476.362,285.342, 414.987,248.732, 320.771,238.502z M 192.001,76.988 c0.00-16.151, 1.615-27.459, 7.00-33.379c 4.846-4.306, 18.846-10.229, 36.609-10.229c 44.15,0.00, 87.221,26.918, 87.221,98.522 c0.00,64.068-35.535,93.678-113.062,93.678l-17.769-0.001L 192.00,76.988 z M 252.304,478.082C 208.153,479.158, 192.00,462.467, 192.00,403.785l 0.001,0.00 L 192.001,257.883 l 15.613,0.00 c 93.144,0.00, 140.518,37.688, 140.518,111.446C 348.132,445.241, 296.99,477.543, 252.304,478.082z" ></path></svg>