<?xml version="1.0" encoding="utf-8"?> <!-- Generator: IcoMoon.io --> <!DOCTYPE svg PUBLIC "-//W3C//DTD SVG 1.1//EN" "http://www.w3.org/Graphics/SVG/1.1/DTD/svg11.dtd"> <svg width="512" height="512" viewBox="0 0 512 512" xmlns="http://www.w3.org/2000/svg" xmlns:xlink="http://www.w3.org/1999/xlink" fill="#242424"><path d="M 512.00,32.00 L 512.00,45.254 L 493.255,64.00 L 512.00,82.746 L 512.00,96.00 L 480.00,96.00 L 480.00,128.00 L 466.745,128.00 L 448.00,109.255 L 429.254,128.00 L 415.999,128.00 L 415.999,96.00 L 383.999,96.00 L 383.999,95.624 C 377.494,95.395 371.286,94.093 365.348,91.671 C 350.538,85.631 340.384,74.143 330.566,63.034 C 320.893,52.09 311.756,41.753 298.94,37.481 C 282.77,32.09 260.329,27.943 245.27,38.797 C 238.147,43.931 232.748,52.448 229.169,64.00 L 232.00,64.00 C 245.20,64.00 256.00,74.80 256.00,88.00 L 256.00,101.577 C 347.732,123.247 416.00,205.647 416.00,304.00 C 416.00,418.875 322.875,512.00 208.00,512.00 C 93.125,512.00 0.00,418.875 0.00,304.00 C 0.00,205.647 68.268,123.247 160.00,101.577 L 160.00,88.00 C 160.00,74.80 170.80,64.00 184.00,64.00 L 196.08,64.00 C 201.292,40.842 211.481,23.706 226.56,12.837 C 247.174-2.022 275.704-3.996 309.06,7.123 C 330.037,14.115 343.057,28.846 354.543,41.842 C 369.721,59.016 378.284,68.705 399.795,61.05 L 384.00,45.254 L 384.00,32.00 L 416.00,32.00 L 416.00,0.00 L 429.255,0.00 L 448.00,18.745 L 466.745,0.00 L 480.00,0.00 L 480.00,32.00 L 512.00,32.00 Z" ></path></svg>