<?xml version="1.0" encoding="utf-8"?> <!-- Generator: IcoMoon.io --> <!DOCTYPE svg PUBLIC "-//W3C//DTD SVG 1.1//EN" "http://www.w3.org/Graphics/SVG/1.1/DTD/svg11.dtd"> <svg width="512" height="512" viewBox="0 0 512 512" xmlns="http://www.w3.org/2000/svg" xmlns:xlink="http://www.w3.org/1999/xlink" fill="#242424"><path d="M 384.00,64.00c-49.179,0.00-94.03,18.498-128.00,48.905C 222.031,82.498, 177.179,64.00, 128.00,64.00S 33.969,82.498,0.00,112.904l0.00,8.596 l0.00,38.49 l0.00,192.004 L0.00,392.50 l0.00,6.576 c 0.342,0.306, 0.676,0.62, 1.02,0.924c 8.209,7.244, 17.04,13.798, 26.406,19.569c 9.43-7.631, 19.739-14.216, 30.761-19.569 c 21.098-10.248, 44.783-16.00, 69.813-16.00s 48.716,5.752, 69.813,16.00c 11.021,5.354, 21.331,11.938, 30.761,19.569 c 1.842,1.491, 3.65,3.022, 5.424,4.592c 8.108,7.178, 15.488,15.159, 22.002,23.83c 6.515-8.671, 13.894-16.652, 22.002-23.83 c 1.773-1.569, 3.581-3.101, 5.424-4.592c 9.43-7.631, 19.739-14.216, 30.761-19.569c 21.098-10.248, 44.783-16.00, 69.813-16.00 s 48.716,5.752, 69.813,16.00c 11.021,5.354, 21.331,11.938, 30.761,19.569c 9.366-5.771, 18.196-12.325, 26.405-19.569 c 0.344-0.304, 0.679-0.618, 1.021-0.924L 512.00,392.50 l0.00-40.506 L 512.00,159.99 L 512.00,121.50 l0.00-8.596 C 478.031,82.498, 433.179,64.00, 384.00,64.00z M 128.00,352.00 c-34.976,0.00-67.758,9.365-96.00,25.705L 32.00,127.993 C 58.741,107.905, 91.98,96.00, 128.00,96.00c 36.025,0.00, 69.258,11.919, 96.00,32.013l0.00,249.692 C 195.758,361.365, 162.976,352.00, 128.00,352.00z M 384.00,352.00c-34.976,0.00-67.758,9.365-96.00,25.705L 288.00,128.013 C 314.742,107.919, 347.976,96.00, 384.00,96.00 c 36.021,0.00, 69.259,11.906, 96.00,31.994l0.00,249.712 C 451.758,361.365, 418.976,352.00, 384.00,352.00z" ></path></svg>