<?xml version="1.0" encoding="utf-8"?> <!-- Generator: IcoMoon.io --> <!DOCTYPE svg PUBLIC "-//W3C//DTD SVG 1.1//EN" "http://www.w3.org/Graphics/SVG/1.1/DTD/svg11.dtd"> <svg width="512" height="512" viewBox="0 0 512 512" xmlns="http://www.w3.org/2000/svg" xmlns:xlink="http://www.w3.org/1999/xlink" fill="#242424"><path d="M 288.00,160.00L 288.00,32.00 l 8.00,0.00 c 4.40,0.00, 8.00-3.60, 8.00-8.00L 304.00,8.00 c0.00-4.40-3.60-8.00-8.00-8.00l-80.00,0.00 c-4.40,0.00-8.00,3.60-8.00,8.00l0.00,16.00 c0.00,4.40, 3.60,8.00, 8.00,8.00l 8.00,0.00 l0.00,128.00 c0.00,50.832-64.00,64.00-64.00,112.269 L 160.00,496.00 c0.00,8.837, 7.164,16.00, 16.00,16.00l 160.00,0.00 c 8.836,0.00, 16.00-7.163, 16.00-16.00L 352.00,272.269 C 352.00,224.00, 288.00,210.832, 288.00,160.00z M 320.00,471.849 c-16.984,5.068-39.411,8.151-64.00,8.151c-24.589,0.00-47.015-3.083-64.00-8.151l0.00-160.00 c 16.985,5.068, 39.411,8.151, 64.00,8.151 c 24.589,0.00, 47.016-3.083, 64.00-8.151L 320.00,471.849 z" ></path></svg>