<?xml version="1.0" encoding="utf-8"?> <!-- Generator: IcoMoon.io --> <!DOCTYPE svg PUBLIC "-//W3C//DTD SVG 1.1//EN" "http://www.w3.org/Graphics/SVG/1.1/DTD/svg11.dtd"> <svg width="512" height="512" viewBox="0 0 512 512" xmlns="http://www.w3.org/2000/svg" xmlns:xlink="http://www.w3.org/1999/xlink" fill="#242424"><path d="M 464.00,160.00L 352.00,160.00 L 352.00,96.00 c0.00-17.60-14.40-32.00-32.00-32.00L 192.00,64.00 c-17.602,0.00-32.00,14.40-32.00,32.00l0.00,64.00 L 48.00,160.00 c-26.40,0.00-48.00,21.60-48.00,48.00l0.00,224.00 c0.00,26.40, 21.60,48.00, 48.00,48.00 l 416.00,0.00 c 26.398,0.00, 48.00-21.60, 48.00-48.00L 512.00,208.00 C 512.00,181.60, 490.401,160.00, 464.00,160.00z M 192.00,96.057c 0.016-0.02, 0.037-0.041, 0.058-0.057l 127.887,0.00 c 0.021,0.018, 0.04,0.038, 0.058,0.057L 320.003,160.00 L 192.00,160.00 L 192.00,96.057 z" ></path></svg>