<?xml version="1.0" encoding="utf-8"?> <!-- Generator: IcoMoon.io --> <!DOCTYPE svg PUBLIC "-//W3C//DTD SVG 1.1//EN" "http://www.w3.org/Graphics/SVG/1.1/DTD/svg11.dtd"> <svg width="512" height="512" viewBox="0 0 512 512" xmlns="http://www.w3.org/2000/svg" xmlns:xlink="http://www.w3.org/1999/xlink" fill="#242424"><path d="M 109.255,320.00L 224.00,320.00 l0.00-32.00 l 64.00,0.00 l0.00,32.00 l 114.745,0.00 L 512.00,210.745L 512.00,160.00 c0.00-17.60-14.40-32.00-32.00-32.00l-96.00,0.00 l-64.00-64.00L 192.00,64.00 l-64.00,64.00L 32.00,128.00 c-17.60,0.00-32.00,14.40-32.00,32.00 l0.00,50.745 L 109.255,320.00z M 205.255,96.00l 101.49,0.00 l 32.00,32.00l-165.49,0.00 L 205.255,96.00z M 416.00,352.00L 288.00,352.00 l0.00,32.00 l-64.00,0.00 l0.00-32.00 L 96.00,352.00 L0.00,256.00l0.00,192.00 c0.00,17.60, 14.40,32.00, 32.00,32.00l 448.00,0.00 c 17.60,0.00, 32.00-14.40, 32.00-32.00L 512.00,256.00 L 416.00,352.00z" ></path></svg>