<?xml version="1.0" encoding="utf-8"?> <!-- Generator: IcoMoon.io --> <!DOCTYPE svg PUBLIC "-//W3C//DTD SVG 1.1//EN" "http://www.w3.org/Graphics/SVG/1.1/DTD/svg11.dtd"> <svg width="512" height="512" viewBox="0 0 512 512" xmlns="http://www.w3.org/2000/svg" xmlns:xlink="http://www.w3.org/1999/xlink" fill="#242424"><path d="M 224.00,96.00A32.00,32.00 2520.00 1 1 288.00,96A32.00,32.00 2520.00 1 1 224.00,96zM 96.00,128.00A32.00,32.00 2520.00 1 1 160.00,128A32.00,32.00 2520.00 1 1 96.00,128zM 224.00,416.00A32.00,32.00 2520.00 1 1 288.00,416A32.00,32.00 2520.00 1 1 224.00,416zM 352.00,384.00A32.00,32.00 2520.00 1 1 416.00,384A32.00,32.00 2520.00 1 1 352.00,384zM 64.00,256.00A32.00,32.00 2520.00 1 1 128.00,256A32.00,32.00 2520.00 1 1 64.00,256zM 384.00,256.00A32.00,32.00 2520.00 1 1 448.00,256A32.00,32.00 2520.00 1 1 384.00,256zM 352.00,128.00A32.00,32.00 2520.00 1 1 416.00,128A32.00,32.00 2520.00 1 1 352.00,128zM 96.00,384.00A32.00,32.00 2520.00 1 1 160.00,384A32.00,32.00 2520.00 1 1 96.00,384zM 256.00,160.00c-53.02,0.00-96.00,42.98-96.00,96.00s 42.98,96.00, 96.00,96.00s 96.00-42.98, 96.00-96.00S 309.02,160.00, 256.00,160.00z M 256.00,301.00c-24.813,0.00-45.00-20.187-45.00-45.00 c0.00-24.813, 20.187-45.00, 45.00-45.00c 24.813,0.00, 45.00,20.187, 45.00,45.00C 301.00,280.813, 280.813,301.00, 256.00,301.00z" ></path></svg>