<?xml version="1.0" encoding="utf-8"?> <!-- Generator: IcoMoon.io --> <!DOCTYPE svg PUBLIC "-//W3C//DTD SVG 1.1//EN" "http://www.w3.org/Graphics/SVG/1.1/DTD/svg11.dtd"> <svg width="512" height="512" viewBox="0 0 512 512" xmlns="http://www.w3.org/2000/svg" xmlns:xlink="http://www.w3.org/1999/xlink" fill="#242424"><path d="M 256.00,211.00 C 231.187,211.00 211.00,231.187 211.00,256.00 C 211.00,280.813 231.187,301.00 256.00,301.00 C 280.813,301.00 301.00,280.813 301.00,256.00 C 301.00,231.187 280.813,211.00 256.00,211.00 Z M 256.00,160.00 L 256.00,160.00 C 309.02,160.00 352.00,202.98 352.00,256.00 C 352.00,309.02 309.02,352.00 256.00,352.00 C 202.98,352.00 160.00,309.02 160.00,256.00 C 160.00,202.98 202.98,160.00 256.00,160.00 ZM 470.627,425.373 C 483.125,437.87 483.124,458.131 470.627,470.627 C 458.13,483.125 437.87,483.125 425.373,470.627 L 361.373,406.627 C 348.875,394.13 348.875,373.87 361.373,361.373 C 373.869,348.876 394.13,348.875 406.627,361.373 L 470.627,425.373 ZM 150.627,105.373 C 163.125,117.87 163.124,138.131 150.627,150.627 C 138.13,163.125 117.87,163.125 105.373,150.627 L 41.373,86.627 C 28.875,74.13 28.875,53.87 41.373,41.373 C 53.869,28.876 74.13,28.875 86.627,41.373 L 150.627,105.373 ZM 425.372,41.373 C 437.869,28.875 458.13,28.876 470.626,41.373 C 483.124,53.87 483.124,74.13 470.627,86.627 L 406.627,150.627 C 394.129,163.125 373.869,163.125 361.373,150.627 C 348.875,138.131 348.875,117.87 361.373,105.373 L 425.372,41.373 ZM 105.373,361.373 C 117.87,348.875 138.13,348.876 150.627,361.373 C 163.125,373.87 163.125,394.13 150.627,406.627 L 86.627,470.627 C 74.13,483.125 53.87,483.125 41.373,470.627 C 28.876,458.131 28.875,437.87 41.373,425.373 L 105.373,361.373 ZM 256.00,0.00 C 273.673,0.00 288.00,14.327 288.00,32.00 L 288.00,96.00 C 288.00,113.673 273.673,128.00 256.00,128.00 C 238.327,128.00 224.00,113.673 224.00,96.00 L 224.00,32.00 C 224.00,14.327 238.327,0.00 256.00,0.00 ZM 256.00,384.00 C 273.673,384.00 288.00,398.326 288.00,416.00 L 288.00,480.00 C 288.00,497.674 273.673,512.00 256.00,512.00 C 238.327,512.00 224.00,497.674 224.00,480.00 L 224.00,416.00 C 224.00,398.326 238.327,384.00 256.00,384.00 ZM 0.00,256.00 C 0.00,238.327 14.327,224.00 32.00,224.00 L 96.00,224.00 C 113.673,224.00 128.00,238.327 128.00,256.00 C 128.00,273.674 113.673,288.00 96.00,288.00 L 32.00,288.00 C 14.327,288.00 0.00,273.674 0.00,256.00 ZM 384.00,256.00 C 384.00,238.327 398.326,224.00 416.00,224.00 L 480.00,224.00 C 497.674,224.00 512.00,238.327 512.00,256.00 C 512.00,273.673 497.674,288.00 480.00,288.00 L 416.00,288.00 C 398.326,288.00 384.00,273.673 384.00,256.00 Z" ></path></svg>