<?xml version="1.0" encoding="utf-8"?> <!-- Generator: IcoMoon.io --> <!DOCTYPE svg PUBLIC "-//W3C//DTD SVG 1.1//EN" "http://www.w3.org/Graphics/SVG/1.1/DTD/svg11.dtd"> <svg width="512" height="512" viewBox="0 0 512 512" xmlns="http://www.w3.org/2000/svg" xmlns:xlink="http://www.w3.org/1999/xlink" fill="#242424"><path d="M 464.00,0.00L 48.00,0.00 C 21.60,0.00,0.00,21.60,0.00,48.00l0.00,288.00 c0.00,26.40, 21.60,48.00, 48.00,48.00l 80.00,0.00 l0.00,128.00 l 153.60-128.00L 464.00,384.00 c 26.40,0.00, 48.00-21.60, 48.00-48.00L 512.00,48.00 C 512.00,21.60, 490.40,0.00, 464.00,0.00z M 448.00,160.00c0.00,35.20-28.80,64.00-64.00,64.00L 160.00,224.00 c-17.60,0.00-32.00-14.40-32.00-32.00l0.00-32.00 c0.00-17.60, 14.40-32.00, 32.00-32.00l 176.00,0.00 c 8.837,0.00, 16.00,7.164, 16.00,16.00s-7.163,16.00-16.00,16.00L 160.057,160.00 c-0.02,0.017-0.041,0.038-0.057,0.057l0.00,31.886 c 0.017,0.02, 0.038,0.041, 0.057,0.057 L 384.00,192.00 c 8.477,0.00, 16.493-3.348, 22.572-9.428C 412.652,176.493, 416.00,168.477, 416.00,160.00l0.00-32.00 c0.00-8.477-3.348-16.493-9.428-22.573 C 400.493,99.348, 392.477,96.00, 384.00,96.00L 128.00,96.00 c-8.477,0.00-16.493,3.348-22.573,9.427C 99.348,111.507, 96.00,119.523, 96.00,128.00l0.00,96.00 c0.00,8.477, 3.348,16.493, 9.427,22.572c 6.08,6.08, 14.096,9.428, 22.573,9.428l 208.00,0.00 c 8.837,0.00, 16.00,7.164, 16.00,16.00s-7.163,16.00-16.00,16.00L 128.00,288.00 c-35.20,0.00-64.00-28.80-64.00-64.00l0.00-96.00 c0.00-35.20, 28.80-64.00, 64.00-64.00l 256.00,0.00 c 35.20,0.00, 64.00,28.80, 64.00,64.00L 448.00,160.00 z" ></path></svg>