<?xml version="1.0" encoding="utf-8"?> <!-- Generator: IcoMoon.io --> <!DOCTYPE svg PUBLIC "-//W3C//DTD SVG 1.1//EN" "http://www.w3.org/Graphics/SVG/1.1/DTD/svg11.dtd"> <svg width="512" height="512" viewBox="0 0 512 512" xmlns="http://www.w3.org/2000/svg" xmlns:xlink="http://www.w3.org/1999/xlink" fill="#242424"><path d="M 464.00,0.00L 48.00,0.00 C 21.60,0.00,0.00,21.60,0.00,48.00l0.00,288.00 c0.00,26.40, 21.60,48.00, 48.00,48.00l 80.00,0.00 l0.00,128.00 l 153.60-128.00L 464.00,384.00 c 26.40,0.00, 48.00-21.60, 48.00-48.00L 512.00,48.00 C 512.00,21.60, 490.40,0.00, 464.00,0.00z M 416.00,256.00c0.00,17.60-11.52,23.36-25.60,12.80L 320.00,192.00l0.00,64.00 c0.00,17.60-14.40,32.00-32.00,32.00L 128.00,288.00 c-17.60,0.00-32.00-14.40-32.00-32.00L 96.00,128.00 c0.00-17.60, 14.40-32.00, 32.00-32.00l 160.00,0.00 c 17.60,0.00, 32.00,14.40, 32.00,32.00l0.00,64.00 l 70.40-76.80c 14.08-10.56, 25.60-4.80, 25.60,12.80L 416.00,256.00 z" ></path></svg>