<?xml version="1.0" encoding="utf-8"?> <!-- Generator: IcoMoon.io --> <!DOCTYPE svg PUBLIC "-//W3C//DTD SVG 1.1//EN" "http://www.w3.org/Graphics/SVG/1.1/DTD/svg11.dtd"> <svg width="512" height="512" viewBox="0 0 512 512" xmlns="http://www.w3.org/2000/svg" xmlns:xlink="http://www.w3.org/1999/xlink" fill="#242424"><path d="M 256.00,0.00C 114.615,0.00,0.00,93.125,0.00,208.00c0.00,65.275, 37.02,123.52, 94.918,161.652C 95.621,374.335, 96.00,379.123, 96.00,384.00 c0.00,34.948-29.732,65.529-64.00,82.318l0.00,13.458 c 63.463-1.448, 129.099-11.31, 184.088-66.299C 229.095,415.133, 242.422,416.00, 256.00,416.00 c 141.385,0.00, 256.00-93.124, 256.00-208.00C 512.00,93.125, 397.385,0.00, 256.00,0.00z M 288.00,320.00l-64.00,0.00 l0.00-64.00 l 64.00,0.00 L 288.00,320.00 z M 288.00,192.00l-64.00,0.00 L 224.00,64.00 l 64.00,0.00 L 288.00,192.00 z" ></path></svg>