<?xml version="1.0" encoding="utf-8"?> <!-- Generator: IcoMoon.io --> <!DOCTYPE svg PUBLIC "-//W3C//DTD SVG 1.1//EN" "http://www.w3.org/Graphics/SVG/1.1/DTD/svg11.dtd"> <svg width="512" height="512" viewBox="0 0 512 512" xmlns="http://www.w3.org/2000/svg" xmlns:xlink="http://www.w3.org/1999/xlink" fill="#242424"><path d="M 464.00,0.00L 48.00,0.00 C 21.60,0.00,0.00,21.60,0.00,48.00l0.00,288.00 c0.00,26.40, 21.60,48.00, 48.00,48.00l 80.00,0.00 l0.00,128.00 l 153.60-128.00L 464.00,384.00 c 26.40,0.00, 48.00-21.60, 48.00-48.00L 512.00,48.00 C 512.00,21.60, 490.40,0.00, 464.00,0.00z M 256.00,288.00c0.00,0.00-128.00-61.125-128.00-132.00c0.00-0.985, 0.028-1.938, 0.077-2.868c 0.006-0.106, 0.008-0.213, 0.014-0.318 c 0.04-0.672, 0.095-1.326, 0.16-1.969C 131.042,120.123, 158.508,96.00, 192.00,96.00c 35.346,0.00, 64.00,38.863, 64.00,72.00c0.00-33.137, 28.654-72.00, 64.00-72.00 c 33.491,0.00, 60.957,24.122, 63.749,54.843c 0.064,0.645, 0.12,1.298, 0.159,1.971c 0.007,0.105, 0.009,0.212, 0.015,0.317 c 0.048,0.931, 0.077,1.884, 0.077,2.869C 384.00,226.875, 256.00,288.00, 256.00,288.00z" ></path></svg>