<?xml version="1.0" encoding="utf-8"?>
<!-- Generator: IcoMoon.io -->
<!DOCTYPE svg PUBLIC "-//W3C//DTD SVG 1.1//EN" "http://www.w3.org/Graphics/SVG/1.1/DTD/svg11.dtd">
<svg xmlns="http://www.w3.org/2000/svg" xmlns:xlink="http://www.w3.org/1999/xlink" width="512" height="512" viewBox="0 0 512 512" fill="#666"><path d="M 464.00,0.00L 48.00,0.00 C 21.60,0.00,0.00,21.60,0.00,48.00l0.00,288.00 c0.00,26.40, 21.60,48.00, 48.00,48.00l 80.00,0.00 l0.00,128.00 l 153.60-128.00L 464.00,384.00 c 26.40,0.00, 48.00-21.60, 48.00-48.00L 512.00,48.00 C 512.00,21.60, 490.40,0.00, 464.00,0.00z M 256.00,64.165c 35.255,0.00, 63.835,28.58, 63.835,63.835s-28.58,63.835-63.835,63.835 s-63.835-28.58-63.835-63.835S 220.745,64.165, 256.00,64.165z M 352.00,320.00L 160.00,320.00 l0.00-32.00 c0.00-35.348, 28.654-64.00, 64.00-64.00l0.00,0.00l 64.00,0.00 c 35.348,0.00, 64.00,28.652, 64.00,64.00L 352.00,320.00 z"/></svg>
