<?xml version="1.0" encoding="utf-8"?> <!-- Generator: IcoMoon.io --> <!DOCTYPE svg PUBLIC "-//W3C//DTD SVG 1.1//EN" "http://www.w3.org/Graphics/SVG/1.1/DTD/svg11.dtd"> <svg width="576" height="512" viewBox="0 0 576 512" xmlns="http://www.w3.org/2000/svg" xmlns:xlink="http://www.w3.org/1999/xlink" fill="#242424"><path d="M 384.00,0.00 C 419.20,0.00 448.00,28.80 448.00,64.00 L 448.00,224.00 C 448.00,259.20 419.20,288.00 384.00,288.00 L 96.00,288.00 L 0.00,384.00 L 0.00,64.00 C 0.00,28.80 28.80,0.00 64.00,0.00 L 384.00,0.00 ZM 512.00,96.00 C 547.20,96.00 576.00,124.80 576.00,160.00 L 576.00,512.00 L 480.00,416.00 L 192.00,416.00 C 156.80,416.00 128.00,387.20 128.00,352.00 L 128.00,320.00 L 192.00,320.00 L 192.00,351.886 C 192.033,351.925 192.074,351.967 192.114,352.00 L 512.00,352.00 L 512.00,160.115 C 511.967,160.075 511.925,160.033 511.886,160.00 L 480.00,160.00 L 480.00,96.00 L 512.00,96.00 Z" ></path></svg>