<?xml version="1.0" encoding="utf-8"?> <!-- Generator: IcoMoon.io --> <!DOCTYPE svg PUBLIC "-//W3C//DTD SVG 1.1//EN" "http://www.w3.org/Graphics/SVG/1.1/DTD/svg11.dtd"> <svg width="512" height="512" viewBox="0 0 512 512" xmlns="http://www.w3.org/2000/svg" xmlns:xlink="http://www.w3.org/1999/xlink" fill="#242424"><path d="M 464.00,0.00L 48.00,0.00 C 21.60,0.00,0.00,21.60,0.00,48.00l0.00,288.00 c0.00,26.40, 21.60,48.00, 48.00,48.00l 80.00,0.00 l0.00,128.00 l 153.60-128.00L 464.00,384.00 c 26.40,0.00, 48.00-21.60, 48.00-48.00L 512.00,48.00 C 512.00,21.60, 490.40,0.00, 464.00,0.00z M 224.00,224.00l0.00,96.00 l-108.003-96.003C 96.00,206.221, 96.00,196.50, 96.00,192.00s0.00-14.221, 19.997-31.997L 224.00,64.00l0.00,92.552 c 48.885,9.903, 96.629-1.336, 127.573-34.937c 14.393-15.628, 23.655-34.485, 28.062-55.002c 2.77,9.436, 4.24,19.273, 4.24,29.386 C 383.875,166.692, 312.297,224.00, 224.00,224.00z" ></path></svg>