<?xml version="1.0" encoding="utf-8"?> <!-- Generator: IcoMoon.io --> <!DOCTYPE svg PUBLIC "-//W3C//DTD SVG 1.1//EN" "http://www.w3.org/Graphics/SVG/1.1/DTD/svg11.dtd"> <svg width="512" height="512" viewBox="0 0 512 512" xmlns="http://www.w3.org/2000/svg" xmlns:xlink="http://www.w3.org/1999/xlink" fill="#242424"><path d="M 418.00,32.00L 94.00,32.00 C 42.30,32.00,0.00,74.30,0.00,126.00l0.00,354.00 l 96.00-96.00l 124.75,0.00 L 418.00,384.00 c 51.70,0.00, 94.00-42.30, 94.00-94.00L 512.00,126.00 C 512.00,74.30, 469.70,32.00, 418.00,32.00z M 160.00,256.00 c-17.673,0.00-32.00-14.327-32.00-32.00s 14.327-32.00, 32.00-32.00s 32.00,14.327, 32.00,32.00S 177.673,256.00, 160.00,256.00z M 256.00,256.00c-17.673,0.00-32.00-14.327-32.00-32.00 s 14.327-32.00, 32.00-32.00s 32.00,14.327, 32.00,32.00S 273.673,256.00, 256.00,256.00z M 352.00,256.00c-17.673,0.00-32.00-14.327-32.00-32.00s 14.327-32.00, 32.00-32.00s 32.00,14.327, 32.00,32.00 S 369.673,256.00, 352.00,256.00z" ></path></svg>