<?xml version="1.0" encoding="utf-8"?> <!-- Generator: IcoMoon.io --> <!DOCTYPE svg PUBLIC "-//W3C//DTD SVG 1.1//EN" "http://www.w3.org/Graphics/SVG/1.1/DTD/svg11.dtd"> <svg width="512" height="512" viewBox="0 0 512 512" xmlns="http://www.w3.org/2000/svg" xmlns:xlink="http://www.w3.org/1999/xlink" fill="#242424"><path d="M 464.00,0.00L 48.00,0.00 C 21.60,0.00,0.00,21.60,0.00,48.00l0.00,288.00 c0.00,26.40, 21.60,48.00, 48.00,48.00l 80.00,0.00 l0.00,128.00 l 153.60-128.00L 464.00,384.00 c 26.40,0.00, 48.00-21.60, 48.00-48.00L 512.00,48.00 C 512.00,21.60, 490.40,0.00, 464.00,0.00z M 352.00,137.012L 297.012,192.00L 352.00,246.988L 352.00,288.00 l-41.012,0.00 L 256.00,233.012L 201.012,288.00L 160.00,288.00 l0.00-41.012 L 214.988,192.00 L 160.00,137.012L 160.00,96.00 l 41.012,0.00 L 256.00,150.988L 310.988,96.00L 352.00,96.00 L 352.00,137.012 z" ></path></svg>