<?xml version="1.0" encoding="utf-8"?> <!-- Generator: IcoMoon.io --> <!DOCTYPE svg PUBLIC "-//W3C//DTD SVG 1.1//EN" "http://www.w3.org/Graphics/SVG/1.1/DTD/svg11.dtd"> <svg width="512" height="512" viewBox="0 0 512 512" xmlns="http://www.w3.org/2000/svg" xmlns:xlink="http://www.w3.org/1999/xlink" fill="#242424"><path d="M 464.00,0.00L 48.00,0.00 C 21.60,0.00,0.00,21.60,0.00,48.00l0.00,288.00 c0.00,26.40, 21.60,48.00, 48.00,48.00l 80.00,0.00 l0.00,128.00 l 153.60-128.00L 464.00,384.00 c 26.40,0.00, 48.00-21.60, 48.00-48.00L 512.00,48.00 C 512.00,21.60, 490.40,0.00, 464.00,0.00z M 363.878,223.997L 255.875,320.00l0.00-96.00 C 167.578,224.00, 96.00,166.692, 96.00,96.00c0.00-10.113, 1.471-19.95, 4.24-29.387 c 4.406,20.518, 13.669,39.375, 28.062,55.002c 30.944,33.601, 78.688,44.84, 127.573,34.937L 255.875,64.00 l 108.003,96.003 c 19.997,17.776, 19.997,27.497, 19.997,31.997S 383.875,206.221, 363.878,223.997z" ></path></svg>