<?xml version="1.0" encoding="utf-8"?> <!-- Generator: IcoMoon.io --> <!DOCTYPE svg PUBLIC "-//W3C//DTD SVG 1.1//EN" "http://www.w3.org/Graphics/SVG/1.1/DTD/svg11.dtd"> <svg width="512" height="512" viewBox="0 0 512 512" xmlns="http://www.w3.org/2000/svg" xmlns:xlink="http://www.w3.org/1999/xlink" fill="#242424"><path d="M 418.00,32.00L 94.00,32.00 C 42.30,32.00,0.00,74.30,0.00,126.00l0.00,354.00 l 96.00-96.00l 124.75,0.00 L 418.00,384.00 c 51.70,0.00, 94.00-42.30, 94.00-94.00L 512.00,126.00 C 512.00,74.30, 469.70,32.00, 418.00,32.00z M 448.00,290.00 c0.00,16.262-13.738,30.00-30.00,30.00L 64.00,320.00 L 64.00,126.00 c0.00-16.262, 13.738-30.00, 30.00-30.00l 324.00,0.00 c 16.262,0.00, 30.00,13.738, 30.00,30.00L 448.00,290.00 zM 128.00,160.00L 384.00,160.00L 384.00,192.00L 128.00,192.00zM 128.00,224.00L 320.00,224.00L 320.00,256.00L 128.00,256.00z" ></path></svg>