<?xml version="1.0" encoding="utf-8"?> <!-- Generator: IcoMoon.io --> <!DOCTYPE svg PUBLIC "-//W3C//DTD SVG 1.1//EN" "http://www.w3.org/Graphics/SVG/1.1/DTD/svg11.dtd"> <svg width="512" height="512" viewBox="0 0 512 512" xmlns="http://www.w3.org/2000/svg" xmlns:xlink="http://www.w3.org/1999/xlink" fill="#242424"><path d="M 256.00,95.50 C 291.565,95.50 320.50,124.435 320.50,160.00 L 191.50,160.00 C 191.50,124.435 220.435,95.50 256.00,95.50 ZM 464.00,0.00L 48.00,0.00 C 21.60,0.00,0.00,21.60,0.00,48.00l0.00,288.00 c0.00,26.40, 21.60,48.00, 48.00,48.00l 80.00,0.00 l0.00,128.00 l 153.60-128.00L 464.00,384.00 c 26.40,0.00, 48.00-21.60, 48.00-48.00L 512.00,48.00 C 512.00,21.60, 490.40,0.00, 464.00,0.00z M 384.00,304.00c0.00,8.80-7.20,16.00-16.00,16.00L 144.00,320.00 c-8.80,0.00-16.00-7.20-16.00-16.00L 128.00,176.00 c0.00-8.80, 7.20-16.00, 16.00-16.00l 15.50,0.00 c0.00-53.295, 43.205-96.50, 96.50-96.50c 53.296,0.00, 96.50,43.205, 96.50,96.50L 368.00,160.00 c 8.80,0.00, 16.00,7.20, 16.00,16.00L 384.00,304.00 zM 224.00,256.00A32.00,32.00 2520.00 1 1 288.00,256A32.00,32.00 2520.00 1 1 224.00,256z" ></path></svg>