<?xml version="1.0" encoding="utf-8"?> <!-- Generator: IcoMoon.io --> <!DOCTYPE svg PUBLIC "-//W3C//DTD SVG 1.1//EN" "http://www.w3.org/Graphics/SVG/1.1/DTD/svg11.dtd"> <svg width="512" height="512" viewBox="0 0 512 512" xmlns="http://www.w3.org/2000/svg" xmlns:xlink="http://www.w3.org/1999/xlink" fill="#242424"><path d="M 464.00,0.00L 48.00,0.00 C 21.60,0.00,0.00,21.60,0.00,48.00l0.00,288.00 c0.00,26.40, 21.60,48.00, 48.00,48.00l 80.00,0.00 l0.00,128.00 l 153.60-128.00L 464.00,384.00 c 26.40,0.00, 48.00-21.60, 48.00-48.00L 512.00,48.00 C 512.00,21.60, 490.40,0.00, 464.00,0.00z M 224.00,135.385c-29.821,6.85-55.189,28.007-70.488,56.941C 155.646,192.111, 157.81,192.00, 160.00,192.00 c 35.346,0.00, 64.00,28.654, 64.00,64.00c0.00,35.346-28.654,64.00-64.00,64.00s-64.00-28.654-64.00-64.00c0.00-43.612, 15.198-84.729, 42.795-115.775 C 162.042,114.073, 191.74,97.612, 224.00,92.621L 224.00,135.385 z M 416.00,135.385c-29.82,6.85-55.189,28.007-70.488,56.941 C 347.646,192.111, 349.81,192.00, 352.00,192.00c 35.346,0.00, 64.00,28.654, 64.00,64.00c0.00,35.346-28.654,64.00-64.00,64.00s-64.00-28.654-64.00-64.00 c0.00-43.612, 15.198-84.729, 42.795-115.775C 354.041,114.073, 383.74,97.612, 416.00,92.621L 416.00,135.385 z" ></path></svg>