<?xml version="1.0" encoding="utf-8"?> <!-- Generator: IcoMoon.io --> <!DOCTYPE svg PUBLIC "-//W3C//DTD SVG 1.1//EN" "http://www.w3.org/Graphics/SVG/1.1/DTD/svg11.dtd"> <svg width="512" height="512" viewBox="0 0 512 512" xmlns="http://www.w3.org/2000/svg" xmlns:xlink="http://www.w3.org/1999/xlink" fill="#242424"><path d="M 256.00,102.00 C 273.952,102.00 290.692,107.287 304.75,116.38 L 180.38,240.75 C 171.287,226.692 166.00,209.953 166.00,192.00 C 166.00,142.374 206.374,102.00 256.00,102.00 ZM 207.25,267.619 L 331.619,143.25 C 340.714,157.308 346.00,174.047 346.00,192.00 C 346.00,241.626 305.626,282.00 256.00,282.00 C 238.047,282.00 221.308,276.714 207.25,267.619 ZM 464.00,0.00L 48.00,0.00 C 21.60,0.00,0.00,21.60,0.00,48.00l0.00,288.00 c0.00,26.40, 21.60,48.00, 48.00,48.00l 80.00,0.00 l0.00,128.00 l 153.60-128.00L 464.00,384.00 c 26.40,0.00, 48.00-21.60, 48.00-48.00L 512.00,48.00 C 512.00,21.60, 490.40,0.00, 464.00,0.00z M 256.00,320.00c-70.692,0.00-128.00-57.308-128.00-128.00S 185.308,64.00, 256.00,64.00s 128.00,57.308, 128.00,128.00S 326.692,320.00, 256.00,320.00z" ></path></svg>