<?xml version="1.0" encoding="utf-8"?> <!-- Generator: IcoMoon.io --> <!DOCTYPE svg PUBLIC "-//W3C//DTD SVG 1.1//EN" "http://www.w3.org/Graphics/SVG/1.1/DTD/svg11.dtd"> <svg width="512" height="512" viewBox="0 0 512 512" xmlns="http://www.w3.org/2000/svg" xmlns:xlink="http://www.w3.org/1999/xlink" fill="#242424"><path d="M 464.00,96.00L 144.00,96.00 c-26.40,0.00-48.00,21.60-48.00,48.00l0.00,224.00 c0.00,26.40, 21.60,48.00, 48.00,48.00l 77.714,0.00 L 304.00,512.00l 82.286-96.00L 464.00,416.00 c 26.40,0.00, 48.00-21.60, 48.00-48.00L 512.00,144.00 C 512.00,117.60, 490.401,96.00, 464.00,96.00z M 448.00,352.00l-75.149,0.00 L 304.00,429.658L 235.15,352.00L 160.00,352.00 L 160.00,160.00 l 288.00,0.00 L 448.00,352.00 zM 64.00,64.00 L 64.00,320.00 L 48.00,320.00 C 21.60,320.00 0.00,298.40 0.00,272.00 L 0.00,48.00 C 0.00,21.60 21.60,0.00 48.00,0.00 L 368.00,0.00 C 394.401,0.00 416.00,21.60 416.00,48.00 L 416.00,64.00 L 64.00,64.00 Z" ></path></svg>