<?xml version="1.0" encoding="utf-8"?> <!-- Generator: IcoMoon.io --> <!DOCTYPE svg PUBLIC "-//W3C//DTD SVG 1.1//EN" "http://www.w3.org/Graphics/SVG/1.1/DTD/svg11.dtd"> <svg width="576" height="512" viewBox="0 0 576 512" xmlns="http://www.w3.org/2000/svg" xmlns:xlink="http://www.w3.org/1999/xlink" fill="#242424"><path d="M 400.00,0.00 C 426.40,0.00 448.00,21.60 448.00,48.00 L 448.00,208.00 C 448.00,234.40 426.40,256.00 400.00,256.00 L 217.60,256.00 L 64.00,384.00 L 64.00,256.00 L 48.00,256.00 C 21.60,256.00 0.00,234.40 0.00,208.00 L 0.00,48.00 C 0.00,21.60 21.60,0.00 48.00,0.00 L 400.00,0.00 ZM 528.00,96.00 C 554.40,96.00 576.00,117.60 576.00,144.00 L 576.00,336.00 C 576.00,362.40 554.40,384.00 528.00,384.00 L 448.00,384.00 L 448.00,512.00 L 294.40,384.00 L 192.00,384.00 L 192.00,320.00 L 317.57,320.00 L 416.00,407.357 L 416.00,320.00 L 512.00,320.00 L 512.00,160.00 L 480.00,160.00 L 480.00,96.00 L 528.00,96.00 Z" ></path></svg>