<?xml version="1.0" encoding="utf-8"?> <!-- Generator: IcoMoon.io --> <!DOCTYPE svg PUBLIC "-//W3C//DTD SVG 1.1//EN" "http://www.w3.org/Graphics/SVG/1.1/DTD/svg11.dtd"> <svg width="512" height="512" viewBox="0 0 512 512" xmlns="http://www.w3.org/2000/svg" xmlns:xlink="http://www.w3.org/1999/xlink" fill="#242424"><path d="M 480.00,160.00l 32.00-64.00L 512.00,32.00 l-48.00,96.00L 407.11,128.00 c-4.274-4.689-10.553-9.171-19.73-14.311l-70.76-35.377C 300.88,70.439, 273.60,64.00, 256.00,64.00 c-17.602,0.00-44.881,6.439-60.623,14.313l-70.758,35.377c-9.181,5.14-15.457,9.623-19.731,14.311L 48.00,128.001 L0.00,32.00l0.00,64.00 l 32.00,64.00l 64.00,0.00 l0.00,64.00 L0.00,256.00l0.00,32.00 l 96.00-32.00l0.00,96.00 L 64.00,352.00 L0.00,512.00l 32.00,0.00 l 51.199-128.00l 16.712,0.00 c 4.447,12.48, 12.241,24.669, 21.074,31.734l 110.022,88.021 C 237.882,509.253, 246.94,512.00, 256.00,512.00c 9.057,0.00, 18.113-2.747, 24.985-8.245l 110.022-88.021c 8.835-7.065, 16.628-19.254, 21.074-31.734 L 428.80,384.00 L 480.00,512.00l 32.00,0.00 l-64.00-160.00l-32.00,0.00 l0.00-96.00 l 96.00,32.00l0.00-32.00 l-96.00-32.00l0.00-64.00 L 480.00,160.00 z M 272.00,448.00l-32.00,0.00 L 240.00,128.00 l 32.00,0.00 L 272.00,448.00 zM 320.00,62.221L 320.00,32.00 c0.00-17.60-14.40-32.00-32.00-32.00l-64.00,0.00 c-17.602,0.00-32.00,14.40-32.00,32.00l0.00,30.221 C 210.129,54.116, 237.284,48.00, 256.00,48.00 C 274.713,48.00, 301.865,54.116, 320.00,62.221z" ></path></svg>