<?xml version="1.0" encoding="utf-8"?> <!-- Generator: IcoMoon.io --> <!DOCTYPE svg PUBLIC "-//W3C//DTD SVG 1.1//EN" "http://www.w3.org/Graphics/SVG/1.1/DTD/svg11.dtd"> <svg width="512" height="512" viewBox="0 0 512 512" xmlns="http://www.w3.org/2000/svg" xmlns:xlink="http://www.w3.org/1999/xlink" fill="#242424"><path d="M 448.00,32.00C 432.279,0.00, 320.00,0.00, 256.00,0.00S 79.72,0.00, 64.00,32.00S 32.00,256.00, 32.00,256.00l0.00,192.00 l 64.00,0.00 l0.00,32.00 c0.00,17.673, 14.327,32.00, 32.00,32.00s 32.00-14.327, 32.00-32.00l0.00-32.00 l 192.00,0.00 l0.00,32.00 c0.00,17.673, 14.327,32.00, 32.00,32.00c 17.674,0.00, 32.00-14.327, 32.00-32.00l0.00-32.00 l 64.00,0.00 L 480.00,256.00 C 480.00,256.00, 463.721,64.00, 448.00,32.00z M 160.00,32.00l 192.00,0.00 l0.00,32.00 L 160.00,64.00 L 160.00,32.00 z M 128.00,352.00 c-17.673,0.00-32.00-14.327-32.00-32.00s 14.327-32.00, 32.00-32.00s 32.00,14.327, 32.00,32.00S 145.673,352.00, 128.00,352.00z M 102.499,224.001 c 0.80-7.513, 1.656-15.314, 2.559-23.231c 6.083-53.329, 10.847-81.788, 13.844-96.464c 8.586-2.002, 23.196-4.479, 46.867-6.145 C 196.495,96.00, 229.49,96.00, 256.00,96.00s 59.505,0.00, 90.231,2.161c 23.671,1.665, 38.28,4.142, 46.866,6.145 c 2.996,14.676, 7.762,43.136, 13.845,96.465c 0.902,7.917, 1.759,15.718, 2.559,23.23L 102.499,224.001 z M 384.00,352.00c-17.673,0.00-32.00-14.327-32.00-32.00 s 14.327-32.00, 32.00-32.00s 32.00,14.327, 32.00,32.00S 401.673,352.00, 384.00,352.00z" ></path></svg>