<?xml version="1.0" encoding="utf-8"?> <!-- Generator: IcoMoon.io --> <!DOCTYPE svg PUBLIC "-//W3C//DTD SVG 1.1//EN" "http://www.w3.org/Graphics/SVG/1.1/DTD/svg11.dtd"> <svg width="512" height="512" viewBox="0 0 512 512" xmlns="http://www.w3.org/2000/svg" xmlns:xlink="http://www.w3.org/1999/xlink" fill="#242424"><path d="M 346.828,314.38C 309.427,290.036, 288.00,276.379, 288.00,256.00c0.00-20.378, 21.427-34.036, 58.826-58.379 C 407.055,159.779, 448.00,85.476, 448.00,0.00L 64.00,0.00 c0.00,85.476, 40.945,159.779, 101.174,197.621C 202.573,221.964, 224.00,235.622, 224.00,256.00 c0.00,20.379-21.427,34.036-58.829,58.38C 104.944,352.223, 64.00,426.525, 64.00,512.00l 384.00,0.00 C 448.00,426.525, 407.057,352.223, 346.828,314.38z M 129.815,96.91c-8.776-16.792-15.155-35.11-18.968-54.244l 290.306,0.00 c-3.813,19.134-10.191,37.452-18.969,54.244 c-5.893,11.276-12.767,21.694-20.466,31.09L 150.281,128.00 C 142.582,118.604, 135.708,108.186, 129.815,96.91z M 248.00,382.81 c0.00,21.78-88.00,54.523-88.00,86.523l-49.153,0.00 c 3.813-19.133, 10.191-37.45, 18.967-54.242c 14.308-27.376, 34.383-49.709, 58.057-64.583 l 0.289-0.182l 0.286-0.187l 1.544-1.005c 23.355-15.199, 44.029-28.661, 58.01-44.766L 248.00,382.81 z M 401.154,469.333L 352.00,469.333 c0.00-32.00-88.00-64.743-88.00-86.523l0.00-78.44 c 13.98,16.104, 34.654,29.566, 58.01,44.766l 1.544,1.005l 0.286,0.187l 0.289,0.182 c 23.674,14.874, 43.749,37.207, 58.057,64.583C 390.962,431.883, 397.341,450.20, 401.154,469.333z" ></path></svg>