<?xml version="1.0" encoding="utf-8"?> <!-- Generator: IcoMoon.io --> <!DOCTYPE svg PUBLIC "-//W3C//DTD SVG 1.1//EN" "http://www.w3.org/Graphics/SVG/1.1/DTD/svg11.dtd"> <svg width="512" height="512" viewBox="0 0 512 512" xmlns="http://www.w3.org/2000/svg" xmlns:xlink="http://www.w3.org/1999/xlink" fill="#242424"><path d="M 190.04,305.023c-47.689,25.929-82.896,79.105-91.826,142.978l 315.57,0.00 c-8.929-63.871-44.137-117.049-91.824-142.978 C 288.007,280.883, 288.00,269.324, 288.00,256.00s 0.007-24.882, 33.959-49.023c 47.688-25.928, 82.896-79.105, 91.825-142.977L 98.214,64.00 c 8.93,63.871, 44.138,117.049, 91.826,142.977C 223.992,231.118, 224.00,242.676, 224.00,256.00S 223.992,280.883, 190.04,305.023zM 64.00,480.001L 448.00,480.001L 448.00,512.00L 64.00,512.00zM 64.00,0.00L 448.00,0.00L 448.00,32.00L 64.00,32.00z" ></path></svg>