<?xml version="1.0" encoding="utf-8"?> <!-- Generator: IcoMoon.io --> <!DOCTYPE svg PUBLIC "-//W3C//DTD SVG 1.1//EN" "http://www.w3.org/Graphics/SVG/1.1/DTD/svg11.dtd"> <svg width="512" height="512" viewBox="0 0 512 512" xmlns="http://www.w3.org/2000/svg" xmlns:xlink="http://www.w3.org/1999/xlink" fill="#242424"><path d="M 352.00,96.00L 128.00,96.00L 224.001,192.00L 224.001,320.00L 128.00,416.00L 352.00,416.00L 256.00,320.00L 256.00,192.00 zM 480.00,77.255L 480.00,0.00 L0.00,0.00 l0.00,77.255 l 160.00,160.00l0.00,37.489 l-160.00,160.00L0.00,512.00 l 480.00,0.00 l0.00-77.256 l-160.00-160.00l0.00-37.489 L 480.00,77.255z M 448.00,448.00L 32.00,448.00 l 160.00-160.00l0.00-64.00 L 32.00,64.00l 416.00,0.00 L 288.00,224.00l0.00,64.00 L 448.00,448.00z" ></path></svg>