<?xml version="1.0" encoding="utf-8"?> <!-- Generator: IcoMoon.io --> <!DOCTYPE svg PUBLIC "-//W3C//DTD SVG 1.1//EN" "http://www.w3.org/Graphics/SVG/1.1/DTD/svg11.dtd"> <svg width="512" height="512" viewBox="0 0 512 512" xmlns="http://www.w3.org/2000/svg" xmlns:xlink="http://www.w3.org/1999/xlink" fill="#242424"><path d="M0.00,480.00c0.00,17.674, 14.327,32.00, 32.00,32.00l 448.00,0.00 c 17.674,0.00, 32.00-14.326, 32.00-32.00L 512.00,192.00 L0.00,192.00 L0.00,480.00 z M 352.00,224.00l 128.00,0.00 l0.00,64.00 L 352.00,288.00 L 352.00,224.00 z M 352.00,320.00l 128.00,0.00 l0.00,64.00 L 352.00,384.00 L 352.00,320.00 z M 352.00,416.00l 128.00,0.00 l0.00,64.00 L 352.00,480.00 L 352.00,416.00 z M 192.00,224.00l 128.00,0.00 l0.00,64.00 L 192.00,288.00 L 192.00,224.00 z M 192.00,320.00l 128.00,0.00 l0.00,64.00 L 192.00,384.00 L 192.00,320.00 z M 192.00,416.00l 128.00,0.00 l0.00,64.00 L 192.00,480.00 L 192.00,416.00 z M 32.00,224.00l 128.00,0.00 l0.00,64.00 L 32.00,288.00 L 32.00,224.00 z M 32.00,320.00l 128.00,0.00 l0.00,64.00 L 32.00,384.00 L 32.00,320.00 z M 32.00,416.00l 128.00,0.00 l0.00,64.00 L 32.00,480.00 L 32.00,416.00 zM 480.00,64.00l-64.00,0.00 L 416.00,18.286 C 416.00,8.187, 408.837,0.00, 400.00,0.00c-8.836,0.00-16.00,8.187-16.00,18.286L 384.00,64.00 L 128.00,64.00 L 128.00,18.286 C 128.00,8.187, 120.837,0.00, 112.00,0.00 S 96.00,8.187, 96.00,18.286L 96.00,64.00 L 32.00,64.00 C 14.327,64.00,0.00,78.327,0.00,96.00l0.00,64.00 l 512.00,0.00 L 512.00,96.00 C 512.00,78.327, 497.673,64.00, 480.00,64.00z M 112.00,144.00c-17.673,0.00-32.00-14.327-32.00-32.00 c0.00-11.842, 6.438-22.174, 16.00-27.708L 96.00,112.00 c0.00,8.836, 7.164,16.00, 16.00,16.00s 16.00-7.164, 16.00-16.00L 128.00,84.292 c 9.562,5.534, 16.00,15.866, 16.00,27.708 C 144.00,129.673, 129.673,144.00, 112.00,144.00z M 400.00,144.00c-17.672,0.00-32.00-14.327-32.00-32.00c0.00-11.842, 6.438-22.174, 16.00-27.708L 384.00,112.00 c0.00,8.836, 7.164,16.00, 16.00,16.00c 8.837,0.00, 16.00-7.164, 16.00-16.00L 416.00,84.292 c 9.563,5.534, 16.00,15.866, 16.00,27.708C 432.00,129.673, 417.674,144.00, 400.00,144.00z" ></path></svg>