<?xml version="1.0" encoding="utf-8"?> <!-- Generator: IcoMoon.io --> <!DOCTYPE svg PUBLIC "-//W3C//DTD SVG 1.1//EN" "http://www.w3.org/Graphics/SVG/1.1/DTD/svg11.dtd"> <svg width="512" height="512" viewBox="0 0 512 512" xmlns="http://www.w3.org/2000/svg" xmlns:xlink="http://www.w3.org/1999/xlink" fill="#242424"><path d="M 416.00,96.00l-32.00,0.00 l0.00,64.00 l-96.00,0.00 L 288.00,96.00 l-96.00,0.00 l0.00,64.00 L 96.00,160.00 L 96.00,96.00 L 64.00,96.00 c-17.60,0.00-32.00,14.40-32.00,32.00l0.00,352.00 c0.00,17.60, 14.40,32.00, 32.00,32.00l 352.00,0.00 c 17.60,0.00, 32.00-14.40, 32.00-32.00L 448.00,128.00 C 448.00,110.40, 433.60,96.00, 416.00,96.00z M 128.00,480.00L 64.057,480.00 c-0.02-0.017-0.041-0.038-0.057-0.058L 64.00,416.00 l 64.00,0.00 L 128.00,480.00 z M 128.00,384.00L 64.00,384.00 l0.00-64.00 l 64.00,0.00 L 128.00,384.00 z M 128.00,288.00 L 64.00,288.00 l0.00-64.00 l 64.00,0.00 L 128.00,288.00 z M 224.00,480.00l-64.00,0.00 l0.00-64.00 l 64.00,0.00 L 224.00,480.00 z M 224.00,384.00l-64.00,0.00 l0.00-64.00 l 64.00,0.00 L 224.00,384.00 z M 224.00,288.00l-64.00,0.00 l0.00-64.00 l 64.00,0.00 L 224.00,288.00 z M 320.00,480.00l-64.00,0.00 l0.00-64.00 l 64.00,0.00 L 320.00,480.00 z M 320.00,384.00 l-64.00,0.00 l0.00-64.00 l 64.00,0.00 L 320.00,384.00 z M 320.00,288.00l-64.00,0.00 l0.00-64.00 l 64.00,0.00 L 320.00,288.00 z M 416.00,479.942c-0.017,0.02-0.038,0.041-0.058,0.058L 352.00,480.00 l0.00-64.00 l 64.00,0.00 L 416.00,479.942 z M 416.00,384.00l-64.00,0.00 l0.00-64.00 l 64.00,0.00 L 416.00,384.00 z M 416.00,288.00l-64.00,0.00 l0.00-64.00 l 64.00,0.00 L 416.00,288.00 zM 160.00,64.00c0.00-8.836-7.164-16.00-16.00-16.00s-16.00,7.164-16.00,16.00l0.00,64.00 l 32.00,0.00 L 160.00,64.00 zM 352.00,64.00c0.00-8.836-7.164-16.00-16.00-16.00s-16.00,7.164-16.00,16.00l0.00,64.00 l 32.00,0.00 L 352.00,64.00 z" ></path></svg>