<?xml version="1.0" encoding="utf-8"?> <!-- Generator: IcoMoon.io --> <!DOCTYPE svg PUBLIC "-//W3C//DTD SVG 1.1//EN" "http://www.w3.org/Graphics/SVG/1.1/DTD/svg11.dtd"> <svg width="512" height="512" viewBox="0 0 512 512" xmlns="http://www.w3.org/2000/svg" xmlns:xlink="http://www.w3.org/1999/xlink" fill="#242424"><path d="M 352.00,320.00 C 384.00,288.00 480.00,384.00 480.00,416.00 C 480.00,448.00 384.00,512.00 384.00,512.00 C 320.00,512.00 190.25,446.25 128.00,384.00 C 65.75,321.75 0.00,192.00 0.00,128.00 C 0.00,128.00 64.00,32.00 96.00,32.00 C 128.00,32.00 224.00,128.00 192.00,160.00 C 160.00,192.00 128.00,192.00 128.00,224.00 C 128.00,256.00 160.00,288.00 192.00,320.00 C 224.00,352.00 256.00,384.00 288.00,384.00 C 320.00,384.00 320.00,352.00 352.00,320.00 ZM 256.00,256.00 L 256.00,80.00 L 321.372,145.372 L 402.744,64.00 L 448.00,64.00 L 448.00,109.255 L 366.628,190.628 L 432.00,256.00 Z" ></path></svg>