<?xml version="1.0" encoding="utf-8"?> <!-- Generator: IcoMoon.io --> <!DOCTYPE svg PUBLIC "-//W3C//DTD SVG 1.1//EN" "http://www.w3.org/Graphics/SVG/1.1/DTD/svg11.dtd"> <svg width="512" height="512" viewBox="0 0 512 512" xmlns="http://www.w3.org/2000/svg" xmlns:xlink="http://www.w3.org/1999/xlink" fill="#242424"><path d="M 416.00,32.00L 96.00,32.00 c-35.20,0.00-64.00,28.80-64.00,64.00l0.00,320.00 c0.00,35.20, 28.80,64.00, 64.00,64.00l 320.00,0.00 c 35.20,0.00, 64.00-28.80, 64.00-64.00L 480.00,96.00 C 480.00,60.80, 451.20,32.00, 416.00,32.00z M 336.00,288.00c0.00,44.112-35.888,80.00-80.00,80.00s-80.00-35.888-80.00-80.00c0.00-26.142, 12.605-49.393, 32.056-64.00l 95.889,0.00 C 323.395,238.607, 336.00,261.858, 336.00,288.00 z M 160.00,96.00l 32.00,0.00 l0.00,64.00 l-32.00,0.00 L 160.00,96.00 z M 96.00,96.00l 32.00,0.00 l0.00,64.00 L 96.00,160.00 L 96.00,96.00 z M 416.00,415.886c-0.033,0.039-0.075,0.081-0.114,0.114L 256.00,416.00 L 96.114,416.00 c-0.04-0.033-0.081-0.075-0.114-0.114L 96.00,224.00 l 49.128,0.00 C 134.237,242.828, 128.00,264.685, 128.00,288.00c0.00,70.692, 57.308,128.00, 128.00,128.00 s 128.00-57.308, 128.00-128.00c0.00-23.315-6.236-45.172-17.128-64.00L 416.00,224.00 L 416.00,415.886 z" ></path></svg>