<?xml version="1.0" encoding="utf-8"?> <!-- Generator: IcoMoon.io --> <!DOCTYPE svg PUBLIC "-//W3C//DTD SVG 1.1//EN" "http://www.w3.org/Graphics/SVG/1.1/DTD/svg11.dtd"> <svg width="512" height="512" viewBox="0 0 512 512" xmlns="http://www.w3.org/2000/svg" xmlns:xlink="http://www.w3.org/1999/xlink" fill="#242424"><path d="M 352.00,368.00c0.00,26.40-21.60,48.00-48.00,48.00L 80.00,416.00 c-26.40,0.00-48.00-21.60-48.00-48.00L 32.00,176.00 c0.00-26.40, 21.60-48.00, 48.00-48.00l 224.00,0.00 c 26.40,0.00, 48.00,21.60, 48.00,48.00L 352.00,368.00 zM 480.00,160.00 L 480.00,384.00 C 480.00,410.40 464.727,416.727 446.059,398.058 L 353.942,305.941 C 335.274,287.273 335.274,256.726 353.942,238.059 L 446.059,145.941 C 464.727,127.273 480.00,133.60 480.00,160.00 Z" ></path></svg>