<?xml version="1.0" encoding="utf-8"?> <!-- Generator: IcoMoon.io --> <!DOCTYPE svg PUBLIC "-//W3C//DTD SVG 1.1//EN" "http://www.w3.org/Graphics/SVG/1.1/DTD/svg11.dtd"> <svg width="512" height="512" viewBox="0 0 512 512" xmlns="http://www.w3.org/2000/svg" xmlns:xlink="http://www.w3.org/1999/xlink" fill="#242424"><path d="M 480.00,96.00l-96.00,0.00 l-16.179-40.717C 364.619,42.478, 351.20,32.00, 338.00,32.00L 174.00,32.00 c-13.20,0.00-26.619,10.478-29.821,23.283L 128.00,96.00L 32.00,96.00 c-17.60,0.00-32.00,14.40-32.00,32.00l0.00,352.00 c0.00,17.60, 14.40,32.00, 32.00,32.00l 448.00,0.00 c 17.60,0.00, 32.00-14.40, 32.00-32.00L 512.00,128.00 C 512.00,110.40, 497.60,96.00, 480.00,96.00z M 448.00,448.00L 64.00,448.00 L 64.00,160.00 l 107.437,0.00 l 25.431-64.00l 118.265,0.00 l 25.431,64.00L 448.00,160.00 L 448.00,448.00 zM 256.00,184.00c-66.168,0.00-120.00,53.832-120.00,120.00s 53.832,120.00, 120.00,120.00s 120.00-53.832, 120.00-120.00S 322.168,184.00, 256.00,184.00z M 256.00,376.00 c-39.701,0.00-72.00-32.299-72.00-72.00s 32.299-72.00, 72.00-72.00s 72.00,32.299, 72.00,72.00S 295.701,376.00, 256.00,376.00z" ></path></svg>