<?xml version="1.0" encoding="utf-8"?> <!-- Generator: IcoMoon.io --> <!DOCTYPE svg PUBLIC "-//W3C//DTD SVG 1.1//EN" "http://www.w3.org/Graphics/SVG/1.1/DTD/svg11.dtd"> <svg width="512" height="512" viewBox="0 0 512 512" xmlns="http://www.w3.org/2000/svg" xmlns:xlink="http://www.w3.org/1999/xlink" fill="#242424"><path d="M 256.00,216.00 C 302.869,216.00 341.00,255.477 341.00,304.00 C 341.00,352.523 302.869,392.00 256.00,392.00 C 209.131,392.00 171.00,352.523 171.00,304.00 C 171.00,255.477 209.131,216.00 256.00,216.00 ZM 480.00,96.00l-96.00,0.00 l-16.179-40.717C 364.619,42.478, 351.20,32.00, 338.00,32.00L 174.00,32.00 c-13.20,0.00-26.619,10.478-29.821,23.283L 128.00,96.00L 32.00,96.00 c-17.60,0.00-32.00,14.40-32.00,32.00l0.00,352.00 c0.00,17.60, 14.40,32.00, 32.00,32.00l 448.00,0.00 c 17.60,0.00, 32.00-14.40, 32.00-32.00L 512.00,128.00 C 512.00,110.40, 497.60,96.00, 480.00,96.00z M 256.00,440.00 c-73.336,0.00-133.00-61.01-133.00-136.00c0.00-74.991, 59.664-136.00, 133.00-136.00c 73.337,0.00, 133.00,61.009, 133.00,136.00C 389.00,378.99, 329.337,440.00, 256.00,440.00z" ></path></svg>