<?xml version="1.0" encoding="utf-8"?> <!-- Generator: IcoMoon.io --> <!DOCTYPE svg PUBLIC "-//W3C//DTD SVG 1.1//EN" "http://www.w3.org/Graphics/SVG/1.1/DTD/svg11.dtd"> <svg width="512" height="512" viewBox="0 0 512 512" xmlns="http://www.w3.org/2000/svg" xmlns:xlink="http://www.w3.org/1999/xlink" fill="#242424"><path d="M 489.42,128.126c-5.294,0.00-10.729,1.861-15.718,5.383L 384.00,196.816L 384.00,144.00 c0.00-26.40-21.60-48.00-48.00-48.00L 48.00,96.00 c-26.40,0.00-48.00,21.60-48.00,48.00l0.00,224.00 c0.00,26.40, 21.60,48.00, 48.00,48.00l 288.00,0.00 c 26.40,0.00, 48.00-21.60, 48.00-48.00l0.00-52.815 l 89.701,63.307c 4.989,3.521, 10.424,5.382, 15.717,5.383 c 0.001,0.00, 0.001,0.00, 0.003,0.00c 7.044,0.00, 13.477-3.248, 17.646-8.911c 3.228-4.385, 4.934-10.027, 4.934-16.318L 512.001,153.355 C 512.00,136.792, 500.641,128.126, 489.42,128.126z" ></path></svg>