<?xml version="1.0" encoding="utf-8"?> <!-- Generator: IcoMoon.io --> <!DOCTYPE svg PUBLIC "-//W3C//DTD SVG 1.1//EN" "http://www.w3.org/Graphics/SVG/1.1/DTD/svg11.dtd"> <svg width="512" height="512" viewBox="0 0 512 512" xmlns="http://www.w3.org/2000/svg" xmlns:xlink="http://www.w3.org/1999/xlink" fill="#242424"><path d="M 368.00,0.00L 144.00,0.00 L0.00,144.00l0.00,224.00 l 144.00,144.00l 224.00,0.00 l 144.00-144.00L 512.00,144.00 L 368.00,0.00z M 392.897,368.006l-24.892,24.891c-6.846,6.845-18.046,6.845-24.89,0.00 L 256.00,305.779l-87.115,87.117c-6.845,6.844-18.046,6.844-24.89,0.00l-24.891-24.892c-6.845-6.846-6.845-18.046,0.00-24.89L 206.22,256.00 l-87.116-87.115c-6.845-6.845-6.845-18.046,0.00-24.89l 24.891-24.891c 6.844-6.845, 18.045-6.845, 24.89,0.00L 256.00,206.22l 87.116-87.116 c 6.844-6.845, 18.044-6.845, 24.89,0.00l 24.891,24.891c 6.845,6.844, 6.845,18.045,0.00,24.89L 305.781,256.00l 87.116,87.116 C 399.741,349.96, 399.741,361.16, 392.897,368.006zM 512.00,368.00" ></path></svg>