<?xml version="1.0" encoding="utf-8"?> <!-- Generator: IcoMoon.io --> <!DOCTYPE svg PUBLIC "-//W3C//DTD SVG 1.1//EN" "http://www.w3.org/Graphics/SVG/1.1/DTD/svg11.dtd"> <svg width="512" height="512" viewBox="0 0 512 512" xmlns="http://www.w3.org/2000/svg" xmlns:xlink="http://www.w3.org/1999/xlink" fill="#242424"><path d="M 422.198,160.00L 384.444,46.738C 381.554,38.061, 373.146,32.00, 364.00,32.00L 148.00,32.00 c-9.145,0.00-17.552,6.06-20.444,14.735L 89.801,160.00L0.00,160.00 l0.00,224.00 l 64.00,0.00 l0.00,80.00 c0.00,8.80, 7.199,16.00, 16.00,16.00l 64.00,0.00 c 8.80,0.00, 16.00-7.20, 16.00-16.00l0.00-80.00 l 192.00,0.00 l0.00,80.00 c0.00,8.80, 7.198,16.00, 16.00,16.00l 64.00,0.00 c 8.80,0.00, 16.00-7.20, 16.00-16.00l0.00-80.00 l 64.00,0.00 L 512.00,160.00 L 422.198,160.00 z M 112.00,320.00c-26.51,0.00-48.00-21.49-48.00-48.00s 21.49-48.00, 48.00-48.00s 48.00,21.49, 48.00,48.00S 138.51,320.00, 112.00,320.00z M 131.532,160.00l 32.00-96.00l 184.936,0.00 l 32.00,96.00L 131.532,160.00 z M 400.00,320.00c-26.51,0.00-48.00-21.49-48.00-48.00s 21.49-48.00, 48.00-48.00s 48.00,21.49, 48.00,48.00S 426.51,320.00, 400.00,320.00z" ></path></svg>