<?xml version="1.0" encoding="utf-8"?> <!-- Generator: IcoMoon.io --> <!DOCTYPE svg PUBLIC "-//W3C//DTD SVG 1.1//EN" "http://www.w3.org/Graphics/SVG/1.1/DTD/svg11.dtd"> <svg width="512" height="512" viewBox="0 0 512 512" xmlns="http://www.w3.org/2000/svg" xmlns:xlink="http://www.w3.org/1999/xlink" fill="#242424"><path d="M 488.791,97.231c-16.992-4.854-34.705,4.985-39.56,21.978L 446.72,128.00L 148.249,128.00 l-4.496-35.969 C 141.751,76.017, 128.138,64.00, 112.00,64.00L 32.00,64.00 C 14.327,64.00,0.00,78.327,0.00,96.00s 14.327,32.00, 32.00,32.00l 51.751,0.00 l 28.496,227.969 C 114.249,371.982, 127.862,384.00, 144.00,384.00l 272.00,0.00 c 14.287,0.00, 26.844-9.472, 30.769-23.209l 64.00-224.00 C 515.624,119.798, 505.784,102.086, 488.791,97.231z M 391.862,320.00L 172.249,320.00 l-0.50-4.00l 221.256,0.00 L 391.862,320.00z M 395.291,308.00L 170.749,308.00 l-1.00-8.00 l 227.827,0.00 L 395.291,308.00z M 399.862,292.00L 168.749,292.00 l-1.00-8.00l 234.399,0.00 L 399.862,292.00z M 404.434,276.00L 166.749,276.00 l-1.00-8.00L 406.72,268.00 L 404.434,276.00z M 409.005,260.00L 164.749,260.00 l-1.00-8.00l 247.542,0.00 L 409.005,260.00z M 413.577,244.00L 162.749,244.00 l-1.00-8.00l 254.113,0.00 L 413.577,244.00z M 418.148,228.00L 160.749,228.00 l-1.00-8.00 l 260.685,0.00 L 418.148,228.00z M 422.72,212.00L 158.749,212.00 l-1.00-8.00l 267.256,0.00 L 422.72,212.00z M 427.291,196.00L 156.749,196.00 l-1.00-8.00l 273.828,0.00 L 427.291,196.00z M 431.862,180.00 L 154.749,180.00 l-1.00-8.00l 280.399,0.00 L 431.862,180.00z M 152.749,164.00l-0.50-4.00l 285.327,0.00 l-1.143,4.00L 152.749,164.00 zM 128.00,464.00A48.00,48.00 2520.00 1 1 224.00,464A48.00,48.00 2520.00 1 1 128.00,464zM 320.00,464.00A48.00,48.00 2520.00 1 1 416.00,464A48.00,48.00 2520.00 1 1 320.00,464z" ></path></svg>