<?xml version="1.0" encoding="utf-8"?> <!-- Generator: IcoMoon.io --> <!DOCTYPE svg PUBLIC "-//W3C//DTD SVG 1.1//EN" "http://www.w3.org/Graphics/SVG/1.1/DTD/svg11.dtd"> <svg width="512" height="512" viewBox="0 0 512 512" xmlns="http://www.w3.org/2000/svg" xmlns:xlink="http://www.w3.org/1999/xlink" fill="#242424"><path d="M 488.791,97.231 C 505.784,102.086 515.624,119.798 510.769,136.791 L 446.769,360.791 C 442.844,374.528 430.287,384.00 416.00,384.00 L 144.00,384.00 C 127.862,384.00 114.249,371.982 112.247,355.969 L 83.751,128.00 L 32.00,128.00 C 14.327,128.00 0.00,113.673 0.00,96.00 C 0.00,78.327 14.327,64.00 32.00,64.00 L 112.00,64.00 C 128.138,64.00 141.751,76.017 143.753,92.031 L 172.249,320.00 L 391.862,320.00 L 449.231,119.209 C 454.086,102.216 471.799,92.377 488.791,97.231 ZM 128.00,464.00A48.00,48.00 2520.00 1 1 224.00,464A48.00,48.00 2520.00 1 1 128.00,464zM 320.00,464.00A48.00,48.00 2520.00 1 1 416.00,464A48.00,48.00 2520.00 1 1 320.00,464zM 402.628,229.372l-45.256,45.256L 288.00,205.255l-69.373,69.372l-45.255-45.255L 242.745,160.00l-69.372-69.373l 45.254-45.254 L 288.00,114.745l 69.372-69.373l 45.256,45.255L 333.255,160.00L 402.628,229.372z" ></path></svg>