<?xml version="1.0" encoding="utf-8"?> <!-- Generator: IcoMoon.io --> <!DOCTYPE svg PUBLIC "-//W3C//DTD SVG 1.1//EN" "http://www.w3.org/Graphics/SVG/1.1/DTD/svg11.dtd"> <svg width="512" height="512" viewBox="0 0 512 512" xmlns="http://www.w3.org/2000/svg" xmlns:xlink="http://www.w3.org/1999/xlink" fill="#242424"><path d="M 488.791,97.231c-16.992-4.854-34.705,4.985-39.56,21.978L 446.72,128.00L 148.249,128.00 l-4.496-35.969 C 141.751,76.017, 128.138,64.00, 112.00,64.00L 32.00,64.00 C 14.327,64.00,0.00,78.327,0.00,96.00s 14.327,32.00, 32.00,32.00l 51.751,0.00 l 28.496,227.969 C 114.249,371.982, 127.862,384.00, 144.00,384.00l 272.00,0.00 c 14.287,0.00, 26.844-9.472, 30.769-23.209l 64.00-224.00 C 515.624,119.798, 505.784,102.086, 488.791,97.231z M 437.577,160.00l-9.144,32.00L 156.249,192.00 l-4.00-32.00L 437.577,160.00 z M 419.291,224.00l-9.143,32.00L 164.249,256.00 l-4.00-32.00L 419.291,224.00 z M 172.249,320.00l-4.00-32.00l 232.756,0.00 l-9.143,32.00L 172.249,320.00 zM 128.00,464.00A48.00,48.00 2520.00 1 1 224.00,464A48.00,48.00 2520.00 1 1 128.00,464zM 320.00,464.00A48.00,48.00 2520.00 1 1 416.00,464A48.00,48.00 2520.00 1 1 320.00,464z" ></path></svg>