<?xml version="1.0" encoding="utf-8"?> <!-- Generator: IcoMoon.io --> <!DOCTYPE svg PUBLIC "-//W3C//DTD SVG 1.1//EN" "http://www.w3.org/Graphics/SVG/1.1/DTD/svg11.dtd"> <svg width="512" height="512" viewBox="0 0 512 512" xmlns="http://www.w3.org/2000/svg" xmlns:xlink="http://www.w3.org/1999/xlink" fill="#242424"><path d="M 416.00,384.00L 144.00,384.00 c-16.138,0.00-29.751-12.018-31.753-28.031L 83.751,128.00L 32.00,128.00 c-17.673,0.00-32.00-14.327-32.00-32.00s 14.327-32.00, 32.00-32.00l 80.00,0.00 c 16.138,0.00, 29.751,12.017, 31.753,28.031L 172.249,320.00l 219.613,0.00 l 57.369-200.791c 4.854-16.993, 22.567-26.832, 39.56-21.978 c 16.993,4.855, 26.833,22.567, 21.978,39.56l-64.00,224.00C 442.844,374.528, 430.287,384.00, 416.00,384.00zM 128.00,464.00A48.00,48.00 2520.00 1 1 224.00,464A48.00,48.00 2520.00 1 1 128.00,464zM 320.00,464.00A48.00,48.00 2520.00 1 1 416.00,464A48.00,48.00 2520.00 1 1 320.00,464zM 192.00,160.00L 384.00,160.00L 384.00,224.00L 192.00,224.00z" ></path></svg>