<?xml version="1.0" encoding="utf-8"?> <!-- Generator: IcoMoon.io --> <!DOCTYPE svg PUBLIC "-//W3C//DTD SVG 1.1//EN" "http://www.w3.org/Graphics/SVG/1.1/DTD/svg11.dtd"> <svg width="512" height="512" viewBox="0 0 512 512" xmlns="http://www.w3.org/2000/svg" xmlns:xlink="http://www.w3.org/1999/xlink" fill="#242424"><path d="M 423.609,288.00c 17.60,0.00, 35.956-13.846, 40.791-30.769l 46.418-162.463C 515.653,77.846, 505.209,64.00, 487.609,64.00L 160.00,64.00 c0.00-35.346-28.654-64.00-64.00-64.00L0.00,0.00 l0.00,64.00 l 96.00,0.00 l0.00,272.00 c0.00,26.51, 21.49,48.00, 48.00,48.00l 304.00,0.00 c 17.673,0.00, 32.00-14.327, 32.00-32.00s-14.327-32.00-32.00-32.00L 160.00,320.00 l0.00-32.00 L 423.609,288.00 z M 160.00,224.00l0.00-4.00 l 263.117,0.00 l-1.143,4.00L 160.00,224.00 z M 441.403,156.00l-2.286,8.00L 160.00,164.00 l0.00-8.00 L 441.403,156.00 z M 160.00,148.00l0.00-8.00 l 285.975,0.00 l-2.285,8.00L 160.00,148.00 z M 436.832,172.00 l-2.286,8.00L 160.00,180.00 l0.00-8.00 L 436.832,172.00 z M 432.261,188.00l-2.286,8.00L 160.00,196.00 l0.00-8.00 L 432.261,188.00 z M 427.688,204.00l-2.285,8.00L 160.00,212.00 l0.00-8.00 L 427.688,204.00 z M 449.403,128.00l-1.143,4.00 L 160.00,132.00 l0.00-4.00 L 449.403,128.00 zM 152.00,416.00 C 174.00,416.00 192.00,434.00 192.00,456.00 L 192.00,472.00 C 192.00,494.00 174.00,512.00 152.00,512.00 L 136.00,512.00 C 114.00,512.00 96.00,494.00 96.00,472.00 L 96.00,456.00 C 96.00,434.00 114.00,416.00 136.00,416.00 L 152.00,416.00 ZM 440.00,416.00 C 462.00,416.00 480.00,434.00 480.00,456.00 L 480.00,472.00 C 480.00,494.00 462.00,512.00 440.00,512.00 L 424.00,512.00 C 402.00,512.00 384.00,494.00 384.00,472.00 L 384.00,456.00 C 384.00,434.00 402.00,416.00 424.00,416.00 L 440.00,416.00 Z" ></path></svg>