<?xml version="1.0" encoding="utf-8"?> <!-- Generator: IcoMoon.io --> <!DOCTYPE svg PUBLIC "-//W3C//DTD SVG 1.1//EN" "http://www.w3.org/Graphics/SVG/1.1/DTD/svg11.dtd"> <svg width="512" height="512" viewBox="0 0 512 512" xmlns="http://www.w3.org/2000/svg" xmlns:xlink="http://www.w3.org/1999/xlink" fill="#242424"><path d="M 255.645,0.00C 185.511,0.00, 123.788,25.955, 76.09,74.347 c-49.086,49.80-75.735,114.324-75.735,181.661c0.00,68.027, 25.939,131.147, 75.041,180.249C 124.49,485.351, 188.312,512.00, 255.645,512.00 c 67.333,0.00, 132.56-26.649, 183.058-76.445c 47.697-46.995, 72.941-109.413, 72.941-179.547c0.00-69.439-25.244-132.563-73.643-180.959 C 388.908,25.955, 325.779,0.00, 255.645,0.00z M 256.347,46.293c 57.512,0.00, 108.711,21.742, 148.694,61.72 c 39.271,39.28, 60.311,91.178, 60.311,147.995c0.00,57.511-20.338,108.001-59.609,146.587c-41.385,40.676-94.684,62.418-149.395,62.418 c-55.404,0.00-107.314-21.742-147.289-61.716c-39.974-39.981-62.426-92.586-62.426-147.289c0.00-55.413, 22.452-108.013, 62.426-148.697 C 148.338,67.337, 198.836,46.293, 256.347,46.293zM 253.042,213.47c-14.453-26.373-39.131-36.865-67.768-36.865 c-41.686,0.00-74.867,29.489-74.867,79.403c0.00,50.759, 31.193,79.396, 76.287,79.396c 28.922,0.00, 53.599-15.881, 67.207-39.981 l-31.762-16.165c-7.092,17.017-17.868,22.113-31.477,22.113c-23.533,0.00-34.311-19.564-34.311-45.362 c0.00-25.813, 9.073-45.378, 34.311-45.378c 6.808,0.00, 20.416,3.692, 28.361,20.701L 253.042,213.47zM 400.725,213.47c-14.461-26.373-39.129-36.865-67.766-36.865 c-41.688,0.00-74.867,29.489-74.867,79.403c0.00,50.759, 31.193,79.396, 76.287,79.396c 28.92,0.00, 53.59-15.881, 67.199-39.981l-31.762-16.165 c-7.084,17.017-17.861,22.113-31.479,22.113c-23.525,0.00-34.309-19.564-34.309-45.362c0.00-25.813, 9.08-45.378, 34.309-45.378 c 6.809,0.00, 20.418,3.692, 28.369,20.701L 400.725,213.47z" ></path></svg>