<?xml version="1.0" encoding="utf-8"?> <!-- Generator: IcoMoon.io --> <!DOCTYPE svg PUBLIC "-//W3C//DTD SVG 1.1//EN" "http://www.w3.org/Graphics/SVG/1.1/DTD/svg11.dtd"> <svg width="512" height="512" viewBox="0 0 512 512" xmlns="http://www.w3.org/2000/svg" xmlns:xlink="http://www.w3.org/1999/xlink" fill="#242424"><path d="M 32.00,0.00l0.00,512.00 l 448.00,0.00 L 480.00,0.00 L 32.00,0.00 z M 448.00,480.00L 64.00,480.00 L 64.00,32.00 l 384.00,0.00 L 448.00,480.00 zM 96.00,96.00L 256.00,96.00L 256.00,128.00L 96.00,128.00zM 96.00,160.00L 256.00,160.00L 256.00,192.00L 96.00,192.00zM 96.00,224.00L 256.00,224.00L 256.00,256.00L 96.00,256.00zM 96.00,287.68L 256.00,287.68L 256.00,319.68L 96.00,319.68zM 96.00,352.00L 256.00,352.00L 256.00,384.00L 96.00,384.00zM 96.00,416.00L 416.00,416.00L 416.00,448.00L 96.00,448.00zM 384.00,224.00 L 384.00,384.00 L 352.00,336.00 L 320.00,384.00 L 320.00,224.00 ZM 416.00,109.254 L 397.255,128.00 L 416.00,146.746 L 416.00,160.00 L 384.00,160.00 L 384.00,192.00 L 370.745,192.00 L 352.00,173.255 L 333.255,192.00 L 320.00,192.00 L 320.00,160.00 L 288.00,160.00 L 288.00,146.746 L 306.745,128.00 L 288.00,109.254 L 288.00,96.00 L 320.00,96.00 L 320.00,64.00 L 333.255,64.00 L 352.00,82.745 L 370.745,64.00 L 384.00,64.00 L 384.00,96.00 L 416.00,96.00 Z" ></path></svg>