<?xml version="1.0" encoding="utf-8"?> <!-- Generator: IcoMoon.io --> <!DOCTYPE svg PUBLIC "-//W3C//DTD SVG 1.1//EN" "http://www.w3.org/Graphics/SVG/1.1/DTD/svg11.dtd"> <svg width="512" height="512" viewBox="0 0 512 512" xmlns="http://www.w3.org/2000/svg" xmlns:xlink="http://www.w3.org/1999/xlink" fill="#242424"><path d="M 464.00,0.00L 48.00,0.00 C 21.60,0.00,0.00,21.60,0.00,48.00l0.00,416.00 c0.00,26.40, 21.60,48.00, 48.00,48.00l 416.00,0.00 c 26.40,0.00, 48.00-21.60, 48.00-48.00L 512.00,48.00 C 512.00,21.60, 490.40,0.00, 464.00,0.00z M 448.00,448.00L 64.00,448.00 L 64.00,64.00 l 384.00,0.00 L 448.00,448.00 zM 160.00,384.00l 192.00,0.00 c 17.60,0.00, 32.00-14.40, 32.00-32.00L 384.00,160.00 c0.00-17.60-14.40-32.00-32.00-32.00L 160.00,128.00 c-17.60,0.00-32.00,14.40-32.00,32.00l0.00,192.00 C 128.00,369.60, 142.40,384.00, 160.00,384.00z M 160.00,348.00l 192.00,0.00 l0.00,3.942 c-0.017,0.02-0.038,0.041-0.058,0.058L 160.057,352.00 c-0.02-0.017-0.041-0.038-0.057-0.058L 160.00,348.00 z M 160.057,160.00l 191.885,0.00 c 0.02,0.017, 0.041,0.038, 0.058,0.058L 352.00,164.00 L 160.00,164.00 l0.00-3.943 C 160.017,160.038, 160.038,160.017, 160.057,160.00z M 352.00,172.00l0.00,8.00 L 160.00,180.00 l0.00-8.00 L 352.00,172.00 z M 352.00,188.00l0.00,8.00 L 160.00,196.00 l0.00-8.00 L 352.00,188.00 z M 352.00,204.00l0.00,8.00 L 160.00,212.00 l0.00-8.00 L 352.00,204.00 z M 352.00,220.00l0.00,8.00 L 160.00,228.00 l0.00-8.00 L 352.00,220.00 z M 352.00,236.00l0.00,8.00 L 160.00,244.00 l0.00-8.00 L 352.00,236.00 z M 352.00,252.00l0.00,8.00 L 160.00,260.00 l0.00-8.00 L 352.00,252.00 z M 352.00,268.00l0.00,8.00 L 160.00,276.00 l0.00-8.00 L 352.00,268.00 z M 352.00,284.00l0.00,8.00 L 160.00,292.00 l0.00-8.00 L 352.00,284.00 z M 352.00,300.00l0.00,8.00 L 160.00,308.00 l0.00-8.00 L 352.00,300.00 z M 352.00,316.00l0.00,8.00 L 160.00,324.00 l0.00-8.00 L 352.00,316.00 z M 352.00,332.00l0.00,8.00 L 160.00,340.00 l0.00-8.00 L 352.00,332.00 z" ></path></svg>