<?xml version="1.0" encoding="utf-8"?> <!-- Generator: IcoMoon.io --> <!DOCTYPE svg PUBLIC "-//W3C//DTD SVG 1.1//EN" "http://www.w3.org/Graphics/SVG/1.1/DTD/svg11.dtd"> <svg width="512" height="512" viewBox="0 0 512 512" xmlns="http://www.w3.org/2000/svg" xmlns:xlink="http://www.w3.org/1999/xlink" fill="#242424"><path d="M 448.00,0.00L 512.00,0.00L 512.00,64.00L 448.00,64.00zM 448.00,128.00L 512.00,128.00L 512.00,192.00L 448.00,192.00zM 448.00,256.00L 512.00,256.00L 512.00,320.00L 448.00,320.00zM 448.00,384.00L 512.00,384.00L 512.00,448.00L 448.00,448.00zM 384.00,64.00L 448.00,64.00L 448.00,128.00L 384.00,128.00zM 384.00,192.00L 448.00,192.00L 448.00,256.00L 384.00,256.00zM 384.00,320.00L 448.00,320.00L 448.00,384.00L 384.00,384.00zM 384.00,448.00L 448.00,448.00L 448.00,512.00L 384.00,512.00zM 320.00,0.00L 384.00,0.00L 384.00,64.00L 320.00,64.00zM 320.00,128.00L 384.00,128.00L 384.00,192.00L 320.00,192.00zM 320.00,256.00L 384.00,256.00L 384.00,320.00L 320.00,320.00zM 320.00,384.00L 384.00,384.00L 384.00,448.00L 320.00,448.00zM 256.00,64.00L 320.00,64.00L 320.00,128.00L 256.00,128.00zM 256.00,192.00L 320.00,192.00L 320.00,256.00L 256.00,256.00zM 256.00,320.00L 320.00,320.00L 320.00,384.00L 256.00,384.00zM 256.00,448.00L 320.00,448.00L 320.00,512.00L 256.00,512.00zM 192.00,0.00L 256.00,0.00L 256.00,64.00L 192.00,64.00zM 192.00,128.00L 256.00,128.00L 256.00,192.00L 192.00,192.00zM 192.00,256.00L 256.00,256.00L 256.00,320.00L 192.00,320.00zM 192.00,384.00L 256.00,384.00L 256.00,448.00L 192.00,448.00zM 128.00,64.00L 192.00,64.00L 192.00,128.00L 128.00,128.00zM 128.00,192.00L 192.00,192.00L 192.00,256.00L 128.00,256.00zM 128.00,320.00L 192.00,320.00L 192.00,384.00L 128.00,384.00zM 128.00,448.00L 192.00,448.00L 192.00,512.00L 128.00,512.00zM 64.00,0.00L 128.00,0.00L 128.00,64.00L 64.00,64.00zM 64.00,128.00L 128.00,128.00L 128.00,192.00L 64.00,192.00zM 64.00,256.00L 128.00,256.00L 128.00,320.00L 64.00,320.00zM 64.00,384.00L 128.00,384.00L 128.00,448.00L 64.00,448.00zM0.00,64.00L 64.00,64.00L 64.00,128.00L0.00,128.00zM0.00,192.00L 64.00,192.00L 64.00,256.00L0.00,256.00zM0.00,320.00L 64.00,320.00L 64.00,384.00L0.00,384.00zM0.00,448.00L 64.00,448.00L 64.00,512.00L0.00,512.00z" ></path></svg>