<?xml version="1.0" encoding="utf-8"?> <!-- Generator: IcoMoon.io --> <!DOCTYPE svg PUBLIC "-//W3C//DTD SVG 1.1//EN" "http://www.w3.org/Graphics/SVG/1.1/DTD/svg11.dtd"> <svg width="512" height="512" viewBox="0 0 512 512" xmlns="http://www.w3.org/2000/svg" xmlns:xlink="http://www.w3.org/1999/xlink" fill="#242424"><path d="M 288.00,48.00c0.00-26.51-21.49-48.00-48.00-48.00c-26.509,0.00-48.00,21.49-48.00,48.00c0.00,48.00-96.00,16.00-96.00,80.00l 288.00,0.00 C 384.00,64.00, 288.00,96.00, 288.00,48.00z M 240.00,71.20 c-12.813,0.00-23.20-10.387-23.20-23.20s 10.387-23.20, 23.20-23.20c 12.812,0.00, 23.20,10.387, 23.20,23.20S 252.812,71.20, 240.00,71.20zM 448.00,96.00l-32.00,0.00 l0.00,64.00 L 64.00,160.00 L 64.00,96.00 L 32.00,96.00 c-17.673,0.00-32.00,14.327-32.00,32.00l0.00,352.00 c0.00,17.674, 14.326,32.00, 32.00,32.00l 416.00,0.00 c 17.672,0.00, 32.00-14.326, 32.00-32.00L 480.00,128.00 C 480.00,110.327, 465.672,96.00, 448.00,96.00z M 416.00,448.00L 64.00,448.00 l0.00-32.00 l 352.00,0.00 L 416.00,448.00 z M 416.00,352.00L 64.00,352.00 l0.00-32.00 l 352.00,0.00 L 416.00,352.00 z M 416.00,256.00L 64.00,256.00 l0.00-32.00 l 352.00,0.00 L 416.00,256.00 z" ></path></svg>