<?xml version="1.0" encoding="utf-8"?> <!-- Generator: IcoMoon.io --> <!DOCTYPE svg PUBLIC "-//W3C//DTD SVG 1.1//EN" "http://www.w3.org/Graphics/SVG/1.1/DTD/svg11.dtd"> <svg width="512" height="512" viewBox="0 0 512 512" xmlns="http://www.w3.org/2000/svg" xmlns:xlink="http://www.w3.org/1999/xlink" fill="#242424"><path d="M 256.00,64.00 C 204.715,64.00 156.50,83.972 120.235,120.235 C 83.972,156.50 64.00,204.715 64.00,256.00 C 64.00,307.285 83.972,355.50 120.235,391.765 C 156.50,428.028 204.715,448.00 256.00,448.00 C 307.285,448.00 355.50,428.028 391.765,391.765 C 428.028,355.50 448.00,307.285 448.00,256.00 C 448.00,204.715 428.028,156.50 391.765,120.235 C 355.50,83.972 307.285,64.00 256.00,64.00 Z M 256.00,0.00 L 256.00,0.00 C 397.385,0.00 512.00,114.615 512.00,256.00 C 512.00,397.385 397.385,512.00 256.00,512.00 C 114.615,512.00 0.00,397.385 0.00,256.00 C 0.00,114.615 114.615,0.00 256.00,0.00 ZM 311.417,224.00c-5.618-9.708-13.709-17.798-23.417-23.417L 288.00,96.00 l-64.00,0.00 l0.00,104.583 c-19.124,11.067-32.00,31.731-32.00,55.417 c0.00,35.347, 28.654,64.00, 64.00,64.00c 23.686,0.00, 44.35-12.876, 55.417-32.00L 384.00,288.00 l0.00-64.00 L 311.417,224.00 z M 256.00,288.00c-17.673,0.00-32.00-14.327-32.00-32.00s 14.327-32.00, 32.00-32.00 c 17.673,0.00, 32.00,14.327, 32.00,32.00S 273.673,288.00, 256.00,288.00z" ></path></svg>