<?xml version="1.0" encoding="utf-8"?> <!-- Generator: IcoMoon.io --> <!DOCTYPE svg PUBLIC "-//W3C//DTD SVG 1.1//EN" "http://www.w3.org/Graphics/SVG/1.1/DTD/svg11.dtd"> <svg width="512" height="512" viewBox="0 0 512 512" xmlns="http://www.w3.org/2000/svg" xmlns:xlink="http://www.w3.org/1999/xlink" fill="#242424"><path d="M 240.00,32.00C 107.452,32.00,0.00,139.452,0.00,272.00c0.00,132.549, 107.452,240.00, 240.00,240.00c 132.549,0.00, 240.00-107.451, 240.00-240.00 C 480.00,139.452, 372.549,32.00, 240.00,32.00z M 384.00,288.00l-98.742,0.00 c-6.591,18.641-24.359,32.00-45.258,32.00c-26.51,0.00-48.00-21.49-48.00-48.00 c0.00-20.898, 13.359-38.667, 32.00-45.258L 224.00,96.00 l 32.00,0.00 l0.00,130.742 c 13.636,4.821, 24.438,15.623, 29.258,29.258L 384.00,256.00 L 384.00,288.00 z" ></path></svg>