<?xml version="1.0" encoding="utf-8"?> <!-- Generator: IcoMoon.io --> <!DOCTYPE svg PUBLIC "-//W3C//DTD SVG 1.1//EN" "http://www.w3.org/Graphics/SVG/1.1/DTD/svg11.dtd"> <svg width="512" height="512" viewBox="0 0 512 512" xmlns="http://www.w3.org/2000/svg" xmlns:xlink="http://www.w3.org/1999/xlink" fill="#242424"><path d="M 240.00,32.00C 107.452,32.00,0.00,139.452,0.00,272.00c0.00,132.549, 107.452,240.00, 240.00,240.00c 132.549,0.00, 240.00-107.451, 240.00-240.00 C 480.00,139.452, 372.549,32.00, 240.00,32.00z M 240.00,480.00c-114.875,0.00-208.00-93.125-208.00-208.00S 125.125,64.00, 240.00,64.00s 208.00,93.125, 208.00,208.00 S 354.875,480.00, 240.00,480.00zM 256.00,226.742L 256.00,96.00 l-32.00,0.00 l0.00,130.742 c-18.641,6.59-32.00,24.36-32.00,45.258c0.00,26.51, 21.49,48.00, 48.00,48.00c 20.898,0.00, 38.667-13.359, 45.258-32.00 L 384.00,288.00 l0.00-32.00 l-98.742,0.00 C 280.438,242.365, 269.636,231.563, 256.00,226.742z" ></path></svg>