<?xml version="1.0" encoding="utf-8"?> <!-- Generator: IcoMoon.io --> <!DOCTYPE svg PUBLIC "-//W3C//DTD SVG 1.1//EN" "http://www.w3.org/Graphics/SVG/1.1/DTD/svg11.dtd"> <svg width="512" height="512" viewBox="0 0 512 512" xmlns="http://www.w3.org/2000/svg" xmlns:xlink="http://www.w3.org/1999/xlink" fill="#242424"><path d="M 380.628,335.372 L 335.372,380.628 L 256.00,301.255 L 176.627,380.627 L 131.372,335.372 L 210.745,256.00 L 131.373,176.627 L 176.627,131.373 L 256.00,210.745 L 335.372,131.372 L 380.628,176.627 L 301.255,256.00 L 380.628,335.372 ZM 256.00,74.00 C 207.386,74.00 161.682,92.931 127.307,127.307 C 92.931,161.682 74.00,207.386 74.00,256.00 C 74.00,304.614 92.932,350.318 127.307,384.693 C 161.682,419.068 207.386,438.00 256.00,438.00 C 304.614,438.00 350.318,419.068 384.693,384.693 C 419.068,350.318 438.00,304.614 438.00,256.00 C 438.00,207.386 419.068,161.682 384.693,127.307 C 350.318,92.931 304.614,74.00 256.00,74.00 Z M 256.00,32.00 L 256.00,32.00 C 379.712,32.00 480.00,132.288 480.00,256.00 C 480.00,379.712 379.712,480.00 256.00,480.00 C 132.289,480.00 32.00,379.712 32.00,256.00 C 32.00,132.288 132.289,32.00 256.00,32.00 Z" ></path></svg>