<?xml version="1.0" encoding="utf-8"?> <!-- Generator: IcoMoon.io --> <!DOCTYPE svg PUBLIC "-//W3C//DTD SVG 1.1//EN" "http://www.w3.org/Graphics/SVG/1.1/DTD/svg11.dtd"> <svg width="512" height="512" viewBox="0 0 512 512" xmlns="http://www.w3.org/2000/svg" xmlns:xlink="http://www.w3.org/1999/xlink" fill="#242424"><path d="M 446.134,257.245C 447.356,251.691, 448.00,245.922, 448.00,240.00c0.00-44.183-35.817-80.00-80.00-80.00c-7.112,0.00-14.007,0.934-20.567,2.676 C 335.035,124.00, 298.789,96.00, 256.00,96.00c-43.674,0.00-80.527,29.168-92.163,69.085C 152.466,161.775, 140.441,160.00, 128.00,160.00 C 57.308,160.00,0.00,217.308,0.00,288.00c0.00,70.693, 57.308,128.00, 128.00,128.00l 304.00,0.00 c 44.183,0.00, 80.00-35.816, 80.00-80.00C 512.00,296.641, 483.573,263.92, 446.134,257.245 z" ></path></svg>