<?xml version="1.0" encoding="utf-8"?> <!-- Generator: IcoMoon.io --> <!DOCTYPE svg PUBLIC "-//W3C//DTD SVG 1.1//EN" "http://www.w3.org/Graphics/SVG/1.1/DTD/svg11.dtd"> <svg width="512" height="512" viewBox="0 0 512 512" xmlns="http://www.w3.org/2000/svg" xmlns:xlink="http://www.w3.org/1999/xlink" fill="#242424"><path d="M 512.00,208.00l-112.869-11.287l 71.83-87.791L 403.078,41.04l-87.791,71.829L 304.00,0.00l-96.00,0.00 l-11.287,112.869L 108.922,41.04 L 41.04,108.922l 71.829,87.791L0.00,208.00l0.00,96.00 l 112.869,11.287L 41.04,403.078l 67.882,67.883l 87.791-71.83L 208.00,512.00l 96.00,0.00 l 11.287-112.869 l 87.791,71.83l 67.883-67.883l-71.83-87.791L 512.00,304.00L 512.00,208.00 z M 352.00,216.236l0.00,79.528 L 295.764,352.00l-79.528,0.00 L 160.00,295.764l0.00-79.528 L 216.235,160.00 l 79.528,0.00 L 352.00,216.236z" ></path></svg>