<?xml version="1.0" encoding="utf-8"?> <!-- Generator: IcoMoon.io --> <!DOCTYPE svg PUBLIC "-//W3C//DTD SVG 1.1//EN" "http://www.w3.org/Graphics/SVG/1.1/DTD/svg11.dtd"> <svg width="512" height="512" viewBox="0 0 512 512" xmlns="http://www.w3.org/2000/svg" xmlns:xlink="http://www.w3.org/1999/xlink" fill="#242424"><path d="M 512.00,224.00l-120.543-24.108l 68.189-102.284l-45.255-45.255l-102.283,68.189L 288.00,0.00l-64.00,0.00 l-24.108,120.542L 97.608,52.353 L 52.353,97.608l 68.189,102.284L0.00,224.00l0.00,64.00 l 120.542,24.108L 52.353,414.392l 45.255,45.255l 102.284-68.189L 224.00,512.00l 64.00,0.00 l 24.108-120.542 l 102.283,68.188l 45.255-45.255l-68.188-102.283L 512.00,288.00L 512.00,224.00 z M 352.00,216.236l0.00,79.528 L 295.764,352.00l-79.528,0.00 L 160.00,295.764l0.00-79.528 L 216.235,160.00l 79.528,0.00 L 352.00,216.236zM 224.00,224.00L 288.00,224.00L 288.00,288.00L 224.00,288.00z" ></path></svg>