<?xml version="1.0" encoding="utf-8"?> <!-- Generator: IcoMoon.io --> <!DOCTYPE svg PUBLIC "-//W3C//DTD SVG 1.1//EN" "http://www.w3.org/Graphics/SVG/1.1/DTD/svg11.dtd"> <svg width="512" height="512" viewBox="0 0 512 512" xmlns="http://www.w3.org/2000/svg" xmlns:xlink="http://www.w3.org/1999/xlink" fill="#242424"><path d="M 400.00,504.00c-57.346,0.00-104.00-46.654-104.00-104.00l0.00-56.00 l-80.00,0.00 l0.00,56.00 c0.00,57.346-46.654,104.00-104.00,104.00S 8.00,457.346, 8.00,400.00s 46.654-104.00, 104.00-104.00l 56.00,0.00 l0.00-80.00 l-56.00,0.00 C 54.654,216.00, 8.00,169.346, 8.00,112.00S 54.654,8.00, 112.00,8.00s 104.00,46.654, 104.00,104.00l0.00,56.00 l 80.00,0.00 l0.00-56.00 C 296.00,54.654, 342.654,8.00, 400.00,8.00s 104.00,46.654, 104.00,104.00 s-46.654,104.00-104.00,104.00l-56.00,0.00 l0.00,80.00 l 56.00,0.00 c 57.346,0.00, 104.00,46.654, 104.00,104.00S 457.346,504.00, 400.00,504.00z M 344.00,400.00c0.00,30.879, 25.121,56.00, 56.00,56.00 s 56.00-25.121, 56.00-56.00s-25.121-56.00-56.00-56.00l-56.00,0.00 L 344.00,400.00 z M 112.00,344.00c-30.878,0.00-56.00,25.121-56.00,56.00s 25.122,56.00, 56.00,56.00s 56.00-25.121, 56.00-56.00l0.00-56.00 L 112.00,344.00 z M 296.00,296.00 l0.00-80.00 l-80.00,0.00 l0.00,80.00 L 296.00,296.00 z M 400.00,168.00c 30.879,0.00, 56.00-25.122, 56.00-56.00s-25.121-56.00-56.00-56.00s-56.00,25.122-56.00,56.00l0.00,56.00 L 400.00,168.00 z M 112.00,56.00c-30.878,0.00-56.00,25.122-56.00,56.00 s 25.122,56.00, 56.00,56.00l 56.00,0.00 l0.00-56.00 C 168.00,81.122, 142.878,56.00, 112.00,56.00z" ></path></svg>