<?xml version="1.0" encoding="utf-8"?> <!-- Generator: IcoMoon.io --> <!DOCTYPE svg PUBLIC "-//W3C//DTD SVG 1.1//EN" "http://www.w3.org/Graphics/SVG/1.1/DTD/svg11.dtd"> <svg width="512" height="512" viewBox="0 0 512 512" xmlns="http://www.w3.org/2000/svg" xmlns:xlink="http://www.w3.org/1999/xlink" fill="#242424"><path d="M 240.00,32.00C 107.452,32.00,0.00,139.452,0.00,272.00c0.00,132.549, 107.452,240.00, 240.00,240.00c 132.549,0.00, 240.00-107.451, 240.00-240.00 C 480.00,139.452, 372.549,32.00, 240.00,32.00z M 240.00,464.00c-106.039,0.00-192.00-85.961-192.00-192.00c0.00-106.039, 85.961-192.00, 192.00-192.00 c 106.039,0.00, 192.00,85.961, 192.00,192.00C 432.00,378.039, 346.039,464.00, 240.00,464.00zM 416.00,264.615l-106.469-24.569L 352.00,182.588L 352.00,160.00 l-22.588,0.00 l-57.458,42.469L 247.385,96.00l-14.77,0.00 l-24.569,106.469L 150.588,160.00L 128.00,160.00 l0.00,22.588 l 42.469,57.458L 64.00,264.615l0.00,14.77 l 106.469,24.569L 128.00,361.412L 128.00,384.00 l 22.588,0.00 l 57.458-42.469L 232.615,448.00l 14.77,0.00 l 24.569-106.469 L 329.412,384.00L 352.00,384.00 l0.00-22.588 l-42.469-57.458L 416.00,279.385L 416.00,264.615 z M 256.00,276.00c0.00,6.60-5.40,12.00-12.00,12.00l-8.00,0.00 c-6.60,0.00-12.00-5.40-12.00-12.00l0.00-8.00 c0.00-6.60, 5.40-12.00, 12.00-12.00l 8.00,0.00 c 6.60,0.00, 12.00,5.40, 12.00,12.00L 256.00,276.00 z" ></path></svg>