<?xml version="1.0" encoding="utf-8"?> <!-- Generator: IcoMoon.io --> <!DOCTYPE svg PUBLIC "-//W3C//DTD SVG 1.1//EN" "http://www.w3.org/Graphics/SVG/1.1/DTD/svg11.dtd"> <svg width="512" height="512" viewBox="0 0 512 512" xmlns="http://www.w3.org/2000/svg" xmlns:xlink="http://www.w3.org/1999/xlink" fill="#242424"><path d="M 448.00,448.00L 313.792,30.465C 308.406,13.709, 293.20,0.00, 280.00,0.00s-34.80,0.00-48.00,0.00s-28.407,13.709-33.792,30.465L 64.00,448.00L0.00,448.00 l0.00,64.00 l 512.00,0.00 l0.00-64.00 L 448.00,448.00 z M 210.755,96.00l 90.489,0.00 l 20.572,64.00L 190.184,160.00 L 210.755,96.00z M 169.613,224.00l 172.775,0.00 l 20.571,64.00L 149.041,288.00 L 169.613,224.00z M 107.898,416.00l 20.571-64.00 l 255.061,0.00 l 20.571,64.00L 107.898,416.00 z" ></path></svg>