<?xml version="1.0" encoding="utf-8"?> <!-- Generator: IcoMoon.io --> <!DOCTYPE svg PUBLIC "-//W3C//DTD SVG 1.1//EN" "http://www.w3.org/Graphics/SVG/1.1/DTD/svg11.dtd"> <svg width="512" height="512" viewBox="0 0 512 512" xmlns="http://www.w3.org/2000/svg" xmlns:xlink="http://www.w3.org/1999/xlink" fill="#242424"><path d="M 224.00,384.00A32.00,32.00 12600.00 1 1 288.00,384A32.00,32.00 12600.00 1 1 224.00,384zM 256.00,64.00c-96.026,0.00-182.161,42.307-240.815,109.286l 24.081,21.071C 92.055,134.077, 169.577,96.00, 256.00,96.00 c 86.423,0.00, 163.945,38.077, 216.734,98.357l 24.081-21.071C 438.161,106.307, 352.027,64.00, 256.00,64.00zM 256.00,160.00c-67.218,0.00-127.513,29.615-168.571,76.50l 24.082,21.071C 146.703,217.384, 198.385,192.00, 256.00,192.00 c 57.616,0.00, 109.297,25.384, 144.489,65.571l 24.082-21.071C 383.513,189.615, 323.219,160.00, 256.00,160.00zM 256.00,256.00c-38.41,0.00-72.865,16.923-96.326,43.715l 24.082,21.071C 201.352,300.692, 227.192,288.00, 256.00,288.00 c 28.808,0.00, 54.648,12.692, 72.245,32.786l 24.081-21.071C 328.865,272.923, 294.41,256.00, 256.00,256.00z" ></path></svg>