<?xml version="1.0" encoding="utf-8"?> <!-- Generator: IcoMoon.io --> <!DOCTYPE svg PUBLIC "-//W3C//DTD SVG 1.1//EN" "http://www.w3.org/Graphics/SVG/1.1/DTD/svg11.dtd"> <svg width="640" height="512" viewBox="0 0 640 512" xmlns="http://www.w3.org/2000/svg" xmlns:xlink="http://www.w3.org/1999/xlink" fill="#242424"><path d="M 288.00,448.00A32.00,32.00 2520.00 1 1 352.00,448A32.00,32.00 2520.00 1 1 288.00,448zM 320.00,96.00c 112.80,0.00, 216.385,34.658, 297.72,92.509C 546.826,92.902, 439.777,32.00, 320.00,32.00C 200.223,32.00, 93.175,92.902, 22.281,188.508 C 103.616,130.658, 207.20,96.00, 320.00,96.00zM 320.00,224.00c 76.853,0.00, 147.895,20.56, 205.514,55.385C 479.462,207.064, 404.574,160.00, 320.00,160.00s-159.462,47.064-205.514,119.385 C 172.105,244.56, 243.146,224.00, 320.00,224.00zM 320.00,352.00c 40.751,0.00, 79.405,5.262, 114.121,14.676C 411.059,319.587, 368.588,288.00, 320.00,288.00s-91.059,31.587-114.121,78.676 C 240.595,357.262, 279.248,352.00, 320.00,352.00z" ></path></svg>