<?xml version="1.0" encoding="utf-8"?> <!-- Generator: IcoMoon.io --> <!DOCTYPE svg PUBLIC "-//W3C//DTD SVG 1.1//EN" "http://www.w3.org/Graphics/SVG/1.1/DTD/svg11.dtd"> <svg width="512" height="512" viewBox="0 0 512 512" xmlns="http://www.w3.org/2000/svg" xmlns:xlink="http://www.w3.org/1999/xlink" fill="#242424"><path d="M 512.00,208.00L 512.00,80.00 c0.00-8.80-7.20-16.00-16.00-16.00L 16.00,64.00 C 7.20,64.00,0.00,71.20,0.00,80.00l0.00,128.00 c0.00,8.80, 7.20,16.00, 16.00,16.00l 60.175,0.00 L0.00,448.00l 96.00,0.00 l 32.646-96.00l 254.707,0.00 L 416.00,448.00 l 96.00,0.00 l-76.175-224.00L 496.00,224.00 C 504.80,224.00, 512.00,216.80, 512.00,208.00z M 416.00,96.00l-96.00,96.00l-96.00,0.00 l 96.00-96.00L 416.00,96.00 z M 128.00,96.00l 96.00,0.00 l-96.00,96.00L 32.00,192.00 L 128.00,96.00z M 372.472,320.00 L 139.529,320.00 l 32.646-96.00l 167.65,0.00 L 372.472,320.00z M 480.00,192.00l-64.00,0.00 l 64.00-64.00L 480.00,192.00 z" ></path></svg>