<?xml version="1.0" encoding="utf-8"?> <!-- Generator: IcoMoon.io --> <!DOCTYPE svg PUBLIC "-//W3C//DTD SVG 1.1//EN" "http://www.w3.org/Graphics/SVG/1.1/DTD/svg11.dtd"> <svg width="512" height="512" viewBox="0 0 512 512" xmlns="http://www.w3.org/2000/svg" xmlns:xlink="http://www.w3.org/1999/xlink" fill="#242424"><path d="M 352.00,320.00c 32.00-32.00, 128.00,64.00, 128.00,96.00s-96.00,96.00-96.00,96.00c-64.00,0.00-193.75-65.75-256.00-128.00S0.00,192.00,0.00,128.00c0.00,0.00, 64.00-96.00, 96.00-96.00s 128.00,96.00, 96.00,128.00 s-64.00,32.00-64.00,64.00s 32.00,64.00, 64.00,96.00s 64.00,64.00, 96.00,64.00S 320.00,352.00, 352.00,320.00zM 480.00,160.00 L 416.00,160.00 L 416.00,224.00 L 352.00,224.00 L 352.00,160.00 L 288.00,160.00 L 288.00,96.00 L 352.00,96.00 L 352.00,32.00 L 416.00,32.00 L 416.00,96.00 L 480.00,96.00 Z" ></path></svg>