<?xml version="1.0" encoding="utf-8"?> <!-- Generator: IcoMoon.io --> <!DOCTYPE svg PUBLIC "-//W3C//DTD SVG 1.1//EN" "http://www.w3.org/Graphics/SVG/1.1/DTD/svg11.dtd"> <svg width="512" height="512" viewBox="0 0 512 512" xmlns="http://www.w3.org/2000/svg" xmlns:xlink="http://www.w3.org/1999/xlink" fill="#242424"><path d="M 432.00,64.00 C 440.80,64.00 448.00,71.20 448.00,80.00 L 448.00,384.00 L 320.00,512.00 L 80.00,512.00 C 71.199,512.00 64.00,504.80 64.00,496.00 L 64.00,80.00 C 64.00,71.20 71.199,64.00 80.00,64.00 L 112.00,64.00 L 112.00,96.00 L 96.00,96.00 L 96.00,480.00 L 288.00,480.00 L 288.00,352.00 L 416.00,352.00 L 416.00,96.00 L 400.00,96.00 L 400.00,64.00 L 432.00,64.00 ZM 384.00,64.00l-64.00,0.00 L 320.00,32.00 c0.00-17.60-14.40-32.00-32.00-32.00l-64.00,0.00 c-17.602,0.00-32.00,14.40-32.00,32.00l0.00,32.00 l-64.00,0.00 l0.00,64.00 l 256.00,0.00 L 384.00,64.00 z M 288.00,64.00l-64.00,0.00 L 224.00,32.057 c 0.017-0.019, 0.036-0.039, 0.057-0.057l 63.884,0.00 c 0.021,0.018, 0.041,0.038, 0.059,0.057L 288.00,64.00 z" ></path></svg>