<?xml version="1.0" encoding="utf-8"?> <!-- Generator: IcoMoon.io --> <!DOCTYPE svg PUBLIC "-//W3C//DTD SVG 1.1//EN" "http://www.w3.org/Graphics/SVG/1.1/DTD/svg11.dtd"> <svg width="512" height="512" viewBox="0 0 512 512" xmlns="http://www.w3.org/2000/svg" xmlns:xlink="http://www.w3.org/1999/xlink" fill="#242424"><path d="M 441.435,198.565c-7.42-7.42-19.449-7.42-26.869,0.00L 336.00,277.131L 234.87,176.00l 78.564-78.565c 7.421-7.42, 7.421-19.45,0.00-26.87 c-7.42-7.42-19.449-7.42-26.869,0.00L 208.00,149.13l-46.565-46.565c-7.42-7.42-19.45-7.42-26.87,0.00s-7.42,19.45,0.00,26.87l 33.49,33.49 L 101.49,229.49c-42.174,42.174-48.766,106.456-19.775,155.541L 9.373,457.373c-12.497,12.496-12.497,32.758,0.00,45.254 C 15.621,508.876, 23.811,512.00, 32.00,512.00s 16.379-3.124, 22.627-9.373l 72.341-72.342c 49.085,28.99, 113.367,22.398, 155.541-19.775 l 66.565-66.565l 33.49,33.49c 3.71,3.71, 8.572,5.565, 13.435,5.565s 9.725-1.855, 13.435-5.565c 7.421-7.42, 7.421-19.449,0.00-26.869 L 362.869,304.00l 78.565-78.565C 448.855,218.015, 448.855,205.985, 441.435,198.565z" ></path></svg>