<?xml version="1.0" encoding="utf-8"?> <!-- Generator: IcoMoon.io --> <!DOCTYPE svg PUBLIC "-//W3C//DTD SVG 1.1//EN" "http://www.w3.org/Graphics/SVG/1.1/DTD/svg11.dtd"> <svg width="512" height="512" viewBox="0 0 512 512" xmlns="http://www.w3.org/2000/svg" xmlns:xlink="http://www.w3.org/1999/xlink" fill="#242424"><path d="M 464.00,64.00L 48.00,64.00 C 21.60,64.00,0.00,85.60,0.00,112.00l0.00,288.00 c0.00,26.40, 21.60,48.00, 48.00,48.00l 416.00,0.00 c 26.40,0.00, 48.00-21.60, 48.00-48.00L 512.00,112.00 C 512.00,85.60, 490.40,64.00, 464.00,64.00z M 96.00,384.00 L 64.00,384.00 l0.00-64.00 l 32.00,0.00 L 96.00,384.00 z M 160.00,384.00l-32.00,0.00 l0.00-64.00 l 32.00,0.00 L 160.00,384.00 z M 224.00,384.00l-32.00,0.00 l0.00-64.00 l 32.00,0.00 L 224.00,384.00 z M 496.00,256.00L 16.00,256.00 l0.00-96.00 l 480.00,0.00 L 496.00,256.00 z" ></path></svg>