<?xml version="1.0" encoding="utf-8"?> <!-- Generator: IcoMoon.io --> <!DOCTYPE svg PUBLIC "-//W3C//DTD SVG 1.1//EN" "http://www.w3.org/Graphics/SVG/1.1/DTD/svg11.dtd"> <svg width="512" height="512" viewBox="0 0 512 512" xmlns="http://www.w3.org/2000/svg" xmlns:xlink="http://www.w3.org/1999/xlink" fill="#242424"><path d="M 128.00,384.00L 384.00,384.00L 384.00,448.00L 128.00,448.00zM 480.00,96.00c-17.673,0.00-32.00,14.327-32.00,32.00c0.00,6.567, 1.981,12.67, 5.375,17.75L 336.00,224.00l-12.031-96.254 C 339.768,125.791, 352.00,112.329, 352.00,96.00c0.00-17.673-14.327-32.00-32.00-32.00s-32.00,14.327-32.00,32.00c0.00,12.528, 7.203,23.367, 17.689,28.621L 256.00,224.00 l-49.689-99.379C 216.797,119.367, 224.00,108.528, 224.00,96.00c0.00-17.673-14.327-32.00-32.00-32.00s-32.00,14.327-32.00,32.00 c0.00,16.329, 12.232,29.791, 28.032,31.746L 176.00,224.00L 58.626,145.75C 62.019,140.671, 64.00,134.567, 64.00,128.00c0.00-17.673-14.327-32.00-32.00-32.00 S0.00,110.327,0.00,128.00s 14.327,32.00, 32.00,32.00c 4.478,0.00, 8.738-0.923, 12.607-2.583L 128.00,352.00l 256.00,0.00 l 83.393-194.583 c 3.869,1.66, 8.13,2.583, 12.607,2.583c 17.673,0.00, 32.00-14.327, 32.00-32.00S 497.673,96.00, 480.00,96.00z" ></path></svg>