<?xml version="1.0" encoding="utf-8"?> <!-- Generator: IcoMoon.io --> <!DOCTYPE svg PUBLIC "-//W3C//DTD SVG 1.1//EN" "http://www.w3.org/Graphics/SVG/1.1/DTD/svg11.dtd"> <svg width="512" height="512" viewBox="0 0 512 512" xmlns="http://www.w3.org/2000/svg" xmlns:xlink="http://www.w3.org/1999/xlink" fill="#242424"><path d="M 244.016,0.00l-8.031,0.00 L 26.718,112.107L0.00,126.42l0.00,228.121 L 235.137,512.00l 9.727,0.00 L 480.00,354.541L 480.00,126.42 L 244.016,0.00z M 203.05,452.00l-11.947-8.00 L 224.00,444.00 l0.00,8.00 L 203.05,452.00 z M 224.00,460.00l0.00,6.029 L 214.996,460.00L 224.00,460.00 z M 179.157,436.00l-11.947-8.00L 224.00,428.00 l0.00,8.00 L 179.157,436.00 z M 155.263,420.00l-11.946-8.00L 224.00,412.00 l0.00,8.00 L 155.263,420.00 z M 131.37,404.00l-11.946-8.00L 224.00,396.00 l0.00,8.00 L 131.37,404.00 z M 107.477,388.00l-11.947-8.00L 224.00,380.00 l0.00,8.00 L 107.477,388.00 z M 83.584,372.00l-11.947-8.00L 224.00,364.00 l0.00,8.00 L 83.584,372.00 z M 59.69,356.00 l-11.946-8.00L 224.00,348.00 l0.00,8.00 L 59.69,356.00 z M 35.797,340.00L 32.00,337.457L 32.00,332.00 l 192.00,0.00 l0.00,8.00 L 35.797,340.00 z M 32.00,324.00l0.00-8.00 l 192.00,0.00 l0.00,8.00 L 32.00,324.00 z M 32.00,308.00l0.00-8.00 l 192.00,0.00 l0.00,8.00 L 32.00,308.00 z M 32.00,292.00l0.00-8.00 l 192.00,0.00 l0.00,8.00 L 32.00,292.00 z M 32.00,276.00l0.00-8.00 l 192.00,0.00 l0.00,8.00 L 32.00,276.00 z M 32.00,260.00l0.00-8.00 l 166.65,0.00 l 14.934,8.00L 32.00,260.00 z M 32.00,244.00l0.00-8.00 l 136.784,0.00 l 14.934,8.00L 32.00,244.00 z M 32.00,228.00l0.00-8.00 l 106.917,0.00 l 14.934,8.00L 32.00,228.00 z M 32.00,212.00l0.00-8.00 l 77.05,0.00 l 14.933,8.00L 32.00,212.00 z M 32.00,196.00l0.00-8.00 l 47.184,0.00 l 14.934,8.00L 32.00,196.00 z M 32.00,180.00l0.00-8.00 l 17.317,0.00 l 14.933,8.00L 32.00,180.00 z M 32.00,164.00l0.00-1.277 L 34.383,164.00L 32.00,164.00 z M 240.00,237.849 L 49.882,136.00L 240.00,34.151L 430.117,136.00L 240.00,237.849z" ></path></svg>