<?xml version="1.0" encoding="utf-8"?> <!-- Generator: IcoMoon.io --> <!DOCTYPE svg PUBLIC "-//W3C//DTD SVG 1.1//EN" "http://www.w3.org/Graphics/SVG/1.1/DTD/svg11.dtd"> <svg width="512" height="512" viewBox="0 0 512 512" xmlns="http://www.w3.org/2000/svg" xmlns:xlink="http://www.w3.org/1999/xlink" fill="#242424"><path d="M 244.016,0.00l-8.031,0.00 L 26.718,112.107L0.00,126.42l0.00,228.121 L 235.137,512.00l 9.727,0.00 L 480.00,354.541L 480.00,126.42 L 244.016,0.00z M 430.117,136.00 l-76.519,40.992l-85.01-45.542l 76.518-40.992L 430.117,136.00z M 240.00,34.151l 76.519,40.992L 240.00,116.136l-76.519-40.992L 240.00,34.151z M 134.893,90.458l 76.519,40.993l-85.011,45.541L 49.882,136.00L 134.893,90.458z M 98.542,382.017L 32.00,337.457l0.00-77.563 l 66.542,41.589 L 98.542,382.017 z M 98.542,269.643L 32.00,228.054l0.00-65.331 l 66.542,35.647L 98.542,269.643 z M 224.00,466.029l-98.458-65.933l0.00-81.739 L 224.00,379.895L 224.00,466.029 z M 224.00,348.054l-98.458-61.536l0.00-73.684 L 224.00,265.58L 224.00,348.054 z M 240.00,237.849l-85.01-45.541L 240.00,146.766l 85.011,45.541L 240.00,237.849z M 354.459,400.097L 256.00,466.029l0.00-86.135 l 98.459-61.537L 354.459,400.097 z M 354.459,286.518L 256.00,348.055L 256.00,265.58 l 98.459-52.746L 354.459,286.518 z M 448.00,337.457l-66.541,44.559l0.00-80.533 L 448.00,259.894L 448.00,337.457 z M 448.00,228.054l-66.541,41.588L 381.459,198.37 L 448.00,162.723L 448.00,228.054 z" ></path></svg>