<?xml version="1.0" encoding="utf-8"?> <!-- Generator: IcoMoon.io --> <!DOCTYPE svg PUBLIC "-//W3C//DTD SVG 1.1//EN" "http://www.w3.org/Graphics/SVG/1.1/DTD/svg11.dtd"> <svg width="512" height="512" viewBox="0 0 512 512" xmlns="http://www.w3.org/2000/svg" xmlns:xlink="http://www.w3.org/1999/xlink" fill="#242424"><path d="M 432.00,256.00l-16.104,0.00 c 0.062-2.658, 0.104-5.323, 0.104-8.00c0.00-1.927-0.026-3.846-0.062-5.762c 0.037-0.744, 0.062-1.49, 0.062-2.238 c0.00-53.02-93.125-96.00-208.00-96.00S0.00,186.98,0.00,240.00c0.00,0.749, 0.024,1.494, 0.062,2.238C 0.026,244.154,0.00,246.073,0.00,248.00 c0.00,145.803, 93.125,264.00, 208.00,264.00c 64.591,0.00, 122.305-37.368, 160.455-96.00L 432.00,416.00 c 44.183,0.00, 80.00-35.817, 80.00-80.00S 476.183,256.00, 432.00,256.00z M 208.00,288.00 c-79.529,0.00-144.00-21.49-144.00-48.00s 64.471-48.00, 144.00-48.00c 79.529,0.00, 144.00,21.49, 144.00,48.00S 287.529,288.00, 208.00,288.00z M 432.00,384.00l-45.697,0.00 c 13.696-28.864, 23.17-61.321, 27.323-96.00L 432.00,288.00 c 23.159,0.00, 42.00,24.841, 42.00,48.00S 455.159,384.00, 432.00,384.00z" ></path></svg>