<?xml version="1.0" encoding="utf-8"?> <!-- Generator: IcoMoon.io --> <!DOCTYPE svg PUBLIC "-//W3C//DTD SVG 1.1//EN" "http://www.w3.org/Graphics/SVG/1.1/DTD/svg11.dtd"> <svg width="512" height="512" viewBox="0 0 512 512" xmlns="http://www.w3.org/2000/svg" xmlns:xlink="http://www.w3.org/1999/xlink" fill="#242424"><path d="M 256.00,0.00C 114.615,0.00,0.00,42.98,0.00,96.00l0.00,320.00 c0.00,53.02, 114.615,96.00, 256.00,96.00s 256.00-42.98, 256.00-96.00L 512.00,96.00 C 512.00,42.98, 397.385,0.00, 256.00,0.00z M 480.00,416.00 c0.00,4.563-9.96,21.323-54.217,37.92c-21.501,8.062-46.785,14.432-75.149,18.931C 320.726,477.595, 288.887,480.00, 256.00,480.00 c-32.886,0.00-64.726-2.405-94.634-7.149c-28.365-4.499-53.648-10.868-75.149-18.931C 41.96,437.323, 32.00,420.563, 32.00,416.00L 32.00,302.499 C 75.667,332.018, 159.604,352.00, 256.00,352.00s 180.333-19.982, 224.00-49.501L 480.00,416.00 z M 480.00,256.00c0.00,4.563-9.96,21.323-54.217,37.92 c-21.501,8.062-46.785,14.432-75.149,18.931C 320.726,317.595, 288.887,320.00, 256.00,320.00c-32.886,0.00-64.726-2.405-94.634-7.149 c-28.365-4.499-53.648-10.868-75.149-18.931C 41.96,277.323, 32.00,260.563, 32.00,256.00L 32.00,142.499 C 75.667,172.017, 159.604,192.00, 256.00,192.00 s 180.333-19.983, 224.00-49.501L 480.00,256.00 z M 440.174,128.00c-4.342,1.962-9.115,3.942-14.391,5.92c-21.501,8.063-46.785,14.432-75.149,18.931 C 320.726,157.595, 288.887,160.00, 256.00,160.00c-32.886,0.00-64.726-2.405-94.634-7.149c-28.365-4.499-53.648-10.868-75.149-18.931 c-5.275-1.978-10.049-3.958-14.391-5.92C 39.742,113.502, 32.00,100.019, 32.00,96.00c0.00-4.563, 9.96-21.324, 54.217-37.92 c 21.501-8.063, 46.785-14.432, 75.149-18.931C 191.274,34.405, 223.114,32.00, 256.00,32.00c 32.887,0.00, 64.726,2.405, 94.634,7.149 c 28.364,4.499, 53.648,10.868, 75.149,18.931C 470.04,74.676, 480.00,91.437, 480.00,96.00C 480.00,100.019, 472.259,113.502, 440.174,128.00z" ></path></svg>