<?xml version="1.0" encoding="utf-8"?> <!-- Generator: IcoMoon.io --> <!DOCTYPE svg PUBLIC "-//W3C//DTD SVG 1.1//EN" "http://www.w3.org/Graphics/SVG/1.1/DTD/svg11.dtd"> <svg width="512" height="512" viewBox="0 0 512 512" xmlns="http://www.w3.org/2000/svg" xmlns:xlink="http://www.w3.org/1999/xlink" fill="#242424"><path d="M 400.00,192.00l 96.00-64.00l-96.00-64.00L 288.00,64.00 L 288.00,24.00 c0.00-13.20-10.80-24.00-24.00-24.00l-16.00,0.00 c-13.20,0.00-24.00,10.80-24.00,24.00l0.00,40.00 L 64.00,64.00 l0.00,128.00 l 160.00,0.00 l0.00,32.00 L 80.00,224.00 l-64.00,48.00l 64.00,48.00l 144.00,0.00 l0.00,192.00 l 64.00,0.00 L 288.00,320.00 l 128.00,0.00 l0.00-96.00 L 288.00,224.00 l0.00-32.00 L 400.00,192.00 z" ></path></svg>