<?xml version="1.0" encoding="utf-8"?> <!-- Generator: IcoMoon.io --> <!DOCTYPE svg PUBLIC "-//W3C//DTD SVG 1.1//EN" "http://www.w3.org/Graphics/SVG/1.1/DTD/svg11.dtd"> <svg width="512" height="512" viewBox="0 0 512 512" xmlns="http://www.w3.org/2000/svg" xmlns:xlink="http://www.w3.org/1999/xlink" fill="#242424"><path d="M 120.037,315.356 C 120.033,315.27 120.032,315.186 120.031,315.099 C 120.013,314.068 120.00,313.039 120.00,312.003 C 120.00,311.052 120.009,310.106 120.024,309.161 C 120.03,308.851 120.037,308.548 120.043,308.239 C 120.058,307.613 120.076,306.99 120.096,306.365 C 124.481,168.267 287.999,32.00 287.999,32.00 C 287.999,32.00 325.697,63.418 365.377,111.368 L 124.79,351.954 C 121.921,340.19 120.283,327.944 120.037,315.356 ZM 455.954,308.235c-0.015-0.624-0.029-1.247-0.051-1.872c-1.545-48.613-22.809-96.999-49.718-139.293L 510.628,62.627L 486.00,38.00 L 38.00,486.00l 24.627,24.628l 93.961-93.962C 187.37,455.263, 234.793,480.00, 287.999,480.00c 91.664,0.00, 166.176-73.411, 167.965-164.646 c 0.002-0.086, 0.003-0.173, 0.003-0.257c 0.021-1.03, 0.033-2.063, 0.033-3.097c0.00-0.95-0.011-1.896-0.027-2.843 C 455.967,308.849, 455.96,308.544, 455.954,308.235z M 399.979,314.073l-0.004,0.178c-0.576,29.438-12.483,57.022-33.523,77.678 C 345.388,412.61, 317.524,424.00, 287.999,424.00c-5.451,0.00-10.847-0.391-16.154-1.155c 60.839-36.244, 101.596-102.682, 101.596-178.64 c0.00-8.511-0.518-16.902-1.512-25.147c 17.619,32.349, 27.154,62.475, 28.002,89.086l 0.002,0.062c 0.015,0.415, 0.021,0.829, 0.033,1.244 l 0.013,0.634c 0.013,0.638, 0.021,1.277, 0.021,1.916C 400.00,312.692, 399.991,313.384, 399.979,314.073z" ></path></svg>