<?xml version="1.0" encoding="utf-8"?> <!-- Generator: IcoMoon.io --> <!DOCTYPE svg PUBLIC "-//W3C//DTD SVG 1.1//EN" "http://www.w3.org/Graphics/SVG/1.1/DTD/svg11.dtd"> <svg width="512" height="512" viewBox="0 0 512 512" xmlns="http://www.w3.org/2000/svg" xmlns:xlink="http://www.w3.org/1999/xlink" fill="#242424"><path d="M 72.00,128.00L 56.00,128.00 c-4.40,0.00-8.00,3.60-8.00,8.00l0.00,240.00 c0.00,4.40, 3.60,8.00, 8.00,8.00l 16.00,0.00 c 4.40,0.00, 8.00-3.60, 8.00-8.00L 80.00,136.00 C 80.00,131.60, 76.40,128.00, 72.00,128.00zM 24.00,192.00L 8.00,192.00 c-4.40,0.00-8.00,2.40-8.00,5.333l0.00,117.333 C0.00,317.601, 3.60,320.00, 8.00,320.00l 16.00,0.00 c 4.40,0.00, 8.00-2.399, 8.00-5.333L 32.00,197.333 C 32.00,194.40, 28.40,192.00, 24.00,192.00zM 400.00,96.00l-32.00,0.00 c-8.80,0.00-16.00,7.20-16.00,16.00l0.00,112.00 L 160.00,224.00 L 160.00,112.00 c0.00-8.80-7.20-16.00-16.00-16.00l-32.00,0.00 c-8.80,0.00-16.00,7.20-16.00,16.00l0.00,288.00 c0.00,8.80, 7.20,16.00, 16.00,16.00l 32.00,0.00 c 8.80,0.00, 16.00-7.20, 16.00-16.00L 160.00,288.00 l 192.00,0.00 l0.00,112.00 c0.00,8.80, 7.20,16.00, 16.00,16.00l 32.00,0.00 c 8.80,0.00, 16.00-7.20, 16.00-16.00L 416.00,112.00 C 416.00,103.20, 408.80,96.00, 400.00,96.00zM 456.00,128.00l-16.00,0.00 c-4.40,0.00-8.00,3.60-8.00,8.00l0.00,240.00 c0.00,4.40, 3.60,8.00, 8.00,8.00l 16.00,0.00 c 4.40,0.00, 8.00-3.60, 8.00-8.00L 464.00,136.00 C 464.00,131.60, 460.40,128.00, 456.00,128.00zM 504.00,192.00l-16.00,0.00 c-4.40,0.00-8.00,2.40-8.00,5.333l0.00,117.333 c0.00,2.934, 3.60,5.333, 8.00,5.333l 16.00,0.00 c 4.40,0.00, 8.00-2.399, 8.00-5.333L 512.00,197.333 C 512.00,194.40, 508.40,192.00, 504.00,192.00z" ></path></svg>