<?xml version="1.0" encoding="utf-8"?> <!-- Generator: IcoMoon.io --> <!DOCTYPE svg PUBLIC "-//W3C//DTD SVG 1.1//EN" "http://www.w3.org/Graphics/SVG/1.1/DTD/svg11.dtd"> <svg width="512" height="512" viewBox="0 0 512 512" xmlns="http://www.w3.org/2000/svg" xmlns:xlink="http://www.w3.org/1999/xlink" fill="#242424"><path d="M 256.00,0.00C 114.615,0.00,0.00,114.615,0.00,256.00s 114.615,256.00, 256.00,256.00s 256.00-114.615, 256.00-256.00S 397.385,0.00, 256.00,0.00z M 256.00,384.00 c-70.692,0.00-128.00-57.308-128.00-128.00s 57.308-128.00, 128.00-128.00s 128.00,57.308, 128.00,128.00S 326.692,384.00, 256.00,384.00zM 296.963,253.506c 10.817-9.805, 17.543-23.442, 17.543-38.507c0.00-29.775-26.246-54.00-58.507-54.00 c-32.26,0.00-58.505,24.224-58.505,54.00c0.00,15.065, 6.726,28.702, 17.542,38.506c-14.076,10.281-23.052,25.735-23.052,42.994 c0.00,30.879, 28.717,56.00, 64.015,56.00c 35.299,0.00, 64.017-25.121, 64.017-56.00C 320.016,279.241, 311.04,263.787, 296.963,253.506z M 225.494,215.00 c0.00-14.336, 13.685-26.00, 30.505-26.00c 16.821,0.00, 30.507,11.663, 30.507,26.00c0.00,12.943-11.154,23.704-25.699,25.675 c-1.59-0.104-3.188-0.174-4.808-0.174c-1.619,0.00-3.218,0.07-4.807,0.174C 236.648,238.703, 225.494,227.942, 225.494,215.00z M 255.999,323.50c-19.307,0.00-35.015-12.112-35.015-27.00s 15.708-27.00, 35.015-27.00c 19.309,0.00, 35.017,12.112, 35.017,27.00 S 275.308,323.50, 255.999,323.50z" ></path></svg>