<?xml version="1.0" encoding="utf-8"?> <!-- Generator: IcoMoon.io --> <!DOCTYPE svg PUBLIC "-//W3C//DTD SVG 1.1//EN" "http://www.w3.org/Graphics/SVG/1.1/DTD/svg11.dtd"> <svg width="512" height="512" viewBox="0 0 512 512" xmlns="http://www.w3.org/2000/svg" xmlns:xlink="http://www.w3.org/1999/xlink" fill="#242424"><path d="M 448.00,32.00L 96.00,32.00 c-17.60,0.00-32.00,14.40-32.00,32.00l0.00,128.00 l 64.00,0.00 L 128.00,96.00 l 288.00,0.00 l0.00,352.00 L 128.00,448.00 l0.00-96.00 L 64.00,352.00 l0.00,128.00 c0.00,17.60, 14.399,32.00, 32.00,32.00l 352.00,0.00 c 17.60,0.00, 32.00-14.40, 32.00-32.00L 480.00,64.00 C 480.00,46.40, 465.60,32.00, 448.00,32.00zM 192.00,416.00L 336.00,272.00L 192.00,128.00L 192.00,224.00L0.00,224.00L0.00,320.00L 192.00,320.00 z" ></path></svg>