<?xml version="1.0" encoding="utf-8"?> <!-- Generator: IcoMoon.io --> <!DOCTYPE svg PUBLIC "-//W3C//DTD SVG 1.1//EN" "http://www.w3.org/Graphics/SVG/1.1/DTD/svg11.dtd"> <svg width="512" height="512" viewBox="0 0 512 512" xmlns="http://www.w3.org/2000/svg" xmlns:xlink="http://www.w3.org/1999/xlink" fill="#242424"><path d="M 480.00,32.00L 32.00,32.00 C 14.40,32.00,0.00,46.40,0.00,64.00l0.00,384.00 c0.00,17.601, 14.397,32.00, 32.00,32.00l 448.00,0.00 c 17.60,0.00, 32.00-14.399, 32.00-32.00L 512.00,64.00 C 512.00,46.40, 497.60,32.00, 480.00,32.00z M 480.00,447.943c-0.02,0.02-0.037,0.041-0.061,0.057L 32.057,448.00 c-0.019-0.017-0.04-0.038-0.056-0.057L 32.001,64.057 c 0.017-0.019, 0.038-0.039, 0.057-0.057l 447.885,0.00 c 0.021,0.018, 0.041,0.038, 0.06,0.057L 480.00,447.943L 480.00,447.943zM 216.00,352.00l-24.00,0.00 L 192.00,96.00 l-64.00,0.00 l0.00,256.00 l-24.00,0.00 c-4.40,0.00-8.00,3.60-8.00,8.00l0.00,48.00 c0.00,4.40, 3.60,8.00, 8.00,8.00l 112.00,0.00 c 4.40,0.00, 8.00-3.60, 8.00-8.00l0.00-48.00 C 224.00,355.60, 220.40,352.00, 216.00,352.00zM 296.00,160.00l 24.00,0.00 l0.00,256.00 l 64.00,0.00 L 384.00,160.00 l 24.00,0.00 c 4.40,0.00, 8.00-3.60, 8.00-8.00l0.00-48.00 c0.00-4.40-3.60-8.00-8.00-8.00L 296.00,96.00 c-4.399,0.00-8.00,3.60-8.00,8.00l0.00,48.00 C 288.00,156.40, 291.601,160.00, 296.00,160.00z " ></path></svg>