<?xml version="1.0" encoding="utf-8"?> <!-- Generator: IcoMoon.io --> <!DOCTYPE svg PUBLIC "-//W3C//DTD SVG 1.1//EN" "http://www.w3.org/Graphics/SVG/1.1/DTD/svg11.dtd"> <svg width="512" height="512" viewBox="0 0 512 512" xmlns="http://www.w3.org/2000/svg" xmlns:xlink="http://www.w3.org/1999/xlink" fill="#242424"><path d="M 256.00,320.00c 35.346,0.00, 64.00-28.654, 64.00-64.00c0.00-13.627-4.271-26.249-11.531-36.628l 151.68-176.959l-24.297-20.825L 284.183,198.535 C 275.678,194.355, 266.115,192.00, 256.00,192.00c-35.346,0.00-64.00,28.654-64.00,64.00c0.00,13.627, 4.272,26.249, 11.531,36.628L 51.852,469.587 l 24.296,20.826l 151.669-176.947C 236.322,317.645, 245.884,320.00, 256.00,320.00zM 165.436,287.902C 161.919,277.92, 160.00,267.185, 160.00,256.00c0.00-53.02, 42.979-96.00, 96.00-96.00c 6.037,0.00, 11.941,0.563, 17.67,1.629 l 37.081-43.262C 292.753,114.318, 274.377,112.00, 256.00,112.00C 128.00,112.00, 0.001,223.999,0.00,256.00c0.00,18.815, 44.258,65.279, 106.74,100.381 L 165.436,287.902zM 405.26,155.62l-58.695,68.478C 350.081,234.08, 352.00,244.815, 352.00,256.00c0.00,53.02-42.98,96.00-96.00,96.00 c-6.037,0.00-11.941-0.563-17.67-1.629l-37.081,43.262C 219.248,397.682, 237.623,400.00, 256.00,400.00c 128.00,0.00, 255.997-111.999, 256.00-144.00 C 511.998,237.185, 467.741,190.72, 405.26,155.62z" ></path></svg>