<?xml version="1.0" encoding="utf-8"?> <!-- Generator: IcoMoon.io --> <!DOCTYPE svg PUBLIC "-//W3C//DTD SVG 1.1//EN" "http://www.w3.org/Graphics/SVG/1.1/DTD/svg11.dtd"> <svg width="512" height="512" viewBox="0 0 512 512" xmlns="http://www.w3.org/2000/svg" xmlns:xlink="http://www.w3.org/1999/xlink" fill="#242424"><path d="M 256.00,112.00C 128.00,112.00, 0.001,223.999,0.00,256.00l0.00,0.00c 0.001,32.001, 128.00,144.00, 256.00,144.00s 255.997-111.999, 256.00-144.00l0.00,0.00 C 511.997,223.999, 384.00,112.00, 256.00,112.00z M 256.00,352.00c-53.021,0.00-96.00-42.98-96.00-96.00c0.00-53.02, 42.979-96.00, 96.00-96.00c 53.02,0.00, 96.00,42.98, 96.00,96.00 C 352.00,309.02, 309.02,352.00, 256.00,352.00zM 224.00,256.00A32.00,32.00 12600.00 1 1 288.00,256A32.00,32.00 12600.00 1 1 224.00,256z" ></path></svg>