<?xml version="1.0" encoding="utf-8"?> <!-- Generator: IcoMoon.io --> <!DOCTYPE svg PUBLIC "-//W3C//DTD SVG 1.1//EN" "http://www.w3.org/Graphics/SVG/1.1/DTD/svg11.dtd"> <svg width="512" height="512" viewBox="0 0 512 512" xmlns="http://www.w3.org/2000/svg" xmlns:xlink="http://www.w3.org/1999/xlink" fill="#242424"><path d="M 256.00,409.50c-74.095,0.00-140.032-36.302-172.742-57.941c-21.921-14.502-42.094-31.101-56.803-46.74 C 8.654,285.892,0.00,269.924,0.00,256.001c0.00-13.924, 8.654-29.892, 26.456-48.819c 14.709-15.639, 34.882-32.238, 56.803-46.74 C 115.968,138.803, 181.906,102.50, 256.00,102.50c 74.094,0.00, 140.031,36.303, 172.741,57.942c 21.92,14.502, 42.093,31.101, 56.803,46.74 c 17.801,18.926, 26.455,34.894, 26.456,48.815c-0.001,13.927-8.655,29.895-26.456,48.822c-14.709,15.639-34.882,32.237-56.803,46.739 C 396.031,373.198, 330.095,409.50, 256.00,409.50z M 48.817,256.00c 5.511,10.143, 28.255,34.967, 67.025,59.47 c 27.20,17.19, 81.577,46.029, 140.158,46.029c 58.582,0.00, 112.959-28.839, 140.158-46.03c 38.77-24.503, 61.514-49.326, 67.024-59.469 c-5.512-10.143-28.255-34.966-67.025-59.47C 368.958,179.339, 314.581,150.50, 256.00,150.50s-112.958,28.839-140.157,46.03 C 77.073,221.033, 54.328,245.857, 48.817,256.00zM 192.00,256.00A64.00,64.00 2520.00 1 1 320.00,256A64.00,64.00 2520.00 1 1 192.00,256z" ></path></svg>