<?xml version="1.0" encoding="utf-8"?> <!-- Generator: IcoMoon.io --> <!DOCTYPE svg PUBLIC "-//W3C//DTD SVG 1.1//EN" "http://www.w3.org/Graphics/SVG/1.1/DTD/svg11.dtd"> <svg width="512" height="512" viewBox="0 0 512 512" xmlns="http://www.w3.org/2000/svg" xmlns:xlink="http://www.w3.org/1999/xlink" fill="#242424"><path d="M 178.00,256.00A78.00,78.00 4680.00 1 1 334.00,256A78.00,78.00 4680.00 1 1 178.00,256zM 256.00,0.00C 114.615,0.00,0.00,114.615,0.00,256.00s 114.615,256.00, 256.00,256.00s 256.00-114.615, 256.00-256.00S 397.385,0.00, 256.00,0.00z M 256.00,373.00 c-104.00,0.00-207.999-90.999-208.00-117.00c 0.001-26.001, 104.00-117.00, 208.00-117.00s 207.997,90.999, 208.00,117.00C 463.997,282.001, 360.00,373.00, 256.00,373.00z" ></path></svg>