<?xml version="1.0" encoding="utf-8"?> <!-- Generator: IcoMoon.io --> <!DOCTYPE svg PUBLIC "-//W3C//DTD SVG 1.1//EN" "http://www.w3.org/Graphics/SVG/1.1/DTD/svg11.dtd"> <svg width="512" height="512" viewBox="0 0 512 512" xmlns="http://www.w3.org/2000/svg" xmlns:xlink="http://www.w3.org/1999/xlink" fill="#242424"><path d="M 384.00,160.00l-56.00,0.00 c-32.00,0.00-8.00-32.00-8.00-96.00c0.00-7.555-0.90-13.307-2.474-17.61C 309.875,19.611, 285.236,0.00, 256.00,0.00 c-29.235,0.00-53.875,19.611-61.526,46.39C 192.901,50.693, 192.00,56.445, 192.00,64.00c0.00,64.00, 24.00,96.00-8.00,96.00l-56.00,0.00 l0.00,64.00 l 64.00,0.00 l0.00,248.00 c0.00,4.40, 3.60,8.00, 8.00,8.00l 16.00,0.00 c 4.40,0.00, 8.00,3.60, 8.00,8.00l0.00,16.00 c0.00,4.40, 3.60,8.00, 8.00,8.00l 48.00,0.00 c 4.40,0.00, 8.00-3.60, 8.00-8.00l0.00-16.00 c0.00-4.40, 3.60-8.00, 8.00-8.00l 16.00,0.00 c 4.40,0.00, 8.00-3.60, 8.00-8.00L 320.00,224.00 l 64.00,0.00 L 384.00,160.00 z M 288.00,448.804 c-15.649,3.189-28.007,15.547-31.196,31.196l-1.607,0.00 c-3.19-15.649-15.547-28.007-31.196-31.196L 224.001,224.00 l 64.00,0.00 L 288.001,448.804 z" ></path></svg>