<?xml version="1.0" encoding="utf-8"?> <!-- Generator: IcoMoon.io --> <!DOCTYPE svg PUBLIC "-//W3C//DTD SVG 1.1//EN" "http://www.w3.org/Graphics/SVG/1.1/DTD/svg11.dtd"> <svg width="512" height="512" viewBox="0 0 512 512" xmlns="http://www.w3.org/2000/svg" xmlns:xlink="http://www.w3.org/1999/xlink" fill="#242424"><path d="M 490.927,21.072 C 561.337,91.482 435.214,134.438 405.506,164.141 C 400.001,169.649 394.697,174.949 389.718,179.932 L 420.037,210.249 C 426.232,216.445 426.232,226.583 420.037,232.778 L 389.762,263.055 C 383.567,269.248 373.428,269.248 367.234,263.055 L 337.07,232.89 L 148.485,421.473 C 116.196,453.766 54.276,481.961 24.237,512.00 C 15.225,502.988 12.12,499.882 12.12,499.882 C 12.12,499.882 9.012,496.776 0.00,487.763 C 30.039,457.722 58.235,395.805 90.527,363.511 L 279.115,174.927 L 248.953,144.763 C 242.756,138.568 242.756,128.431 248.953,122.236 L 279.226,91.959 C 285.424,85.762 295.562,85.762 301.756,91.959 L 332.074,122.277 C 337.054,117.295 342.355,111.997 347.862,106.488 C 377.566,76.786 420.519-49.336 490.927,21.072 Z M 133.82,406.807 L 325.621,214.999 L 296.997,186.374 L 105.194,378.181 C 90.361,393.013 75.489,416.335 61.103,438.896 L 61.037,438.999 C 53.163,451.344 45.563,463.261 37.845,474.154 C 48.772,466.41 60.723,458.789 73.102,450.896 C 95.66,436.512 118.986,421.639 133.82,406.807 Z" ></path></svg>