<?xml version="1.0" encoding="utf-8"?> <!-- Generator: IcoMoon.io --> <!DOCTYPE svg PUBLIC "-//W3C//DTD SVG 1.1//EN" "http://www.w3.org/Graphics/SVG/1.1/DTD/svg11.dtd"> <svg width="512" height="512" viewBox="0 0 512 512" xmlns="http://www.w3.org/2000/svg" xmlns:xlink="http://www.w3.org/1999/xlink" fill="#242424"><path d="M 464.00,0.00L 48.00,0.00 C 21.60,0.00,0.00,21.60,0.00,48.00l0.00,416.00 c0.00,26.40, 21.60,48.00, 48.00,48.00l 416.00,0.00 c 26.40,0.00, 48.00-21.60, 48.00-48.00L 512.00,48.00 C 512.00,21.60, 490.40,0.00, 464.00,0.00z M 472.00,408.00L 352.00,408.00 l0.00,16.00 l 120.00,0.00 l0.00,16.00 L 352.00,440.00 l0.00,16.00 l 120.00,0.00 l0.00,16.00 L 352.00,472.00 l0.00,8.00 l-96.00,0.00 l0.00-8.00 L 40.00,472.00 l0.00-16.00 l 216.00,0.00 l0.00-16.00 L 40.00,440.00 l0.00-16.00 l 216.00,0.00 l0.00-16.00 L 40.00,408.00 l0.00-16.00 l 216.00,0.00 L 256.00,256.00 l-46.263,0.00 l0.00-73.282 L 256.00,182.718 l0.00-47.593 C 256.00,70.454, 283.896,32.00, 359.935,32.00l 87.622,0.00 l0.00,79.285 l-71.565,0.00 c-21.241-0.035-23.876,11.076-23.876,31.756L 352.00,182.718l 96.00,0.00 L 435.296,256.00 L 352.00,256.00 l0.00,136.00 l 120.00,0.00 L 472.00,408.00 z" ></path></svg>