<?xml version="1.0" encoding="utf-8"?> <!-- Generator: IcoMoon.io --> <!DOCTYPE svg PUBLIC "-//W3C//DTD SVG 1.1//EN" "http://www.w3.org/Graphics/SVG/1.1/DTD/svg11.dtd"> <svg width="512" height="512" viewBox="0 0 512 512" xmlns="http://www.w3.org/2000/svg" xmlns:xlink="http://www.w3.org/1999/xlink" fill="#242424"><path d="M 460.453,252.301c-25.392-25.391-56.613-41.391-89.355-48.021l 102.556-102.556c 21.799-21.801, 33.919-49.609-7.144-77.164 C 398.975-15.533, 310.389-6.541, 252.302,51.547c-25.392,25.392-41.391,56.614-48.021,89.355L 101.725,38.346 C 79.924,16.548, 52.115,4.427, 24.561,45.49C-15.532,113.025-6.54,201.611, 51.547,259.698c 25.392,25.392, 56.614,41.391, 89.356,48.021 L 38.347,410.276c-21.799,21.801-33.919,49.609, 7.144,77.162c 67.535,40.094, 156.121,31.102, 214.208-26.984 c 25.392-25.393, 41.392-56.614, 48.021-89.357l 102.556,102.556c 21.802,21.799, 49.609,33.92, 77.164-7.143 C 527.533,398.975, 518.54,310.389, 460.453,252.301z M 256.00,320.00c-35.346,0.00-64.00-28.653-64.00-64.00c0.00-35.346, 28.654-64.00, 64.00-64.00 c 35.347,0.00, 64.00,28.654, 64.00,64.00C 320.00,291.347, 291.347,320.00, 256.00,320.00z" ></path></svg>