<?xml version="1.0" encoding="utf-8"?> <!-- Generator: IcoMoon.io --> <!DOCTYPE svg PUBLIC "-//W3C//DTD SVG 1.1//EN" "http://www.w3.org/Graphics/SVG/1.1/DTD/svg11.dtd"> <svg width="512" height="512" viewBox="0 0 512 512" xmlns="http://www.w3.org/2000/svg" xmlns:xlink="http://www.w3.org/1999/xlink" fill="#242424"><path d="M 288.00,316.796c 73.03-14.825, 128.00-79.391, 128.00-156.796C 416.00,71.634, 344.365,0.00, 256.00,0.00S 96.00,71.634, 96.00,160.00 c0.00,77.405, 54.969,141.971, 128.00,156.796L 224.00,384.00 l-96.00,0.00 l0.00,64.00 l 96.00,0.00 l0.00,64.00 l 64.00,0.00 l0.00-64.00 l 96.00,0.00 l0.00-64.00 l-96.00,0.00 L 288.00,316.796 z M 150.401,160.00 c0.00-58.321, 47.278-105.601, 105.601-105.601c 58.321,0.00, 105.60,47.28, 105.60,105.601c0.00,58.32-47.279,105.60-105.601,105.60 C 197.678,265.60, 150.401,218.32, 150.401,160.00z" ></path></svg>