<?xml version="1.0" encoding="utf-8"?> <!-- Generator: IcoMoon.io --> <!DOCTYPE svg PUBLIC "-//W3C//DTD SVG 1.1//EN" "http://www.w3.org/Graphics/SVG/1.1/DTD/svg11.dtd"> <svg width="512" height="512" viewBox="0 0 512 512" xmlns="http://www.w3.org/2000/svg" xmlns:xlink="http://www.w3.org/1999/xlink" fill="#242424"><path d="M 483.717,195.715 C 497.463,209.461 508.994,235.051 511.492,256.00 L 352.00,256.00 L 352.00,96.508 C 372.949,99.007 398.539,110.538 412.285,124.284 L 483.717,195.715 ZM 320.00,288.00 L 512.00,288.00 L 512.00,472.00 C 512.00,494.00 494.00,512.00 472.00,512.00 L 168.00,512.00 C 146.00,512.00 128.00,494.00 128.00,472.00 L 128.00,136.00 C 128.00,114.00 146.00,96.00 168.00,96.00 L 320.00,96.00 L 320.00,288.00 ZM 96.00,64.00 L 96.00,416.00 L 38.00,416.00 C 17.10,416.00 0.00,398.90 0.00,378.00 L 0.00,38.00 C 0.00,17.10 17.10,0.00 38.00,0.00 L 346.00,0.00 C 366.90,0.00 384.00,17.10 384.00,38.00 L 384.00,64.00 L 96.00,64.00 Z" ></path></svg>