<?xml version="1.0" encoding="utf-8"?> <!-- Generator: IcoMoon.io --> <!DOCTYPE svg PUBLIC "-//W3C//DTD SVG 1.1//EN" "http://www.w3.org/Graphics/SVG/1.1/DTD/svg11.dtd"> <svg width="512" height="512" viewBox="0 0 512 512" xmlns="http://www.w3.org/2000/svg" xmlns:xlink="http://www.w3.org/1999/xlink" fill="#242424"><path d="M 451.716,99.715c 13.746,13.746, 25.277,39.336, 27.776,60.285L 320.00,160.00 L 320.00,0.508 c 20.949,2.499, 46.538,14.03, 60.284,27.776 L 451.716,99.715z M 288.00,192.00L 288.00,0.00 L 72.00,0.00 C 50.00,0.00, 32.00,18.00, 32.00,40.00l0.00,432.00 c0.00,22.00, 18.00,40.00, 40.00,40.00l 368.00,0.00 c 22.00,0.00, 40.00-18.00, 40.00-40.00L 480.00,192.00 L 288.00,192.00 z M 416.00,448.00L 96.00,448.00 l0.00-32.00 l 320.00,0.00 L 416.00,448.00 z M 416.00,384.00L 96.00,384.00 l0.00-32.00 l 320.00,0.00 L 416.00,384.00 z M 416.00,320.00L 96.00,320.00 l0.00-32.00 l 320.00,0.00 L 416.00,320.00 z" ></path></svg>