<?xml version="1.0" encoding="utf-8"?>
<!-- Generator: IcoMoon.io -->
<!DOCTYPE svg PUBLIC "-//W3C//DTD SVG 1.1//EN" "http://www.w3.org/Graphics/SVG/1.1/DTD/svg11.dtd">
<svg xmlns="http://www.w3.org/2000/svg" xmlns:xlink="http://www.w3.org/1999/xlink" width="512" height="512" viewBox="0 0 512 512" fill="#fff"><path d="M 32.00,32.00l 288.00,0.00 l0.00,96.00 l 96.00,0.00 l0.00,160.00 l 32.00,0.00 L 448.00,128.00 L 320.00,0.00L0.00,0.00 l0.00,512.00 l 288.00,0.00 l0.00-32.00 L 32.00,480.00 L 32.00,32.00 zM 461.256,416.00L 512.00,365.256L 512.00,320.00L 466.744,320.00L 416.00,370.744L 365.256,320.00L 320.00,320.00L 320.00,365.256L 370.744,416.00L 320.00,466.744L 320.00,512.00L 365.256,512.00L 416.00,461.256L 466.744,512.00L 512.00,512.00L 512.00,466.744 z"/></svg>
