<?xml version="1.0" encoding="utf-8"?> <!-- Generator: IcoMoon.io --> <!DOCTYPE svg PUBLIC "-//W3C//DTD SVG 1.1//EN" "http://www.w3.org/Graphics/SVG/1.1/DTD/svg11.dtd"> <svg width="512" height="512" viewBox="0 0 512 512" xmlns="http://www.w3.org/2000/svg" xmlns:xlink="http://www.w3.org/1999/xlink" fill="#242424"><path d="M 419.716,99.715 C 433.462,113.461 444.993,139.051 447.492,160.00 L 288.00,160.00 L 288.00,0.508 C 308.949,3.007 334.538,14.538 348.284,28.284 L 419.716,99.715 ZM 256.00,192.00L 256.00,0.00 L 72.00,0.00 C 50.00,0.00, 32.00,18.00, 32.00,40.00l0.00,432.00 c0.00,22.00, 18.00,40.00, 40.00,40.00l 336.00,0.00 c 22.00,0.00, 40.00-18.00, 40.00-40.00L 448.00,192.00 L 256.00,192.00 z M 288.00,384.00l0.00,96.00 l-96.00,0.00 l0.00-96.00 l-80.00,0.00 l 128.00-128.00 l 128.00,128.00L 288.00,384.00 z" ></path></svg>