<?xml version="1.0" encoding="utf-8"?> <!-- Generator: IcoMoon.io --> <!DOCTYPE svg PUBLIC "-//W3C//DTD SVG 1.1//EN" "http://www.w3.org/Graphics/SVG/1.1/DTD/svg11.dtd"> <svg width="512" height="512" viewBox="0 0 512 512" xmlns="http://www.w3.org/2000/svg" xmlns:xlink="http://www.w3.org/1999/xlink" fill="#242424"><path d="M 446.059,94.059l-60.117-60.118C 367.273,15.273, 330.40,0.00, 304.00,0.00L 80.00,0.00 C 53.60,0.00, 32.00,21.60, 32.00,48.00l0.00,416.00 c0.00,26.40, 21.60,48.00, 48.00,48.00l 352.00,0.00 c 26.40,0.00, 48.00-21.60, 48.00-48.00L 480.00,176.00 C 480.00,149.60, 464.727,112.727, 446.059,94.059z M 416.00,448.00L 96.00,448.00 L 96.00,64.00 l 208.00,0.00 c 2.479,0.00, 8.507,1.034, 16.00,3.781L 320.00,160.00 l 92.22,0.00 c 2.746,7.493, 3.78,13.521, 3.78,16.00L 416.00,448.00 z" ></path></svg>