<?xml version="1.0" encoding="utf-8"?> <!-- Generator: IcoMoon.io --> <!DOCTYPE svg PUBLIC "-//W3C//DTD SVG 1.1//EN" "http://www.w3.org/Graphics/SVG/1.1/DTD/svg11.dtd"> <svg width="512" height="512" viewBox="0 0 512 512" xmlns="http://www.w3.org/2000/svg" xmlns:xlink="http://www.w3.org/1999/xlink" fill="#242424"><path d="M0.00,0.00l0.00,512.00 l 512.00,0.00 L 512.00,0.00 L0.00,0.00 z M 320.00,32.00l 64.00,0.00 l0.00,64.00 l-64.00,0.00 L 320.00,32.00 z M 224.00,32.00l 64.00,0.00 l0.00,64.00 l-64.00,0.00 L 224.00,32.00 z M 128.00,32.00l 64.00,0.00 l0.00,64.00 l-64.00,0.00 L 128.00,32.00 z M 32.00,32.00l 64.00,0.00 l0.00,64.00 L 32.00,96.00 L 32.00,32.00 z M 32.00,128.00l 192.00,0.00 l0.00,256.00 L 32.00,384.00 L 32.00,128.00 z M 96.00,480.00L 32.00,480.00 l0.00-64.00 l 64.00,0.00 L 96.00,480.00 z M 192.00,480.00l-64.00,0.00 l0.00-64.00 l 64.00,0.00 L 192.00,480.00 z M 288.00,480.00l-64.00,0.00 l0.00-64.00 l 64.00,0.00 L 288.00,480.00 z M 384.00,480.00l-64.00,0.00 l0.00-64.00 l 64.00,0.00 L 384.00,480.00 z M 480.00,480.00l-64.00,0.00 l0.00-64.00 l 64.00,0.00 L 480.00,480.00 z M 480.00,384.00L 256.00,384.00 L 256.00,128.00 l 224.00,0.00 L 480.00,384.00 z M 480.00,96.00l-64.00,0.00 L 416.00,32.00 l 64.00,0.00 L 480.00,96.00 z" ></path></svg>