<?xml version="1.0" encoding="utf-8"?> <!-- Generator: IcoMoon.io --> <!DOCTYPE svg PUBLIC "-//W3C//DTD SVG 1.1//EN" "http://www.w3.org/Graphics/SVG/1.1/DTD/svg11.dtd"> <svg width="512" height="512" viewBox="0 0 512 512" xmlns="http://www.w3.org/2000/svg" xmlns:xlink="http://www.w3.org/1999/xlink" fill="#242424"><path d="M0.00,32.00l0.00,448.00 l 512.00,0.00 L 512.00,32.00 L0.00,32.00 z M 96.00,448.00L 32.00,448.00 l0.00-64.00 l 64.00,0.00 L 96.00,448.00 z M 96.00,352.00L 32.00,352.00 l0.00-64.00 l 64.00,0.00 L 96.00,352.00 z M 96.00,224.00L 32.00,224.00 l0.00-64.00 l 64.00,0.00 L 96.00,224.00 z M 96.00,128.00L 32.00,128.00 L 32.00,64.00 l 64.00,0.00 L 96.00,128.00 z M 384.00,448.00 L 128.00,448.00 l0.00-64.00 l0.00-32.00 l0.00-64.00 l 256.00,0.00 L 384.00,448.00 z M 384.00,224.00L 128.00,224.00 L 128.00,64.00 l 256.00,0.00 L 384.00,224.00 z M 480.00,448.00l-64.00,0.00 l0.00-64.00 l 64.00,0.00 L 480.00,448.00 z M 480.00,352.00l-64.00,0.00 l0.00-64.00 l 64.00,0.00 L 480.00,352.00 z M 480.00,224.00l-64.00,0.00 l0.00-64.00 l 64.00,0.00 L 480.00,224.00 z M 480.00,128.00l-64.00,0.00 L 416.00,64.00 l 64.00,0.00 L 480.00,128.00 z" ></path></svg>