<?xml version="1.0" encoding="utf-8"?>
<!-- Generator: Adobe Illustrator 16.0.4, SVG Export Plug-In . SVG Version: 6.00 Build 0)  -->
<!DOCTYPE svg PUBLIC "-//W3C//DTD SVG 1.1//EN" "http://www.w3.org/Graphics/SVG/1.1/DTD/svg11.dtd">
<svg version="1.1" id="Capa_1" xmlns="http://www.w3.org/2000/svg" xmlns:xlink="http://www.w3.org/1999/xlink" x="0px" y="0px"
	 width="100px" height="100px" viewBox="0 0 100 100" enable-background="new 0 0 100 100" xml:space="preserve">
<path d="M79.42,54.743c-0.604-2.01-1.787-2.703-2.079-2.848c0.024-0.089,0.044-0.189,0.06-0.32c0.022-0.19,0.051-0.391,0.081-0.591
	c0.097-0.448,0.211-1.038,0.309-1.698c0.007-0.034,0.012-0.055,0.012-0.055s-0.004,0.009-0.005,0.011
	c0.236-1.62,0.367-3.649-0.131-5.07c-0.934-2.664-3.688-2.854-3.804-2.86c0.117-0.625,0.128-1.075,0.105-1.354
	c0.056-1.04,0.076-2.593-0.116-4.368c-0.182-1.663-2.414-2.945-4.77-3.814c-4.195-1.054-7.629,1.907-7.629,1.907
	s4.086-5.976,5.771-8.997l0.091-0.079l-0.05,0.068l5.905-5.149l8.208-7.123l-14.203-12.1l-0.953,6.676
	c-0.041,0.016-14.08-0.304-24.617,2.192c-12.525,2.967-22.964,6.946-22.908,7.232c0.036,0.186,12.081-2.566,26.459-2.323
	c6.583,0.111,12.728,1.244,16.79,2.196l-0.072,0.081c0,0,0.169,0.155,0.389-0.006c0.007,0.002,0.016,0.003,0.022,0.005
	c-0.824,1.039-1.605,2.072-2.259,3c-2.217,3.145-10.294,13.529-12.083,15.241c-2.513,2.407-3.028,4.028-5.183,8.042
	c-1.781,3.316-3.701,5.793-4.877,7.346c-0.632,0.833-1.164,1.88-1.164,1.88s-0.564-0.783-1.018-1.016c-0.527-0.271-1.907,0-1.907,0
	c0.154-0.752,0.755-0.322,1.232-1.938c0.461-1.567-0.384-2.172-0.278-2.83c-0.012,0.123,1.613-0.355,2.815-2.352
	c0.927-1.54,2.154-2.973,2.404-4.406c0.231-1.333,0.227-2.641,0.101-3.287c-0.439-2.247-1.447-3.142-2.699-3.085
	c-2.193,0.1-4.116,3.89-4.42,3.991c-0.303,0.101-1.081,0.771-1.081,0.771s-2.326,0.369-5.026,2.482
	c-0.846,0.662-1.626,4.231-2.504,7.47c-1.055,3.89-2.961,7.422-2.602,9.935c0.227,1.586,2.087,9.106,4.481,14.493
	c2.799,6.3,6.148,10.576,7.083,12.358c1.734,3.305,2.141,7.562,3.355,10.268c3.614,8.047,31.991,3.199,32.425,1.907
	c0.436-1.295,0.984-1.207,0.503-1.878c-0.349-0.486,0.138-1.029,0.384-2.682c0.098-0.631-0.255-1.891-0.095-2.684
	c0.435-2.158,6.803-14.296,9.638-20.884c0.938-2.183,0.881-3.894,0.901-4.247c0.078-1.42,0.039-0.156-0.238-2.17
	C80.035,61.076,80.111,57.046,79.42,54.743z M71.536,7.28c2.896,0.105,5.155,2.537,5.052,5.432
	c-0.049,1.354-0.619,2.556-1.495,3.456c-0.196,0.159-0.661,0.532-1.154,0.898c-0.461,0.263-0.964,0.456-1.497,0.569
	c1.023-1.367,1.629-2.01,2.242-3.671c0.445-1.225,0.573-2.01,0.197-2.729c-1.348-2.577-3.21-3.496-6.355-1.646
	c-0.47,0.277-1.325,1.098-2.345,2.197c0.009-0.062,0.015-0.126,0.025-0.188c0.041-0.154,0.093-0.366,0.143-0.601
	C67.025,8.778,69.107,7.192,71.536,7.28z M66.321,11.075c-0.044,0.205-0.087,0.413-0.087,0.413l-0.016,0.018
	C66.248,11.359,66.28,11.217,66.321,11.075z"/>
</svg>
