<?xml version="1.0" encoding="utf-8"?> <!-- Generator: IcoMoon.io --> <!DOCTYPE svg PUBLIC "-//W3C//DTD SVG 1.1//EN" "http://www.w3.org/Graphics/SVG/1.1/DTD/svg11.dtd"> <svg width="512" height="512" viewBox="0 0 512 512" xmlns="http://www.w3.org/2000/svg" xmlns:xlink="http://www.w3.org/1999/xlink" fill="#242424"><path d="M 296.146,512.00c 49.775-35.92, 81.064-82.854, 84.13-141.004c-15.867,31.84-48.576,41.795-48.576,41.795 c 17.523-45.572-5.688-121.602-86.047-152.889c 22.758,49.777, 6.575,80.855,0.00,91.73c-18.491-40.533-54.67-54.252-54.67-54.252 s 35.471,146.695-49.155,79.137C 134.716,444.076, 229.545,512.00, 229.545,512.00c-56.091,0.00-217.339-25.322-192.802-225.137 c 40.374,43.432, 66.602,45.572, 66.602,45.572c 14.024-59.596, 13.769-117.822-21.033-143.725c 39.608-8.463, 77.123,14.022, 87.64,45.571 c 28.045-31.551, 16.68-113.053-18.167-140.073c 40.535,2.13, 69.06,34.021, 77.762,55.94c 24.441-39.584, 31.043-89.361,0.00-150.149 c 73.00,52.968, 77.265,104.166, 84.13,171.183c 50.887-56.343, 92.888-52.766, 93.402-52.795c-47.646,57.60-39.822,140.802-19.91,172.80 c 54.759-20.623, 71.11-58.31, 71.11-58.31S 560.686,512.00, 296.146,512.00z" ></path></svg>