<?xml version="1.0" encoding="utf-8"?> <!-- Generator: IcoMoon.io --> <!DOCTYPE svg PUBLIC "-//W3C//DTD SVG 1.1//EN" "http://www.w3.org/Graphics/SVG/1.1/DTD/svg11.dtd"> <svg width="512" height="512" viewBox="0 0 512 512" xmlns="http://www.w3.org/2000/svg" xmlns:xlink="http://www.w3.org/1999/xlink" fill="#242424"><path d="M 64.00,0.00 C 81.673,0.00 96.00,14.327 96.00,32.00 L 96.00,512.00 L 32.00,512.00 L 32.00,32.00 C 32.00,14.327 46.327,0.00 64.00,0.00 ZM 304.00,56.615 L 304.00,327.384 C 282.50,313.075 251.047,302.77 216.00,302.77 C 180.953,302.77 149.50,320.459 128.00,334.769 L 128.00,64.00 C 149.50,49.689 180.953,32.00 216.00,32.00 C 251.047,32.00 282.50,42.305 304.00,56.615 ZM 416.00,384.00 C 377.767,384.00 343.454,373.695 320.00,359.384 L 320.00,88.615 C 343.454,102.925 377.767,113.23 416.00,113.23 C 454.233,113.23 488.546,94.311 512.00,80.00 L 512.00,350.769 C 488.546,365.08 454.233,384.00 416.00,384.00 Z" ></path></svg>