<?xml version="1.0" encoding="utf-8"?> <!-- Generator: IcoMoon.io --> <!DOCTYPE svg PUBLIC "-//W3C//DTD SVG 1.1//EN" "http://www.w3.org/Graphics/SVG/1.1/DTD/svg11.dtd"> <svg width="512" height="512" viewBox="0 0 512 512" xmlns="http://www.w3.org/2000/svg" xmlns:xlink="http://www.w3.org/1999/xlink" fill="#242424"><path d="M 295.832,37.094C 284.518,3.451, 151.002,13.915, 110.264,14.908C 106.385,6.129, 98.028,0.00, 88.384,0.00 C 75.069,0.00, 64.177,11.638, 64.177,25.86l0.00,460.281 c0.00,14.223, 10.893,25.859, 24.207,25.859c 13.313,0.00, 24.205-11.637, 24.205-25.859L 112.589,266.176 c 42.999-32.181, 174.39-71.337, 183.246-43.268c 9.891,31.352, 105.426,56.895, 151.99,35.262c0.00,0.00,0.00-158.896,0.00-203.115 C 344.196,100.653, 308.633,75.147, 295.832,37.094z M 112.589,254.707L 112.589,30.38 C 126.911,63.968, 153.415,149.373, 112.589,254.707z" ></path></svg>