<?xml version="1.0" encoding="utf-8"?> <!-- Generator: IcoMoon.io --> <!DOCTYPE svg PUBLIC "-//W3C//DTD SVG 1.1//EN" "http://www.w3.org/Graphics/SVG/1.1/DTD/svg11.dtd"> <svg width="512" height="512" viewBox="0 0 512 512" xmlns="http://www.w3.org/2000/svg" xmlns:xlink="http://www.w3.org/1999/xlink" fill="#242424"><path d="M 128.00,32.50c 19.393,0.786, 33.686,2.681, 46.365,6.903c 19.163,6.381, 35.674,19.009, 55.209,42.224 c 54.165,64.364, 108.925,91.826, 183.107,91.826c 7.729,0.00, 15.767-0.307, 24.147-0.925c-10.09,11.872-20.705,23.466-31.729,34.059 c-15.453,14.849-30.499,26.521-44.72,34.692c-14.99,8.612-29.547,13.609-43.263,14.851c-1.81,0.164-3.533,0.243-5.271,0.243 c-16.82,0.00-29.746-7.817-49.442-20.573c-22.574-14.618-50.668-32.812-91.546-32.812c-13.692,0.00-27.906,2.034-42.859,6.161L 127.998,32.50 M 96.00,0.00l0.00,256.00 c 30.587-15.262, 54.737-21.011, 74.859-21.011c 61.341,0.00, 85.367,53.384, 140.988,53.384c 2.648,0.00, 5.354-0.12, 8.152-0.373 c 79.729-7.221, 147.031-99.564, 192.00-160.00c-38.205,8.835-70.726,13.453-99.318,13.453c-66.72,0.00-112.085-25.129-158.623-80.43 C 205.881,3.773, 169.369,0.00, 96.00,0.00L 96.00,0.00zM0.00,0.00L 64.00,0.00L 64.00,512.00L0.00,512.00z" ></path></svg>