<?xml version="1.0" encoding="utf-8"?> <!-- Generator: IcoMoon.io --> <!DOCTYPE svg PUBLIC "-//W3C//DTD SVG 1.1//EN" "http://www.w3.org/Graphics/SVG/1.1/DTD/svg11.dtd"> <svg width="512" height="512" viewBox="0 0 512 512" xmlns="http://www.w3.org/2000/svg" xmlns:xlink="http://www.w3.org/1999/xlink" fill="#242424"><path d="M 505.647,188.864c-26.708-82.185-107.774-90.487-170.346-28.04c 40.062-78.801, 7.105-153.337-79.305-153.337 s-119.357,74.535-79.31,153.333C 114.121,98.378, 33.055,106.684, 6.354,188.864c-26.701,82.183, 33.998,136.552, 121.318,122.811 C 48.953,351.884, 31.80,431.549, 101.71,482.341c 69.901,50.79, 140.368,9.859, 154.285-77.433 c 13.917,87.292, 84.384,128.225, 154.293,77.433c 69.903-50.792, 52.751-130.456-25.969-170.666 C 471.641,325.417, 532.349,271.047, 505.647,188.864z M 255.996,342.951c-40.876,0.00-74.006-33.135-74.006-74.01 c0.00-40.877, 33.13-74.011, 74.006-74.011c 40.875,0.00, 74.015,33.135, 74.015,74.011C 330.011,309.816, 296.871,342.951, 255.996,342.951z" ></path></svg>