<?xml version="1.0" encoding="utf-8"?> <!-- Generator: IcoMoon.io --> <!DOCTYPE svg PUBLIC "-//W3C//DTD SVG 1.1//EN" "http://www.w3.org/Graphics/SVG/1.1/DTD/svg11.dtd"> <svg width="512" height="512" viewBox="0 0 512 512" xmlns="http://www.w3.org/2000/svg" xmlns:xlink="http://www.w3.org/1999/xlink" fill="#242424"><path d="M 492.25,192.00 C 505.45,192.00 514.132,202.59 511.543,215.534 L 452.707,424.466 C 450.118,437.41 437.20,448.00 424.00,448.00 L 88.00,448.00 C 74.80,448.00 61.882,437.41 59.293,424.466 L 0.457,215.534 C -2.132,202.59 6.55,192.00 19.75,192.00 L 492.25,192.00 Z M 448.00,88.00 L 448.00,160.00 L 64.00,160.00 L 64.00,56.00 C 64.00,42.745 74.745,32.00 88.00,32.00 L 192.00,32.00 L 208.00,64.00 L 424.00,64.00 C 437.255,64.00 448.00,74.745 448.00,88.00 Z" ></path></svg>