<?xml version="1.0" encoding="utf-8"?> <!-- Generator: IcoMoon.io --> <!DOCTYPE svg PUBLIC "-//W3C//DTD SVG 1.1//EN" "http://www.w3.org/Graphics/SVG/1.1/DTD/svg11.dtd"> <svg width="512" height="512" viewBox="0 0 512 512" xmlns="http://www.w3.org/2000/svg" xmlns:xlink="http://www.w3.org/1999/xlink" fill="#242424"><path d="M 288.00,128.00l-64.00-64.00L0.00,64.00 l0.00,416.00 l 512.00,0.00 L 512.00,128.00 L 288.00,128.00 z M 274.745,160.00L 288.00,160.00 l 192.00,0.00 l0.00,4.00 L 32.00,164.00 l0.00-8.00 l 238.745,0.00 L 274.745,160.00z M 32.00,448.00l0.00-4.00 l 448.00,0.00 l0.00,4.00 L 32.00,448.00 z M 32.00,436.00l0.00-8.00 l 448.00,0.00 l0.00,8.00 L 32.00,436.00 z M 32.00,420.00l0.00-8.00 l 448.00,0.00 l0.00,8.00 L 32.00,420.00 z M 32.00,404.00l0.00-8.00 l 448.00,0.00 l0.00,8.00 L 32.00,404.00 z M 32.00,388.00l0.00-8.00 l 448.00,0.00 l0.00,8.00 L 32.00,388.00 z M 32.00,372.00l0.00-8.00 l 448.00,0.00 l0.00,8.00 L 32.00,372.00 z M 32.00,356.00l0.00-8.00 l 448.00,0.00 l0.00,8.00 L 32.00,356.00 z M 32.00,340.00l0.00-8.00 l 448.00,0.00 l0.00,8.00 L 32.00,340.00 z M 32.00,324.00l0.00-8.00 l 448.00,0.00 l0.00,8.00 L 32.00,324.00 z M 32.00,308.00l0.00-8.00 l 448.00,0.00 l0.00,8.00 L 32.00,308.00 z M 32.00,292.00l0.00-8.00 l 448.00,0.00 l0.00,8.00 L 32.00,292.00 z M 32.00,276.00l0.00-8.00 l 448.00,0.00 l0.00,8.00 L 32.00,276.00 z M 32.00,260.00l0.00-8.00 l 448.00,0.00 l0.00,8.00 L 32.00,260.00 z M 32.00,244.00l0.00-8.00 l 448.00,0.00 l0.00,8.00 L 32.00,244.00 z M 32.00,228.00l0.00-8.00 l 448.00,0.00 l0.00,8.00 L 32.00,228.00 z M 32.00,212.00l0.00-8.00 l 448.00,0.00 l0.00,8.00 L 32.00,212.00 z M 32.00,196.00l0.00-8.00 l 448.00,0.00 l0.00,8.00 L 32.00,196.00 z M 32.00,180.00l0.00-8.00 l 448.00,0.00 l0.00,8.00 L 32.00,180.00 z M 210.745,96.00l 4.00,4.00L 32.00,100.00 l0.00-4.00 L 210.745,96.00 z M 222.745,108.00l 8.00,8.00L 32.00,116.00 l0.00-8.00 L 222.745,108.00 z M 238.745,124.00l 8.00,8.00L 32.00,132.00 l0.00-8.00 L 238.745,124.00 z M 254.746,140.00l 8.00,8.00L 32.00,148.00 l0.00-8.00 L 254.746,140.00 z" ></path></svg>