<?xml version="1.0" encoding="utf-8"?>
<!-- Generator: IcoMoon.io -->
<!DOCTYPE svg PUBLIC "-//W3C//DTD SVG 1.1//EN" "http://www.w3.org/Graphics/SVG/1.1/DTD/svg11.dtd">
<svg xmlns="http://www.w3.org/2000/svg" xmlns:xlink="http://www.w3.org/1999/xlink" width="512" height="512" viewBox="0 0 512 512" fill="#666"><path d="M 480.00,128.00 L 32.00,128.00 L 64.00,64.00 L 240.00,64.00 L 256.00,96.00 L 464.00,96.00 ZM 250.00,400.00 C 250.00,429.392 258.504,456.831 273.171,480.00 L 32.00,480.00 L 0.00,160.00 L 512.00,160.00 L 499.237,287.624 C 472.772,264.226 438.019,250.00 400.00,250.00 C 317.29,250.00 250.00,317.29 250.00,400.00 ZM 400.00,288.00c-61.855,0.00-112.00,50.145-112.00,112.00s 50.145,112.00, 112.00,112.00s 112.00-50.145, 112.00-112.00S 461.855,288.00, 400.00,288.00z M 416.00,416.00l0.00,64.00 l-32.00,0.00 l0.00-64.00 l-64.00,0.00 l0.00-32.00 l 64.00,0.00 l0.00-64.00 l 32.00,0.00 l0.00,64.00 l 64.00,0.00 l0.00,32.00 L 416.00,416.00 z"/></svg>
