<?xml version="1.0" encoding="utf-8"?> <!-- Generator: IcoMoon.io --> <!DOCTYPE svg PUBLIC "-//W3C//DTD SVG 1.1//EN" "http://www.w3.org/Graphics/SVG/1.1/DTD/svg11.dtd"> <svg width="512" height="512" viewBox="0 0 512 512" xmlns="http://www.w3.org/2000/svg" xmlns:xlink="http://www.w3.org/1999/xlink" fill="#242424"><path d="M 492.25,128.00L 448.00,128.00 L 448.00,88.00 c0.00-13.255-10.745-24.00-24.00-24.00L 208.00,64.00 l-16.00-32.00L 88.00,32.00 c-13.255,0.00-24.00,10.745-24.00,24.00l0.00,72.00 L 19.75,128.00 c-13.20,0.00-21.882,10.59-19.293,23.534l 58.836,272.932C 61.882,437.41, 74.80,448.00, 88.00,448.00l 336.00,0.00 c 13.20,0.00, 26.118-10.59, 28.707-23.534 l 58.836-272.932C 514.132,138.59, 505.45,128.00, 492.25,128.00z M 96.00,64.00l 76.223,0.00 l 16.00,32.00L 416.00,96.00 l0.00,32.00 L 96.00,128.00 L 96.00,64.00 z M 421.797,416.00L 90.203,416.00 L 35.017,160.00l 441.966,0.00 L 421.797,416.00z" ></path></svg>