<?xml version="1.0" encoding="utf-8"?> <!-- Generator: IcoMoon.io --> <!DOCTYPE svg PUBLIC "-//W3C//DTD SVG 1.1//EN" "http://www.w3.org/Graphics/SVG/1.1/DTD/svg11.dtd"> <svg width="512" height="512" viewBox="0 0 512 512" xmlns="http://www.w3.org/2000/svg" xmlns:xlink="http://www.w3.org/1999/xlink" fill="#242424"><path d="M 112.00,0.00C 58.98,0.00, 16.00,50.144, 16.00,112.00c0.00,52.962, 31.511,97.333, 73.853,108.999L 73.959,480.061C 72.882,497.627, 86.40,512.00, 104.00,512.00 l 16.00,0.00 c 17.60,0.00, 31.118-14.373, 30.041-31.939l-15.894-259.062C 176.489,209.333, 208.00,164.962, 208.00,112.00C 208.00,50.144, 165.02,0.00, 112.00,0.00zM 434.667,0.00L 408.00,160.00l-20.00,0.00 L 374.667,0.00l-13.334,0.00 L 348.00,160.00l-20.00,0.00 L 301.333,0.00L 288.00,0.00 l0.00,208.00 c0.00,8.836, 7.163,16.00, 16.00,16.00l 41.669,0.00 l-15.71,256.061 C 328.882,497.627, 342.40,512.00, 360.00,512.00l 16.00,0.00 c 17.60,0.00, 31.118-14.373, 30.041-31.939L 390.331,224.00L 432.00,224.00 c 8.837,0.00, 16.00-7.164, 16.00-16.00L 448.00,0.00 L 434.667,0.00 z" ></path></svg>