<?xml version="1.0" encoding="utf-8"?>
<!-- Generator: IcoMoon.io -->
<!DOCTYPE svg PUBLIC "-//W3C//DTD SVG 1.1//EN" "http://www.w3.org/Graphics/SVG/1.1/DTD/svg11.dtd">
<svg xmlns="http://www.w3.org/2000/svg" xmlns:xlink="http://www.w3.org/1999/xlink" width="512" height="512" viewBox="0 0 512 512" fill="#fff"><path d="M0.00,64.00l0.00,384.00 l 512.00,0.00 L 512.00,64.00 L0.00,64.00 z M 480.00,256.00l0.00,160.00 L 256.00,416.00 L 32.00,416.00 L 32.00,256.00 L 32.00,96.00 l 224.00,0.00 l 224.00,0.00 L 480.00,256.00 zM 224.00,160.00L 224.00,224.00L 288.00,224.00L 288.00,160.00L 336.00,160.00L 256.00,96.00L 176.00,160.00 zM 288.00,352.00L 288.00,288.00L 224.00,288.00L 224.00,352.00L 176.00,352.00L 256.00,416.00L 336.00,352.00 zM 96.00,288.00L 160.00,288.00L 160.00,224.00L 96.00,224.00L 96.00,176.00L 32.00,256.00L 96.00,336.00 zM 416.00,224.00L 352.00,224.00L 352.00,288.00L 416.00,288.00L 416.00,336.00L 480.00,256.00L 416.00,176.00 z"/></svg>
