<?xml version="1.0" encoding="utf-8"?>
<!-- Generator: Adobe Illustrator 16.0.0, SVG Export Plug-In . SVG Version: 6.00 Build 0)  -->
<!DOCTYPE svg PUBLIC "-//W3C//DTD SVG 1.1//EN" "http://www.w3.org/Graphics/SVG/1.1/DTD/svg11.dtd">
<svg version="1.1" id="Layer_1" xmlns="http://www.w3.org/2000/svg" xmlns:xlink="http://www.w3.org/1999/xlink" x="0px" y="0px"
	 width="512px" height="512px" viewBox="0 0 512 512" enable-background="new 0 0 512 512" xml:space="preserve">
<path d="M122.443,221.082l-0.258-35.306h52.168l3.217-23.345c2.645-26.271,11.538-50.557,26.683-72.845
	c15.142-22.286,40.307-34.136,75.5-35.543c16.158,0.768,28.094,3.325,35.822,7.677l-8.436,32.708
	c-7.805-3.217-16.941-4.905-27.387-5.078c-17.75,0.593-31.011,7.656-39.792,21.19c-8.785,13.531-14.142,29.985-16.076,49.355
	l-3.217,25.881h60.137v35.306H214.13l-12.505,110.074c-3.609,35.554-12.142,63.786-25.588,84.692
	c-13.446,20.906-35.131,31.594-65.054,32.084c-17.712-0.361-31.254-3.341-40.629-8.966l8.334-32.806
	c8.682,4.135,18.406,6.109,29.171,5.93c15.844-0.088,27.521-7.327,35.033-21.722c7.512-14.39,12.675-35.389,15.495-62.992
	l11.984-106.295H122.443z M317.684,338.858l-5.016-24.824l-5.346-22.247l-4.533-13.503l-5.082-4.707l-2.688,0.717l-6.016,5.65
	l-8.584,12.621l-17.84-6.944c6.807-11.022,13.354-19.257,19.629-24.696c6.264-5.443,13.656-8.168,29.484-8.168l15.57,4.673
	l9.543,16.374l3.955,16.07l2.258,13.55l32.496-41.545c3.688-3.346,7.219-5.712,10.6-7.073c3.389-1.366,7.898-2.049,13.523-2.049
	c1.248,0,16.576,0.623,19.824,1.868l-6.48,27.99h-7.32h-4.037h-7.311c-0.398-2.624-1.229-4.47-2.49-5.542l-2.93,1.624l-6.893,6.594
	l-32.889,41.333l5.553,27.15l4.604,19.009l3.559,12.008l3.32,6.609l4.496,3.284c1.572-0.593,3.104-1.552,4.613-2.866
	c2.754-2.403,6.707-7.837,11.9-16.308l17.838,6.955c-7.543,12.059-14.348,20.545-20.453,25.475
	c-6.1,4.929-13.357,7.383-21.787,7.383c-1.232,0-15.947-0.846-19.18-2.537c-3.232-1.696-6.027-4.397-8.414-8.115
	c-2.381-3.717-4.496-9.496-6.326-17.333c-2.465-10.255-4.217-18.751-5.264-25.475l-34.465,44.262
	c-3.615,3.403-7.115,5.785-10.52,7.161c-3.402,1.352-7.928,2.037-13.559,2.037c-1.236,0-16.508-0.614-19.762-1.856l6.481-28.006
	h18.669c0.381,2.635,1.189,4.485,2.453,5.553l0.68-0.181l7.203-6.068L317.684,338.858z"/>
</svg>
