<?xml version="1.0" encoding="utf-8"?> <!-- Generator: IcoMoon.io --> <!DOCTYPE svg PUBLIC "-//W3C//DTD SVG 1.1//EN" "http://www.w3.org/Graphics/SVG/1.1/DTD/svg11.dtd"> <svg width="512" height="512" viewBox="0 0 512 512" xmlns="http://www.w3.org/2000/svg" xmlns:xlink="http://www.w3.org/1999/xlink" fill="#242424"><path d="M 400.00,160.00L 112.00,160.00 C 50.144,160.00,0.00,210.144,0.00,272.00c0.00,61.855, 50.144,112.00, 112.00,112.00c 44.677,0.00, 83.237-26.162, 101.215-64.00l 85.567,0.00 c 17.978,37.838, 56.538,64.00, 101.218,64.00c 61.854,0.00, 112.00-50.145, 112.00-112.00C 512.00,210.144, 461.857,160.00, 400.00,160.00z M 168.89,288.00L 128.00,288.00 l0.00,40.891 L 96.00,328.891 L 96.00,288.00 L 55.11,288.00 l0.00-32.00 L 96.00,256.00 l0.00-40.89 l 32.00,0.00 L 128.00,256.00 l 40.89,0.00 L 168.89,288.00 z M 368.00,328.891c-13.747,0.00-24.892-11.145-24.892-24.891s 11.145-24.891, 24.892-24.891 c 13.743,0.00, 24.89,11.145, 24.89,24.891S 381.743,328.891, 368.00,328.891z M 432.00,264.891c-13.747,0.00-24.892-11.144-24.892-24.891 s 11.145-24.89, 24.892-24.89c 13.743,0.00, 24.891,11.144, 24.891,24.89S 445.743,264.891, 432.00,264.891z" ></path></svg>