<?xml version="1.0" encoding="utf-8"?> <!-- Generator: IcoMoon.io --> <!DOCTYPE svg PUBLIC "-//W3C//DTD SVG 1.1//EN" "http://www.w3.org/Graphics/SVG/1.1/DTD/svg11.dtd"> <svg width="512" height="512" viewBox="0 0 512 512" xmlns="http://www.w3.org/2000/svg" xmlns:xlink="http://www.w3.org/1999/xlink" fill="#242424"><path d="M 160.00,160.00L 128.00,160.00L 128.00,192.00L 96.00,192.00L 96.00,224.00L 128.00,224.00L 128.00,256.00L 160.00,256.00L 160.00,224.00L 192.00,224.00L 192.00,192.00L 160.00,192.00 zM 320.00,184.00A24.00,24.00 12600.00 1 1 368.00,184A24.00,24.00 12600.00 1 1 320.00,184zM 368.00,232.00A24.00,24.00 12600.00 1 1 416.00,232A24.00,24.00 12600.00 1 1 368.00,232zM 369.736,85.926c-58.11,0.00-67.181,34.417-113.735,34.421c-46.555-0.004-55.625-34.421-113.735-34.421 C 48.53,85.926,0.00,200.663,0.00,282.739c0.00,77.651, 7.296,134.155, 36.344,142.085c 29.063,7.958, 66.085-23.379, 102.175-57.36 c 36.081-33.981, 42.174-31.771, 71.229-31.771L 256.00,336.715l 46.252-1.021c 29.056,0.00, 35.148-2.211, 71.229,31.771 c 36.09,33.981, 73.111,65.318, 102.175,57.36C 504.704,416.895, 512.00,360.391, 512.00,282.739C 512.00,200.663, 463.471,85.926, 369.736,85.926z M 144.00,288.00c-44.183,0.00-80.00-35.817-80.00-80.00s 35.817-80.00, 80.00-80.00s 80.00,35.817, 80.00,80.00S 188.183,288.00, 144.00,288.00z M 368.00,288.00c-44.183,0.00-80.00-35.817-80.00-80.00 s 35.817-80.00, 80.00-80.00s 80.00,35.817, 80.00,80.00S 412.183,288.00, 368.00,288.00z" ></path></svg>