<?xml version="1.0" encoding="utf-8"?> <!-- Generator: IcoMoon.io --> <!DOCTYPE svg PUBLIC "-//W3C//DTD SVG 1.1//EN" "http://www.w3.org/Graphics/SVG/1.1/DTD/svg11.dtd"> <svg width="512" height="512" viewBox="0 0 512 512" xmlns="http://www.w3.org/2000/svg" xmlns:xlink="http://www.w3.org/1999/xlink" fill="#242424"><path d="M 490.50,128.00C 446.00,91.00, 352.00,71.50, 352.00,71.50L 352.00,96.00 c 47.50,13.50, 64.00,45.719, 64.00,45.719L 416.00,192.00 c0.00,17.594, 14.406,32.00, 32.00,32.00l 16.00,0.00 l0.00,144.00 l-48.00,0.00 l0.00-88.00 c0.00-22.062-17.938-40.00-40.00-40.00l-56.00,0.00 L 320.00,80.00 c0.00-26.406-21.594-48.00-48.00-48.00L 80.00,32.00 c-26.406,0.00-48.00,21.594-48.00,48.00l0.00,368.00 L0.00,448.00 l0.00,64.00 l 352.00,0.00 l0.00-64.00 l-32.00,0.00 L 320.00,288.00 l 48.00,0.00 l0.00,88.00 c0.00,22.062, 17.938,40.00, 40.00,40.00l 64.00,0.00 c 22.062,0.00, 40.00-17.938, 40.00-40.00L 512.00,176.00 C 512.00,146.50, 490.50,128.00, 490.50,128.00z M 288.00,176.00c0.00,8.797-7.188,16.00-16.00,16.00L 80.00,192.00 c-8.797,0.00-16.00-7.203-16.00-16.00L 64.00,80.00 c0.00-8.797, 7.203-16.00, 16.00-16.00l 192.00,0.00 c 8.812,0.00, 16.00,7.203, 16.00,16.00L 288.00,176.00 z M 480.00,184.00c0.00,4.40-3.60,8.00-8.00,8.00l-16.00,0.00 c-4.40,0.00-8.00-3.60-8.00-8.00l0.00-16.00 c0.00-4.40, 3.60-8.00, 8.00-8.00l 16.00,0.00 c 4.40,0.00, 8.00,3.60, 8.00,8.00L 480.00,184.00 z" ></path></svg>