<?xml version="1.0" encoding="utf-8"?> <!-- Generator: IcoMoon.io --> <!DOCTYPE svg PUBLIC "-//W3C//DTD SVG 1.1//EN" "http://www.w3.org/Graphics/SVG/1.1/DTD/svg11.dtd"> <svg width="512" height="512" viewBox="0 0 512 512" xmlns="http://www.w3.org/2000/svg" xmlns:xlink="http://www.w3.org/1999/xlink" fill="#242424"><path d="M 96.00,293.666L 96.00,368.00 c0.00,32.00, 71.634,80.00, 160.00,80.00c 88.365,0.00, 160.00-48.00, 160.00-80.00l0.00-74.334 l-160.00,80.00L 96.00,293.666zM 256.00,64.00L0.00,192.00l 256.00,128.00l 207.714-103.857L 448.00,352.00l 32.00,0.00 L 480.00,208.00 l 32.00-16.00L 256.00,64.00z M 272.00,199.20c-12.813,0.00-23.20-10.387-23.20-23.20 c0.00-12.813, 10.387-23.20, 23.20-23.20s 23.20,10.387, 23.20,23.20C 295.20,188.813, 284.814,199.20, 272.00,199.20z" ></path></svg>