<?xml version="1.0" encoding="utf-8"?> <!-- Generator: IcoMoon.io --> <!DOCTYPE svg PUBLIC "-//W3C//DTD SVG 1.1//EN" "http://www.w3.org/Graphics/SVG/1.1/DTD/svg11.dtd"> <svg width="512" height="512" viewBox="0 0 512 512" xmlns="http://www.w3.org/2000/svg" xmlns:xlink="http://www.w3.org/1999/xlink" fill="#242424"><path d="M0.00,0.00l0.00,512.00 l 512.00,0.00 L 512.00,0.00 L0.00,0.00 z M 480.00,160.00L 352.00,160.00 L 352.00,32.00 l 128.00,0.00 L 480.00,160.00 z M 192.00,320.00L 192.00,192.00 l 128.00,0.00 l0.00,128.00 L 192.00,320.00 z M 320.00,352.00l0.00,128.00 L 192.00,480.00 L 192.00,352.00 L 320.00,352.00 z M 160.00,320.00L 32.00,320.00 L 32.00,192.00 l 128.00,0.00 L 160.00,320.00 z M 192.00,160.00L 192.00,32.00 l 128.00,0.00 l0.00,128.00 L 192.00,160.00 z M 352.00,192.00l 128.00,0.00 l0.00,128.00 L 352.00,320.00 L 352.00,192.00 z M 160.00,32.00l0.00,128.00 L 32.00,160.00 L 32.00,32.00 L 160.00,32.00 z M 32.00,352.00l 128.00,0.00 l0.00,128.00 L 32.00,480.00 L 32.00,352.00 z M 352.00,480.00L 352.00,352.00 l 128.00,0.00 l0.00,128.00 L 352.00,480.00 z" ></path></svg>