<?xml version="1.0" encoding="utf-8"?> <!-- Generator: IcoMoon.io --> <!DOCTYPE svg PUBLIC "-//W3C//DTD SVG 1.1//EN" "http://www.w3.org/Graphics/SVG/1.1/DTD/svg11.dtd"> <svg width="512" height="512" viewBox="0 0 512 512" xmlns="http://www.w3.org/2000/svg" xmlns:xlink="http://www.w3.org/1999/xlink" fill="#242424"><path d="M 440.00,128.00l 72.00-64.00c-6.038-32.334-31.666-57.962-64.00-64.00l-64.00,72.00l0.00,17.109 l-90.735,90.735 c-47.034-38.417-79.561-33.168-100.675-15.795c-20.49,16.855-28.145,50.262-39.481,60.243 c-22.896,20.152-79.232-0.076-127.196,52.117C-29.588,336.807, 14.208,401.20, 62.504,449.496 c 48.295,48.294, 112.689,92.092, 173.087,36.592c 52.194-47.964, 31.954-104.312, 52.105-127.207c 9.98-11.337, 43.398-18.979, 60.255-39.47 c 17.371-21.114, 22.62-53.642-15.796-100.676L 422.891,128.00L 440.00,128.00 z M 146.565,429.435l-64.00-64.00l 26.87-26.869l 64.00,64.00L 146.565,429.435z M 240.00,320.00c-26.51,0.00-48.00-21.49-48.00-48.00s 21.49-48.00, 48.00-48.00s 48.00,21.49, 48.00,48.00S 266.51,320.00, 240.00,320.00z" ></path></svg>