<?xml version="1.0" encoding="utf-8"?> <!-- Generator: IcoMoon.io --> <!DOCTYPE svg PUBLIC "-//W3C//DTD SVG 1.1//EN" "http://www.w3.org/Graphics/SVG/1.1/DTD/svg11.dtd"> <svg width="512" height="512" viewBox="0 0 512 512" xmlns="http://www.w3.org/2000/svg" xmlns:xlink="http://www.w3.org/1999/xlink" fill="#242424"><path d="M 199.00,224.00 L 36.00,224.00 L 28.00,160.00 L 0.00,160.00 L 0.00,96.00 L 295.00,96.00 ZM 512.00,192.00l0.00-64.00 c0.00-17.60-14.40-32.00-32.00-32.00l-74.00,0.00 l 72.00-96.00l-60.00,0.00 L 82.00,448.00l 60.00,0.00 l 96.033-128.044c 0.653,0.027, 1.309,0.044, 1.968,0.044l 91.429,0.00 l 29.46,103.111l-2.262,2.262C 346.183,437.817, 350.40,448.00, 368.00,448.00l 12.50,0.00 L 512.00,448.00 l0.00-64.00 l-51.203-128.009C 443.849,213.601, 496.001,192.00, 512.00,192.00 z M 262.00,288.00l 24.00-32.00l 27.143,0.00 l 9.145,32.00L 262.00,288.00 z" ></path></svg>