<?xml version="1.0" encoding="utf-8"?> <!-- Generator: IcoMoon.io --> <!DOCTYPE svg PUBLIC "-//W3C//DTD SVG 1.1//EN" "http://www.w3.org/Graphics/SVG/1.1/DTD/svg11.dtd"> <svg width="512" height="512" viewBox="0 0 512 512" xmlns="http://www.w3.org/2000/svg" xmlns:xlink="http://www.w3.org/1999/xlink" fill="#242424"><path d="M0.00,96.00l0.00,64.00 l 28.00,0.00 l 8.00,64.00l 156.00,0.00 l0.00,48.00 c0.00,26.40, 21.60,48.00, 48.00,48.00l 91.429,0.00 l 29.46,103.111l-2.262,2.262C 346.183,437.817, 350.40,448.00, 368.00,448.00l 12.50,0.00 L 512.00,448.00 l0.00-64.00 l-51.203-128.009C 443.849,213.601, 496.001,192.00, 512.00,192.00l0.00-64.00 c0.00-17.60-14.40-32.00-32.00-32.00 M 240.00,288.00c-8.673,0.00-16.00-7.327-16.00-16.00l0.00-48.00 l 32.00,0.00 l0.00,32.00 l 57.143,0.00 l 9.144,32.00L 240.00,288.00 z" ></path></svg>