<?xml version="1.0" encoding="utf-8"?> <!-- Generator: IcoMoon.io --> <!DOCTYPE svg PUBLIC "-//W3C//DTD SVG 1.1//EN" "http://www.w3.org/Graphics/SVG/1.1/DTD/svg11.dtd"> <svg width="512" height="512" viewBox="0 0 512 512" xmlns="http://www.w3.org/2000/svg" xmlns:xlink="http://www.w3.org/1999/xlink" fill="#242424"><path d="M 256.00,480.00c 141.385,0.00, 256.00-42.98, 256.00-96.00L0.00,384.00 C0.00,437.02, 114.615,480.00, 256.00,480.00zM 464.00,192.00L 48.00,192.00 c-26.40,0.00-48.00,21.60-48.00,48.00c0.00,26.40, 21.60,48.00, 48.00,48.00l 416.00,0.00 c 26.40,0.00, 48.00-21.60, 48.00-48.00C 512.00,213.60, 490.40,192.00, 464.00,192.00zM 256.00,32.00C 114.615,32.00,0.00,84.98,0.00,138.00l0.00,22.00 l 512.00,0.00 l0.00-22.00 C 512.00,84.98, 397.385,32.00, 256.00,32.00z M 80.00,128.00c-8.836,0.00-16.00-7.164-16.00-16.00 s 7.164-16.00, 16.00-16.00s 16.00,7.164, 16.00,16.00S 88.836,128.00, 80.00,128.00z M 144.00,96.00c-8.836,0.00-16.00-7.164-16.00-16.00s 7.164-16.00, 16.00-16.00s 16.00,7.164, 16.00,16.00 S 152.836,96.00, 144.00,96.00z M 208.00,128.00c-8.836,0.00-16.00-7.164-16.00-16.00s 7.164-16.00, 16.00-16.00s 16.00,7.164, 16.00,16.00S 216.836,128.00, 208.00,128.00z M 304.00,128.00 c-8.837,0.00-16.00-7.164-16.00-16.00s 7.163-16.00, 16.00-16.00s 16.00,7.164, 16.00,16.00S 312.837,128.00, 304.00,128.00z M 368.00,96.00c-8.836,0.00-16.00-7.164-16.00-16.00s 7.164-16.00, 16.00-16.00 s 16.00,7.164, 16.00,16.00S 376.836,96.00, 368.00,96.00z M 432.00,128.00c-8.836,0.00-16.00-7.164-16.00-16.00s 7.164-16.00, 16.00-16.00s 16.00,7.164, 16.00,16.00S 440.836,128.00, 432.00,128.00zM0.00,320.00L 512.00,320.00L 512.00,352.00L0.00,352.00z" ></path></svg>