<?xml version="1.0" encoding="utf-8"?>
<!-- Generator: Adobe Illustrator 16.0.4, SVG Export Plug-In . SVG Version: 6.00 Build 0)  -->
<!DOCTYPE svg PUBLIC "-//W3C//DTD SVG 1.1//EN" "http://www.w3.org/Graphics/SVG/1.1/DTD/svg11.dtd">
<svg version="1.1" id="Capa_1" xmlns="http://www.w3.org/2000/svg" xmlns:xlink="http://www.w3.org/1999/xlink" x="0px" y="0px"
	 width="100px" height="100px" viewBox="0 0 100 100" enable-background="new 0 0 100 100" xml:space="preserve">
<path d="M95.163,79.702c-2.14-2.796-3.976-6.753-4.929-9.478c-4.407-12.607-4.558-13.438-6.762-19.291
	c-0.562-1.49-0.756-7.214-3.38-8.409c-0.136-0.081-0.226-0.119-0.226-0.119s0.008,0.02,0.01,0.025
	c-0.027-0.009-0.051-0.026-0.078-0.034c-0.361-3.84-1.256-7.516-4.71-7.518c-0.604-2.522-1.36-4.76-2.468-6.226
	c-2.508-3.323-7.612,0.542-7.612,0.542s0.619-1.04-0.462-4.514c-0.645-2.072-1.997-5.127-3.19-7.906
	c0.188-0.476,0.384-0.972,0.583-1.479l0.119-0.303v0c2.357-6.015,5.238-13.639,4.943-14.261c-0.49-1.037-24.927,3.231-24.927,3.231
	l5.734,6.066c0,0-3.742,3.307-7.056,7.679c-4.958,6.54-10.167,15.041-10.167,15.041s7.249-6.823,13.964-11.243
	c2.422-1.594,4.855-2.693,6.698-3.399l0,0l1.43-0.513c0.005-0.001,0.009-0.003,0.014-0.005c0.282,3.225,0.739,6.854,0.722,10.303
	c-0.015,2.701,0.535,6.813,0.655,8.27c0.268,3.214-1.674,5.194-1.993,8.763c-0.238,2.672-1.194,17.265-9.758,19.527
	c-4.912,1.299-9.581-1.405-14.427-2.765c-1.13-0.317-2.965-0.526-4.959-0.462c0-0.001,0-0.004,0.001-0.005h0.002l0.415-2.193
	c0,0-0.002,0.003-0.002,0.003c0.458-2.339,1.249-6.171,2.216-9.993c1.912-7.547,4.353-15.369,4.353-15.369s-4.8,6.074-9.098,12.521
	c-3.534,5.3-6.718,11.202-6.718,11.202l-6.573-1.709c0,0,2.942,22.764,4.084,22.889c0.444,0.048,3.238-2.138,6.485-4.825v0.001
	l2.069-1.543l-0.106-0.075c4.902,1.697,11.079,2.998,13.628,4.962c1.521,1.172,6.166,3.604,10.549,6.526
	c2.974,1.981,5.199,4.329,8.667,6.13c4.633,2.404,8.438,3.211,11.56,4.335c1.567,0.565,4.917,2.28,7.151,4.455
	C76.288,103.088,99.779,85.73,95.163,79.702z M11.31,67.068c0-3.146,2.551-5.695,5.696-5.695c0.002,0,0.005,0,0.007,0L19,61.739
	c0.004,0.001,0.008,0.003,0.012,0.004c-2.561,0.648-4.817,1.957-5.61,4.317c-0.919,2.737,2.236,4.506,6.389,5.972l-1.88,0.653
	c-0.295,0.047-0.596,0.078-0.905,0.078C13.86,72.764,11.31,70.213,11.31,67.068z M55.928,4.412c3.146,0,5.695,2.55,5.695,5.696
	c0,1.183-0.361,2.282-0.979,3.193l0,0l-0.456,0.579c-0.009,0.01-0.019,0.02-0.027,0.03c-0.146-0.368-0.29-0.731-0.411-1.06
	c-1.3-3.53-1.516-6.676-3.417-6.797c-1.446-0.091-2.839,1.549-3.56,4.492c-0.275,1.128-0.329,2.531-0.273,4.105
	c-0.017-0.012-0.033-0.024-0.05-0.037l-0.392-0.333c-1.121-1.04-1.827-2.521-1.827-4.171C50.232,6.962,52.782,4.412,55.928,4.412z"
	/>
</svg>
