<?xml version="1.0" encoding="utf-8"?>
<!-- Generator: Adobe Illustrator 16.0.4, SVG Export Plug-In . SVG Version: 6.00 Build 0)  -->
<!DOCTYPE svg PUBLIC "-//W3C//DTD SVG 1.1//EN" "http://www.w3.org/Graphics/SVG/1.1/DTD/svg11.dtd">
<svg version="1.1" id="Capa_1" xmlns="http://www.w3.org/2000/svg" xmlns:xlink="http://www.w3.org/1999/xlink" x="0px" y="0px"
	 width="100px" height="100px" viewBox="0 0 100 100" enable-background="new 0 0 100 100" xml:space="preserve">
<path d="M95.121,79.268c-7.874-9.822-6.416-33.972-10.512-40.772c-1.213-2.015-4.5-4.758-6.457-7.5
	c-5.459-7.645-10.25-15.771-14.18-14.333c-2.211,0.809-7.713,3.877-7.713,3.877s-1.783-1.442-3.863-1.279
	c-1.418,0.111-3.384,1.38-5.273,1.685c-2.711,0.437-5.687,0.926-8.417,1.515c0.248-1.974,0.747-5.373,1.619-9.132
	c1.513-6.522,3.64-12.74,3.64-12.74s-4.624,5.903-9.1,11.83c-3.681,4.874-5.46,8.189-5.46,8.189l-6.37-1.82l6.37,16.379l7.261-3.844
	c3.194-0.001,6.361-0.589,6.361-0.589s4.654,0.201,4.633,0.248l0.392,2.702c0,0-0.846,3.483-0.116,5.534
	c0.818,2.305,1.861,2.475,3.349,2.615c1.887,0.178,4.443-1.826,4.443-1.826s0.638,0.731,0.711,1.704
	c0.104,1.374-0.35,3.164-0.405,3.491c-1.259,7.406-6.009,8.425-6.009,8.425s-3.429-0.772-5.519-3.479
	c-2.891-3.743-3.81-6.303-10.273-10.476c-0.877-0.566-2.042-1.074-3.299-1.353l-1.472-3.153l-17.345,8.191l8.189,1.82
	c0,0-1.094,7.973-1.554,13.213c-0.689,7.836-0.582,17.391-0.582,17.391s2.403-9.233,5.6-16.246c1.552-3.404,3.933-7.018,5.355-9.058
	c0.928,1.379,1.844,2.899,2.627,3.962c1.668,2.26,3.64,3.938,5.567,6.527c1.312,1.764,2.242,4.949,3.727,6.835
	c4.18,5.306,7.124,10.39,10.572,14.994c3.162,4.222,7.266,6.21,10.326,8.64c3.43,2.726,5.877,5.461,6.447,6.422
	c2.855,4.791,13.791,0.785,20.346-4.508C92.434,90.366,98.74,83.781,95.121,79.268z M33.032,32.43c-3.015,0-5.46-2.445-5.46-5.46
	c0-3.016,2.445-5.46,5.46-5.46c1.41,0,2.691,0.539,3.66,1.417c-3.999,1.002-7.078,2.282-7.274,4.036
	c-0.222,1.989,1.482,3.716,4.473,4.177c0.767,0.119,1.595,0.17,2.43,0.182C35.406,32.014,34.269,32.43,33.032,32.43z M22.332,45.949
	c-1.751-2.454-1.181-5.864,1.273-7.616c1.839-1.312,4.213-1.321,6.026-0.211c-1.83-0.144-3.712,0.288-5.106,1.795
	c-1.926,2.085-0.677,5.374,2.259,7.708c0.193,0.153,0.391,0.343,0.591,0.555C25.475,48.388,23.522,47.616,22.332,45.949z"/>
</svg>
