<?xml version="1.0" encoding="utf-8"?> <!-- Generator: IcoMoon.io --> <!DOCTYPE svg PUBLIC "-//W3C//DTD SVG 1.1//EN" "http://www.w3.org/Graphics/SVG/1.1/DTD/svg11.dtd"> <svg width="512" height="512" viewBox="0 0 512 512" xmlns="http://www.w3.org/2000/svg" xmlns:xlink="http://www.w3.org/1999/xlink" fill="#242424"><path d="M 470.667,201.334L 470.667,201.334c-12.445-12.445-32.811-12.445-45.255-0.001l-13.917,13.917 C 389.493,237.252, 352.00,270.428, 352.00,224.00L 352.00,64.00 c0.00-17.60-14.40-32.00-32.00-32.00s-32.00,14.40-32.00,32.00l0.00,160.00 c0.00,8.837-7.164,16.00-16.00,16.00s-16.00-7.163-16.00-16.00L 256.00,32.00 c0.00-17.60-14.40-32.00-32.00-32.00c-17.60,0.00-32.00,14.40-32.00,32.00l0.00,192.00 c0.00,8.837-7.164,16.00-16.00,16.00s-16.00-7.163-16.00-16.00L 160.00,64.00 c0.00-17.60-14.40-32.00-32.00-32.00S 96.00,46.40, 96.00,64.00 l0.00,160.00 c0.00,8.837-7.164,16.00-16.00,16.00s-16.00-7.163-16.00-16.00l0.00-96.00 c0.00-17.60-14.40-32.00-32.00-32.00S0.00,110.40,0.00,128.00l0.00,96.00 l0.00,64.00 c0.00,64.00, 32.00,224.00, 192.00,224.00 s 188.627-175.373, 269.255-256.00l 9.412-9.412C 483.112,234.144, 483.112,213.778, 470.667,201.334z" ></path></svg>