<?xml version="1.0" encoding="utf-8"?> <!-- Generator: IcoMoon.io --> <!DOCTYPE svg PUBLIC "-//W3C//DTD SVG 1.1//EN" "http://www.w3.org/Graphics/SVG/1.1/DTD/svg11.dtd"> <svg width="512" height="512" viewBox="0 0 512 512" xmlns="http://www.w3.org/2000/svg" xmlns:xlink="http://www.w3.org/1999/xlink" fill="#242424"><path d="M 497.817,421.401L 288.00,271.532L 288.00,232.00 c0.00-24.00-7.75-33.00-31.00-33.00l-9.365,0.00 c-7.80-1.428-15.98-4.131-21.711-9.79 c-6.833-6.747-11.605-19.376-11.605-30.713c0.00-11.335, 4.772-23.965, 11.605-30.713c 7.483-7.389, 17.432-11.458, 28.016-11.458 c 10.583,0.00, 20.531,4.069, 28.013,11.458c 10.249,10.119, 26.865,10.119, 37.112-0.001c 10.249-10.12, 10.248-26.526,0.00-36.646 C 301.669,73.959, 278.541,64.50, 253.94,64.50c-24.604,0.00-47.734,9.46-65.13,26.639c-16.64,16.432-26.977,42.241-26.977,67.357 c0.00,25.119, 10.337,50.929, 26.979,67.36c 10.079,9.951, 22.089,17.292, 35.188,21.725l0.00,23.951 L 13.40,421.961 c-11.32,8.085-16.119,22.558-11.874,35.805C 5.772,471.013, 18.089,480.00, 32.00,480.00l 448.00,0.00 c 0.007,0.00, 0.015,0.00, 0.02,0.00c 17.674,0.00, 32.00-14.327, 32.00-32.00 C 512.02,436.913, 506.382,427.144, 497.817,421.401z M 115.855,416.00L 256.00,319.325L 396.146,416.00L 115.855,416.00 z" ></path></svg>