<?xml version="1.0" encoding="utf-8"?> <!-- Generator: IcoMoon.io --> <!DOCTYPE svg PUBLIC "-//W3C//DTD SVG 1.1//EN" "http://www.w3.org/Graphics/SVG/1.1/DTD/svg11.dtd"> <svg width="512" height="512" viewBox="0 0 512 512" xmlns="http://www.w3.org/2000/svg" xmlns:xlink="http://www.w3.org/1999/xlink" fill="#242424"><path d="M 256.001,64.00C 132.288,64.00, 32.00,164.288, 32.00,288.00l0.00,96.00 l 32.00,0.00 l0.00-96.00 c0.00-106.039, 85.961-160.00, 192.00-160.00s 192.00,53.961, 192.00,160.00l0.00,96.00 l 32.00,0.00 l0.00-96.00 C 480.001,164.288, 379.712,64.00, 256.001,64.00zM 138.667,288.00l-21.333,0.00 C 105.60,288.00, 96.00,297.60, 96.00,309.333l0.00,117.334 C 96.00,438.399, 105.60,448.00, 117.333,448.00l 21.333,0.00 C 150.40,448.00, 160.00,438.399, 160.00,426.667L 160.00,309.333 C 160.00,297.60, 150.40,288.00, 138.667,288.00zM 394.666,288.00l-21.334,0.00 c-11.731,0.00-21.331,9.60-21.331,21.333l0.00,117.334 c0.00,11.732, 9.60,21.333, 21.331,21.333l 21.334,0.00 C 406.40,448.00, 416.00,438.399, 416.00,426.667L 416.00,309.333 C 416.001,297.60, 406.401,288.00, 394.666,288.00z" ></path></svg>