<?xml version="1.0" encoding="utf-8"?> <!-- Generator: IcoMoon.io --> <!DOCTYPE svg PUBLIC "-//W3C//DTD SVG 1.1//EN" "http://www.w3.org/Graphics/SVG/1.1/DTD/svg11.dtd"> <svg width="512" height="512" viewBox="0 0 512 512" xmlns="http://www.w3.org/2000/svg" xmlns:xlink="http://www.w3.org/1999/xlink" fill="#242424"><path d="M 256.00,480.00l-13.97-6.779C 232.147,468.426,0.00,353.771,0.00,179.487C0.00,98.162, 67.738,32.00, 151.00,32.00c 39.83,0.00, 77.258,15.237, 105.00,41.462 C 283.742,47.237, 321.17,32.00, 361.00,32.00c 83.262,0.00, 151.00,66.162, 151.00,147.487c0.00,174.284-232.147,288.938-242.03,293.733L 256.00,480.00z M 151.00,96.00 c-47.972,0.00-87.00,37.452-87.00,83.487c0.00,67.976, 54.123,127.616, 99.526,165.68c 36.25,30.39, 73.062,52.351, 92.474,63.081 c 19.412-10.73, 56.224-32.691, 92.474-63.081C 393.877,307.104, 448.00,247.463, 448.00,179.487C 448.00,133.452, 408.972,96.00, 361.00,96.00 c-32.336,0.00-61.831,17.07-76.974,44.55L 256.00,191.41l-28.026-50.86C 212.831,113.07, 183.336,96.00, 151.00,96.00z" ></path></svg>