<?xml version="1.0" encoding="utf-8"?> <!-- Generator: IcoMoon.io --> <!DOCTYPE svg PUBLIC "-//W3C//DTD SVG 1.1//EN" "http://www.w3.org/Graphics/SVG/1.1/DTD/svg11.dtd"> <svg width="512" height="512" viewBox="0 0 512 512" xmlns="http://www.w3.org/2000/svg" xmlns:xlink="http://www.w3.org/1999/xlink" fill="#242424"><path d="M 336.00,48.084L 455.917,152.00l 0.083-0.083L 352.00,32.084L 471.917,136.00l 0.042-0.042L 496.00,160.00L 327.82,328.18 c-14.806,14.806-37.578,17.083-54.84,6.84L 296.00,311.917L 192.00,192.084l 0.79,0.685L 311.917,296.00l 0.083-0.083L 208.00,176.084L 327.917,280.00 l 0.083-0.083L 224.00,160.084L 343.917,264.00l 0.083-0.083L 240.00,144.084L 359.917,248.00l 0.083-0.083L 256.00,128.084L 375.917,232.00l 0.083-0.083 L 272.00,112.084L 391.917,216.00l 0.083-0.083L 288.00,96.084L 407.917,200.00l 0.083-0.083L 304.00,80.084L 423.917,184.00l 0.083-0.083L 320.00,64.084 L 439.917,168.00l 0.083-0.083L 336.00,48.084zM 360.042,24.042L 352.00,32.084l-16.00,16.00l-16.00,16.00l-16.00,16.00l-16.00,16.00l-16.00,16.00l-16.00,16.00l-16.00,16.00l-16.00,16.00l-16.00,16.00l-15.947,15.947 l-31.071,30.987c-4.189-7.058-6.287-15.037-6.287-23.019c0.00-11.534, 4.375-23.069, 13.125-31.819L 336.00,0.00L 360.042,24.042zM 160.981,223.019 L 272.981,335.019 L 192.00,416.00 L 0.00,416.00 L 0.00,384.00 Z" ></path></svg>