<?xml version="1.0" encoding="utf-8"?> <!-- Generator: IcoMoon.io --> <!DOCTYPE svg PUBLIC "-//W3C//DTD SVG 1.1//EN" "http://www.w3.org/Graphics/SVG/1.1/DTD/svg11.dtd"> <svg width="512" height="512" viewBox="0 0 512 512" xmlns="http://www.w3.org/2000/svg" xmlns:xlink="http://www.w3.org/1999/xlink" fill="#242424"><path d="M 256.00,128.00L 256.00,288.00L 384.00,288.00L 384.00,256.00L 288.00,256.00L 288.00,128.00 zM 288.00,32.00C 164.288,32.00, 64.00,132.288, 64.00,256.00L0.00,256.00 l 80.00,96.00l 80.00-96.00L 96.00,256.00 c0.00-106.039, 85.961-192.00, 192.00-192.00c 106.039,0.00, 192.00,85.961, 192.00,192.00 c0.00,106.039-85.961,192.00-192.00,192.00c-10.904,0.00-21.592-0.923-32.00-2.67l0.00,32.385 c 10.453,1.495, 21.134,2.285, 32.00,2.285 c 123.712,0.00, 224.00-100.288, 224.00-224.00S 411.712,32.00, 288.00,32.00z" ></path></svg>