<?xml version="1.0" encoding="utf-8"?> <!-- Generator: IcoMoon.io --> <!DOCTYPE svg PUBLIC "-//W3C//DTD SVG 1.1//EN" "http://www.w3.org/Graphics/SVG/1.1/DTD/svg11.dtd"> <svg width="512" height="512" viewBox="0 0 512 512" xmlns="http://www.w3.org/2000/svg" xmlns:xlink="http://www.w3.org/1999/xlink" fill="#242424"><path d="M 320.00,422.439L 320.00,438.00 c0.00,17.673, 42.98,32.00, 96.00,32.00s 96.00-14.327, 96.00-32.00l0.00-15.561 C 495.415,437.965, 455.522,446.00, 416.00,446.00 S 336.585,437.965, 320.00,422.439zM 320.00,404.00A96.00,32.00 7560.00 1 1 512.00,404A96.00,32.00 7560.00 1 1 320.00,404zM 454.402,96.00L 224.521,384.982c-15.687,18.019-126.371,12.893-184.957,3.903c-0.015,0.00-0.029,0.00-0.045-0.001 c-26.645-2.943-33.747-13.682-38.07,10.169L 1.446,399.053 c-4.93,37.705, 4.325,70.333, 4.325,70.333 c 19.563,20.469, 199.608,8.402, 218.749-11.447L 512.00,96.00L 454.402,96.00 z" ></path></svg>