<?xml version="1.0" encoding="utf-8"?> <!-- Generator: IcoMoon.io --> <!DOCTYPE svg PUBLIC "-//W3C//DTD SVG 1.1//EN" "http://www.w3.org/Graphics/SVG/1.1/DTD/svg11.dtd"> <svg width="512" height="512" viewBox="0 0 512 512" xmlns="http://www.w3.org/2000/svg" xmlns:xlink="http://www.w3.org/1999/xlink" fill="#242424"><path d="M 256.00,16.00L0.00,272.00l 48.00,48.00l 48.00-48.00l0.00,240.00 l 128.00,0.00 l0.00-32.00 l0.00-64.00 l 64.00,0.00 l0.00,96.00 l 128.00,0.00 L 416.00,272.00 l 48.00,48.00l 48.00-48.00L 256.00,16.00z M 132.00,480.00l-4.00,0.00 L 128.00,240.00 l 4.00-4.00L 132.00,480.00 z M 148.00,480.00l-8.00,0.00 L 140.00,228.00 l 8.00-8.00L 148.00,480.00 z M 164.00,480.00l-8.00,0.00 L 156.00,212.00 l 8.00-8.00L 164.00,480.00 z M 180.00,480.00l-8.00,0.00 L 172.00,196.00 l 8.00-8.00L 180.00,480.00 z M 196.00,384.00l-4.00,0.00 l0.00,32.00 l0.00,64.00 l-4.00,0.00 L 188.00,180.00 l 8.00-8.00L 196.00,384.00 z M 212.00,384.00l-8.00,0.00 L 204.00,164.00 l 8.00-8.00L 212.00,384.00 z M 228.00,384.00 l-8.00,0.00 L 220.00,148.00 l 8.00-8.00L 228.00,384.00 z M 244.00,384.00l-8.00,0.00 L 236.00,132.00 l 8.00-8.00L 244.00,384.00 z M 260.00,384.00l-8.00,0.00 L 252.00,116.00 l 4.00-4.00l 4.00,4.00L 260.00,384.00 z M 276.00,384.00l-8.00,0.00 L 268.00,124.00 l 8.00,8.00L 276.00,384.00 z M 292.00,384.00l-8.00,0.00 L 284.00,140.00 l 8.00,8.00L 292.00,384.00 z M 308.00,384.00l-8.00,0.00 L 300.00,156.00 l 8.00,8.00L 308.00,384.00 z M 324.00,480.00l-4.00,0.00 l0.00-64.00 l0.00-32.00 l-4.00,0.00 L 316.00,172.00 l 8.00,8.00L 324.00,480.00 z M 340.00,480.00l-8.00,0.00 L 332.00,188.00 l 8.00,8.00L 340.00,480.00 z M 356.00,480.00l-8.00,0.00 L 348.00,204.00 l 8.00,8.00L 356.00,480.00 z M 372.00,480.00l-8.00,0.00 L 364.00,220.00 l 8.00,8.00L 372.00,480.00 z M 384.00,480.00l-4.00,0.00 L 380.00,236.00 l 4.00,4.00L 384.00,480.00 z" ></path></svg>