<?xml version="1.0" encoding="utf-8"?> <!-- Generator: IcoMoon.io --> <!DOCTYPE svg PUBLIC "-//W3C//DTD SVG 1.1//EN" "http://www.w3.org/Graphics/SVG/1.1/DTD/svg11.dtd"> <svg width="512" height="512" viewBox="0 0 512 512" xmlns="http://www.w3.org/2000/svg" xmlns:xlink="http://www.w3.org/1999/xlink" fill="#242424"><path d="M 256.00,0.00L0.00,192.00l0.00,96.00 l 64.00-48.00l0.00,240.00 c0.00,17.60, 14.399,32.00, 32.00,32.00l 320.00,0.00 c 17.60,0.00, 32.00-14.40, 32.00-32.00L 448.00,240.00 l 64.00,48.00l0.00-96.00 L 256.00,0.00z M 416.00,479.942 c-0.018,0.02-0.038,0.041-0.059,0.058L 256.00,480.00 L 256.00,320.00 l-96.00,0.00 l0.00,160.00 L 96.058,480.00 c-0.02-0.017-0.041-0.038-0.058-0.058L 96.00,216.00 L 256.00,96.00l 160.00,120.00L 416.00,479.942 zM 288.00,224.00L 352.00,224.00L 352.00,288.00L 288.00,288.00z" ></path></svg>