<?xml version="1.0" encoding="utf-8"?> <!-- Generator: IcoMoon.io --> <!DOCTYPE svg PUBLIC "-//W3C//DTD SVG 1.1//EN" "http://www.w3.org/Graphics/SVG/1.1/DTD/svg11.dtd"> <svg width="512" height="512" viewBox="0 0 512 512" xmlns="http://www.w3.org/2000/svg" xmlns:xlink="http://www.w3.org/1999/xlink" fill="#242424"><path d="M 416.00,287.887c-32.00,0.00-64.00,32.113-96.00,32.113s-32.00-128.00-96.00-128.00S 96.00,256.00, 64.00,384.00c0.00,0.00, 352.00,0.00, 384.00,0.00 C 448.00,384.001, 448.00,287.887, 416.00,287.887zM0.00,96.00l0.00,352.00 l 512.00,0.00 L 512.00,96.00 L0.00,96.00 z M 480.00,416.00L 32.00,416.00 L 32.00,128.00 l 448.00,0.00 L 480.00,416.00 zM 352.00,208.00A48.00,48.00 12600.00 1 1 448.00,208A48.00,48.00 12600.00 1 1 352.00,208z" ></path></svg>