<?xml version="1.0" encoding="utf-8"?> <!-- Generator: IcoMoon.io --> <!DOCTYPE svg PUBLIC "-//W3C//DTD SVG 1.1//EN" "http://www.w3.org/Graphics/SVG/1.1/DTD/svg11.dtd"> <svg width="512" height="512" viewBox="0 0 512 512" xmlns="http://www.w3.org/2000/svg" xmlns:xlink="http://www.w3.org/1999/xlink" fill="#242424"><path d="M0.00,32.00l0.00,448.00 l 512.00,0.00 L 512.00,32.00 L0.00,32.00 z M 480.00,64.00l0.00,325.154 L 354.059,242.222c-8.806-10.272-21.219-16.164-34.059-16.164 s-25.253,5.892-34.059,16.164L 136.99,416.00L 43.529,416.00 l 72.914-91.143c 3.271-4.09, 7.376-6.342, 11.557-6.342s 8.286,2.252, 11.557,6.342 l 15.867,19.834l 18.295-21.954l-12.297-15.372c-8.567-10.708-20.749-16.85-33.421-16.85s-24.854,6.142-33.421,16.85L 32.00,385.589L 32.00,64.00 L 480.00,64.00 z M 466.132,416.00L 173.868,416.00 l 133.333-155.556c 3.529-4.118, 8.075-6.386, 12.799-6.386s 9.27,2.268, 12.799,6.386L 466.132,416.00zM 144.00,124.00c 28.673,0.00, 52.00,23.327, 52.00,52.00s-23.327,52.00-52.00,52.00s-52.00-23.327-52.00-52.00S 115.327,124.00, 144.00,124.00 M 144.00,96.00 c-44.183,0.00-80.00,35.817-80.00,80.00s 35.817,80.00, 80.00,80.00s 80.00-35.817, 80.00-80.00S 188.183,96.00, 144.00,96.00L 144.00,96.00z" ></path></svg>