<?xml version="1.0" encoding="utf-8"?> <!-- Generator: IcoMoon.io --> <!DOCTYPE svg PUBLIC "-//W3C//DTD SVG 1.1//EN" "http://www.w3.org/Graphics/SVG/1.1/DTD/svg11.dtd"> <svg width="512" height="512" viewBox="0 0 512 512" xmlns="http://www.w3.org/2000/svg" xmlns:xlink="http://www.w3.org/1999/xlink" fill="#242424"><path d="M 496.00,192.00l 16.00-64.00L 384.00,0.00l-64.00,16.00l 31.515,31.515l-52.201,52.201l-71.515-71.515l-39.598,39.598l 48.185,48.185 c-1.045,0.811-2.055,1.686-3.013,2.644L 54.627,297.373c-12.445,12.444-12.445,32.81,0.00,45.254L 64.00,352.00l0.00,0.00 l0.00,32.00 l 20.687,20.687L0.00,489.373 l0.00,0.00 L 22.627,512.00l 84.687-84.687L 128.00,448.00l 32.00,0.00 l 9.373,9.373c 6.223,6.223, 14.425,9.333, 22.627,9.333s 16.405-3.11, 22.627-9.333 l 178.746-178.746c 0.958-0.958, 1.833-1.968, 2.644-3.013l 48.185,48.185l 39.598-39.598l-71.515-71.515l 52.201-52.201L 496.00,192.00z M 373.574,258.828L 194.829,437.573c-0.937,0.937-2.055,1.133-2.829,1.133s-1.893-0.196-2.828-1.132L 74.426,322.827 c-0.936-0.936-1.132-2.054-1.132-2.827s 0.196-1.892, 1.133-2.828l 178.745-178.746c 0.937-0.936, 2.055-1.133, 2.829-1.133 s 1.892,0.196, 2.828,1.133l 114.745,114.745C 375.08,254.678, 375.081,257.321, 373.574,258.828z M 395.313,195.716l-79.029-79.029 l 52.201-52.201l 79.029,79.029L 395.313,195.716zM 199.514,376.489L 135.514,312.489L 152.484,295.519L 216.484,359.518zM 295.514,280.489L 231.515,216.489L 248.485,199.519L 312.485,263.518zM 247.514,328.489L 183.514,264.489L 200.485,247.519L 264.484,311.518z" ></path></svg>