<?xml version="1.0" encoding="utf-8"?> <!-- Generator: IcoMoon.io --> <!DOCTYPE svg PUBLIC "-//W3C//DTD SVG 1.1//EN" "http://www.w3.org/Graphics/SVG/1.1/DTD/svg11.dtd"> <svg width="512" height="512" viewBox="0 0 512 512" xmlns="http://www.w3.org/2000/svg" xmlns:xlink="http://www.w3.org/1999/xlink" fill="#242424"><path d="M 352.00,128.00L 352.00,0.00 L0.00,0.00 l0.00,352.00 l 128.00,0.00 l0.00,160.00 l 384.00,0.00 L 512.00,128.00 L 352.00,128.00 z M 320.00,196.00L 192.00,196.00 l0.00-4.00 l 128.00,0.00 L 320.00,196.00 z M 320.00,320.00L 192.00,320.00 l0.00-4.00 l 128.00,0.00 L 320.00,320.00 z M 320.00,308.00L 192.00,308.00 l0.00-8.00 l 128.00,0.00 L 320.00,308.00 z M 320.00,292.00L 192.00,292.00 l0.00-8.00 l 128.00,0.00 L 320.00,292.00 z M 320.00,276.00L 192.00,276.00 l0.00-8.00 l 128.00,0.00 L 320.00,276.00 z M 320.00,260.00L 192.00,260.00 l0.00-8.00 l 128.00,0.00 L 320.00,260.00 z M 320.00,244.00L 192.00,244.00 l0.00-8.00 l 128.00,0.00 L 320.00,244.00 z M 320.00,228.00L 192.00,228.00 l0.00-8.00 l 128.00,0.00 L 320.00,228.00 z M 320.00,212.00L 192.00,212.00 l0.00-8.00 l 128.00,0.00 L 320.00,212.00 z M 128.00,320.00L 32.00,320.00 L 32.00,32.00 l 288.00,0.00 l0.00,96.00 L 128.00,128.00 L 128.00,320.00 z M 480.00,480.00L 160.00,480.00 l0.00-96.00 l 224.00,0.00 L 384.00,160.00 l 96.00,0.00 L 480.00,480.00 z" ></path></svg>