<?xml version="1.0" encoding="utf-8"?> <!-- Generator: IcoMoon.io --> <!DOCTYPE svg PUBLIC "-//W3C//DTD SVG 1.1//EN" "http://www.w3.org/Graphics/SVG/1.1/DTD/svg11.dtd"> <svg width="512" height="512" viewBox="0 0 512 512" xmlns="http://www.w3.org/2000/svg" xmlns:xlink="http://www.w3.org/1999/xlink" fill="#242424"><path d="M 336.00,0.00c-79.529,0.00-144.00,64.471-144.00,144.00c0.00,31.598, 10.186,60.813, 27.441,84.558L 4.667,443.332 c-6.223,6.224-6.223,16.406,0.00,22.629l 9.372,9.372c 6.223,6.223, 16.406,6.223, 22.628,0.00L 96.00,416.00l 32.00,32.00l-27.333,27.332 c-6.223,6.224-6.223,16.406,0.00,22.629l 9.372,9.372c 6.223,6.223, 16.406,6.223, 22.628,0.00l 86.666-86.665 c 6.222-6.224, 6.222-16.406,0.00-22.629l-9.372-9.372c-6.223-6.223-16.406-6.223-22.628,0.00L 160.00,416.00l-32.00-32.00l 123.441-123.441 C 275.187,277.815, 304.401,288.00, 336.00,288.00c 79.529,0.00, 144.00-64.471, 144.00-144.00S 415.529,0.00, 336.00,0.00z M 336.00,250.40c-58.763,0.00-106.40-47.637-106.40-106.40 S 277.237,37.60, 336.00,37.60S 442.40,85.237, 442.40,144.00S 394.763,250.40, 336.00,250.40z" ></path></svg>