<?xml version="1.0" encoding="utf-8"?> <!-- Generator: IcoMoon.io --> <!DOCTYPE svg PUBLIC "-//W3C//DTD SVG 1.1//EN" "http://www.w3.org/Graphics/SVG/1.1/DTD/svg11.dtd"> <svg width="512" height="512" viewBox="0 0 512 512" xmlns="http://www.w3.org/2000/svg" xmlns:xlink="http://www.w3.org/1999/xlink" fill="#242424"><path d="M 336.00,8.083c-74.945,0.00-135.917,60.972-135.917,135.917c0.00,28.822, 9.025,55.572, 24.388,77.588L 15.029,431.029 c-9.373,9.373-9.373,24.568,0.00,33.941C 19.716,469.657, 25.858,472.00, 32.00,472.00s 12.284-2.343, 16.971-7.029L 60.00,453.941l 51.029,51.029 C 115.716,509.657, 121.858,512.00, 128.00,512.00s 12.284-2.343, 16.971-7.029c 9.373-9.373, 9.373-24.568,0.00-33.941L 93.941,420.00L 121.00,392.941 l 51.029,51.029C 176.716,448.657, 182.858,451.00, 189.00,451.00s 12.284-2.343, 16.971-7.029c 9.373-9.373, 9.373-24.568,0.00-33.941L 154.941,359.00 l 103.471-103.471c 22.016,15.362, 48.766,24.388, 77.588,24.388c 74.945,0.00, 135.917-60.972, 135.917-135.917S 410.945,8.083, 336.00,8.083z M 336.00,231.917c-48.478,0.00-87.917-39.439-87.917-87.917S 287.522,56.083, 336.00,56.083S 423.917,95.522, 423.917,144.00 S 384.478,231.917, 336.00,231.917z" ></path></svg>