<?xml version="1.0" encoding="utf-8"?> <!-- Generator: IcoMoon.io --> <!DOCTYPE svg PUBLIC "-//W3C//DTD SVG 1.1//EN" "http://www.w3.org/Graphics/SVG/1.1/DTD/svg11.dtd"> <svg width="512" height="512" viewBox="0 0 512 512" xmlns="http://www.w3.org/2000/svg" xmlns:xlink="http://www.w3.org/1999/xlink" fill="#242424"><path d="M 480.00,192.00L 238.872,192.00 C 216.74,153.742, 175.377,128.00, 128.00,128.00C 57.308,128.00,0.00,185.308,0.00,256.00c0.00,70.691, 57.308,128.00, 128.00,128.00 c 47.377,0.00, 88.739-25.742, 110.872-64.00L 256.00,320.00 l 32.00-32.00l 32.00,0.00 l0.00,32.00 l 32.00,0.00 l 32.00-32.00l 32.00,0.00 l0.00,32.00 l 32.00,0.00 l 64.00-64.00L 480.00,192.00z M 96.00,301.255 c-24.994,0.00-45.255-20.262-45.255-45.255c0.00-24.994, 20.261-45.255, 45.255-45.255s 45.255,20.261, 45.255,45.255 C 141.255,280.993, 120.994,301.255, 96.00,301.255z M 256.00,240.00l0.00-16.00 l 192.00,0.00 l 8.00,16.00L 256.00,240.00 z" ></path></svg>