<?xml version="1.0" encoding="utf-8"?> <!-- Generator: IcoMoon.io --> <!DOCTYPE svg PUBLIC "-//W3C//DTD SVG 1.1//EN" "http://www.w3.org/Graphics/SVG/1.1/DTD/svg11.dtd"> <svg width="512" height="512" viewBox="0 0 512 512" xmlns="http://www.w3.org/2000/svg" xmlns:xlink="http://www.w3.org/1999/xlink" fill="#242424"><path d="M 448.00,128.00L 32.00,128.00 c-17.60,0.00-32.00,14.40-32.00,32.00l0.00,224.00 c0.00,17.60, 14.40,32.00, 32.00,32.00l 416.00,0.00 c 17.60,0.00, 32.00-14.40, 32.00-32.00L 480.00,160.00 C 480.00,142.40, 465.60,128.00, 448.00,128.00z M 448.00,383.942c-0.017,0.02-0.038,0.041-0.058,0.058L 32.057,384.00 c-0.02-0.017-0.041-0.038-0.057-0.058L 32.00,160.057 c 0.017-0.02, 0.038-0.041, 0.057-0.057l 415.885,0.00 c 0.02,0.017, 0.041,0.038, 0.058,0.058L 448.00,383.942 zM 128.00,320.00L 352.00,320.00L 352.00,352.00L 128.00,352.00zM 352.00,256.00L 384.00,256.00L 384.00,288.00L 352.00,288.00zM 288.00,256.00L 320.00,256.00L 320.00,288.00L 288.00,288.00zM 224.00,256.00L 256.00,256.00L 256.00,288.00L 224.00,288.00zM 160.00,256.00L 192.00,256.00L 192.00,288.00L 160.00,288.00zM 96.00,256.00L 128.00,256.00L 128.00,288.00L 96.00,288.00zM 320.00,192.00L 352.00,192.00L 352.00,224.00L 320.00,224.00zM 384.00,192.00L 416.00,192.00L 416.00,224.00L 384.00,224.00zM 256.00,192.00L 288.00,192.00L 288.00,224.00L 256.00,224.00zM 192.00,192.00L 224.00,192.00L 224.00,224.00L 192.00,224.00zM 128.00,192.00L 160.00,192.00L 160.00,224.00L 128.00,224.00zM 64.00,192.00L 96.00,192.00L 96.00,224.00L 64.00,224.00z" ></path></svg>