<?xml version="1.0" encoding="utf-8"?> <!-- Generator: IcoMoon.io --> <!DOCTYPE svg PUBLIC "-//W3C//DTD SVG 1.1//EN" "http://www.w3.org/Graphics/SVG/1.1/DTD/svg11.dtd"> <svg width="512" height="512" viewBox="0 0 512 512" xmlns="http://www.w3.org/2000/svg" xmlns:xlink="http://www.w3.org/1999/xlink" fill="#242424"><path d="M 487.024,132.75c-16.872-16.872-40.057-24.976-65.75-24.976c-34.444,0.00-73.404,14.558-107.766,42.062 c-8.132-24.908-23.24-43.758-41.509-50.811L 271.999,64.00 l 48.00,0.00 L 319.999,32.00 l-48.00,0.00 L 271.999,0.00 l-32.00,0.00 l0.00,32.00 l-48.00,0.00 l0.00,32.00 l 48.00,0.00 l0.00,35.024 c-18.268,7.053-33.376,25.902-41.508,50.809 c-34.361-27.503-73.321-42.062-107.765-42.06c-25.693,0.002-48.879,8.104-65.75,24.976 c-43.739,43.739-28.542,129.85, 33.941,192.333C 70.596,336.761, 83.103,346.776, 96.00,355.075l0.00,46.882 C 139.829,410.742, 195.454,416.00, 256.00,416.00s 116.171-5.258, 160.00-14.043l0.00-46.88 c 12.897-8.298, 25.404-18.314, 37.083-29.993 C 515.566,262.60, 530.763,176.488, 487.024,132.75z M 81.546,189.322c 0.539-0.36, 3.423-1.548, 9.181-1.549l 0.006,0.00 l 0.002,0.00 c 15.925,0.00, 43.814,9.293, 70.005,35.484c 17.287,17.287, 29.66,38.181, 33.948,57.326c 3.059,13.66, 0.767,20.748-0.007,21.868 c-0.536,0.359-3.416,1.549-9.18,1.549c-15.928,0.00-43.822-9.294-70.015-35.486c-17.288-17.289-29.662-38.185-33.948-57.33 C 78.48,197.528, 80.772,190.443, 81.546,189.322z M 430.461,211.19c-4.287,19.145-16.66,40.039-33.946,57.324 C 370.322,294.707, 342.429,304.00, 326.50,304.00c-5.762,0.00-8.644-1.188-9.18-1.548c-0.773-1.119-3.066-8.204-0.009-21.862 c 4.286-19.146, 16.66-40.041, 33.948-57.33c 26.192-26.192, 54.087-35.486, 70.015-35.486c 5.764,0.00, 8.645,1.188, 9.18,1.548 C 431.228,190.442, 433.521,197.53, 430.461,211.19zM 96.00,450.832l0.00,47.125 C 139.829,506.742, 195.454,512.00, 256.00,512.00s 116.171-5.258, 160.00-14.043l0.00-47.125 C 369.086,459.457, 314.02,464.00, 256.00,464.00S 142.914,459.457, 96.00,450.832z" ></path></svg>