<?xml version="1.0" encoding="utf-8"?> <!-- Generator: IcoMoon.io --> <!DOCTYPE svg PUBLIC "-//W3C//DTD SVG 1.1//EN" "http://www.w3.org/Graphics/SVG/1.1/DTD/svg11.dtd"> <svg width="512" height="512" viewBox="0 0 512 512" xmlns="http://www.w3.org/2000/svg" xmlns:xlink="http://www.w3.org/1999/xlink" fill="#242424"><path d="M 384.00,0.00c-17.673,0.00-32.00,14.327-32.00,32.00l0.00,64.00 L 160.00,96.00 L 160.00,32.00 c0.00-17.673-14.327-32.00-32.00-32.00S 96.00,14.327, 96.00,32.00l0.00,448.00 c0.00,17.674, 14.327,32.00, 32.00,32.00 s 32.00-14.326, 32.00-32.00l0.00-64.00 l 192.00,0.00 l0.00,64.00 c0.00,17.674, 14.327,32.00, 32.00,32.00c 17.674,0.00, 32.00-14.326, 32.00-32.00L 416.00,32.00 C 416.00,14.327, 401.674,0.00, 384.00,0.00z M 352.00,352.00L 160.00,352.00 l0.00-64.00 l 192.00,0.00 L 352.00,352.00 z M 352.00,224.00L 160.00,224.00 l0.00-64.00 l 192.00,0.00 L 352.00,224.00 z" ></path></svg>