<?xml version="1.0" encoding="utf-8"?> <!-- Generator: IcoMoon.io --> <!DOCTYPE svg PUBLIC "-//W3C//DTD SVG 1.1//EN" "http://www.w3.org/Graphics/SVG/1.1/DTD/svg11.dtd"> <svg width="512" height="512" viewBox="0 0 512 512" xmlns="http://www.w3.org/2000/svg" xmlns:xlink="http://www.w3.org/1999/xlink" fill="#242424"><path d="M 191.076,399.223 C 202.953,412.152 222.605,416.557 258.824,415.961 C 291.477,415.416 309.766,412.588 320.924,402.316 L 320.924,439.84 C 300.973,446.326 279.032,449.926 256.003,449.926 C 232.972,449.926 211.026,446.326 191.076,439.838 L 191.076,399.223 Z M 191.753,465.056 C 220.577,473.871 233.728,474.347 256.003,474.347 C 278.275,474.347 291.427,473.871 320.253,465.056 C 317.745,478.761 306.952,512.00 256.003,512.00 C 205.053,512.00 194.26,478.761 191.753,465.056 ZM 256.003,38.00 C 191.676,38.00 139.342,89.382 139.342,152.54 C 139.342,183.947 161.241,222.929 187.698,266.936 C 198.256,284.497 203.319,301.851 207.387,315.795 C 210.541,326.608 213.52,336.821 217.394,340.44 C 219.195,342.124 227.234,347.617 255.027,347.617 C 256.092,347.617 257.172,347.61 258.273,347.593 C 289.09,347.14 296.43,341.548 297.165,340.912 C 299.529,338.867 302.087,329.647 304.345,321.512 C 307.97,308.448 312.482,292.188 322.461,274.724 C 342.452,239.753 372.659,186.914 372.659,152.539 C 372.659,122.065 360.585,93.373 338.66,71.749 C 316.595,49.985 287.24,38.00 256.003,38.00 Z M 256.003,0.00 L 256.003,0.00 C 341.371,0.00 410.66,68.338 410.659,152.54 C 410.659,194.641 382.743,245.843 355.454,293.579 C 328.175,341.316 352.442,384.214 258.825,385.59 C 257.537,385.608 256.273,385.618 255.027,385.618 C 161.744,385.618 183.452,333.624 155.13,286.516 C 126.431,238.779 101.342,194.642 101.342,152.54 C 101.342,68.339 170.629,0.00 256.003,0.00 Z" ></path></svg>