<?xml version="1.0" encoding="utf-8"?> <!-- Generator: IcoMoon.io --> <!DOCTYPE svg PUBLIC "-//W3C//DTD SVG 1.1//EN" "http://www.w3.org/Graphics/SVG/1.1/DTD/svg11.dtd"> <svg width="512" height="512" viewBox="0 0 512 512" xmlns="http://www.w3.org/2000/svg" xmlns:xlink="http://www.w3.org/1999/xlink" fill="#242424"><path d="M 256.003,0.00c-85.374,0.00-154.661,68.339-154.661,152.54c0.00,42.102, 25.089,86.239, 53.788,133.976 c 28.70,47.737, 6.022,100.49, 103.695,99.073c 93.617-1.376, 69.35-44.274, 96.629-92.011c 27.289-47.736, 55.205-98.938, 55.205-141.039 C 410.66,68.338, 341.371,0.00, 256.003,0.00zM 191.076,399.223l0.00,40.615 c 19.95,6.488, 41.896,10.088, 64.927,10.088c 23.029,0.00, 44.97-3.60, 64.921-10.086l0.00-37.525 c-11.158,10.273-29.447,13.10-62.10,13.645C 222.605,416.557, 202.953,412.152, 191.076,399.223zM 191.753,465.056c 2.507,13.705, 13.30,46.944, 64.25,46.944c 50.949,0.00, 61.742-33.239, 64.25-46.944 c-28.826,8.815-41.977,9.291-64.25,9.291C 233.728,474.347, 220.577,473.871, 191.753,465.056z" ></path></svg>