<?xml version="1.0" encoding="utf-8"?> <!-- Generator: IcoMoon.io --> <!DOCTYPE svg PUBLIC "-//W3C//DTD SVG 1.1//EN" "http://www.w3.org/Graphics/SVG/1.1/DTD/svg11.dtd"> <svg width="512" height="512" viewBox="0 0 512 512" xmlns="http://www.w3.org/2000/svg" xmlns:xlink="http://www.w3.org/1999/xlink" fill="#242424"><path d="M 320.00,304.00L 192.00,304.00 c-17.673,0.00-32.00-14.327-32.00-32.00c0.00-17.673, 14.327-32.00, 32.00-32.00l 128.00,0.00 c 17.673,0.00, 32.00,14.327, 32.00,32.00 C 352.00,289.673, 337.673,304.00, 320.00,304.00zM 64.00,320.00 L 256.00,320.00 L 208.00,384.00 L 48.00,384.00 L 0.00,336.00 L 0.00,208.00 L 48.00,160.00 L 208.00,160.00 L 256.00,224.00 L 64.00,224.00 ZM 448.00,224.00L 256.00,224.00L 304.00,160.00L 464.00,160.00L 512.00,208.00L 512.00,336.00L 464.00,384.00L 304.00,384.00L 256.00,320.00L 448.00,320.00 z" ></path></svg>