<?xml version="1.0" encoding="utf-8"?>
<!-- Generator: IcoMoon.io -->
<!DOCTYPE svg PUBLIC "-//W3C//DTD SVG 1.1//EN" "http://www.w3.org/Graphics/SVG/1.1/DTD/svg11.dtd">
<svg xmlns="http://www.w3.org/2000/svg" xmlns:xlink="http://www.w3.org/1999/xlink" width="512" height="512" viewBox="0 0 512 512" fill="#fff"><path d="M 490.745,154.745l-69.49-69.49C 408.81,72.809, 392.404,66.587, 376.00,66.587s-32.81,6.222-45.255,18.667l-133.49,133.49 c-24.891,24.89-24.891,65.62,0.00,90.509L 200.00,312.00l 31.819-31.82l-2.745-2.745c-4.774-4.774-5.487-10.467-5.487-13.435 c0.00-2.969, 0.713-8.661, 5.487-13.436l 133.49-133.49c 4.775-4.775, 10.468-5.488, 13.436-5.488s 8.66,0.713, 13.435,5.488l 69.491,69.491 c 4.774,4.774, 5.487,10.466, 5.487,13.435s-0.713,8.66-5.487,13.435l-133.491,133.49c-4.774,4.775-10.467,5.488-13.435,5.488 s-8.66-0.713-13.435-5.488l-2.745-2.746L 264.00,375.999l 2.745,2.746c 12.445,12.445, 28.851,18.668, 45.255,18.668 s 32.81-6.223, 45.255-18.668l 133.49-133.491C 515.636,220.364, 515.636,179.635, 490.745,154.745zM 314.745,202.745L 312.00,200.00l-31.82,31.82l 2.746,2.746c 4.774,4.774, 5.487,10.466, 5.487,13.435s-0.713,8.661-5.487,13.435 l-133.491,133.49c-4.774,4.775-10.467,5.488-13.435,5.488c-2.969,0.00-8.66-0.713-13.436-5.488l-69.489-69.49 c-7.283-7.282-7.283-19.587-0.001-26.87l 133.49-133.49c 4.775-4.774, 10.467-5.487, 13.436-5.487c 2.968,0.00, 8.66,0.713, 13.435,5.487 l 2.745,2.745L 248.00,136.00l-2.745-2.745c-12.445-12.445-28.851-18.667-45.255-18.667c-16.405,0.00-32.81,6.222-45.255,18.667 l-133.49,133.49c-24.891,24.891-24.891,65.62,0.00,90.511l 69.49,69.49c 12.445,12.445, 28.85,18.668, 45.255,18.668 c 16.404,0.00, 32.81-6.223, 45.255-18.668l 133.49-133.491C 339.636,268.364, 339.636,227.635, 314.745,202.745z"/></svg>
