<?xml version="1.0" encoding="utf-8"?> <!-- Generator: IcoMoon.io --> <!DOCTYPE svg PUBLIC "-//W3C//DTD SVG 1.1//EN" "http://www.w3.org/Graphics/SVG/1.1/DTD/svg11.dtd"> <svg width="512" height="512" viewBox="0 0 512 512" xmlns="http://www.w3.org/2000/svg" xmlns:xlink="http://www.w3.org/1999/xlink" fill="#242424"><path d="M 64.00,320.00 L 256.00,320.00 L 208.00,384.00 L 48.00,384.00 L 0.00,336.00 L 0.00,208.00 L 48.00,160.00 L 208.00,160.00 L 256.00,224.00 L 64.00,224.00 ZM 448.00,224.00L 256.00,224.00L 304.00,160.00L 464.00,160.00L 512.00,208.00L 512.00,336.00L 464.00,384.00L 304.00,384.00L 256.00,320.00L 448.00,320.00 zM 224.00,416.00L 288.00,416.00L 288.00,512.00L 224.00,512.00zM 109.255,512.00 L 64.00,512.00 L 64.00,466.744 L 114.745,416.00 L 160.00,416.00 L 160.00,461.256 ZM 448.00,466.744 L 448.00,512.00 L 402.744,512.00 L 352.00,461.256 L 352.00,416.00 L 397.256,416.00 ZM 224.00,32.00L 288.00,32.00L 288.00,128.00L 224.00,128.00zM 160.00,82.744L 160.00,128.00L 114.745,128.00L 64.00,77.256L 64.00,32.00L 109.255,32.00 zM 397.256,128.00L 352.00,128.00L 352.00,82.744L 402.744,32.00L 448.00,32.00L 448.00,77.256 z" ></path></svg>