<?xml version="1.0" encoding="utf-8"?> <!-- Generator: IcoMoon.io --> <!DOCTYPE svg PUBLIC "-//W3C//DTD SVG 1.1//EN" "http://www.w3.org/Graphics/SVG/1.1/DTD/svg11.dtd"> <svg width="512" height="512" viewBox="0 0 512 512" xmlns="http://www.w3.org/2000/svg" xmlns:xlink="http://www.w3.org/1999/xlink" fill="#242424"><path d="M 482.257,185.558c-14.605,0.00-64.466-26.681-64.466-26.681c-28.426-15.856-60.645-33.828-96.991-33.828 c-26.883,0.00-48.65,4.256-64.80,12.659c-16.149-8.403-37.917-12.659-64.801-12.659c-36.347,0.00-68.565,17.972-96.991,33.828 c0.00,0.00-49.86,26.681-64.466,26.681c-22.295,0.00-45.304,29.652-15.688,57.387c 15.905,12.17, 31.108,27.354, 47.204,43.429 c 23.498,23.469, 47.796,47.735, 78.253,66.891c 36.043,22.668, 74.146,33.688, 116.489,33.688c 42.342,0.00, 80.445-11.02, 116.489-33.688 c 30.456-19.155, 54.755-43.422, 78.252-66.891c 16.096-16.075, 31.30-31.259, 47.204-43.429 C 527.562,215.21, 504.552,185.558, 482.257,185.558z M 256.00,358.151c-112.285,0.00-159.638-88.491-224.444-138.08 C 54.398,237.55, 180.04,286.65, 256.00,286.65s 201.602-49.101, 224.443-66.579C 415.637,269.66, 368.284,358.151, 256.00,358.151z M 256.00,240.25 c-86.401,0.00-230.402-26.03-230.402-26.03l 4.512-0.141c 55.732-3.22, 104.998-60.229, 161.09-60.229c 57.601,0.00, 64.801,21.60, 64.801,21.60 s 7.20-21.60, 64.80-21.60c 56.092,0.00, 105.357,57.01, 161.091,60.229l 4.511,0.141C 486.401,214.22, 342.40,240.25, 256.00,240.25z" ></path></svg>