<?xml version="1.0" encoding="utf-8"?> <!-- Generator: IcoMoon.io --> <!DOCTYPE svg PUBLIC "-//W3C//DTD SVG 1.1//EN" "http://www.w3.org/Graphics/SVG/1.1/DTD/svg11.dtd"> <svg width="512" height="512" viewBox="0 0 512 512" xmlns="http://www.w3.org/2000/svg" xmlns:xlink="http://www.w3.org/1999/xlink" fill="#242424"><path d="M 64.00,0.00C 28.654,0.00,0.00,28.654,0.00,64.00s 28.654,64.00, 64.00,64.00s 64.00-28.654, 64.00-64.00S 99.346,0.00, 64.00,0.00z M 64.00,108.00c-24.262,0.00-44.00-19.738-44.00-44.00 s 19.738-44.00, 44.00-44.00s 44.00,19.738, 44.00,44.00S 88.262,108.00, 64.00,108.00zM 64.00,192.00c-35.346,0.00-64.00,28.654-64.00,64.00c0.00,35.346, 28.654,64.00, 64.00,64.00s 64.00-28.654, 64.00-64.00C 128.00,220.654, 99.346,192.00, 64.00,192.00z M 64.00,300.00 c-24.262,0.00-44.00-19.738-44.00-44.00s 19.738-44.00, 44.00-44.00s 44.00,19.738, 44.00,44.00S 88.262,300.00, 64.00,300.00zM 64.00,384.00c-35.346,0.00-64.00,28.654-64.00,64.00s 28.654,64.00, 64.00,64.00s 64.00-28.654, 64.00-64.00S 99.346,384.00, 64.00,384.00z M 64.00,492.00c-24.262,0.00-44.00-19.738-44.00-44.00 s 19.738-44.00, 44.00-44.00s 44.00,19.738, 44.00,44.00S 88.262,492.00, 64.00,492.00zM 192.00,32.00L 512.00,32.00L 512.00,96.00L 192.00,96.00zM 192.00,224.00L 512.00,224.00L 512.00,288.00L 192.00,288.00zM 192.00,416.00L 512.00,416.00L 512.00,480.00L 192.00,480.00z" ></path></svg>