<?xml version="1.0" encoding="utf-8"?> <!-- Generator: IcoMoon.io --> <!DOCTYPE svg PUBLIC "-//W3C//DTD SVG 1.1//EN" "http://www.w3.org/Graphics/SVG/1.1/DTD/svg11.dtd"> <svg width="512" height="512" viewBox="0 0 512 512" xmlns="http://www.w3.org/2000/svg" xmlns:xlink="http://www.w3.org/1999/xlink" fill="#242424"><path d="M 256.00,0.00C 149.961,0.00, 64.00,85.961, 64.00,192.00c0.00,192.00, 192.00,320.00, 192.00,320.00s 192.00-128.00, 192.00-320.00C 448.00,85.961, 362.039,0.00, 256.00,0.00z M 322.991,396.373 c-24.718,29.093-49.755,51.45-66.991,65.485c-17.237-14.035-42.274-36.394-66.991-65.485c-25.119-29.564-45.03-60.251-59.181-91.204 C 112.689,267.684, 104.00,229.607, 104.00,192.00c0.00-40.601, 15.811-78.771, 44.52-107.48S 215.399,40.00, 256.00,40.00c 40.602,0.00, 78.771,15.811, 107.48,44.52 S 408.00,151.399, 408.00,192.00c0.00,37.607-8.689,75.684-25.827,113.169C 368.021,336.122, 348.11,366.809, 322.991,396.373zM 256.00,96.00c-35.346,0.00-64.00,28.654-64.00,64.00s 28.654,64.00, 64.00,64.00c 35.347,0.00, 64.00-28.654, 64.00-64.00S 291.347,96.00, 256.00,96.00z M 256.00,192.00 c-17.673,0.00-32.00-14.327-32.00-32.00s 14.327-32.00, 32.00-32.00c 17.673,0.00, 32.00,14.327, 32.00,32.00S 273.673,192.00, 256.00,192.00z" ></path></svg>