<?xml version="1.0" encoding="utf-8"?>
<!-- Generator: IcoMoon.io -->
<!DOCTYPE svg PUBLIC "-//W3C//DTD SVG 1.1//EN" "http://www.w3.org/Graphics/SVG/1.1/DTD/svg11.dtd">
<svg xmlns="http://www.w3.org/2000/svg" xmlns:xlink="http://www.w3.org/1999/xlink" width="512" height="512" viewBox="0 0 512 512" fill="#242424"><path d="M 256.00,104.00 C 205.874,104.00 161.23,127.401 132.837,163.628 L 94.449,134.837 C 131.609,86.955 190.196,56.00 256.00,56.00 L 256.00,0.00 L 336.00,80.00 L 256.00,160.00 L 256.00,104.00 ZM 256.00,408.00 C 306.127,408.00 350.771,384.599 379.163,348.372 L 417.551,377.163 C 380.391,425.045 321.804,456.00 256.00,456.00 L 256.00,512.00 L 176.00,432.00 L 256.00,352.00 L 256.00,408.00 ZM 100.80,256.00 C 100.80,306.182 125.764,350.754 164.162,378.451 L 135.37,416.841 C 85.316,380.377 52.80,321.858 52.80,256.00 L 0.00,256.00 L 80.00,176.00 L 160.00,256.00 L 100.80,256.00 ZM 459.20,256.00 L 512.00,256.00 L 432.00,336.00 L 352.00,256.00 L 411.20,256.00 C 411.20,205.818 386.236,161.246 347.838,133.549 L 376.63,95.16 C 426.684,131.623 459.20,190.141 459.20,256.00 Z"/></svg>
