<?xml version="1.0" encoding="utf-8"?> <!-- Generator: IcoMoon.io --> <!DOCTYPE svg PUBLIC "-//W3C//DTD SVG 1.1//EN" "http://www.w3.org/Graphics/SVG/1.1/DTD/svg11.dtd"> <svg width="512" height="512" viewBox="0 0 512 512" xmlns="http://www.w3.org/2000/svg" xmlns:xlink="http://www.w3.org/1999/xlink" fill="#242424"><path d="M 320.00,0.00l0.00,64.00 l 82.745,0.00 L 280.229,186.517C 254.935,169.764, 224.61,160.00, 192.00,160.00c-88.365,0.00-160.00,71.634-160.00,160.00 c0.00,88.365, 71.634,160.00, 160.00,160.00s 160.00-71.635, 160.00-160.00c0.00-32.609-9.765-62.936-26.517-88.229L 448.00,109.255L 448.00,192.00 l 64.00,0.00 L 512.00,0.00 L 320.00,0.00 z M 192.00,425.60 C 133.679,425.60, 86.40,378.32, 86.40,320.00S 133.679,214.399, 192.00,214.399c 58.32,0.00, 105.60,47.279, 105.60,105.601 C 297.60,378.32, 250.321,425.60, 192.00,425.60z" ></path></svg>