<?xml version="1.0" encoding="utf-8"?> <!-- Generator: IcoMoon.io --> <!DOCTYPE svg PUBLIC "-//W3C//DTD SVG 1.1//EN" "http://www.w3.org/Graphics/SVG/1.1/DTD/svg11.dtd"> <svg width="512" height="512" viewBox="0 0 512 512" xmlns="http://www.w3.org/2000/svg" xmlns:xlink="http://www.w3.org/1999/xlink" fill="#242424"><path d="M 320.00,128.00L 160.00,128.00 c-17.601,0.00-32.00,14.40-32.00,32.00l0.00,128.00 c0.00,17.60, 14.399,32.00, 32.00,32.00l0.00,0.00L 160.00,192.00 l 16.00,0.00 l0.00,296.00 c0.00,13.20, 10.80,24.00, 24.00,24.00s 24.00-10.80, 24.00-24.00L 224.00,320.00 l 32.00,0.00 l0.00,168.00 c0.00,13.20, 10.80,24.00, 24.00,24.00s 24.00-10.80, 24.00-24.00L 304.00,192.00 l 16.00,0.00 l0.00,128.00 c 17.60,0.00, 32.00-14.40, 32.00-32.00L 352.00,160.00 C 352.00,142.40, 337.60,128.00, 320.00,128.00zM 192.00,64.00A48.00,48.00 12600.00 1 1 288.00,64A48.00,48.00 12600.00 1 1 192.00,64z" ></path></svg>