<?xml version="1.0" encoding="utf-8"?> <!-- Generator: IcoMoon.io --> <!DOCTYPE svg PUBLIC "-//W3C//DTD SVG 1.1//EN" "http://www.w3.org/Graphics/SVG/1.1/DTD/svg11.dtd"> <svg width="512" height="512" viewBox="0 0 512 512" xmlns="http://www.w3.org/2000/svg" xmlns:xlink="http://www.w3.org/1999/xlink" fill="#242424"><path d="M 384.00,80.00L 128.00,16.00L0.00,96.00l0.00,416.00 l 128.00-80.00l 256.00,64.00l 128.00-80.00L 512.00,0.00 L 384.00,80.00z M 160.00,407.016L 160.00,56.985 l 4.00,1.00l0.00,350.031 L 160.00,407.016z M 172.00,410.016L 172.00,59.985 l 8.00,2.00l0.00,350.031 L 172.00,410.016z M 188.00,414.016L 188.00,63.985 l 8.00,2.00l0.00,350.031 L 188.00,414.016z M 204.00,418.016L 204.00,67.985 l 8.00,2.00l0.00,350.031 L 204.00,418.016z M 220.00,422.016L 220.00,71.985 l 8.00,2.00l0.00,350.031 L 220.00,422.016z M 236.00,426.016L 236.00,75.985 l 8.00,2.00l0.00,350.031 L 236.00,426.016z M 252.00,430.016L 252.00,79.985 l 8.00,2.00l0.00,350.031 L 252.00,430.016z M 268.00,434.016L 268.00,83.985 l 8.00,2.00l0.00,350.031 L 268.00,434.016z M 284.00,438.016L 284.00,87.985 l 8.00,2.00l0.00,350.031 L 284.00,438.016z M 300.00,442.016L 300.00,91.985 l 8.00,2.00 l0.00,350.031 L 300.00,442.016z M 316.00,446.016L 316.00,95.985 l 8.00,2.00l0.00,350.031 L 316.00,446.016z M 332.00,450.016L 332.00,99.985 l 8.00,2.00l0.00,350.031 L 332.00,450.016z M 352.00,455.016 l-4.00-1.00L 348.00,103.985 l 4.00,1.00L 352.00,455.016 z" ></path></svg>