<?xml version="1.0" encoding="utf-8"?> <!-- Generator: IcoMoon.io --> <!DOCTYPE svg PUBLIC "-//W3C//DTD SVG 1.1//EN" "http://www.w3.org/Graphics/SVG/1.1/DTD/svg11.dtd"> <svg width="512" height="512" viewBox="0 0 512 512" xmlns="http://www.w3.org/2000/svg" xmlns:xlink="http://www.w3.org/1999/xlink" fill="#242424"><path d="M 228.00,492.00L 512.00,492.00L 512.00,484.00L 236.00,484.00 zM 244.00,476.00L 512.00,476.00L 512.00,468.00L 252.00,468.00 zM 212.00,508.00L 512.00,508.00L 512.00,500.00L 220.00,500.00 zM 292.00,428.00L 512.00,428.00L 512.00,420.00L 300.00,420.00 zM 276.00,444.00L 512.00,444.00L 512.00,436.00L 284.00,436.00 zM 260.00,460.00L 512.00,460.00L 512.00,452.00L 268.00,452.00 zM 469.486,42.514C 443.517,16.544, 413.958,0.00, 385.073,0.00c-19.764,0.00-39.211,7.745-56.979,25.514L 80.223,271.775L0.00,480.00l 32.00,32.00 l 208.223-80.225l 18.041-18.157l 228.224-229.713C 530.225,140.167, 513.225,86.252, 469.486,42.514z M 240.149,386.447L 125.551,271.85 L 327.355,71.356l 113.287,113.288L 240.149,386.447z" ></path></svg>