<?xml version="1.0" encoding="utf-8"?> <!-- Generator: IcoMoon.io --> <!DOCTYPE svg PUBLIC "-//W3C//DTD SVG 1.1//EN" "http://www.w3.org/Graphics/SVG/1.1/DTD/svg11.dtd"> <svg width="512" height="512" viewBox="0 0 512 512" xmlns="http://www.w3.org/2000/svg" xmlns:xlink="http://www.w3.org/1999/xlink" fill="#242424"><path d="M 416.00,160.00c0.00-25.319-19.607-46.045-44.465-47.856c 16.296-18.858, 15.506-47.377-2.398-65.281 c-17.903-17.903-46.423-18.694-65.28-2.399C 302.045,19.607, 281.32,0.00, 256.00,0.00s-46.044,19.607-47.856,44.464 c-18.857-16.295-47.377-15.504-65.281,2.399c-17.903,17.904-18.694,46.423-2.399,65.281C 115.608,113.956, 96.00,134.681, 96.00,160.00 s 19.607,46.044, 44.464,47.856c-16.295,18.857-15.504,47.377, 2.399,65.28c 13.294,13.294, 32.439,17.143, 49.137,11.577L 192.00,512.00 l 64.00-64.00l 64.00,64.00 L 320.00,284.714 c 16.698,5.565, 35.843,1.717, 49.137-11.577c 17.904-17.903, 18.694-46.422, 2.398-65.28C 396.393,206.045, 416.00,185.319, 416.00,160.00z M 256.00,256.00c-53.02,0.00-96.00-42.98-96.00-96.00s 42.98-96.00, 96.00-96.00s 96.00,42.98, 96.00,96.00S 309.02,256.00, 256.00,256.00z" ></path></svg>