<?xml version="1.0" encoding="utf-8"?> <!-- Generator: IcoMoon.io --> <!DOCTYPE svg PUBLIC "-//W3C//DTD SVG 1.1//EN" "http://www.w3.org/Graphics/SVG/1.1/DTD/svg11.dtd"> <svg width="512" height="512" viewBox="0 0 512 512" xmlns="http://www.w3.org/2000/svg" xmlns:xlink="http://www.w3.org/1999/xlink" fill="#242424"><path d="M 64.00,192.00L0.00,192.00 l0.00,160.00 l 64.00,0.00 l0.00-32.00 l 64.009,18.289c-0.002,0.242-0.009,0.484-0.009,0.729L 128.00,384.00 c0.00,17.602, 14.399,32.00, 32.00,32.00l 64.00,0.00 c 17.60,0.00, 32.00-14.398, 32.00-32.00l0.00-9.143 l 160.00,45.715L 416.00,123.43 L 64.00,224.00L 64.00,192.00 z M 160.00,347.43l 63.928,18.265L 223.928,384.00 L 160.00,384.00 L 160.00,347.43 zM 448.00,114.286L 448.00,429.715L 512.00,448.00L 512.00,96.00 z" ></path></svg>