<?xml version="1.0" encoding="utf-8"?> <!-- Generator: IcoMoon.io --> <!DOCTYPE svg PUBLIC "-//W3C//DTD SVG 1.1//EN" "http://www.w3.org/Graphics/SVG/1.1/DTD/svg11.dtd"> <svg width="512" height="512" viewBox="0 0 512 512" xmlns="http://www.w3.org/2000/svg" xmlns:xlink="http://www.w3.org/1999/xlink" fill="#242424"><path d="M 448.00,384.00L 64.00,384.00 c-35.20,0.00-64.00,28.80-64.00,64.00s 28.80,64.00, 64.00,64.00l 384.00,0.00 c 35.20,0.00, 64.00-28.80, 64.00-64.00S 483.20,384.00, 448.00,384.00zM 448.00,192.00L 64.00,192.00 c-35.20,0.00-64.00,28.80-64.00,64.00s 28.80,64.00, 64.00,64.00l 384.00,0.00 c 35.20,0.00, 64.00-28.80, 64.00-64.00S 483.20,192.00, 448.00,192.00zM 64.00,128.00l 384.00,0.00 c 35.20,0.00, 64.00-28.80, 64.00-64.00S 483.20,0.00, 448.00,0.00L 64.00,0.00 C 28.80,0.00,0.00,28.80,0.00,64.00S 28.80,128.00, 64.00,128.00z" ></path></svg>