<?xml version="1.0" encoding="utf-8"?> <!-- Generator: IcoMoon.io --> <!DOCTYPE svg PUBLIC "-//W3C//DTD SVG 1.1//EN" "http://www.w3.org/Graphics/SVG/1.1/DTD/svg11.dtd"> <svg width="512" height="512" viewBox="0 0 512 512" xmlns="http://www.w3.org/2000/svg" xmlns:xlink="http://www.w3.org/1999/xlink" fill="#242424"><path d="M 416.00,384.00l 96.00,0.00 c0.00-141.386-114.615-256.00-256.00-256.00S0.00,242.614,0.00,384.00l 32.00,0.00 c0.00-106.039, 85.961-192.00, 192.00-192.00 c 56.409,0.00, 107.136,24.326, 142.263,63.061l-100.217,80.174c-3.245-0.665-6.604-1.016-10.046-1.016 c-27.493,0.00-49.78,22.289-49.78,49.781s 22.287,49.779, 49.78,49.779c 27.492,0.00, 49.778-22.287, 49.778-49.779 c0.00-3.44-0.349-6.802-1.014-10.047l 78.166-97.707C 403.803,306.969, 416.00,344.059, 416.00,384.00z" ></path></svg>