<?xml version="1.0" encoding="utf-8"?> <!-- Generator: IcoMoon.io --> <!DOCTYPE svg PUBLIC "-//W3C//DTD SVG 1.1//EN" "http://www.w3.org/Graphics/SVG/1.1/DTD/svg11.dtd"> <svg width="512" height="512" viewBox="0 0 512 512" xmlns="http://www.w3.org/2000/svg" xmlns:xlink="http://www.w3.org/1999/xlink" fill="#242424"><path d="M 256.00,128.00C 114.615,128.00,0.00,242.614,0.00,384.00l 32.00,0.00 c0.00-58.209, 25.903-110.363, 66.811-145.574l 108.423,135.527 c-0.665,3.245-1.014,6.604-1.014,10.047c0.00,27.492, 22.287,49.779, 49.779,49.779c 27.493,0.00, 49.779-22.287, 49.779-49.779 s-22.286-49.781-49.779-49.781c-3.441,0.00-6.802,0.351-10.046,1.016L 111.979,228.053c 31.528-22.688, 70.213-36.054, 112.021-36.054 c 106.038,0.00, 192.00,85.96, 192.00,191.999l 96.00,0.00 C 512.00,242.614, 397.385,128.00, 256.00,128.00z" ></path></svg>