<?xml version="1.0" encoding="utf-8"?> <!-- Generator: IcoMoon.io --> <!DOCTYPE svg PUBLIC "-//W3C//DTD SVG 1.1//EN" "http://www.w3.org/Graphics/SVG/1.1/DTD/svg11.dtd"> <svg width="512" height="512" viewBox="0 0 512 512" xmlns="http://www.w3.org/2000/svg" xmlns:xlink="http://www.w3.org/1999/xlink" fill="#242424"><path d="M 256.00,128.00C 114.615,128.00,0.00,242.614,0.00,384.00l 32.00,0.00 c0.00-106.039, 85.961-192.00, 192.00-192.00c 7.167,0.00, 14.241,0.396, 21.205,1.16l-16.586,149.264 c-13.494,8.904-22.399,24.199-22.399,41.576c0.00,27.492, 22.288,49.779, 49.78,49.779S 305.78,411.492, 305.78,384.00 c0.00-17.377-8.904-32.672-22.398-41.576l-16.172-145.542C 352.44,216.483, 416.00,292.818, 416.00,384.00l 96.00,0.00 C 512.00,242.614, 397.385,128.00, 256.00,128.00z" ></path></svg>