<?xml version="1.0" encoding="utf-8"?> <!-- Generator: IcoMoon.io --> <!DOCTYPE svg PUBLIC "-//W3C//DTD SVG 1.1//EN" "http://www.w3.org/Graphics/SVG/1.1/DTD/svg11.dtd"> <svg width="512" height="512" viewBox="0 0 512 512" xmlns="http://www.w3.org/2000/svg" xmlns:xlink="http://www.w3.org/1999/xlink" fill="#242424"><path d="M 256.00,384.00c 70.692,0.00, 128.00-57.308, 128.00-128.00l0.00-64.00 L 128.00,192.00 l0.00,64.00 C 128.00,326.692, 185.308,384.00, 256.00,384.00zM 448.00,160.00l-32.00,0.00 l0.00,96.00 c0.00,88.365-71.635,160.00-160.00,160.00S 96.00,344.365, 96.00,256.00l0.00-96.00 L 64.00,160.00 l-32.00,32.00l 32.00,0.00 l0.00,64.00 c0.00,95.134, 69.196,174.094, 160.00,189.33 L 224.00,480.00 l-64.00,32.00l 192.00,0.00 l-64.00-32.00l0.00-34.67 c 90.804-15.236, 160.00-94.196, 160.00-189.33l0.00-64.00 l 32.00,0.00 L 448.00,160.00zM 384.00,128.00C 384.00,57.308, 326.693,0.00, 256.00,0.00S 128.00,57.308, 128.00,128.00l0.00,32.00 l 256.00,0.00 L 384.00,128.00 z" ></path></svg>