<?xml version="1.0" encoding="utf-8"?> <!-- Generator: IcoMoon.io --> <!DOCTYPE svg PUBLIC "-//W3C//DTD SVG 1.1//EN" "http://www.w3.org/Graphics/SVG/1.1/DTD/svg11.dtd"> <svg width="512" height="512" viewBox="0 0 512 512" xmlns="http://www.w3.org/2000/svg" xmlns:xlink="http://www.w3.org/1999/xlink" fill="#242424"><path d="M 320.00,80.00c0.00-44.183-35.816-80.00-80.00-80.00c-44.183,0.00-80.00,35.817-80.00,80.00l0.00,172.118 l 160.00-160.00L 320.00,80.00 zM 128.587,283.531C 128.20,279.74, 128.00,275.894, 128.00,272.00l0.00-48.00 L 96.00,224.00 l0.00,48.00 c0.00,13.45, 1.853,26.467, 5.302,38.816L 128.587,283.531zM 352.00,272.00c0.00,61.855-50.145,112.00-112.00,112.00c-33.313,0.00-63.215-14.557-83.729-37.644l 22.69-22.69 C 193.629,340.99, 215.52,352.00, 240.00,352.00c 44.184,0.00, 80.00-35.816, 80.00-80.00l0.00-89.373 L 448.313,54.313l-22.627-22.627L 320.00,137.373l0.00-0.001 L 1.00,457.687 l 22.627,22.627l 109.986-111.30c 22.954,25.155, 54.699,42.151, 90.387,46.097L 224.00,480.00 l-64.00,0.00 l0.00,32.00 l 64.00,0.00 l 32.00,0.00 l 64.00,0.00 l0.00-32.00 l-64.00,0.00 l0.00-64.89 c 71.997-7.96, 128.00-68.991, 128.00-143.11l0.00-48.00 l-32.00,0.00 L 352.00,272.00 z" ></path></svg>