<?xml version="1.0" encoding="utf-8"?> <!-- Generator: IcoMoon.io --> <!DOCTYPE svg PUBLIC "-//W3C//DTD SVG 1.1//EN" "http://www.w3.org/Graphics/SVG/1.1/DTD/svg11.dtd"> <svg width="512" height="512" viewBox="0 0 512 512" xmlns="http://www.w3.org/2000/svg" xmlns:xlink="http://www.w3.org/1999/xlink" fill="#242424"><path d="M 229.053,168.046L0.00,448.00c0.00,32.00, 32.00,64.00, 64.00,64.00l 279.954-229.054C 287.768,268.467, 243.533,224.232, 229.053,168.046zM 291.482,39.548C 269.502,62.531, 256.00,93.688, 256.00,128.00c0.00,70.692, 57.308,128.00, 128.00,128.00c 34.312,0.00, 65.469-13.502, 88.452-35.481 C 380.441,204.127, 307.872,131.56, 291.482,39.548zM 416.00,64.00L 448.00,64.00L 448.00,96.00L 416.00,96.00zM 384.00,0.00c-23.014,0.00-44.606,6.078-63.268,16.71c 7.994,92.704, 81.854,166.564, 174.558,174.558 C 505.922,172.607, 512.00,151.014, 512.00,128.00C 512.00,57.308, 454.693,0.00, 384.00,0.00z M 480.00,96.00l-32.00,0.00 l0.00,32.00 l 32.00,0.00 l0.00,32.00 l-32.00,0.00 l0.00-32.00 l-32.00,0.00 L 416.00,96.00 l-32.00,0.00 L 384.00,64.00 l-32.00,0.00 L 352.00,32.00 l 32.00,0.00 l0.00,32.00 l 32.00,0.00 L 416.00,32.00 l 32.00,0.00 l0.00,32.00 l 32.00,0.00 L 480.00,96.00 z" ></path></svg>