<?xml version="1.0" encoding="utf-8"?> <!-- Generator: IcoMoon.io --> <!DOCTYPE svg PUBLIC "-//W3C//DTD SVG 1.1//EN" "http://www.w3.org/Graphics/SVG/1.1/DTD/svg11.dtd"> <svg width="512" height="512" viewBox="0 0 512 512" xmlns="http://www.w3.org/2000/svg" xmlns:xlink="http://www.w3.org/1999/xlink" fill="#242424"><path d="M 256.00,464.00c-25.943,0.00-50.785-4.788-73.707-13.504C 168.378,467.154, 160.00,488.598, 160.00,512.00l 192.00,0.00 c0.00-23.402-8.378-44.846-22.293-61.504C 306.785,459.212, 281.944,464.00, 256.00,464.00zM 320.00,288.00l0.00,64.00 l 43.328,0.00 c-1.777,1.981-3.608,3.927-5.505,5.823C 330.626,385.021, 294.464,400.00, 256.00,400.00 s-74.625-14.979-101.823-42.177C 126.979,330.626, 112.00,294.464, 112.00,256.00c0.00-36.326, 14.35-71.562, 38.771-98.194l 117.583,91.453 l 39.293-50.519L 52.122,0.00l0.00,0.00L0.00,40.54l 112.794,87.729C 83.033,162.104, 64.00,207.427, 64.00,256.00c0.00,106.039, 85.961,192.00, 192.00,192.00 c 71.066,0.00, 133.109-38.612, 166.308-96.00L 512.00,352.00 l0.00-64.00 L 320.00,288.00 z" ></path></svg>