<?xml version="1.0" encoding="utf-8"?> <!-- Generator: IcoMoon.io --> <!DOCTYPE svg PUBLIC "-//W3C//DTD SVG 1.1//EN" "http://www.w3.org/Graphics/SVG/1.1/DTD/svg11.dtd"> <svg width="512" height="512" viewBox="0 0 512 512" xmlns="http://www.w3.org/2000/svg" xmlns:xlink="http://www.w3.org/1999/xlink" fill="#242424"><path d="M 336.00,0.00c-8.837,0.00-16.00,7.163-16.00,16.00l0.00,48.00 L 144.00,64.00 c-8.836,0.00-16.00,7.163-16.00,16.00l0.00,416.00 c0.00,8.836, 7.164,16.00, 16.00,16.00l 192.00,0.00 c 8.837,0.00, 16.00-7.164, 16.00-16.00L 352.00,16.00 C 352.00,7.163, 344.837,0.00, 336.00,0.00z M 192.00,480.00l-32.00,0.00 l0.00-32.00 l 32.00,0.00 L 192.00,480.00 z M 192.00,416.00l-32.00,0.00 l0.00-32.00 l 32.00,0.00 L 192.00,416.00 z M 192.00,352.00l-32.00,0.00 l0.00-32.00 l 32.00,0.00 L 192.00,352.00 z M 256.00,480.00l-32.00,0.00 l0.00-32.00 l 32.00,0.00 L 256.00,480.00 z M 256.00,416.00l-32.00,0.00 l0.00-32.00 l 32.00,0.00 L 256.00,416.00 z M 256.00,352.00l-32.00,0.00 l0.00-32.00 l 32.00,0.00 L 256.00,352.00 z M 320.00,480.00l-32.00,0.00 l0.00-32.00 l 32.00,0.00 L 320.00,480.00 z M 320.00,416.00l-32.00,0.00 l0.00-32.00 l 32.00,0.00 L 320.00,416.00 z M 320.00,352.00l-32.00,0.00 l0.00-32.00 l 32.00,0.00 L 320.00,352.00 z M 320.00,272.00c0.00,8.836-7.163,16.00-16.00,16.00L 176.00,288.00 c-8.836,0.00-16.00-7.164-16.00-16.00L 160.00,112.00 c0.00-8.837, 7.164-16.00, 16.00-16.00l 128.00,0.00 c 8.837,0.00, 16.00,7.163, 16.00,16.00L 320.00,272.00 z" ></path></svg>