<?xml version="1.0" encoding="utf-8"?> <!-- Generator: IcoMoon.io --> <!DOCTYPE svg PUBLIC "-//W3C//DTD SVG 1.1//EN" "http://www.w3.org/Graphics/SVG/1.1/DTD/svg11.dtd"> <svg width="512" height="512" viewBox="0 0 512 512" xmlns="http://www.w3.org/2000/svg" xmlns:xlink="http://www.w3.org/1999/xlink" fill="#242424"><path d="M 240.00,32.00c-48.00,0.00-144.00,18.68-144.00,96.00l0.00,212.00 c0.00,77.318, 64.471,140.00, 144.00,140.00c 79.528,0.00, 144.00-62.682, 144.00-140.00L 384.00,128.00 C 384.00,50.68, 288.00,32.00, 240.00,32.00z M 352.00,340.00c0.00,28.677-11.537,55.686-32.484,76.051c-10.287,10.002-22.277,17.857-35.635,23.353C 270.008,445.107, 255.245,448.00, 240.00,448.00 s-30.009-2.893-43.881-8.598c-13.358-5.494-25.35-13.351-35.637-23.353C 139.536,395.686, 128.00,368.677, 128.00,340.00L 128.00,224.00 l 224.00,0.00 L 352.00,340.00 z M 352.00,192.00 l-96.00,0.00 L 256.00,64.00 c 18.868,1.633, 41.422,6.904, 60.204,15.878c 11.805,5.641, 20.795,12.391, 26.721,20.063C 349.03,107.848, 352.00,117.027, 352.00,128.00L 352.00,192.00 z" ></path></svg>