<?xml version="1.0" encoding="utf-8"?> <!-- Generator: IcoMoon.io --> <!DOCTYPE svg PUBLIC "-//W3C//DTD SVG 1.1//EN" "http://www.w3.org/Graphics/SVG/1.1/DTD/svg11.dtd"> <svg width="512" height="512" viewBox="0 0 512 512" xmlns="http://www.w3.org/2000/svg" xmlns:xlink="http://www.w3.org/1999/xlink" fill="#242424"><path d="M 239.999,32.00C 192.00,32.00, 96.00,50.68, 96.00,128.00l0.00,212.00 c0.00,77.318, 64.471,140.00, 143.999,140.00S 384.00,417.318, 384.00,340.00L 384.00,128.00 C 384.00,50.68, 288.00,32.00, 239.999,32.00z M 128.00,128.00c0.00-10.974, 2.969-20.152, 9.076-28.06c 5.924-7.672, 14.915-14.422, 26.72-20.063 C 182.578,70.902, 205.132,65.632, 224.00,64.00l0.00,128.00 l-96.00,0.00 L 128.00,128.00 z M 352.00,340.00c0.00,28.677-11.537,55.686-32.484,76.051 c-10.287,10.002-22.277,17.857-35.635,23.353c-13.873,5.704-28.637,8.597-43.882,8.597c-15.244,0.00-30.008-2.893-43.881-8.598 c-13.357-5.494-25.349-13.351-35.636-23.353C 139.536,395.686, 128.00,368.676, 128.00,339.999L 128.00,224.00 l 224.00,0.00 L 352.00,340.00 L 352.00,340.00z" ></path></svg>