<?xml version="1.0" encoding="utf-8"?> <!-- Generator: IcoMoon.io --> <!DOCTYPE svg PUBLIC "-//W3C//DTD SVG 1.1//EN" "http://www.w3.org/Graphics/SVG/1.1/DTD/svg11.dtd"> <svg width="512" height="512" viewBox="0 0 512 512" xmlns="http://www.w3.org/2000/svg" xmlns:xlink="http://www.w3.org/1999/xlink" fill="#242424"><path d="M 397.759,318.145l-76.80-128.00c-35.532-59.222-111.393-79.334-171.395-46.317C 136.634,120.593, 128.00,98.603, 128.00,80.00 c0.00-17.485, 3.79-40.151, 21.843-48.83c 1.368-0.658, 3.435-1.651, 5.47-3.687c 6.249-6.249, 6.249-16.379,0.00-22.628 c-5.266-5.266-13.29-6.094-19.421-2.484C 110.166,14.785, 96.00,42.349, 96.00,80.00c0.00,25.991, 11.055,54.009, 27.449,82.79 c-42.94,40.348-53.559,106.479-22.008,159.065l 76.80,128.00c 24.001,40.003, 66.395,62.164, 109.88,62.164 c 22.411,0.00, 45.118-5.891, 65.734-18.26C 414.474,457.389, 434.13,378.763, 397.759,318.145z M 236.069,297.825 c-4.576,2.912-9.688,4.303-14.737,4.303c-9.09,0.00-17.985-4.503-23.228-12.74l-36.771-57.782c-8.153-12.813-4.376-29.811, 8.438-37.965 c 12.812-8.154, 29.81-4.377, 37.965,8.437l 36.771,57.782C 252.66,272.674, 248.883,289.671, 236.069,297.825z" ></path></svg>