<?xml version="1.0" encoding="utf-8"?> <!-- Generator: IcoMoon.io --> <!DOCTYPE svg PUBLIC "-//W3C//DTD SVG 1.1//EN" "http://www.w3.org/Graphics/SVG/1.1/DTD/svg11.dtd"> <svg width="512" height="512" viewBox="0 0 512 512" xmlns="http://www.w3.org/2000/svg" xmlns:xlink="http://www.w3.org/1999/xlink" fill="#242424"><path d="M 256.00,0.00C 114.615,0.00,0.00,114.615,0.00,256.00s 114.615,256.00, 256.00,256.00s 256.00-114.615, 256.00-256.00S 397.385,0.00, 256.00,0.00z M 256.00,56.809 c 30.187,0.00, 54.658,24.471, 54.658,54.659c0.00,30.187-24.472,54.658-54.658,54.658c-30.188,0.00-54.658-24.471-54.658-54.658 C 201.342,81.28, 225.812,56.809, 256.00,56.809z M 57.778,207.364c0.00-30.187, 24.471-54.658, 54.659-54.658 c 30.187,0.00, 54.658,24.471, 54.658,54.658c0.00,30.188-24.471,54.659-54.658,54.659C 82.25,262.022, 57.778,237.551, 57.778,207.364z M 169.201,422.644c-30.187,0.00-54.658-24.471-54.658-54.658s 24.472-54.659, 54.658-54.659c 30.187,0.00, 54.659,24.472, 54.659,54.659 S 199.388,422.644, 169.201,422.644z M 256.00,288.00c-17.673,0.00-32.00-14.327-32.00-32.00c0.00-17.673, 14.327-32.00, 32.00-32.00c 17.673,0.00, 32.00,14.327, 32.00,32.00 C 288.00,273.673, 273.673,288.00, 256.00,288.00z M 342.799,422.969c-30.188,0.00-54.658-24.471-54.658-54.658s 24.471-54.659, 54.658-54.659 c 30.187,0.00, 54.658,24.472, 54.658,54.659S 372.985,422.969, 342.799,422.969z M 399.562,262.348c-30.187,0.00-54.658-24.471-54.658-54.659 c0.00-30.187, 24.472-54.658, 54.658-54.658c 30.188,0.00, 54.659,24.471, 54.659,54.658C 454.222,237.876, 429.751,262.348, 399.562,262.348z" ></path></svg>