<?xml version="1.0" encoding="utf-8"?> <!-- Generator: IcoMoon.io --> <!DOCTYPE svg PUBLIC "-//W3C//DTD SVG 1.1//EN" "http://www.w3.org/Graphics/SVG/1.1/DTD/svg11.dtd"> <svg width="512" height="512" viewBox="0 0 512 512" xmlns="http://www.w3.org/2000/svg" xmlns:xlink="http://www.w3.org/1999/xlink" fill="#242424"><path d="M 480.00,0.00 L 512.00,0.00 L 512.00,368.00 C 512.00,412.183 461.855,448.00 400.00,448.00 C 338.145,448.00 288.00,412.183 288.00,368.00 C 288.00,323.816 338.145,288.00 400.00,288.00 C 431.342,288.00 459.671,297.20 480.00,312.02 L 480.00,128.00 L 224.00,184.889 L 224.00,432.00 C 224.00,476.183 173.856,512.00 112.00,512.00 C 50.144,512.00 0.00,476.183 0.00,432.00 C 0.00,387.816 50.144,352.00 112.00,352.00 C 143.342,352.00 171.671,361.20 192.00,376.02 L 192.00,64.00 L 480.00,0.00 Z" ></path></svg>