<?xml version="1.0" encoding="utf-8"?> <!-- Generator: IcoMoon.io --> <!DOCTYPE svg PUBLIC "-//W3C//DTD SVG 1.1//EN" "http://www.w3.org/Graphics/SVG/1.1/DTD/svg11.dtd"> <svg width="512" height="512" viewBox="0 0 512 512" xmlns="http://www.w3.org/2000/svg" xmlns:xlink="http://www.w3.org/1999/xlink" fill="#242424"><path d="M 160.00,96.00l0.00,263.703 c-14.549-4.937-30.821-7.703-48.00-7.703C 50.144,352.00,0.00,387.817,0.00,432.00s 50.144,80.00, 112.00,80.00s 112.00-35.817, 112.00-80.00 L 224.00,280.422 l 224.00-61.091l0.00,76.372 c-14.549-4.937-30.821-7.703-48.00-7.703c-61.855,0.00-112.00,35.817-112.00,80.00s 50.145,80.00, 112.00,80.00s 112.00-35.817, 112.00-80.00L 512.00,0.00 L 160.00,96.00z M 224.00,230.669L 224.00,182.00 l 224.00-61.091l0.00,48.669 L 224.00,230.669z" ></path></svg>