<?xml version="1.0" encoding="utf-8"?> <!-- Generator: IcoMoon.io --> <!DOCTYPE svg PUBLIC "-//W3C//DTD SVG 1.1//EN" "http://www.w3.org/Graphics/SVG/1.1/DTD/svg11.dtd"> <svg width="512" height="512" viewBox="0 0 512 512" xmlns="http://www.w3.org/2000/svg" xmlns:xlink="http://www.w3.org/1999/xlink" fill="#242424"><path d="M 480.00,0.00L 192.00,64.00l0.00,312.02 C 171.671,361.20, 143.342,352.00, 112.00,352.00C 50.144,352.00,0.00,387.816,0.00,432.00c0.00,44.183, 50.144,80.00, 112.00,80.00 s 112.00-35.817, 112.00-80.00L 224.00,225.292 l 256.00-56.889L 480.00,312.02 C 459.671,297.20, 431.342,288.00, 400.00,288.00c-61.855,0.00-112.00,35.816-112.00,80.00 c0.00,44.183, 50.145,80.00, 112.00,80.00s 112.00-35.817, 112.00-80.00L 512.00,0.00 L 480.00,0.00 z M 480.00,127.426l-256.00,56.889l0.00-63.426 L 480.00,64.00L 480.00,127.426 z" ></path></svg>