<?xml version="1.0" encoding="utf-8"?> <!-- Generator: IcoMoon.io --> <!DOCTYPE svg PUBLIC "-//W3C//DTD SVG 1.1//EN" "http://www.w3.org/Graphics/SVG/1.1/DTD/svg11.dtd"> <svg width="512" height="512" viewBox="0 0 512 512" xmlns="http://www.w3.org/2000/svg" xmlns:xlink="http://www.w3.org/1999/xlink" fill="#242424"><path d="M 448.00,96.00L 64.00,96.00 c-35.20,0.00-64.00,28.80-64.00,64.00l0.00,192.00 c0.00,35.20, 28.80,64.00, 64.00,64.00l 384.00,0.00 c 35.20,0.00, 64.00-28.80, 64.00-64.00L 512.00,160.00 C 512.00,124.80, 483.20,96.00, 448.00,96.00z M 160.00,352.00l-32.00,0.00 L 64.00,245.333L 64.00,352.00 L 32.00,352.00 L 32.00,192.00 l 32.00,0.00 l 64.00,106.667L 128.00,192.00 l 32.00,0.00 L 160.00,352.00 z M 288.00,224.00l-64.00,0.00 l0.00,32.00 l 64.00,0.00 l0.00,32.00 l-64.00,0.00 l0.00,32.00 l 64.00,0.00 l0.00,31.999 L 192.00,352.00L 192.00,192.00 l 96.00,0.00 L 288.00,224.00 z M 480.00,352.00l-47.999,0.00 L 400.00,288.00l-32.00,64.00l-48.00,0.00 L 320.00,192.00 l 32.00,0.00 l0.00,128.00 l 32.00-64.00l 32.001,0.00 L 448.00,319.998L 448.00,192.00 l 32.00,0.00 L 480.00,352.00 z" ></path></svg>