<?xml version="1.0" encoding="utf-8"?> <!-- Generator: IcoMoon.io --> <!DOCTYPE svg PUBLIC "-//W3C//DTD SVG 1.1//EN" "http://www.w3.org/Graphics/SVG/1.1/DTD/svg11.dtd"> <svg width="512" height="512" viewBox="0 0 512 512" xmlns="http://www.w3.org/2000/svg" xmlns:xlink="http://www.w3.org/1999/xlink" fill="#242424"><path d="M 352.00,0.00L 32.00,64.00l0.00,352.00 l 96.00,96.00l 320.00-64.00L 448.00,96.00 L 352.00,0.00z M 344.111,26.053l 75.604,75.604l-263.432,52.687L 80.68,78.739L 344.111,26.053z M 160.00,178.075l 4.00-0.80l0.00,303.049 l-4.00,0.801L 160.00,178.075 z M 172.00,175.675l 8.00-1.60l0.00,303.05 l-8.00,1.60L 172.00,175.675 z M 188.00,172.475l 8.00-1.60l0.00,303.049 l-8.00,1.60 L 188.00,172.475 z M 204.00,169.275l 8.00-1.60l0.00,303.049 l-8.00,1.60L 204.00,169.275 z M 220.00,166.075l 8.00-1.60l0.00,303.049 l-8.00,1.601L 220.00,166.075 z M 236.00,162.875l 8.00-1.60l0.00,303.05 l-8.00,1.60L 236.00,162.875 z M 252.00,159.675l 8.00-1.60l0.00,303.05 l-8.00,1.60L 252.00,159.675 z M 268.00,156.476l 8.00-1.60l0.00,303.049 l-8.00,1.60L 268.00,156.476 z M 284.00,153.275l 8.00-1.60 l0.00,303.049 l-8.00,1.601L 284.00,153.275 z M 300.00,150.075l 8.00-1.60l0.00,303.05 l-8.00,1.60L 300.00,150.075 z M 316.00,146.875l 8.00-1.60l0.00,303.05 l-8.00,1.60L 316.00,146.875 z M 332.00,143.675 l 8.00-1.60l0.00,303.05 l-8.00,1.60L 332.00,143.675 z M 348.00,140.476l 8.00-1.60l0.00,303.049 l-8.00,1.601L 348.00,140.476 z M 364.00,137.275l 8.00-1.60l0.00,303.049 l-8.00,1.601L 364.00,137.275 z M 380.00,134.075l 8.00-1.60l0.00,303.05 l-8.00,1.60L 380.00,134.075 z M 396.00,130.875l 8.00-1.60l0.00,303.05 l-8.00,1.60L 396.00,130.875 z M 412.00,127.675l 4.00-0.80l0.00,303.049 l-4.00,0.801 L 412.00,127.675 z" ></path></svg>