<?xml version="1.0" encoding="utf-8"?> <!-- Generator: IcoMoon.io --> <!DOCTYPE svg PUBLIC "-//W3C//DTD SVG 1.1//EN" "http://www.w3.org/Graphics/SVG/1.1/DTD/svg11.dtd"> <svg width="512" height="512" viewBox="0 0 512 512" xmlns="http://www.w3.org/2000/svg" xmlns:xlink="http://www.w3.org/1999/xlink" fill="#242424"><path d="M0.00,256.00L 64.00,256.00L 64.00,288.00L0.00,288.00zM 96.00,256.00L 192.00,256.00L 192.00,288.00L 96.00,288.00zM 224.00,256.00L 288.00,256.00L 288.00,288.00L 224.00,288.00zM 320.00,256.00L 416.00,256.00L 416.00,288.00L 320.00,288.00zM 448.00,256.00L 512.00,256.00L 512.00,288.00L 448.00,288.00zM 440.00,0.00 L 448.00,224.00 L 64.00,224.00 L 72.00,0.00 L 120.00,0.00 L 128.00,192.00 L 384.00,192.00 L 392.00,0.00 ZM 72.00,512.00 L 64.00,320.00 L 448.00,320.00 L 440.00,512.00 L 392.00,512.00 L 384.00,384.00 L 128.00,384.00 L 120.00,512.00 Z" ></path></svg>