<?xml version="1.0" encoding="utf-8"?> <!-- Generator: IcoMoon.io --> <!DOCTYPE svg PUBLIC "-//W3C//DTD SVG 1.1//EN" "http://www.w3.org/Graphics/SVG/1.1/DTD/svg11.dtd"> <svg width="512" height="512" viewBox="0 0 512 512" xmlns="http://www.w3.org/2000/svg" xmlns:xlink="http://www.w3.org/1999/xlink" fill="#242424"><path d="M 128.00,192.00 L 128.00,0.00 L 512.00,0.00 L 512.00,192.00 L 480.00,192.00 L 480.00,32.00 L 160.00,32.00 L 160.00,192.00 ZM 512.00,288.00 L 512.00,512.00 L 128.00,512.00 L 128.00,288.00 L 160.00,288.00 L 160.00,480.00 L 480.00,480.00 L 480.00,288.00 ZM 256.00,224.00L 320.00,224.00L 320.00,256.00L 256.00,256.00zM 160.00,224.00L 224.00,224.00L 224.00,256.00L 160.00,256.00zM 352.00,224.00L 416.00,224.00L 416.00,256.00L 352.00,256.00zM 448.00,224.00L 512.00,224.00L 512.00,256.00L 448.00,256.00zM0.00,144.00L 96.00,240.00L0.00,336.00 z" ></path></svg>