<?xml version="1.0" encoding="utf-8"?> <!-- Generator: IcoMoon.io --> <!DOCTYPE svg PUBLIC "-//W3C//DTD SVG 1.1//EN" "http://www.w3.org/Graphics/SVG/1.1/DTD/svg11.dtd"> <svg width="512" height="512" viewBox="0 0 512 512" xmlns="http://www.w3.org/2000/svg" xmlns:xlink="http://www.w3.org/1999/xlink" fill="#242424"><path d="M 416.00,96.00L 416.00,64.00 c0.00-17.60-14.40-32.00-32.00-32.00L 32.00,32.00 C 14.40,32.00,0.00,46.40,0.00,64.00l0.00,96.00 c0.00,17.60, 14.40,32.00, 32.00,32.00l 352.00,0.00 c 17.60,0.00, 32.00-14.40, 32.00-32.00l0.00-32.00 l 64.00,0.00 l0.00,128.00 L 192.00,256.00 l0.00,64.00 l-16.00,0.00 c-8.837,0.00-16.00,7.163-16.00,16.00l0.00,160.00 c0.00,8.837, 7.163,16.00, 16.00,16.00l 64.00,0.00 c 8.837,0.00, 16.00-7.163, 16.00-16.00L 256.00,336.00 c0.00-8.837-7.163-16.00-16.00-16.00l-16.00,0.00 l0.00-32.00 l 288.00,0.00 L 512.00,96.00 L 416.00,96.00 z M 35.00,96.00l-3.00,0.00 L 32.00,64.00 l 3.00,0.00 L 35.00,96.00 z M 51.00,96.00l-8.00,0.00 L 43.00,64.00 l 8.00,0.00 L 51.00,96.00 z M 67.00,96.00l-8.00,0.00 L 59.00,64.00 l 8.00,0.00 L 67.00,96.00 z M 83.00,96.00l-8.00,0.00 L 75.00,64.00 l 8.00,0.00 L 83.00,96.00 z M 99.00,96.00l-8.00,0.00 L 91.00,64.00 l 8.00,0.00 L 99.00,96.00 z M 115.00,96.00l-8.00,0.00 L 107.00,64.00 l 8.00,0.00 L 115.00,96.00 z M 131.00,96.00l-8.00,0.00 L 123.00,64.00 l 8.00,0.00 L 131.00,96.00 z M 147.00,96.00l-8.00,0.00 L 139.00,64.00 l 8.00,0.00 L 147.00,96.00 z M 163.00,96.00l-8.00,0.00 L 155.00,64.00 l 8.00,0.00 L 163.00,96.00 z M 179.00,96.00l-8.00,0.00 L 171.00,64.00 l 8.00,0.00 L 179.00,96.00 z M 195.00,96.00l-8.00,0.00 L 187.00,64.00 l 8.00,0.00 L 195.00,96.00 z M 211.00,96.00l-8.00,0.00 L 203.00,64.00 l 8.00,0.00 L 211.00,96.00 z M 227.00,96.00l-8.00,0.00 L 219.00,64.00 l 8.00,0.00 L 227.00,96.00 z M 243.00,96.00l-8.00,0.00 L 235.00,64.00 l 8.00,0.00 L 243.00,96.00 z M 259.00,96.00l-8.00,0.00 L 251.00,64.00 l 8.00,0.00 L 259.00,96.00 z M 275.00,96.00l-8.00,0.00 L 267.00,64.00 l 8.00,0.00 L 275.00,96.00 z M 291.00,96.00l-8.00,0.00 L 283.00,64.00 l 8.00,0.00 L 291.00,96.00 z M 307.00,96.00l-8.00,0.00 L 299.00,64.00 l 8.00,0.00 L 307.00,96.00 z M 323.00,96.00l-8.00,0.00 L 315.00,64.00 l 8.00,0.00 L 323.00,96.00 z M 339.00,96.00l-8.00,0.00 L 331.00,64.00 l 8.00,0.00 L 339.00,96.00 z M 355.00,96.00l-8.00,0.00 L 347.00,64.00 l 8.00,0.00 L 355.00,96.00 z M 371.00,96.00l-8.00,0.00 L 363.00,64.00 l 8.00,0.00 L 371.00,96.00 z M 384.00,96.00l-5.00,0.00 L 379.00,64.00 l 5.00,0.00 L 384.00,96.00 z" ></path></svg>