<?xml version="1.0" encoding="utf-8"?> <!-- Generator: IcoMoon.io --> <!DOCTYPE svg PUBLIC "-//W3C//DTD SVG 1.1//EN" "http://www.w3.org/Graphics/SVG/1.1/DTD/svg11.dtd"> <svg width="512" height="512" viewBox="0 0 512 512" xmlns="http://www.w3.org/2000/svg" xmlns:xlink="http://www.w3.org/1999/xlink" fill="#242424"><path d="M 256.00,64.00C 114.615,64.00,0.00,164.288,0.00,288.00c0.00,82.947, 51.529,155.359, 128.101,194.078c 43.186,21.34, 80.116,5.816, 54.146-30.87 C 168.359,437.333, 160.00,419.48, 160.00,400.00c0.00-44.183, 42.98-80.00, 96.00-80.00s 96.00,35.817, 96.00,80.00c0.00,19.48-8.359,37.332-22.246,51.207 c-25.97,36.685, 10.955,52.209, 54.139,30.874C 460.469,443.363, 512.00,370.949, 512.00,288.00C 512.00,164.288, 397.385,64.00, 256.00,64.00z M 64.00,320.00 c-17.673,0.00-32.00-14.326-32.00-32.00s 14.327-32.00, 32.00-32.00s 32.00,14.326, 32.00,32.00S 81.673,320.00, 64.00,320.00z M 128.00,219.713 c-22.958,13.255-48.732,11.593-57.569-3.713c-8.836-15.306, 2.611-38.458, 25.569-51.713s 48.732-11.593, 57.569,3.713 C 162.406,183.306, 150.958,206.458, 128.00,219.713z M 256.00,192.00c-35.346,0.00-64.00-21.49-64.00-48.00s 28.654-48.00, 64.00-48.00c 35.347,0.00, 64.00,21.49, 64.00,48.00 S 291.347,192.00, 256.00,192.00z M 384.00,219.713c-22.958-13.255-34.406-36.407-25.569-51.713s 34.611-16.968, 57.569-3.713 s 34.406,36.407, 25.569,51.713S 406.958,232.968, 384.00,219.713z M 448.00,320.00c-17.673,0.00-32.00-14.326-32.00-32.00s 14.327-32.00, 32.00-32.00s 32.00,14.326, 32.00,32.00 S 465.673,320.00, 448.00,320.00z" ></path></svg>