<?xml version="1.0" encoding="utf-8"?> <!-- Generator: IcoMoon.io --> <!DOCTYPE svg PUBLIC "-//W3C//DTD SVG 1.1//EN" "http://www.w3.org/Graphics/SVG/1.1/DTD/svg11.dtd"> <svg width="512" height="512" viewBox="0 0 512 512" xmlns="http://www.w3.org/2000/svg" xmlns:xlink="http://www.w3.org/1999/xlink" fill="#242424"><path d="M 257.54,64.00C 92.994,64.00,0.00,173.352,0.00,253.347c0.00,121.887, 109.354,190.477, 200.308,212.956 C 291.27,488.791, 325.48,447.538, 324.022,400.00c-1.771-57.75, 27.073-58.496, 47.52-56.459C 391.973,345.592, 512.00,373.305, 512.00,281.326 C 512.00,167.50, 422.072,64.00, 257.54,64.00z M 224.00,96.00c 17.673,0.00, 32.00,14.327, 32.00,32.00s-14.327,32.00-32.00,32.00s-32.00-14.327-32.00-32.00S 206.327,96.00, 224.00,96.00z M 80.00,288.246c-8.973,0.00-16.246-7.273-16.246-16.246S 71.027,255.754, 80.00,255.754S 96.246,263.027, 96.246,272.00S 88.973,288.246, 80.00,288.246z M 128.00,224.00c-17.673,0.00-32.00-14.327-32.00-32.00s 14.327-32.00, 32.00-32.00s 32.00,14.327, 32.00,32.00S 145.673,224.00, 128.00,224.00z M 256.00,352.00c-35.346,0.00-64.00-21.49-64.00-48.00 s 28.654-48.00, 64.00-48.00c 35.347,0.00, 64.00,21.49, 64.00,48.00S 291.347,352.00, 256.00,352.00z M 368.00,224.00c-26.51,0.00-48.00-21.49-48.00-48.00s 21.49-48.00, 48.00-48.00s 48.00,21.49, 48.00,48.00 S 394.51,224.00, 368.00,224.00z" ></path></svg>