<?xml version="1.0" encoding="utf-8"?> <!-- Generator: IcoMoon.io --> <!DOCTYPE svg PUBLIC "-//W3C//DTD SVG 1.1//EN" "http://www.w3.org/Graphics/SVG/1.1/DTD/svg11.dtd"> <svg width="512" height="512" viewBox="0 0 512 512" xmlns="http://www.w3.org/2000/svg" xmlns:xlink="http://www.w3.org/1999/xlink" fill="#242424"><path d="M 256.00,0.00C 114.616,0.00,0.00,114.615,0.00,256.00s 114.616,256.00, 256.00,256.00c 141.385,0.00, 256.00-114.615, 256.00-256.00S 397.385,0.00, 256.00,0.00z M 464.00,256.00 c0.00,47.478-15.812,92.519-44.924,129.135L 280.00,246.059L 280.00,49.375 c 46.477,5.307, 89.506,25.975, 123.078,59.547 C 442.364,148.208, 464.00,200.441, 464.00,256.00z M 232.00,462.625c-38.565-4.403-74.751-19.392-105.135-43.548L 232.00,313.941L 232.00,462.625 z M 280.00,313.941 l 105.135,105.135c-30.384,24.157-66.569,39.146-105.135,43.549L 280.00,313.941 z M 108.922,108.922C 142.494,75.35, 185.523,54.682, 232.00,49.375 l0.00,196.684 L 92.924,385.136C 63.812,348.519, 48.00,303.478, 48.00,256.00C 48.00,200.441, 69.636,148.208, 108.922,108.922z" ></path></svg>