<?xml version="1.0" encoding="utf-8"?> <!-- Generator: IcoMoon.io --> <!DOCTYPE svg PUBLIC "-//W3C//DTD SVG 1.1//EN" "http://www.w3.org/Graphics/SVG/1.1/DTD/svg11.dtd"> <svg width="512" height="512" viewBox="0 0 512 512" xmlns="http://www.w3.org/2000/svg" xmlns:xlink="http://www.w3.org/1999/xlink" fill="#242424"><path d="M 464.001,192.003L 320.003,48.004L 368.002,0.004L 512.001,144.003zM 304.00,96.00 L 416.00,208.00 L 352.00,384.00 L 64.00,512.00 L 43.313,491.313 L 215.716,318.911 C 218.359,319.618 221.134,320.00 224.00,320.00 C 241.673,320.00 256.00,305.673 256.00,288.00 C 256.00,270.327 241.673,256.00 224.00,256.00 C 206.327,256.00 192.00,270.327 192.00,288.00 C 192.00,290.865 192.382,293.641 193.089,296.285 L 20.687,468.687 L 0.00,448.00 L 128.00,160.00 L 304.00,96.00 Z" ></path></svg>