<?xml version="1.0" encoding="utf-8"?> <!-- Generator: IcoMoon.io --> <!DOCTYPE svg PUBLIC "-//W3C//DTD SVG 1.1//EN" "http://www.w3.org/Graphics/SVG/1.1/DTD/svg11.dtd"> <svg width="512" height="512" viewBox="0 0 512 512" xmlns="http://www.w3.org/2000/svg" xmlns:xlink="http://www.w3.org/1999/xlink" fill="#242424"><path d="M 320.00,64.00L 336.00,0.00L 144.00,0.00L 160.00,64.00 zM 320.00,96.00L 160.00,96.00 L 80.00,256.00l 128.00,256.00l 16.00,0.00 L 224.00,288.00 c-17.60,0.00-32.00-14.40-32.00-32.00l0.00-32.00 c0.00-17.60, 14.40-32.00, 32.00-32.00l 32.00,0.00 c 17.60,0.00, 32.00,14.40, 32.00,32.00l0.00,32.00 c0.00,17.60-14.40,32.00-32.00,32.00l0.00,224.00 l 16.00,0.00 l 128.00-256.00L 320.00,96.00z" ></path></svg>