<?xml version="1.0" encoding="utf-8"?> <!-- Generator: IcoMoon.io --> <!DOCTYPE svg PUBLIC "-//W3C//DTD SVG 1.1//EN" "http://www.w3.org/Graphics/SVG/1.1/DTD/svg11.dtd"> <svg width="512" height="512" viewBox="0 0 512 512" xmlns="http://www.w3.org/2000/svg" xmlns:xlink="http://www.w3.org/1999/xlink" fill="#242424"><path d="M 325.926,78.222L 352.00,0.00L 128.00,0.00 l 26.074,78.222L 80.00,256.00l 128.00,256.00l 64.00,0.00 l 128.00-256.00L 325.926,78.222z M 307.603,32.00l-10.667,32.00L 183.064,64.00 l-10.667-32.00L 307.603,32.00 z M 256.00,472.445L 256.00,285.258 c 18.641-6.591, 32.00-24.359, 32.00-45.258c0.00-26.51-21.49-48.00-48.00-48.00s-48.00,21.49-48.00,48.00 c0.00,20.898, 13.359,38.667, 32.00,45.258l0.00,187.188 L 115.171,254.789L 181.333,96.00l 117.333,0.00 l 66.161,158.789L 256.00,472.445z" ></path></svg>