<?xml version="1.0" encoding="utf-8"?> <!-- Generator: IcoMoon.io --> <!DOCTYPE svg PUBLIC "-//W3C//DTD SVG 1.1//EN" "http://www.w3.org/Graphics/SVG/1.1/DTD/svg11.dtd"> <svg width="512" height="512" viewBox="0 0 512 512" xmlns="http://www.w3.org/2000/svg" xmlns:xlink="http://www.w3.org/1999/xlink" fill="#242424"><path d="M 258.027,130.026c-21.205,20.571-56.098,55.135-63.634,62.679C 135.58,251.512-2.507,415.325, 0.036,511.965 c 96.64,2.551, 260.449-135.547, 319.263-194.354c 7.544-7.545, 42.108-42.441, 62.673-63.64L 258.027,130.026zM 472.339,102.09l-9.023-9.007L 512.00,52.861L 459.14,0.00l-40.222,48.686l-9.018-9.039 c-27.895-1.631-72.881,25.375-117.215,61.04l 118.63,118.63c 13.414-16.688, 25.524-33.433, 35.421-49.356 c 9.648,36.481-5.979,102.913-117.835,190.941l 14.233,14.232C 448.00,299.708, 498.531,211.017, 466.263,131.77 C 470.452,120.691, 472.834,110.538, 472.339,102.09z" ></path></svg>