<?xml version="1.0" encoding="utf-8"?>
<!-- Generator: IcoMoon.io -->
<!DOCTYPE svg PUBLIC "-//W3C//DTD SVG 1.1//EN" "http://www.w3.org/Graphics/SVG/1.1/DTD/svg11.dtd">
<svg xmlns="http://www.w3.org/2000/svg" xmlns:xlink="http://www.w3.org/1999/xlink" width="512" height="512" viewBox="0 0 512 512" fill="#666"><path d="M 424.00,168.00 L 208.00,384.00 L 128.00,384.00 L 128.00,304.00 L 344.00,88.00 ZM 451.00,141.00 L 371.00,61.00 L 399.029,32.971 C 408.363,23.637 423.636,23.637 432.97,32.971 L 479.029,79.03 C 488.363,88.364 488.363,103.637 479.029,112.971 L 451.00,141.00 ZM 384.00,281.791L 384.00,448.00 L 64.00,448.00 L 64.00,128.00 l 176.00,0.00 l 64.00-64.00L 48.00,64.00 C 21.60,64.00,0.00,85.60,0.00,112.00l0.00,352.00 c0.00,26.40, 21.60,48.00, 48.00,48.00l 352.00,0.00 c 26.40,0.00, 48.00-21.60, 48.00-48.00L 448.00,224.319 L 384.00,281.791z"/></svg>
