<?xml version="1.0" encoding="utf-8"?> <!-- Generator: IcoMoon.io --> <!DOCTYPE svg PUBLIC "-//W3C//DTD SVG 1.1//EN" "http://www.w3.org/Graphics/SVG/1.1/DTD/svg11.dtd"> <svg width="512" height="512" viewBox="0 0 512 512" xmlns="http://www.w3.org/2000/svg" xmlns:xlink="http://www.w3.org/1999/xlink" fill="#242424"><path d="M 192.00,128.00L 32.00,128.00 c-17.60,0.00-32.00,14.40-32.00,32.00l0.00,128.00 c0.00,17.60, 14.40,32.00, 32.00,32.00l0.00,0.00 L 32.00,192.00 l 16.00,0.00 l0.00,128.00 l0.00,64.00 l0.00,104.00 c0.00,13.20, 10.80,24.00, 24.00,24.00s 24.00-10.80, 24.00-24.00L 96.00,320.00 l 32.00,0.00 l0.00,168.00 c0.00,13.20, 10.80,24.00, 24.00,24.00s 24.00-10.80, 24.00-24.00L 176.00,320.00 l0.00,0.00 L 176.00,192.00 l 16.00,0.00 l0.00,128.00 c 17.60,0.00, 32.00-14.40, 32.00-32.00L 224.00,160.00 C 224.00,142.40, 209.60,128.00, 192.00,128.00zM 64.016,47.984A47.984,47.984 12600.00 1 1 159.984,47.98399999999998A47.984,47.984 12600.00 1 1 64.016,47.98399999999998zM 480.00,128.00L 320.00,128.00 c-17.60,0.00-32.00,14.40-32.00,32.00l0.00,128.00 c0.00,17.60, 14.40,32.00, 32.00,32.00L 320.00,192.00 l 16.00,0.00 l0.00,128.00 l0.00,64.00 l0.00,104.00 c0.00,13.20, 10.80,24.00, 24.00,24.00s 24.00-10.80, 24.00-24.00L 384.00,320.00 l 32.00,0.00 l0.00,168.00 c0.00,13.20, 10.80,24.00, 24.00,24.00s 24.00-10.80, 24.00-24.00L 464.00,320.00 L 464.00,192.00 l 16.00,0.00 l0.00,128.00 c 17.60,0.00, 32.00-14.40, 32.00-32.00L 512.00,160.00 C 512.00,142.40, 497.60,128.00, 480.00,128.00zM 352.016,47.984A47.984,47.984 12600.00 1 1 447.984,47.98399999999998A47.984,47.984 12600.00 1 1 352.016,47.98399999999998z" ></path></svg>