<?xml version="1.0" encoding="utf-8"?> <!-- Generator: IcoMoon.io --> <!DOCTYPE svg PUBLIC "-//W3C//DTD SVG 1.1//EN" "http://www.w3.org/Graphics/SVG/1.1/DTD/svg11.dtd"> <svg width="512" height="512" viewBox="0 0 512 512" xmlns="http://www.w3.org/2000/svg" xmlns:xlink="http://www.w3.org/1999/xlink" fill="#242424"><path d="M 457.153,103.648 C 510.42,133.932 512.00,166.357 512.002,188.997 L 512.002,192.394 C 512.002,197.576 507.533,201.812 502.074,201.812 L 381.928,201.812 C 376.469,201.812 372.00,197.576 372.00,192.394 L 372.00,180.941 C 372.00,152.336 344.645,147.766 329.551,145.336 C 314.455,142.91 276.934,140.559 256.071,140.559 C 256.045,140.559 256.025,140.559 256.005,140.559 C 255.976,140.559 255.956,140.559 255.928,140.559 C 235.066,140.559 197.541,142.909 182.448,145.336 C 167.355,147.763 139.999,152.334 139.999,180.941 L 139.999,192.394 C 139.999,197.576 135.53,201.812 130.073,201.812 L 9.927,201.812 C 4.47,201.812 0.001,197.576 0.001,192.394 L 0.001,188.997 C 0.001,166.357 1.581,133.932 54.848,103.648 C 118.198,67.638 208.777,64.00 255.928,64.00 C 255.956,64.025 255.976,64.055 256.005,64.078 C 256.023,64.056 256.044,64.024 256.071,64.00 C 303.223,64.00 393.803,67.634 457.153,103.648 ZM 256.001,192.00c-28.374,0.00-87.443,2.126-117.456,38.519C 108.523,266.902, 33.455,448.00, 100.398,448.00c 66.956,0.00, 125.458,0.00, 155.606,0.00 c 30.137,0.00, 88.648,0.00, 155.595,0.00c 66.945,0.00-8.125-181.098-38.137-217.481C 343.444,194.126, 284.362,192.00, 256.001,192.00z M 256.00,384.00 c-35.346,0.00-64.00-28.653-64.00-64.00s 28.654-64.00, 64.00-64.00c 35.347,0.00, 64.00,28.653, 64.00,64.00S 291.347,384.00, 256.00,384.00z" ></path></svg>