<?xml version="1.0" encoding="utf-8"?> <!-- Generator: IcoMoon.io --> <!DOCTYPE svg PUBLIC "-//W3C//DTD SVG 1.1//EN" "http://www.w3.org/Graphics/SVG/1.1/DTD/svg11.dtd"> <svg width="512" height="512" viewBox="0 0 512 512" xmlns="http://www.w3.org/2000/svg" xmlns:xlink="http://www.w3.org/1999/xlink" fill="#242424"><path d="M 256.00,0.00C 114.615,0.00,0.00,114.615,0.00,256.00s 114.615,256.00, 256.00,256.00s 256.00-114.615, 256.00-256.00S 397.385,0.00, 256.00,0.00z M 147.503,452.00 c-4.534-2.516-8.971-5.186-13.306-8.00l 243.613,0.00 c-4.336,2.815-8.775,5.483-13.312,8.00L 147.503,452.00 z M 348.635,460.00 c-6.556,2.981-13.283,5.65-20.158,8.00L 183.524,468.00 c-6.872-2.349-13.594-5.02-20.146-8.00L 348.635,460.00 z M 122.679,436.00 c-3.467-2.573-6.864-5.235-10.173-8.00l 286.991,0.00 c-3.309,2.764-6.702,5.428-10.169,8.00L 122.679,436.00 z M 95.277,412.00l 294.096,0.00 l 8.00,8.00L 103.452,420.00 C 100.66,417.402, 97.933,414.736, 95.277,412.00z M 293.373,316.00l 8.00,8.00L 42.537,324.00 c-0.842-2.646-1.634-5.312-2.38-8.00L 293.373,316.00 z M 38.084,308.00 c-0.629-2.647-1.199-5.317-1.733-8.00l 241.022,0.00 l 8.00,8.00L 38.084,308.00 z M 309.373,332.00l 8.00,8.00L 48.312,340.00 c-1.07-2.644-2.10-5.308-3.071-8.00L 309.373,332.00 z M 325.373,348.00l 8.00,8.00L 55.532,356.00 c-1.317-2.637-2.581-5.305-3.796-8.00L 325.373,348.00 z M 341.373,364.00l 8.00,8.00L 64.357,372.00 c-1.596-2.632-3.141-5.299-4.63-8.00 L 341.373,364.00 z M 357.373,380.00l 8.00,8.00L 75.029,388.00 c-1.917-2.624-3.778-5.291-5.582-8.00L 357.373,380.00 z M 373.373,396.00l 8.00,8.00L 87.868,404.00 c-2.301-2.612-4.538-5.281-6.717-8.00L 373.373,396.00 z M 265.373,288.00l 4.00,4.00L 34.904,292.00 c-0.215-1.33-0.428-2.662-0.619-4.00L 265.373,288.00 z M 256.00,32.00l0.00,224.00 L 32.00,256.00 C 32.00,132.288, 132.288,32.00, 256.00,32.00z M 213.69,476.00l 84.613,0.00 c-13.70,2.619-27.84,4.00-42.304,4.00C 241.534,480.00, 227.393,478.62, 213.69,476.00z" ></path></svg>