<?xml version="1.0" encoding="utf-8"?> <!-- Generator: IcoMoon.io --> <!DOCTYPE svg PUBLIC "-//W3C//DTD SVG 1.1//EN" "http://www.w3.org/Graphics/SVG/1.1/DTD/svg11.dtd"> <svg width="512" height="512" viewBox="0 0 512 512" xmlns="http://www.w3.org/2000/svg" xmlns:xlink="http://www.w3.org/1999/xlink" fill="#242424"><path d="M 224.00,288.00L 224.00,1.988 C 97.719,17.736,0.00,125.453,0.00,256.00c0.00,141.385, 114.615,256.00, 256.00,256.00c 130.547,0.00, 238.265-97.719, 254.013-224.00L 224.00,288.00 z M 404.79,423.444C 363.783,459.915, 310.942,480.00, 256.00,480.00c-30.254,0.00-59.586-5.918-87.181-17.59 c-26.67-11.28-50.628-27.437-71.21-48.019C 77.026,393.81, 60.87,369.851, 49.59,343.181C 37.918,315.586, 32.00,286.254, 32.00,256.00 c0.00-54.942, 20.085-107.783, 56.556-148.789C 116.489,75.803, 152.373,53.09, 192.00,41.286L 192.00,320.00 l 278.715,0.00 C 458.91,359.628, 436.197,395.511, 404.79,423.444zM 256.00,0.00 C 397.385,0.00 512.00,114.615 512.00,256.00 L 256.00,256.00 L 256.00,0.00 Z" ></path></svg>