<?xml version="1.0" encoding="utf-8"?> <!-- Generator: IcoMoon.io --> <!DOCTYPE svg PUBLIC "-//W3C//DTD SVG 1.1//EN" "http://www.w3.org/Graphics/SVG/1.1/DTD/svg11.dtd"> <svg width="512" height="512" viewBox="0 0 512 512" xmlns="http://www.w3.org/2000/svg" xmlns:xlink="http://www.w3.org/1999/xlink" fill="#242424"><path d="M 224.00,1.988 L 224.00,288.00 L 510.013,288.00 C 494.265,414.281 386.547,512.00 256.00,512.00 C 114.615,512.00 0.00,397.385 0.00,256.00 C 0.00,125.453 97.719,17.736 224.00,1.988 ZM 256.00,0.00l0.00,256.00 l 256.00,0.00 C 512.00,114.615, 397.385,0.00, 256.00,0.00z M 288.00,220.00l 189.136,0.00 c 0.214,1.331, 0.42,2.664, 0.61,4.00L 288.00,224.00 L 288.00,220.00 z M 328.542,44.00 c 4.929,1.689, 9.812,3.548, 14.639,5.59c 1.841,0.778, 3.665,1.585, 5.479,2.41L 288.00,52.00 l0.00-8.00 L 328.542,44.00 z M 288.00,36.00l0.00-1.747 c 3.503,0.499, 6.988,1.083, 10.455,1.747L 288.00,36.00 z M 364.535,60.00c 4.535,2.514, 8.978,5.18, 13.32,8.00L 288.00,68.00 l0.00-8.00 L 364.535,60.00 z M 389.375,76.00 c 3.448,2.562, 6.823,5.233, 10.13,8.00L 288.00,84.00 l0.00-8.00 L 389.375,76.00 z M 408.559,92.00c 1.97,1.835, 3.921,3.696, 5.833,5.608 c 0.789,0.79, 1.56,1.593, 2.336,2.392L 288.00,100.00 l0.00-8.00 L 408.559,92.00 z M 424.135,108.00c 2.312,2.619, 4.556,5.287, 6.734,8.00L 288.00,116.00 l0.00-8.00 L 424.135,108.00 z M 437.001,124.00 c 1.922,2.628, 3.788,5.293, 5.591,8.00L 288.00,132.00 l0.00-8.00 L 437.001,124.00 z M 447.69,140.00c 1.594,2.631, 3.122,5.302, 4.608,8.00L 288.00,148.00 l0.00-8.00 L 447.69,140.00 z M 456.492,156.00 c 1.317,2.64, 2.596,5.302, 3.812,8.00L 288.00,164.00 l0.00-8.00 L 456.492,156.00 z M 463.726,172.00c 1.074,2.651, 2.09,5.319, 3.058,8.00L 288.00,180.00 l0.00-8.00 L 463.726,172.00 z M 469.502,188.00 c 0.846,2.654, 1.646,5.32, 2.391,8.00L 288.00,196.00 l0.00-8.00 L 469.502,188.00 z M 473.947,204.00c 0.631,2.655, 1.212,5.322, 1.745,8.00L 288.00,212.00 l0.00-8.00 L 473.947,204.00 z" ></path></svg>