<?xml version="1.0" encoding="utf-8"?> <!-- Generator: IcoMoon.io --> <!DOCTYPE svg PUBLIC "-//W3C//DTD SVG 1.1//EN" "http://www.w3.org/Graphics/SVG/1.1/DTD/svg11.dtd"> <svg width="512" height="512" viewBox="0 0 512 512" xmlns="http://www.w3.org/2000/svg" xmlns:xlink="http://www.w3.org/1999/xlink" fill="#242424"><path d="M 224.00,288.00 L 510.013,288.00 C 494.265,414.281 386.547,512.00 256.00,512.00 C 114.615,512.00 0.00,397.385 0.00,256.00 C 0.00,125.453 97.719,17.736 224.00,1.988 L 224.00,288.00 ZM 288.00,34.253 L 288.00,223.999 L 477.747,223.999 C 475.044,205.032 469.918,186.566 462.411,168.818 C 451.13,142.148 434.974,118.19 414.392,97.607 C 393.81,77.025 369.851,60.869 343.181,49.589 C 325.434,42.083 306.967,36.956 288.00,34.253 Z M 256.00,0.00 L 256.00,0.00 C 397.385,0.00 512.00,114.615 512.00,256.00 L 256.00,256.00 L 256.00,0.00 Z" ></path></svg>