<?xml version="1.0" encoding="utf-8"?>
<!-- Generator: Adobe Illustrator 16.0.0, SVG Export Plug-In . SVG Version: 6.00 Build 0)  -->
<!DOCTYPE svg PUBLIC "-//W3C//DTD SVG 1.1//EN" "http://www.w3.org/Graphics/SVG/1.1/DTD/svg11.dtd">
<svg version="1.1" id="Capa_1" xmlns="http://www.w3.org/2000/svg" xmlns:xlink="http://www.w3.org/1999/xlink" x="0px" y="0px"
	 width="32.775px" height="52.021px" viewBox="0 0 32.775 52.021" enable-background="new 0 0 32.775 52.021" xml:space="preserve">
<path d="M32.777,16.842C32.776,7.791,25.441,0.454,16.391,0.454C7.338,0.454,0,7.791,0,16.842c0,7.812,12.208,28.682,15.553,34.251
	c0.176,0.295,0.494,0.475,0.837,0.475c0.343,0,0.662-0.18,0.837-0.474C20.571,45.526,32.777,24.654,32.777,16.842z M16.391,29.523
	c-6.991,0-12.683-5.689-12.683-12.681c0-6.992,5.69-12.681,12.683-12.681S29.07,9.85,29.07,16.842
	C29.07,23.833,23.383,29.523,16.391,29.523z"/>
</svg>
