<?xml version="1.0" encoding="utf-8"?> <!-- Generator: IcoMoon.io --> <!DOCTYPE svg PUBLIC "-//W3C//DTD SVG 1.1//EN" "http://www.w3.org/Graphics/SVG/1.1/DTD/svg11.dtd"> <svg width="512" height="512" viewBox="0 0 512 512" xmlns="http://www.w3.org/2000/svg" xmlns:xlink="http://www.w3.org/1999/xlink" fill="#242424"><path d="M0.00,32.00L 320.00,32.00L 320.00,96.00L0.00,96.00zM0.00,160.00L 288.00,160.00L 288.00,224.00L0.00,224.00zM0.00,288.00L 224.00,288.00L 224.00,352.00L0.00,352.00zM0.00,416.00L 160.00,416.00L 160.00,480.00L0.00,480.00zM 416.00,0.00l-64.00,0.00 l0.00,356.559 c-10.01-2.949-20.778-4.559-32.00-4.559c-53.02,0.00-96.00,35.817-96.00,80.00s 42.98,80.00, 96.00,80.00s 96.00-35.817, 96.00-80.00L 416.00,96.00 l 96.00,32.00 L 512.00,64.00 L 416.00,0.00z" ></path></svg>