<?xml version="1.0" encoding="utf-8"?> <!-- Generator: IcoMoon.io --> <!DOCTYPE svg PUBLIC "-//W3C//DTD SVG 1.1//EN" "http://www.w3.org/Graphics/SVG/1.1/DTD/svg11.dtd"> <svg width="512" height="512" viewBox="0 0 512 512" xmlns="http://www.w3.org/2000/svg" xmlns:xlink="http://www.w3.org/1999/xlink" fill="#242424"><path d="M 160.00,512.00l 192.00,0.00 l-64.00-64.00L 288.00,215.417 c 19.124-11.067, 32.00-31.732, 32.00-55.417c0.00-35.346-28.653-64.00-64.00-64.00c-35.346,0.00-64.00,28.654-64.00,64.00 c0.00,23.685, 12.876,44.349, 32.00,55.417L 224.00,448.00 L 160.00,512.00zM 355.918,80.004C 373.486,101.918, 384.00,129.729, 384.00,160.00s-10.515,58.082-28.082,79.996l 24.979,19.999 C 402.857,232.603, 416.00,197.839, 416.00,160.00s-13.144-72.603-35.103-99.995L 355.918,80.004zM 131.102,60.006C 109.143,87.398, 96.00,122.162, 96.00,160.00s 13.143,72.602, 35.102,99.994l 24.979-19.999 C 138.515,218.082, 128.00,190.271, 128.00,160.00s 10.515-58.082, 28.082-79.995L 131.102,60.006zM 56.164,0.00C 21.03,43.828,0.00,99.449,0.00,159.991S 21.03,276.154, 56.164,319.98l 24.979-19.998 C 50.401,261.633, 32.00,212.965, 32.00,159.991s 18.40-101.643, 49.143-139.992L 56.164,0.00zM 455.836,0.00l-24.979,19.999C 461.60,58.348, 480.00,107.017, 480.00,159.991s-18.40,101.644-49.144,139.992l 24.979,19.999 C 490.971,276.154, 512.00,220.533, 512.00,159.991S 490.971,43.828, 455.836,0.00z" ></path></svg>