<?xml version="1.0" encoding="utf-8"?> <!-- Generator: IcoMoon.io --> <!DOCTYPE svg PUBLIC "-//W3C//DTD SVG 1.1//EN" "http://www.w3.org/Graphics/SVG/1.1/DTD/svg11.dtd"> <svg width="512" height="512" viewBox="0 0 512 512" xmlns="http://www.w3.org/2000/svg" xmlns:xlink="http://www.w3.org/1999/xlink" fill="#242424"><path d="M 256.00,0.00C 114.615,0.00,0.00,114.615,0.00,256.00c0.00,70.691, 28.653,134.691, 74.98,181.019l 22.627-22.626C 57.072,373.855, 32.00,317.855, 32.00,256.00 C 32.00,132.288, 132.288,32.00, 256.00,32.00s 224.00,100.288, 224.00,224.00c0.00,61.855-25.072,117.855-65.608,158.393l 22.628,22.626 C 483.346,390.691, 512.00,326.691, 512.00,256.00C 512.00,114.615, 397.385,0.00, 256.00,0.00zM 256.00,0.00C 114.615,0.00,0.00,114.615,0.00,256.00c0.00,70.691, 28.653,134.691, 74.98,181.019l 22.627-22.626C 57.072,373.855, 32.00,317.855, 32.00,256.00 C 32.00,132.288, 132.288,32.00, 256.00,32.00s 224.00,100.288, 224.00,224.00c0.00,61.855-25.072,117.855-65.608,158.393l 22.628,22.626 C 483.346,390.691, 512.00,326.691, 512.00,256.00C 512.00,114.615, 397.385,0.00, 256.00,0.00L 256.00,0.00zM 256.00,96.00c-88.366,0.00-160.00,71.634-160.00,160.00c0.00,44.184, 17.909,84.184, 46.862,113.137l 22.639-22.638 c-23.161-23.161-37.486-55.157-37.486-90.499c0.00-70.684, 57.301-127.985, 127.985-127.985c 70.684,0.00, 127.984,57.301, 127.984,127.985 c0.00,35.342-14.325,67.338-37.486,90.499l 22.639,22.638C 398.092,340.184, 416.00,300.184, 416.00,256.00C 416.00,167.634, 344.365,96.00, 256.00,96.00zM 301.255,301.255C 312.837,289.673, 320.00,273.673, 320.00,256.00c0.00-35.346-28.654-64.00-64.00-64.00c-35.347,0.00-64.00,28.654-64.00,64.00 c0.00,17.673, 7.164,33.673, 18.745,45.255l 22.627-22.627C 227.582,272.837, 224.00,264.837, 224.00,256.00c0.00-17.673, 14.327-32.00, 32.00-32.00 s 32.00,14.327, 32.00,32.00c0.00,8.837-3.582,16.837-9.372,22.628L 301.255,301.255zM 244.00,288.00L 160.00,512.00L 352.00,512.00L 268.00,288.00 z" ></path></svg>