<?xml version="1.0" encoding="utf-8"?> <!-- Generator: IcoMoon.io --> <!DOCTYPE svg PUBLIC "-//W3C//DTD SVG 1.1//EN" "http://www.w3.org/Graphics/SVG/1.1/DTD/svg11.dtd"> <svg width="512" height="512" viewBox="0 0 512 512" xmlns="http://www.w3.org/2000/svg" xmlns:xlink="http://www.w3.org/1999/xlink" fill="#242424"><path d="M 386.597,176.00l-16.00,0.00 l-48.00-16.00l-16.00,0.00 l-48.00-16.00L 256.00,144.00 L 256.00,32.00 l-96.00,0.00 l0.00,259.808 L 103.494,224.00L0.00,224.00 l 115.293,185.921L 217.373,512.00l 176.516,0.00 L 448.00,403.777 l0.00-207.31 L 386.597,176.00z M 416.00,396.223L 374.112,480.00L 230.628,480.00 l-89.921-89.921L 60.26,256.00l 28.247,0.00 L 192.00,384.00L 192.00,64.00 l 32.00,0.00 l0.00,224.00 l 32.00,0.00 L 256.00,176.00 l 32.00,10.667L 288.00,288.00 l 32.00,0.00 l0.00-96.00 l 32.00,10.667L 352.00,304.00 l 32.00,0.00 l0.00-96.00 l 32.00,10.667L 416.00,396.223 z" ></path></svg>