<?xml version="1.0" encoding="utf-8"?> <!-- Generator: IcoMoon.io --> <!DOCTYPE svg PUBLIC "-//W3C//DTD SVG 1.1//EN" "http://www.w3.org/Graphics/SVG/1.1/DTD/svg11.dtd"> <svg width="512" height="512" viewBox="0 0 512 512" xmlns="http://www.w3.org/2000/svg" xmlns:xlink="http://www.w3.org/1999/xlink" fill="#242424"><path d="M 464.00,64.00L 176.00,64.00 c-26.40,0.00-48.00,21.60-48.00,48.00l0.00,48.00 L 48.00,160.00 c-26.40,0.00-48.00,21.60-48.00,48.00l0.00,192.00 c0.00,26.40, 21.60,48.00, 48.00,48.00l 288.00,0.00 c 26.40,0.00, 48.00-21.60, 48.00-48.00l0.00-48.00 l 80.00,0.00 c 26.40,0.00, 48.00-21.60, 48.00-48.00L 512.00,112.00 C 512.00,85.60, 490.401,64.00, 464.00,64.00z M 352.00,400.00c0.00,8.673-7.327,16.00-16.00,16.00L 48.00,416.00 c-8.673,0.00-16.00-7.327-16.00-16.00L 32.00,208.00 c0.00-8.673, 7.327-16.00, 16.00-16.00l 80.00,0.00 l0.00,112.00 c0.00,26.40, 21.60,48.00, 48.00,48.00l 176.00,0.00 L 352.00,400.00 z M 480.00,304.00c0.00,8.673-7.327,16.00-16.00,16.00L 176.00,320.00 c-8.673,0.00-16.00-7.327-16.00-16.00L 160.00,112.00 c0.00-8.673, 7.327-16.00, 16.00-16.00l 288.00,0.00 c 8.673,0.00, 16.00,7.327, 16.00,16.00L 480.00,304.00 z" ></path></svg>