<?xml version="1.0" encoding="utf-8"?> <!-- Generator: IcoMoon.io --> <!DOCTYPE svg PUBLIC "-//W3C//DTD SVG 1.1//EN" "http://www.w3.org/Graphics/SVG/1.1/DTD/svg11.dtd"> <svg width="512" height="512" viewBox="0 0 512 512" xmlns="http://www.w3.org/2000/svg" xmlns:xlink="http://www.w3.org/1999/xlink" fill="#242424"><path d="M 510.225,384.049l-12.449-224.098C 496.799,142.378, 481.60,128.00, 464.00,128.00l-80.00,0.00 L 384.00,0.00 L 128.00,0.00 l0.00,128.00 L 48.00,128.00 c-17.601,0.00-32.799,14.378-33.775,31.951L 1.775,384.049C 0.799,401.622, 14.40,416.00, 32.00,416.00l 70.40,0.00 L 64.00,512.00l 384.00,0.00 l-38.40-96.00L 480.00,416.00 C 497.60,416.00, 511.20,401.622, 510.225,384.049z M 160.00,32.00l 192.00,0.00 l0.00,96.00 L 160.00,128.00 L 160.00,32.00 z M 111.265,480.00l 38.40-96.00l 212.67,0.00 l 38.40,96.00L 111.265,480.00 z M 448.00,224.00l-32.00,0.00 l0.00-64.00 l 32.00,0.00 L 448.00,224.00 z" ></path></svg>