<?xml version="1.0" encoding="utf-8"?>
<!-- Generator: IcoMoon.io -->
<!DOCTYPE svg PUBLIC "-//W3C//DTD SVG 1.1//EN" "http://www.w3.org/Graphics/SVG/1.1/DTD/svg11.dtd">
<svg xmlns="http://www.w3.org/2000/svg" xmlns:xlink="http://www.w3.org/1999/xlink" width="512" height="512" viewBox="0 0 512 512" fill="#fff"><path d="M 256.00,0.00C 114.615,0.00,0.00,114.615,0.00,256.00s 114.613,256.00, 256.00,256.00c 141.385,0.00, 256.00-114.615, 256.00-256.00S 397.385,0.00, 256.00,0.00z M 288.00,416.00l-64.00,0.00 l0.00-64.00 l 64.00,0.00 L 288.00,416.00 z M 384.00,224.00c0.00,35.29-28.71,64.00-64.00,64.00l-31.942,0.00 c-0.02,0.017-0.041,0.038-0.058,0.058L 288.00,320.00 l-64.00,0.00 l0.00-32.00 c0.00-35.29, 28.71-64.00, 64.00-64.00l 31.942,0.00 c 0.02-0.017, 0.041-0.038, 0.058-0.057l0.00-63.885 c-0.017-0.02-0.037-0.041-0.058-0.058L 160.00,160.00 L 160.00,96.00 l 160.00,0.00 c 35.29,0.00, 64.00,28.71, 64.00,64.00L 384.00,224.00 z"/></svg>
