<?xml version="1.0" encoding="utf-8"?> <!-- Generator: IcoMoon.io --> <!DOCTYPE svg PUBLIC "-//W3C//DTD SVG 1.1//EN" "http://www.w3.org/Graphics/SVG/1.1/DTD/svg11.dtd"> <svg width="512" height="512" viewBox="0 0 512 512" xmlns="http://www.w3.org/2000/svg" xmlns:xlink="http://www.w3.org/1999/xlink" fill="#242424"><path d="M 320.00,96.00 C 355.29,96.00 384.00,124.71 384.00,160.00 L 384.00,224.00 C 384.00,259.29 355.29,288.00 320.00,288.00 L 288.059,288.00 C 288.038,288.018 288.018,288.038 288.00,288.059 L 288.00,320.00 L 224.00,320.00 L 224.00,288.00 C 224.00,252.71 252.71,224.00 288.00,224.00 L 319.942,224.00 C 319.962,223.984 319.983,223.963 320.00,223.943 L 320.00,160.058 C 319.983,160.038 319.963,160.017 319.942,160.00 L 160.00,160.00 L 160.00,96.00 L 320.00,96.00 ZM 224.00,352.00L 288.00,352.00L 288.00,416.00L 224.00,416.00zM 256.00,48.00 C 200.441,48.00 148.208,69.636 108.922,108.922 C 69.636,148.208 48.00,200.441 48.00,256.00 C 48.00,311.559 69.636,363.792 108.922,403.078 C 148.208,442.364 200.441,464.00 256.00,464.00 C 311.559,464.00 363.792,442.364 403.078,403.078 C 442.364,363.792 464.00,311.559 464.00,256.00 C 464.00,200.441 442.364,148.208 403.078,108.922 C 363.792,69.636 311.559,48.00 256.00,48.00 Z M 256.00,0.00 L 256.00,0.00 C 397.385,0.00 512.00,114.615 512.00,256.00 C 512.00,397.385 397.385,512.00 256.00,512.00 C 114.615,512.00 0.00,397.385 0.00,256.00 C 0.00,114.615 114.615,0.00 256.00,0.00 Z" ></path></svg>