<?xml version="1.0" encoding="utf-8"?> <!-- Generator: IcoMoon.io --> <!DOCTYPE svg PUBLIC "-//W3C//DTD SVG 1.1//EN" "http://www.w3.org/Graphics/SVG/1.1/DTD/svg11.dtd"> <svg width="512" height="512" viewBox="0 0 512 512" xmlns="http://www.w3.org/2000/svg" xmlns:xlink="http://www.w3.org/1999/xlink" fill="#242424"><path d="M 400.00,320.00 C 338.144,320.00 288.00,269.855 288.00,208.00 C 288.00,146.144 338.144,96.00 400.00,96.00 C 461.856,96.00 512.00,146.144 512.00,208.00 L 512.50,224.00 C 512.50,347.712 412.212,448.00 288.50,448.00 L 288.50,384.00 C 331.237,384.00 371.417,367.357 401.637,337.137 C 407.454,331.319 412.763,325.129 417.552,318.627 C 411.833,319.527 405.972,320.00 400.00,320.00 ZM 112.00,320.00 C 50.145,320.00 0.00,269.855 0.00,208.00 C 0.00,146.144 50.145,96.00 112.00,96.00 C 173.855,96.00 224.00,146.144 224.00,208.00 L 224.50,224.00 C 224.50,347.712 124.212,448.00 0.50,448.00 L 0.50,384.00 C 43.237,384.00 83.417,367.357 113.637,337.137 C 119.455,331.319 124.764,325.129 129.553,318.627 C 123.833,319.527 117.973,320.00 112.00,320.00 Z" ></path></svg>