<?xml version="1.0" encoding="utf-8"?> <!-- Generator: IcoMoon.io --> <!DOCTYPE svg PUBLIC "-//W3C//DTD SVG 1.1//EN" "http://www.w3.org/Graphics/SVG/1.1/DTD/svg11.dtd"> <svg width="512" height="512" viewBox="0 0 512 512" xmlns="http://www.w3.org/2000/svg" xmlns:xlink="http://www.w3.org/1999/xlink" fill="#242424"><path d="M 32.00,0.00L 80.00,0.00L 80.00,512.00L 32.00,512.00zM 192.00,96.00L 256.00,96.00L 256.00,160.00L 192.00,160.00zM 256.00,160.00l0.00,64.00 c 32.00,0.00, 32.00,32.00, 64.00,32.00l0.00-64.00 C 288.00,192.00, 288.00,160.00, 256.00,160.00zM 320.00,128.00L 384.00,128.00L 384.00,192.00L 320.00,192.00zM 320.00,32.00c-16.00,0.00-24.00-8.00-32.00-16.00S 272.00,0.00, 256.00,0.00L 96.00,0.00 l0.00,320.00 l 160.00,0.00 c 16.00,0.00, 24.00,8.00, 32.00,16.00s 16.00,16.00, 32.00,16.00l 160.00,0.00 L 480.00,32.00 L 320.00,32.00 z M 448.00,192.00l-64.00,0.00 l0.00,64.00 l 64.00,0.00 l0.00,64.00 l-64.00,0.00 l0.00-64.00 l-64.00,0.00 l0.00,64.00 c-16.00,0.00-24.00-8.00-32.00-16.00s-16.00-16.00-32.00-16.00l0.00-64.00 l-64.00,0.00 l0.00,64.00 l-64.00,0.00 l0.00-64.00 l 64.00,0.00 l0.00-64.00 l-64.00,0.00 L 128.00,96.00 l 64.00,0.00 L 192.00,32.00 l 64.00,0.00 l0.00,64.00 c 16.00,0.00, 24.00,8.00, 32.00,16.00s 16.00,16.00, 32.00,16.00L 320.00,64.00 l 64.00,0.00 l0.00,64.00 l 64.00,0.00 L 448.00,192.00 z" ></path></svg>