<?xml version="1.0" encoding="utf-8"?> <!-- Generator: IcoMoon.io --> <!DOCTYPE svg PUBLIC "-//W3C//DTD SVG 1.1//EN" "http://www.w3.org/Graphics/SVG/1.1/DTD/svg11.dtd"> <svg width="512" height="512" viewBox="0 0 512 512" xmlns="http://www.w3.org/2000/svg" xmlns:xlink="http://www.w3.org/1999/xlink" fill="#242424"><path d="M 456.00,96.00L 320.00,96.00 L 320.00,56.00 c0.00-13.20-10.80-24.00-24.00-24.00L 184.00,32.00 c-13.20,0.00-24.00,10.80-24.00,24.00l0.00,40.00 L 24.00,96.00 c-13.20,0.00-24.00,10.80-24.00,24.00l0.00,16.00 c0.00,13.20, 10.80,24.00, 24.00,24.00l 432.00,0.00 c 13.20,0.00, 24.00-10.80, 24.00-24.00l0.00-16.00 C 480.00,106.80, 469.20,96.00, 456.00,96.00z M 192.00,64.401l 96.00,0.00 L 288.00,96.00 l-96.00,0.00 L 192.00,64.401 zM 64.00,192.00l0.00,256.00 c0.00,17.60, 14.40,32.00, 32.00,32.00l 288.00,0.00 c 17.60,0.00, 32.00-14.40, 32.00-32.00L 416.00,192.00 L 64.00,192.00 z M 160.00,448.00l-32.00,0.00 L 128.00,224.00 l 32.00,0.00 L 160.00,448.00 z M 224.00,448.00l-32.00,0.00 L 192.00,224.00 l 32.00,0.00 L 224.00,448.00 z M 288.00,448.00l-32.00,0.00 L 256.00,224.00 l 32.00,0.00 L 288.00,448.00 z M 352.00,448.00l-32.00,0.00 L 320.00,224.00 l 32.00,0.00 L 352.00,448.00 z" ></path></svg>