<?xml version="1.0" encoding="utf-8"?> <!-- Generator: IcoMoon.io --> <!DOCTYPE svg PUBLIC "-//W3C//DTD SVG 1.1//EN" "http://www.w3.org/Graphics/SVG/1.1/DTD/svg11.dtd"> <svg width="512" height="512" viewBox="0 0 512 512" xmlns="http://www.w3.org/2000/svg" xmlns:xlink="http://www.w3.org/1999/xlink" fill="#242424"><path d="M 64.00,480.00c0.00,17.673, 14.327,32.00, 32.00,32.00l 320.00,0.00 c 17.674,0.00, 32.00-14.327, 32.00-32.00L 448.00,128.00 L 64.00,128.00 L 64.00,480.00 z M 320.00,192.00l 64.00,0.00 l0.00,256.00 l-64.00,0.00 L 320.00,192.00 z M 224.00,192.00l 64.00,0.00 l0.00,256.00 l-64.00,0.00 L 224.00,192.00 z M 128.00,192.00l 64.00,0.00 l0.00,256.00 l-64.00,0.00 L 128.00,192.00 zM 448.00,32.00L 320.00,32.00 L 320.00,0.00 L 192.00,0.00 l0.00,32.00 L 64.00,32.00 C 28.654,32.00,0.00,60.654,0.00,96.00l 512.00,0.00 C 512.00,60.654, 483.347,32.00, 448.00,32.00z" ></path></svg>