<?xml version="1.0" encoding="utf-8"?> <!-- Generator: IcoMoon.io --> <!DOCTYPE svg PUBLIC "-//W3C//DTD SVG 1.1//EN" "http://www.w3.org/Graphics/SVG/1.1/DTD/svg11.dtd"> <svg width="512" height="512" viewBox="0 0 512 512" xmlns="http://www.w3.org/2000/svg" xmlns:xlink="http://www.w3.org/1999/xlink" fill="#242424"><path d="M 256.00,224.00c-106.039,0.00-192.00-42.98-192.00-96.00l0.00,32.00 c0.00,19.625, 11.787,37.871, 32.00,53.074L 96.00,448.00 c0.00,35.347, 71.634,64.00, 160.00,64.00 c 88.365,0.00, 160.00-28.653, 160.00-64.00L 416.00,213.074 c 20.213-15.204, 32.00-33.449, 32.00-53.074l0.00-32.00 C 448.00,181.02, 362.039,224.00, 256.00,224.00z M 192.00,474.118 c-10.372-2.025-20.122-4.538-28.967-7.528c-23.747-8.027-33.068-16.675-35.033-19.794L 128.00,231.547 c 18.467,8.265, 40.151,14.767, 64.00,18.982L 192.00,474.118 z M 288.00,478.597c-10.404,0.924-21.134,1.403-32.00,1.403 c-10.867,0.00-21.596-0.479-32.00-1.403L 224.00,254.665 c 10.408,0.874, 21.096,1.335, 32.00,1.335s 21.592-0.461, 32.00-1.335L 288.00,478.597 z M 384.00,446.796 c-1.965,3.118-11.286,11.767-35.033,19.794c-8.846,2.99-18.596,5.503-28.967,7.528L 320.00,250.53 c 23.849-4.215, 45.533-10.717, 64.00-18.982 L 384.00,446.796 zM 256.00,192.00c 106.039,0.00, 192.00-42.98, 192.00-96.00S 362.039,0.00, 256.00,0.00C 149.962,0.00, 64.00,42.98, 64.00,96.00S 149.962,192.00, 256.00,192.00z M 134.547,56.739 C 165.991,41.017, 210.259,32.00, 256.00,32.00s 90.01,9.017, 121.454,24.739C 401.231,68.627, 416.00,83.671, 416.00,96.00s-14.77,27.373-38.546,39.261 C 346.01,150.983, 301.741,160.00, 256.00,160.00s-90.009-9.017-121.454-24.739C 110.77,123.373, 96.00,108.329, 96.00,96.00S 110.77,68.627, 134.547,56.739z M 224.00,96.00L 288.00,96.00L 288.00,128.00L 320.00,128.00L 320.00,64.00L 192.00,64.00L 192.00,128.00L 224.00,128.00 z" ></path></svg>