<?xml version="1.0" encoding="utf-8"?> <!-- Generator: IcoMoon.io --> <!DOCTYPE svg PUBLIC "-//W3C//DTD SVG 1.1//EN" "http://www.w3.org/Graphics/SVG/1.1/DTD/svg11.dtd"> <svg width="512" height="512" viewBox="0 0 512 512" xmlns="http://www.w3.org/2000/svg" xmlns:xlink="http://www.w3.org/1999/xlink" fill="#242424"><path d="M 416.00,32.00L 480.00,32.00L 480.00,96.00L 416.00,96.00zM 416.00,160.00L 480.00,160.00L 480.00,224.00L 416.00,224.00zM 288.00,160.00L 352.00,160.00L 352.00,224.00L 288.00,224.00zM 416.00,288.00L 480.00,288.00L 480.00,352.00L 416.00,352.00zM 288.00,288.00L 352.00,288.00L 352.00,352.00L 288.00,352.00zM 160.00,288.00L 224.00,288.00L 224.00,352.00L 160.00,352.00zM 288.00,416.00L 352.00,416.00L 352.00,480.00L 288.00,480.00zM 160.00,416.00L 224.00,416.00L 224.00,480.00L 160.00,480.00zM 32.00,416.00L 96.00,416.00L 96.00,480.00L 32.00,480.00zM 416.00,416.00L 480.00,416.00L 480.00,480.00L 416.00,480.00z" ></path></svg>