<?xml version="1.0" encoding="utf-8"?> <!-- Generator: IcoMoon.io --> <!DOCTYPE svg PUBLIC "-//W3C//DTD SVG 1.1//EN" "http://www.w3.org/Graphics/SVG/1.1/DTD/svg11.dtd"> <svg width="512" height="512" viewBox="0 0 512 512" xmlns="http://www.w3.org/2000/svg" xmlns:xlink="http://www.w3.org/1999/xlink" fill="#242424"><path d="M 384.00,128.00L 416.00,128.00L 416.00,160.00L 384.00,160.00zM 320.00,192.00L 352.00,192.00L 352.00,224.00L 320.00,224.00zM 320.00,256.00L 352.00,256.00L 352.00,288.00L 320.00,288.00zM 320.00,320.00L 352.00,320.00L 352.00,352.00L 320.00,352.00zM 256.00,256.00L 288.00,256.00L 288.00,288.00L 256.00,288.00zM 256.00,320.00L 288.00,320.00L 288.00,352.00L 256.00,352.00zM 192.00,320.00L 224.00,320.00L 224.00,352.00L 192.00,352.00zM 384.00,192.00L 416.00,192.00L 416.00,224.00L 384.00,224.00zM 384.00,256.00L 416.00,256.00L 416.00,288.00L 384.00,288.00zM 384.00,320.00L 416.00,320.00L 416.00,352.00L 384.00,352.00zM 384.00,384.00L 416.00,384.00L 416.00,416.00L 384.00,416.00zM 320.00,384.00L 352.00,384.00L 352.00,416.00L 320.00,416.00zM 256.00,384.00L 288.00,384.00L 288.00,416.00L 256.00,416.00zM 192.00,384.00L 224.00,384.00L 224.00,416.00L 192.00,416.00zM 128.00,384.00L 160.00,384.00L 160.00,416.00L 128.00,416.00z" ></path></svg>