<?xml version="1.0" encoding="utf-8"?> <!-- Generator: IcoMoon.io --> <!DOCTYPE svg PUBLIC "-//W3C//DTD SVG 1.1//EN" "http://www.w3.org/Graphics/SVG/1.1/DTD/svg11.dtd"> <svg width="512" height="512" viewBox="0 0 512 512" xmlns="http://www.w3.org/2000/svg" xmlns:xlink="http://www.w3.org/1999/xlink" fill="#242424"><path d="M 96.00,144.00L 384.00,144.00L 384.00,400.00L 96.00,400.00zM 384.00,128.00l 64.00-64.00L 448.00,0.00 l-64.00,0.00 l0.00,32.00 l-96.00,0.00 L 288.00,0.00 l-96.00,0.00 l0.00,32.00 L 96.00,32.00 L 96.00,0.00 L 32.00,0.00 l0.00,64.00 l 64.00,64.00L 384.00,128.00 z M 384.00,80.00l-16.00,16.00L 112.00,96.00 L 96.00,80.00L 384.00,80.00 zM 64.00,416.00L 416.00,416.00L 416.00,448.00L 64.00,448.00zM 448.00,464.00L 32.00,464.00 c0.00,0.00-24.50,16.00-32.00,48.00l 480.00,0.00 C 472.50,480.00, 448.00,464.00, 448.00,464.00z" ></path></svg>