<?xml version="1.0" encoding="utf-8"?> <!-- Generator: IcoMoon.io --> <!DOCTYPE svg PUBLIC "-//W3C//DTD SVG 1.1//EN" "http://www.w3.org/Graphics/SVG/1.1/DTD/svg11.dtd"> <svg width="512" height="512" viewBox="0 0 512 512" xmlns="http://www.w3.org/2000/svg" xmlns:xlink="http://www.w3.org/1999/xlink" fill="#242424"><path d="M0.00,32.00l0.00,480.00 l 480.00,0.00 L 480.00,32.00 L0.00,32.00 z M 448.00,480.00L 32.00,480.00 L 32.00,64.00 l 416.00,0.00 L 448.00,480.00 zM 408.00,104.00L 72.00,104.00 l0.00,336.00 l 336.00,0.00 L 408.00,104.00 z M 392.00,424.00L 88.00,424.00 L 88.00,120.00 l 304.00,0.00 L 392.00,424.00 zM 224.00,288.00 L 160.00,288.00 L 160.00,256.00 L 224.00,256.00 L 224.00,192.00 L 256.00,192.00 L 256.00,256.00 L 320.00,256.00 L 320.00,288.00 L 256.00,288.00 L 256.00,352.00 L 224.00,352.00 Z" ></path></svg>