<?xml version="1.0" encoding="utf-8"?> <!-- Generator: IcoMoon.io --> <!DOCTYPE svg PUBLIC "-//W3C//DTD SVG 1.1//EN" "http://www.w3.org/Graphics/SVG/1.1/DTD/svg11.dtd"> <svg width="512" height="512" viewBox="0 0 512 512" xmlns="http://www.w3.org/2000/svg" xmlns:xlink="http://www.w3.org/1999/xlink" fill="#242424"><path d="M0.00,0.00l0.00,512.00 l 512.00,0.00 L 512.00,0.00 L0.00,0.00 z M 480.00,480.00L 32.00,480.00 L 32.00,32.00 l 448.00,0.00 L 480.00,480.00 zM 336.00,80.00 L 480.00,32.00 L 432.00,176.00 ZM 168.00,128.00L 184.00,128.00L 184.00,160.00L 168.00,160.00zM 200.00,128.00L 216.00,128.00L 216.00,160.00L 200.00,160.00zM 232.00,128.00L 248.00,128.00L 248.00,160.00L 232.00,160.00zM 264.00,128.00L 280.00,128.00L 280.00,160.00L 264.00,160.00zM 296.00,128.00L 312.00,128.00L 312.00,160.00L 296.00,160.00zM 328.00,128.00L 344.00,128.00L 344.00,160.00L 328.00,160.00zM 168.00,352.00L 184.00,352.00L 184.00,384.00L 168.00,384.00zM 200.00,352.00L 216.00,352.00L 216.00,384.00L 200.00,384.00zM 232.00,352.00L 248.00,352.00L 248.00,384.00L 232.00,384.00zM 264.00,352.00L 280.00,352.00L 280.00,384.00L 264.00,384.00zM 296.00,352.00L 312.00,352.00L 312.00,384.00L 296.00,384.00zM 328.00,352.00L 344.00,352.00L 344.00,384.00L 328.00,384.00zM 128.00,328.00L 160.00,328.00L 160.00,344.00L 128.00,344.00zM 128.00,296.00L 160.00,296.00L 160.00,312.00L 128.00,312.00zM 128.00,264.00L 160.00,264.00L 160.00,280.00L 128.00,280.00zM 128.00,232.00L 160.00,232.00L 160.00,248.00L 128.00,248.00zM 128.00,200.00L 160.00,200.00L 160.00,216.00L 128.00,216.00zM 128.00,168.00L 160.00,168.00L 160.00,184.00L 128.00,184.00zM 352.00,328.00L 384.00,328.00L 384.00,344.00L 352.00,344.00zM 352.00,296.00L 384.00,296.00L 384.00,312.00L 352.00,312.00zM 352.00,264.00L 384.00,264.00L 384.00,280.00L 352.00,280.00zM 352.00,232.00L 384.00,232.00L 384.00,248.00L 352.00,248.00zM 352.00,200.00L 384.00,200.00L 384.00,216.00L 352.00,216.00zM 352.00,168.00L 384.00,168.00L 384.00,184.00L 352.00,184.00zM 80.00,176.00 L 32.00,32.00 L 176.00,80.00 ZM 176.00,432.00 L 32.00,480.00 L 80.00,336.00 ZM 432.00,336.00 L 480.00,480.00 L 336.00,432.00 Z" ></path></svg>