<?xml version="1.0" encoding="utf-8"?> <!-- Generator: IcoMoon.io --> <!DOCTYPE svg PUBLIC "-//W3C//DTD SVG 1.1//EN" "http://www.w3.org/Graphics/SVG/1.1/DTD/svg11.dtd"> <svg width="512" height="512" viewBox="0 0 512 512" xmlns="http://www.w3.org/2000/svg" xmlns:xlink="http://www.w3.org/1999/xlink" fill="#242424"><path d="M 507.256,395.256L 308.744,196.744c-11.03-11.031-38.41-2.154-65.372,19.758L 96.00,69.13L 80.00,32.00L 28.768,0.00L0.00,28.768L 32.00,80.00 l 37.13,16.00l 147.373,147.372c-21.913,26.963-30.79,54.342-19.76,65.372c 0.003,0.003, 0.006,0.005, 0.009,0.008l 198.503,198.504 c 12.976,12.975, 48.565-1.579, 79.494-32.508C 505.677,443.82, 520.23,408.229, 507.256,395.256z M 445.435,445.435 c-3.71,3.71-8.572,5.565-13.435,5.565s-9.725-1.855-13.435-5.565l-160.00-160.00c-7.421-7.42-7.421-19.449,0.00-26.869 c 7.42-7.42, 19.449-7.42, 26.869,0.00l 160.00,160.00C 452.855,425.985, 452.855,438.015, 445.435,445.435z" ></path></svg>