<?xml version="1.0" encoding="utf-8"?> <!-- Generator: IcoMoon.io --> <!DOCTYPE svg PUBLIC "-//W3C//DTD SVG 1.1//EN" "http://www.w3.org/Graphics/SVG/1.1/DTD/svg11.dtd"> <svg width="512" height="512" viewBox="0 0 512 512" xmlns="http://www.w3.org/2000/svg" xmlns:xlink="http://www.w3.org/1999/xlink" fill="#242424"><path d="M0.00,32.00l0.00,320.00 l 512.00,0.00 L 512.00,32.00 L0.00,32.00 z M 480.00,320.00L 32.00,320.00 L 32.00,64.00 l 448.00,0.00 L 480.00,320.00 zM 336.00,384.00L 176.00,384.00L 160.00,448.00L 128.00,480.00L 384.00,480.00L 352.00,448.00 zM 48.00,228.00L 464.00,228.00L 464.00,236.00L 48.00,236.00zM 48.00,212.00L 464.00,212.00L 464.00,220.00L 48.00,220.00zM 48.00,244.00L 464.00,244.00L 464.00,252.00L 48.00,252.00zM 48.00,196.00L 464.00,196.00L 464.00,204.00L 48.00,204.00zM 48.00,260.00L 464.00,260.00L 464.00,268.00L 48.00,268.00zM 48.00,292.00L 464.00,292.00L 464.00,300.00L 48.00,300.00zM 48.00,276.00L 464.00,276.00L 464.00,284.00L 48.00,284.00zM 48.00,100.00L 464.00,100.00L 464.00,108.00L 48.00,108.00zM 48.00,180.00L 464.00,180.00L 464.00,188.00L 48.00,188.00zM 48.00,116.00L 464.00,116.00L 464.00,124.00L 48.00,124.00zM 48.00,84.00L 464.00,84.00L 464.00,92.00L 48.00,92.00zM 48.00,164.00L 464.00,164.00L 464.00,172.00L 48.00,172.00zM 48.00,148.00L 464.00,148.00L 464.00,156.00L 48.00,156.00zM 48.00,132.00L 464.00,132.00L 464.00,140.00L 48.00,140.00z" ></path></svg>