<?xml version="1.0" encoding="utf-8"?> <!-- Generator: IcoMoon.io --> <!DOCTYPE svg PUBLIC "-//W3C//DTD SVG 1.1//EN" "http://www.w3.org/Graphics/SVG/1.1/DTD/svg11.dtd"> <svg width="512" height="512" viewBox="0 0 512 512" xmlns="http://www.w3.org/2000/svg" xmlns:xlink="http://www.w3.org/1999/xlink" fill="#242424"><path d="M 48.00,236.00L 333.00,236.00L 319.00,228.00L 48.00,228.00 zM 48.00,220.00L 305.00,220.00L 291.00,212.00L 48.00,212.00 zM 48.00,204.00L 277.00,204.00L 263.00,196.00L 48.00,196.00 zM 48.00,188.00L 249.00,188.00L 235.00,180.00L 48.00,180.00 zM 48.00,252.00L 361.00,252.00L 347.00,244.00L 48.00,244.00 zM 48.00,268.00L 389.00,268.00L 375.00,260.00L 48.00,260.00 zM 48.00,284.00L 417.00,284.00L 403.00,276.00L 48.00,276.00 zM 48.00,92.00L 81.00,92.00L 67.00,84.00L 48.00,84.00 zM 48.00,292.00L 48.00,300.00L 445.00,300.00L 431.00,292.00 zM 48.00,108.00L 109.00,108.00L 95.00,100.00L 48.00,100.00 zM 48.00,124.00L 137.00,124.00L 123.00,116.00L 48.00,116.00 zM 48.00,156.00L 193.00,156.00L 179.00,148.00L 48.00,148.00 zM 48.00,140.00L 165.00,140.00L 151.00,132.00L 48.00,132.00 zM 48.00,172.00L 221.00,172.00L 207.00,164.00L 48.00,164.00 zM0.00,32.00l0.00,320.00 l 512.00,0.00 L 512.00,32.00 L0.00,32.00 z M 480.00,320.00L 32.00,320.00 L 32.00,64.00 l 448.00,0.00 L 480.00,320.00 zM 336.00,384.00L 176.00,384.00L 160.00,448.00L 128.00,480.00L 384.00,480.00L 352.00,448.00 z" ></path></svg>