<?xml version="1.0" encoding="utf-8"?> <!-- Generator: IcoMoon.io --> <!DOCTYPE svg PUBLIC "-//W3C//DTD SVG 1.1//EN" "http://www.w3.org/Graphics/SVG/1.1/DTD/svg11.dtd"> <svg width="512" height="512" viewBox="0 0 512 512" xmlns="http://www.w3.org/2000/svg" xmlns:xlink="http://www.w3.org/1999/xlink" fill="#242424"><path d="M 440.698,471.936L 313.486,285.05c-3.336-4.914-10.234-6.433-15.325-3.379l-16.069,9.668 c-5.087,3.05-6.992,9.845-4.229,15.111l 105.281,200.064c 2.763,5.252, 9.177,7.056, 14.271,3.99l 40.101-24.093 C 442.608,483.356, 444.033,476.851, 440.698,471.936zM 296.322,266.061c 48.104-30.646, 50.188-110.532, 4.747-181.875c-38.64-60.653-97.389-92.75-143.688-82.201 c-10.647,2.086-24.247,7.761-37.93,16.475c-13.683,8.721-24.604,18.643-30.979,27.432C 59.346,83.396, 63.617,150.194, 102.25,210.83 c 45.45,71.346, 118.727,103.23, 166.844,72.58l 27.22-17.346L 296.322,266.061z M 278.977,238.831 c-31.746,20.215-87.728-8.487-122.253-62.704c-34.536-54.196-36.891-117.063-5.14-137.293c 31.722-20.217, 87.719,8.50, 122.243,62.708 C 308.357,155.731, 310.704,218.608, 278.977,238.831z" ></path></svg>