<?xml version="1.0" encoding="utf-8"?> <!-- Generator: IcoMoon.io --> <!DOCTYPE svg PUBLIC "-//W3C//DTD SVG 1.1//EN" "http://www.w3.org/Graphics/SVG/1.1/DTD/svg11.dtd"> <svg width="512" height="512" viewBox="0 0 512 512" xmlns="http://www.w3.org/2000/svg" xmlns:xlink="http://www.w3.org/1999/xlink" fill="#242424"><path d="M 449.077,469.246l-114.54-168.305c 65.459-51.835, 83.963-145.677, 39.835-219.126 C 326.445,2.041, 222.559-23.857, 142.793,24.06C 63.028,71.993, 37.131,175.876, 85.054,255.643 c 43.213,71.942, 131.962,100.047, 207.479,69.717l 95.143,180.783c 2.95,5.611, 9.802,7.523, 15.229,4.273l 42.784-25.72 C 451.126,481.433, 452.653,474.482, 449.077,469.246z M 288.781,267.032c-54.211,32.563-124.808,14.959-157.375-39.253 c-32.565-54.197-14.952-124.794, 39.253-157.36c 54.189-32.57, 124.787-14.961, 157.351,39.245 C 360.579,163.862, 342.978,234.475, 288.781,267.032z" ></path></svg>