<?xml version="1.0" encoding="utf-8"?> <!-- Generator: IcoMoon.io --> <!DOCTYPE svg PUBLIC "-//W3C//DTD SVG 1.1//EN" "http://www.w3.org/Graphics/SVG/1.1/DTD/svg11.dtd"> <svg width="512" height="512" viewBox="0 0 512 512" xmlns="http://www.w3.org/2000/svg" xmlns:xlink="http://www.w3.org/1999/xlink" fill="#242424"><path d="M 352.00,64.00L 384.00,32.00L 352.00,0.00L 160.00,0.00L 128.00,32.00L 160.00,64.00 zM 384.00,48.00L 352.00,80.00L 352.00,208.00L 384.00,240.00L 416.00,208.00L 416.00,80.00 zM 160.00,208.001L 160.00,80.00L 128.00,48.00L 96.00,80.00L 96.00,208.001L 128.00,240.001 zM 352.00,304.00L 352.00,432.00L 384.00,464.00L 416.00,432.00L 416.00,304.00L 384.00,272.00 zM 160.00,432.00L 160.00,304.00L 128.00,272.00L 96.00,304.00L 96.00,432.00L 128.00,464.00 zM 160.00,448.00L 128.00,480.00L 160.00,512.00L 352.00,512.00L 384.00,480.00L 352.00,448.00 z" ></path></svg>