<?xml version="1.0" encoding="utf-8"?> <!-- Generator: IcoMoon.io --> <!DOCTYPE svg PUBLIC "-//W3C//DTD SVG 1.1//EN" "http://www.w3.org/Graphics/SVG/1.1/DTD/svg11.dtd"> <svg width="512" height="512" viewBox="0 0 512 512" xmlns="http://www.w3.org/2000/svg" xmlns:xlink="http://www.w3.org/1999/xlink" fill="#242424"><path d="M 192.00,256.00A64.00,64.00 12600.00 1 1 320.00,256A64.00,64.00 12600.00 1 1 192.00,256zM 256.00,128.00c 35.346,0.00, 67.346,14.327, 90.51,37.49l 45.255-45.255C 357.02,85.49, 309.02,64.00, 256.00,64.00 c-83.596,0.00-154.70,53.431-181.06,128.00L0.00,192.00 l0.00,64.00 l 128.00,0.00 C 128.00,185.308, 185.308,128.00, 256.00,128.00zM 384.00,256.00c0.00,70.692-57.308,128.00-128.00,128.00c-35.346,0.00-67.346-14.327-90.51-37.49l-45.255,45.255 C 154.981,426.51, 202.981,448.00, 256.00,448.00c 83.596,0.00, 154.70-53.431, 181.06-128.00L 512.00,320.00 l0.00-64.00 L 384.00,256.00 z" ></path></svg>