<?xml version="1.0" encoding="utf-8"?> <!-- Generator: IcoMoon.io --> <!DOCTYPE svg PUBLIC "-//W3C//DTD SVG 1.1//EN" "http://www.w3.org/Graphics/SVG/1.1/DTD/svg11.dtd"> <svg width="512" height="512" viewBox="0 0 512 512" xmlns="http://www.w3.org/2000/svg" xmlns:xlink="http://www.w3.org/1999/xlink" fill="#242424"><path d="M 177.779,146.007L 177.779,256.00 c0.00,33.313, 13.555,65.756, 40.286,96.43c 13.125,15.061, 26.722,26.534, 37.937,34.635 c 11.215-8.101, 24.811-19.574, 37.936-34.635c 26.732-30.674, 40.287-63.117, 40.287-96.43L 334.225,146.007 L 256.00,119.933L 177.779,146.007zM 256.00,0.00L 64.00,64.00c0.00,0.00,0.00,96.00,0.00,192.00c0.00,160.001, 160.00,256.00, 192.00,256.00s 192.00-95.999, 192.00-256.00c0.00-96.00,0.00-192.00,0.00-192.00L 256.00,0.00z M 384.00,256.00 c0.00,25.20-5.523,50.083-16.419,73.958c-9.677,21.207-23.497,41.633-41.079,60.711c-26.953,29.245-55.599,47.326-70.502,54.681 c-14.902-7.354-43.548-25.436-70.501-54.681c-17.582-19.078-31.403-39.504-41.08-60.711C 133.525,306.083, 128.00,281.20, 128.00,256.00 L 128.00,110.129 l 128.00-42.667l 128.00,42.667L 384.00,256.00 z" ></path></svg>