<?xml version="1.0" encoding="utf-8"?> <!-- Generator: IcoMoon.io --> <!DOCTYPE svg PUBLIC "-//W3C//DTD SVG 1.1//EN" "http://www.w3.org/Graphics/SVG/1.1/DTD/svg11.dtd"> <svg width="512" height="512" viewBox="0 0 512 512" xmlns="http://www.w3.org/2000/svg" xmlns:xlink="http://www.w3.org/1999/xlink" fill="#242424"><path d="M 384.00,352.00 L 384.00,288.00 L 512.00,384.00 L 384.00,480.00 L 384.00,416.00 L 292.00,416.00 C 279.379,416.00 266.979,409.621 259.64,399.352 L 111.533,192.00 L 0.00,192.00 L 0.00,128.00 L 124.00,128.00 C 136.624,128.00 149.025,134.381 156.363,144.653 L 208.00,216.945 L 259.64,144.648 C 266.979,134.379 279.379,128.00 292.00,128.00 L 384.00,128.00 L 384.00,64.00 L 512.00,160.00 L 384.00,256.00 L 384.00,192.00 L 304.468,192.00 L 247.325,272.00 L 304.468,352.00 L 384.00,352.00 ZM 111.533,352.00 L 145.268,304.77 L 184.593,359.826 L 156.363,399.347 C 149.025,409.619 136.624,416.00 124.00,416.00 L 0.00,416.00 L 0.00,352.00 L 111.533,352.00 Z" ></path></svg>