<?xml version="1.0" encoding="utf-8"?> <!-- Generator: IcoMoon.io --> <!DOCTYPE svg PUBLIC "-//W3C//DTD SVG 1.1//EN" "http://www.w3.org/Graphics/SVG/1.1/DTD/svg11.dtd"> <svg width="512" height="512" viewBox="0 0 512 512" xmlns="http://www.w3.org/2000/svg" xmlns:xlink="http://www.w3.org/1999/xlink" fill="#242424"><path d="M 256.00,0.00C 114.615,0.00,0.00,107.452,0.00,240.00c0.00,2.541, 0.047,5.07, 0.131,7.594C 107.971,273.672, 124.405,266.656, 128.00,375.083 c 20.494,4.957, 105.853,12.714, 128.00,12.714c 22.146,0.00, 107.505-7.757, 128.00-12.714c 3.595-108.427, 20.027-101.411, 127.866-127.489 C 511.95,245.073, 512.00,242.541, 512.00,240.00C 512.00,107.452, 397.385,0.00, 256.00,0.00z M 208.00,181.333C 208.00,204.80, 188.80,224.00, 165.332,224.00l-26.666,0.00 C 115.199,224.00, 96.00,204.80, 96.00,181.333l0.00-10.666 C 96.00,147.20, 115.199,128.00, 138.666,128.00l 26.666,0.00 C 188.80,128.00, 208.00,147.20, 208.00,170.667L 208.00,181.333 z M 276.00,328.00l-40.00,0.00 c-11.00,0.00-17.817-8.73-15.149-19.402l 10.299-41.193C 233.817,256.73, 245.00,248.00, 256.00,248.00s 22.183,8.73, 24.85,19.402 l 10.30,41.193C 293.818,319.27, 287.00,328.00, 276.00,328.00z M 416.00,181.333C 416.00,204.80, 396.80,224.00, 373.331,224.00l-26.665,0.00 C 323.198,224.00, 304.00,204.80, 304.00,181.333l0.00-10.666 C 304.00,147.20, 323.198,128.00, 346.665,128.00l 26.666,0.00 C 396.80,128.00, 416.00,147.20, 416.00,170.667L 416.00,181.333 zM 224.00,427.02L 224.00,480.00 l 64.00,0.00 l0.00-52.98 c-13.891,1.045-25.595,1.694-32.00,1.694C 249.592,428.714, 237.889,428.063, 224.00,427.02zM 320.00,480.00l 64.00-12.947L 384.00,416.00 c-10.327,2.497-37.122,5.705-64.00,8.274L 320.00,480.00 zM 128.00,467.053L 192.00,480.00l0.00-55.726 c-26.879-2.569-53.674-5.777-64.00-8.274L 128.00,467.053 z" ></path></svg>