<?xml version="1.0" encoding="utf-8"?> <!-- Generator: IcoMoon.io --> <!DOCTYPE svg PUBLIC "-//W3C//DTD SVG 1.1//EN" "http://www.w3.org/Graphics/SVG/1.1/DTD/svg11.dtd"> <svg width="512" height="512" viewBox="0 0 512 512" xmlns="http://www.w3.org/2000/svg" xmlns:xlink="http://www.w3.org/1999/xlink" fill="#242424"><path d="M 489.923,362.834L 434.663,330.932L 482.64,303.323L 458.416,261.232L 386.06,302.87L 304.564,255.817L 385.742,208.948L 458.416,250.769L 482.64,208.677L 434.348,180.887L 489.764,148.893L 465.482,106.835L 410.226,138.736L 410.303,83.386L 361.74,83.318L 361.619,166.799L 280.123,213.85L 280.123,120.111L 352.679,78.086L 328.338,36.063L 280.123,63.99L 280.123,0.00L 231.559,0.00L 231.559,63.807L 183.662,36.063L 159.322,78.086L 231.559,119.93L 231.559,214.033L 150.38,167.165L 150.261,83.318L 101.698,83.386L 101.777,139.104L 46.361,107.109L 22.077,149.167L 77.335,181.07L 29.36,208.677L 53.585,250.769L 125.939,209.13L 207.438,256.183L 126.257,303.053L 53.585,261.232L 29.36,303.323L 77.651,331.113L 22.236,363.107L 46.518,405.166L 101.775,373.264L 101.698,428.615L 150.261,428.683L 150.38,345.201L 231.877,298.148L 231.877,391.889L 159.322,433.912L 183.662,475.938L 231.877,448.01L 231.877,512.00L 280.441,512.00L 280.441,448.194L 328.338,475.938L 352.679,433.912L 280.441,392.07L 280.441,297.969L 361.619,344.836L 361.74,428.683L 410.303,428.615L 410.225,372.898L 465.642,404.895 z" ></path></svg>