<?xml version="1.0" encoding="utf-8"?> <!-- Generator: IcoMoon.io --> <!DOCTYPE svg PUBLIC "-//W3C//DTD SVG 1.1//EN" "http://www.w3.org/Graphics/SVG/1.1/DTD/svg11.dtd"> <svg width="512" height="512" viewBox="0 0 512 512" xmlns="http://www.w3.org/2000/svg" xmlns:xlink="http://www.w3.org/1999/xlink" fill="#242424"><path d="M 128.00,160.00L 160.00,160.00L 160.00,288.00L 128.00,288.00zM 352.00,160.00L 384.00,160.00L 384.00,256.00L 352.00,256.00zM 379.996,32.00L 132.004,32.00 C 53.288,75.667,0.00,159.604,0.00,256.00s 53.288,180.333, 132.004,224.00l 247.992,0.00 C 458.712,436.333, 512.00,352.396, 512.00,256.00S 458.712,75.667, 379.996,32.00z M 371.418,448.00L 140.582,448.00 c-31.358-18.896-57.763-45.287-76.68-76.726 C 43.032,336.59, 32.00,296.729, 32.00,256.00s 11.032-80.589, 31.902-115.275C 82.82,109.287, 109.224,82.896, 140.582,64.00l 230.836,0.00 c 31.357,18.896, 57.763,45.287, 76.68,76.725C 468.969,175.411, 480.00,215.272, 480.00,256.00c0.00,40.729-11.031,80.59-31.902,115.274 C 429.181,402.713, 402.776,429.104, 371.418,448.00zM 256.00,320.00c-35.346,0.00-64.00,14.327-64.00,32.00l0.00,64.00 l 128.00,0.00 l0.00-64.00 C 320.00,334.327, 291.347,320.00, 256.00,320.00z" ></path></svg>