<?xml version="1.0" encoding="utf-8"?>
<!-- Generator: Adobe Illustrator 17.0.0, SVG Export Plug-In . SVG Version: 6.00 Build 0)  -->
<!DOCTYPE svg PUBLIC "-//W3C//DTD SVG 1.1//EN" "http://www.w3.org/Graphics/SVG/1.1/DTD/svg11.dtd">
<svg version="1.1" id="Capa_1" xmlns="http://www.w3.org/2000/svg" xmlns:xlink="http://www.w3.org/1999/xlink" x="0px" y="0px"
	 width="29.093px" height="22.907px" viewBox="0 0 29.093 22.907" enable-background="new 0 0 29.093 22.907" xml:space="preserve">
<path d="M14.201,22.908c-0.355,0-0.707-0.146-1.043-0.436l-4.933-3.923l-4.338,0.003c-1.059,0-1.987-0.823-2.112-1.875L0.014,1.978
	C-0.049,1.445,0.1,0.945,0.433,0.57C0.819,0.135,1.38-0.077,2.023,0.021l25.38,3.71c0.534,0.079,1.001,0.361,1.315,0.796
	c0.314,0.434,0.438,0.964,0.346,1.494l-1.663,9.713c-0.17,0.999-1.061,1.813-2.07,1.895l-10.214,0.823l0.299,2.818
	c0.091,0.606-0.113,1.004-0.303,1.223C14.886,22.756,14.553,22.908,14.201,22.908z M8.315,16.548c0.387,0,0.582,0.093,0.852,0.222
	l0.292,0.168l3.812,3.06l-0.197-1.859c-0.063-0.427,0.026-0.817,0.27-1.122c0.374-0.466,0.914-0.505,1.309-0.533l10.519-0.849
	c0.094-0.007,0.243-0.146,0.26-0.237l1.663-9.716L2.036,2.044L3.762,16.44c0.005,0.045,0.082,0.112,0.126,0.112L8.315,16.548z"/>
</svg>
