<?xml version="1.0" encoding="utf-8"?> <!-- Generator: IcoMoon.io --> <!DOCTYPE svg PUBLIC "-//W3C//DTD SVG 1.1//EN" "http://www.w3.org/Graphics/SVG/1.1/DTD/svg11.dtd"> <svg width="512" height="512" viewBox="0 0 512 512" xmlns="http://www.w3.org/2000/svg" xmlns:xlink="http://www.w3.org/1999/xlink" fill="#242424"><path d="M 208.00,464.00A48.00,48.00 12600.00 1 1 304.00,464A48.00,48.00 12600.00 1 1 208.00,464zM0.00,256.00A48.00,48.00 12600.00 1 1 96.00,256A48.00,48.00 12600.00 1 1 0.00,256zM 416.00,256.00A48.00,48.00 12600.00 1 1 512.00,256A48.00,48.00 12600.00 1 1 416.00,256zM 60.922,108.922A48.00,48.00 12600.00 1 1 156.922,108.92200000000003A48.00,48.00 12600.00 1 1 60.922,108.92200000000003zM 355.078,403.078A48.00,48.00 12600.00 1 1 451.078,403.078A48.00,48.00 12600.00 1 1 355.078,403.078zM 60.922,403.078A48.00,48.00 12600.00 1 1 156.922,403.078A48.00,48.00 12600.00 1 1 60.922,403.078zM 355.078,108.922A48.00,48.00 12600.00 1 1 451.078,108.92200000000003A48.00,48.00 12600.00 1 1 355.078,108.92200000000003z" ></path></svg>