<?xml version="1.0" encoding="utf-8"?> <!-- Generator: IcoMoon.io --> <!DOCTYPE svg PUBLIC "-//W3C//DTD SVG 1.1//EN" "http://www.w3.org/Graphics/SVG/1.1/DTD/svg11.dtd"> <svg width="512" height="512" viewBox="0 0 512 512" xmlns="http://www.w3.org/2000/svg" xmlns:xlink="http://www.w3.org/1999/xlink" fill="#242424"><path d="M 192.00,64.00A64.00,64.00 12600.00 1 1 320.00,64A64.00,64.00 12600.00 1 1 192.00,64zM 395.497,256.00A52.503,52.503 12600.00 1 1 500.503,256A52.503,52.503 12600.00 1 1 395.497,256zM 344.212,391.765A47.553,47.553 12600.00 1 1 439.318,391.765A47.553,47.553 12600.00 1 1 344.212,391.765zM 212.931,448.00A43.069,43.069 12600.00 1 1 299.069,448A43.069,43.069 12600.00 1 1 212.931,448zM 81.227,391.765A39.009,39.009 12600.00 1 1 159.245,391.765A39.009,39.009 12600.00 1 1 81.227,391.765zM 28.669,256.00A35.331,35.331 12600.00 1 1 99.331,256A35.331,35.331 12600.00 1 1 28.669,256zM 88.236,120.236A32.00,32.00 12600.00 1 1 152.236,120.23599999999999A32.00,32.00 12600.00 1 1 88.236,120.23599999999999zM 449.732,120.236c0.00,32.012-25.953,57.967-57.968,57.967c-32.012,0.00-57.968-25.955-57.968-57.967 c0.00-32.016, 25.956-57.967, 57.968-57.967C 423.779,62.269, 449.732,88.22, 449.732,120.236z" ></path></svg>