<?xml version="1.0" encoding="utf-8"?> <!-- Generator: IcoMoon.io --> <!DOCTYPE svg PUBLIC "-//W3C//DTD SVG 1.1//EN" "http://www.w3.org/Graphics/SVG/1.1/DTD/svg11.dtd"> <svg width="512" height="512" viewBox="0 0 512 512" xmlns="http://www.w3.org/2000/svg" xmlns:xlink="http://www.w3.org/1999/xlink" fill="#242424"><path d="M 256.00,0.00 C 356.223,0.00 442.978,57.601 485.008,141.496 L 370.504,198.748 C 349.489,156.801 306.111,128.00 256.00,128.00 C 205.889,128.00 162.511,156.801 141.496,198.748 L 26.992,141.496 C 69.022,57.601 155.778,0.00 256.00,0.00 ZM 382.74,358.502 C 371.524,372.361 358.059,384.36 342.831,393.963 C 316.853,410.342 286.827,419.00 256.00,419.00 C 225.173,419.00 195.147,410.342 169.169,393.962 C 153.941,384.359 140.475,372.36 129.259,358.501 L 76.468,384.896 C 93.077,408.00 114.055,427.793 138.341,443.106 C 173.508,465.279 214.194,477.00 256.00,477.00 C 297.807,477.00 338.492,465.279 373.658,443.107 C 397.944,427.793 418.923,408.001 435.531,384.897 L 382.74,358.502 Z M 370.504,313.252 L 370.504,313.252 L 485.008,370.504 C 442.978,454.398 356.223,512.00 256.00,512.00 C 155.778,512.00 69.022,454.398 26.992,370.504 L 141.496,313.252 C 162.511,355.199 205.889,384.00 256.00,384.00 C 306.111,384.00 349.489,355.199 370.504,313.252 Z" ></path></svg>