<?xml version="1.0" encoding="utf-8"?> <!-- Generator: IcoMoon.io --> <!DOCTYPE svg PUBLIC "-//W3C//DTD SVG 1.1//EN" "http://www.w3.org/Graphics/SVG/1.1/DTD/svg11.dtd"> <svg width="512" height="512" viewBox="0 0 512 512" xmlns="http://www.w3.org/2000/svg" xmlns:xlink="http://www.w3.org/1999/xlink" fill="#242424"><path d="M 256.00,0.00 C 356.223,0.00 442.978,57.601 485.008,141.496 L 370.504,198.748 C 349.489,156.801 306.111,128.00 256.00,128.00 C 205.889,128.00 162.511,156.801 141.496,198.748 L 26.992,141.496 C 69.022,57.601 155.778,0.00 256.00,0.00 ZM 370.504,313.252 L 485.008,370.504 C 442.978,454.398 356.223,512.00 256.00,512.00 C 155.778,512.00 69.022,454.398 26.992,370.504 L 141.496,313.252 C 162.511,355.199 205.889,384.00 256.00,384.00 C 306.111,384.00 349.489,355.199 370.504,313.252 Z" ></path></svg>