<?xml version="1.0" encoding="utf-8"?> <!-- Generator: IcoMoon.io --> <!DOCTYPE svg PUBLIC "-//W3C//DTD SVG 1.1//EN" "http://www.w3.org/Graphics/SVG/1.1/DTD/svg11.dtd"> <svg width="512" height="512" viewBox="0 0 512 512" xmlns="http://www.w3.org/2000/svg" xmlns:xlink="http://www.w3.org/1999/xlink" fill="#242424"><path d="M 160.00,32.00l0.00,36.948 L 76.192,80.726l 5.444,38.74L0.00,142.875L 105.845,512.00l 326.033-93.488l 17.87-2.512L 512.00,416.00 L 512.00,32.00 L 160.00,32.00 z M 125.728,476.13 L 35.87,162.759l 49.843-14.292l 43.922,312.522l 95.897-13.478L 125.728,476.13z M 154.316,428.235l-45.37-322.828L 160.00,98.233L 160.00,416.00 l 81.375,0.00 L 154.316,428.235z M 480.00,384.00L 192.00,384.00 L 192.00,64.00 l 288.00,0.00 L 480.00,384.00 zM 224.00,228.00L 448.00,228.00L 448.00,236.00L 224.00,236.00zM 224.00,244.00L 448.00,244.00L 448.00,252.00L 224.00,252.00zM 224.00,276.00L 448.00,276.00L 448.00,284.00L 224.00,284.00zM 224.00,260.00L 448.00,260.00L 448.00,268.00L 224.00,268.00zM 224.00,292.00L 448.00,292.00L 448.00,300.00L 224.00,300.00zM 224.00,340.00L 448.00,340.00L 448.00,348.00L 224.00,348.00zM 224.00,308.00L 448.00,308.00L 448.00,316.00L 224.00,316.00zM 224.00,324.00L 448.00,324.00L 448.00,332.00L 224.00,332.00zM 224.00,148.00L 448.00,148.00L 448.00,156.00L 224.00,156.00zM 224.00,116.00L 448.00,116.00L 448.00,124.00L 224.00,124.00zM 224.00,132.00L 448.00,132.00L 448.00,140.00L 224.00,140.00zM 224.00,100.00L 448.00,100.00L 448.00,108.00L 224.00,108.00zM 224.00,212.00L 448.00,212.00L 448.00,220.00L 224.00,220.00zM 224.00,196.00L 448.00,196.00L 448.00,204.00L 224.00,204.00zM 224.00,164.00L 448.00,164.00L 448.00,172.00L 224.00,172.00zM 224.00,180.00L 448.00,180.00L 448.00,188.00L 224.00,188.00z" ></path></svg>