<?xml version="1.0" encoding="utf-8"?> <!-- Generator: IcoMoon.io --> <!DOCTYPE svg PUBLIC "-//W3C//DTD SVG 1.1//EN" "http://www.w3.org/Graphics/SVG/1.1/DTD/svg11.dtd"> <svg width="512" height="512" viewBox="0 0 512 512" xmlns="http://www.w3.org/2000/svg" xmlns:xlink="http://www.w3.org/1999/xlink" fill="#242424"><path d="M 160.00,32.00l0.00,36.948 L 76.192,80.726l 5.444,38.74L0.00,142.875L 105.845,512.00l 326.033-93.488l 17.87-2.512L 512.00,416.00 L 512.00,32.00 L 160.00,32.00 z M 125.728,476.13 L 35.87,162.759l 49.843-14.292l 43.922,312.522l 95.897-13.479L 125.728,476.13z M 154.316,428.235l-45.37-322.828L 160.00,98.233L 160.00,416.00 l 81.375,0.00 L 154.316,428.235z M 480.00,384.00L 192.00,384.00 L 192.00,64.00 l 288.00,0.00 L 480.00,384.00 zM 445.631,173.315 C 447.161,177.586 448.00,183.082 448.00,190.00 C 448.00,270.00 336.00,270.00 336.00,350.00 C 336.00,270.00 224.00,270.00 224.00,190.00 C 224.00,183.083 224.838,177.587 226.369,173.316 C 233.599,148.30 252.654,130.00 280.00,130.00 C 302.238,130.00 325.636,149.108 336.00,167.082 C 346.364,149.108 369.762,130.00 392.00,130.00 C 419.345,130.00 438.40,148.30 445.631,173.315 Z" ></path></svg>