<?xml version="1.0" encoding="utf-8"?> <!-- Generator: IcoMoon.io --> <!DOCTYPE svg PUBLIC "-//W3C//DTD SVG 1.1//EN" "http://www.w3.org/Graphics/SVG/1.1/DTD/svg11.dtd"> <svg width="512" height="512" viewBox="0 0 512 512" xmlns="http://www.w3.org/2000/svg" xmlns:xlink="http://www.w3.org/1999/xlink" fill="#242424"><path d="M 440.00,128.00l-24.00,0.00 l0.00-24.00 c0.00-22.056-17.944-40.00-40.00-40.00l-24.00,0.00 L 352.00,40.00 c0.00-22.056-17.943-40.00-40.00-40.00l-240.00,0.00 c-22.056,0.00-40.00,17.944-40.00,40.00l0.00,304.00 c0.00,22.057, 17.944,40.00, 40.00,40.00l 24.00,0.00 l0.00,24.00 c0.00,22.057, 17.944,40.00, 40.00,40.00l 24.00,0.00 l0.00,24.00 c0.00,22.056, 17.944,40.00, 40.00,40.00l 240.00,0.00 c 22.056,0.00, 40.00-17.944, 40.00-40.00L 480.00,168.00 C 480.00,145.944, 462.056,128.00, 440.00,128.00z M 72.001,352.00c-4.40,0.00-8.00-3.60-8.00-8.00L 64.001,40.00 c0.00-4.40, 3.60-8.00, 8.00-8.00l 240.00,0.00 c 4.40,0.00, 8.00,3.60, 8.00,8.00l0.00,24.00 L 136.00,64.00 c-22.056,0.00-40.00,17.944-40.00,40.00l0.00,248.00 L 72.001,352.00 z M 136.00,416.00c-4.40,0.00-8.00-3.60-8.00-8.00L 128.00,104.00 c0.00-4.40, 3.60-8.00, 8.00-8.00l 240.00,0.00 c 4.40,0.00, 8.00,3.60, 8.00,8.00l0.00,24.00 L 200.00,128.00 c-22.056,0.00-40.00,17.944-40.00,40.00l0.00,248.00 L 136.00,416.00 z M 448.00,472.00c0.00,4.40-3.60,8.00-8.00,8.00L 200.00,480.00 c-4.40,0.00-8.00-3.60-8.00-8.00L 192.00,168.00 c0.00-4.40, 3.60-8.00, 8.00-8.00l 240.00,0.00 c 4.40,0.00, 8.00,3.60, 8.00,8.00L 448.00,472.00 z" ></path></svg>