<?xml version="1.0" encoding="utf-8"?>
<!-- Generator: IcoMoon.io -->
<!DOCTYPE svg PUBLIC "-//W3C//DTD SVG 1.1//EN" "http://www.w3.org/Graphics/SVG/1.1/DTD/svg11.dtd">
<svg xmlns="http://www.w3.org/2000/svg" xmlns:xlink="http://www.w3.org/1999/xlink" width="512" height="512" viewBox="0 0 512 512" fill="#fff"><path d="M 160.00,32.00l0.00,36.948 L 76.192,80.726l 5.444,38.74L0.00,142.875L 105.845,512.00l 326.033-93.488l 17.87-2.512L 512.00,416.00 L 512.00,32.00 L 160.00,32.00 z M 125.728,476.13 L 35.87,162.759l 49.843-14.292l 43.922,312.522l 95.897-13.479L 125.728,476.13z M 154.316,428.235l-45.37-322.828L 160.00,98.233L 160.00,416.00 l 81.375,0.00 L 154.316,428.235z M 192.00,384.00L 192.00,64.00 l 288.00,0.00 l0.00,80.00 l-22.628-22.626L 320.00,242.745l-73.373-57.372l-29.254,29.255L 320.00,333.255l 160.00-175.364L 480.00,384.00 L 192.00,384.00 z"/></svg>
