<?xml version="1.0" encoding="utf-8"?> <!-- Generator: IcoMoon.io --> <!DOCTYPE svg PUBLIC "-//W3C//DTD SVG 1.1//EN" "http://www.w3.org/Graphics/SVG/1.1/DTD/svg11.dtd"> <svg width="512" height="512" viewBox="0 0 512 512" xmlns="http://www.w3.org/2000/svg" xmlns:xlink="http://www.w3.org/1999/xlink" fill="#242424"><path d="M 512.00,416.00L 512.00,32.00 L 160.00,32.00 l0.00,36.948 L 76.192,80.726l 5.444,38.74L0.00,142.875L 105.845,512.00l 326.033-93.488l 17.87-2.512L 512.00,416.00 z M 192.00,64.00l 288.00,0.00 l0.00,320.00 L 192.00,384.00 L 192.00,64.00 z M 160.00,98.233L 160.00,416.00 l 81.375,0.00 l-87.058,12.235l-45.37-322.828L 160.00,98.233z M 125.728,476.13L 35.87,162.759l 49.843-14.292 l 43.922,312.522l 95.897-13.478L 125.728,476.13zM 208.00,224.00 L 336.00,96.00 L 464.00,224.00 L 384.00,224.00 L 384.00,320.00 L 288.00,320.00 L 288.00,224.00 Z" ></path></svg>