<?xml version="1.0" encoding="utf-8"?> <!-- Generator: IcoMoon.io --> <!DOCTYPE svg PUBLIC "-//W3C//DTD SVG 1.1//EN" "http://www.w3.org/Graphics/SVG/1.1/DTD/svg11.dtd"> <svg width="512" height="512" viewBox="0 0 512 512" xmlns="http://www.w3.org/2000/svg" xmlns:xlink="http://www.w3.org/1999/xlink" fill="#242424"><path d="M 512.00,160.00L 512.00,64.00L 160.00,64.00L 128.00,96.00L 128.00,160.00L 64.00,224.00L 64.00,320.00L0.00,384.00L0.00,480.00L 352.00,480.00L 384.00,448.00L 384.00,384.00L 32.00,384.00L 36.00,380.00L 390.863,380.00L 398.454,372.00L 44.00,372.00L 52.00,364.00L 406.046,364.00L 413.637,356.00L 60.00,356.00L 68.00,348.00L 421.228,348.00L 428.818,340.00L 76.00,340.00L 84.00,332.00L 436.409,332.00L 444.00,324.00L 92.00,324.00L 96.00,320.00L 448.00,320.00L 448.00,224.00L 96.00,224.00L 100.00,220.00L 452.764,220.00L 460.654,212.00L 108.00,212.00L 116.00,204.00L 468.546,204.00L 476.437,196.00L 124.00,196.00L 132.00,188.00L 484.327,188.00L 492.218,180.00L 140.00,180.00L 148.00,172.00L 500.109,172.00L 508.00,164.00L 156.00,164.00L 160.00,160.00 z" ></path></svg>