<?xml version="1.0" encoding="utf-8"?> <!-- Generator: IcoMoon.io --> <!DOCTYPE svg PUBLIC "-//W3C//DTD SVG 1.1//EN" "http://www.w3.org/Graphics/SVG/1.1/DTD/svg11.dtd"> <svg width="512" height="512" viewBox="0 0 512 512" xmlns="http://www.w3.org/2000/svg" xmlns:xlink="http://www.w3.org/1999/xlink" fill="#242424"><path d="M 256.00,109.563l 30.00,92.329l 7.185,22.111l 23.249,0.00 l 97.081,0.00 l-78.541,57.063l-18.809,13.666l 7.185,22.111l 29.999,92.329 l-78.539-57.062L 256.00,338.446l-18.809,13.665l-78.54,57.062l 30.00-92.329l 7.184-22.111l-18.809-13.666l-78.541-57.063l 97.082,0.00 l 23.25,0.00 L 226.00,201.893L 256.00,109.563 M 256.00,6.009l-60.433,185.995L0.00,192.004 l 158.217,114.952L 97.783,492.951L 256.00,378.00l 158.216,114.95l-60.433-185.994 L 512.00,192.004L 316.434,192.004 L 256.00,6.009L 256.00,6.009z" ></path></svg>