<?xml version="1.0" encoding="utf-8"?> <!-- Generator: IcoMoon.io --> <!DOCTYPE svg PUBLIC "-//W3C//DTD SVG 1.1//EN" "http://www.w3.org/Graphics/SVG/1.1/DTD/svg11.dtd"> <svg width="512" height="512" viewBox="0 0 512 512" xmlns="http://www.w3.org/2000/svg" xmlns:xlink="http://www.w3.org/1999/xlink" fill="#242424"><path d="M 488.00,96.00c 13.20,0.00, 24.00-10.80, 24.00-24.00L 512.00,24.00 c0.00-13.20-10.80-24.00-24.00-24.00l-48.00,0.00 c-13.20,0.00-24.00,10.80-24.00,24.00l0.00,8.00 L 96.00,32.00 l0.00-8.00 C 96.00,10.80, 85.20,0.00, 72.00,0.00L 24.00,0.00 C 10.80,0.00,0.00,10.80,0.00,24.00l0.00,48.00 c0.00,13.20, 10.80,24.00, 24.00,24.00l 8.00,0.00 l0.00,320.00 l-8.00,0.00 c-13.20,0.00-24.00,10.80-24.00,24.00l0.00,48.00 c0.00,13.20, 10.80,24.00, 24.00,24.00l 48.00,0.00 c 13.20,0.00, 24.00-10.80, 24.00-24.00l0.00-8.00 l 320.00,0.00 l0.00,8.00 c0.00,13.20, 10.80,24.00, 24.00,24.00l 48.00,0.00 c 13.20,0.00, 24.00-10.80, 24.00-24.00l0.00-48.00 c0.00-13.20-10.80-24.00-24.00-24.00l-8.00,0.00 L 480.00,96.00 L 488.00,96.00 z M 448.00,32.00l 32.00,0.00 l0.00,32.00 l-32.00,0.00 L 448.00,32.00 z M 32.00,32.00l 32.00,0.00 l0.00,32.00 L 32.00,64.00 L 32.00,32.00 z M 64.00,480.00L 32.00,480.00 l0.00-32.00 l 32.00,0.00 L 64.00,480.00 z M 480.00,480.00l-32.00,0.00 l0.00-32.00 l 32.00,0.00 L 480.00,480.00 z M 448.00,416.00l-8.00,0.00 c-13.20,0.00-24.00,10.80-24.00,24.00l0.00,8.00 L 96.00,448.00 l0.00-8.00 c0.00-13.20-10.80-24.00-24.00-24.00l-8.00,0.00 L 64.00,96.00 l 8.00,0.00 c 13.20,0.00, 24.00-10.80, 24.00-24.00l0.00-8.00 l 320.00,0.00 l0.00,8.00 c0.00,13.20, 10.80,24.00, 24.00,24.00l 8.00,0.00 L 448.00,416.00 zM 128.00,128.00L 192.00,128.00L 192.00,384.00L 128.00,384.00zM 224.00,256.00L 288.00,256.00L 288.00,384.00L 224.00,384.00zM 320.00,192.00L 384.00,192.00L 384.00,384.00L 320.00,384.00z" ></path></svg>