<?xml version="1.0" encoding="utf-8"?> <!-- Generator: IcoMoon.io --> <!DOCTYPE svg PUBLIC "-//W3C//DTD SVG 1.1//EN" "http://www.w3.org/Graphics/SVG/1.1/DTD/svg11.dtd"> <svg width="512" height="512" viewBox="0 0 512 512" xmlns="http://www.w3.org/2000/svg" xmlns:xlink="http://www.w3.org/1999/xlink" fill="#242424"><path d="M 401.006,116.918c 61.533,44.385, 67.586,183.594, 79.691,225.961l-114.557,45.395 c-11.668-76.665-110.396-134.165-114.432-218.90C 247.674,84.638, 339.471,72.533, 401.006,116.918zM 470.609,506.298c-91.45,33.253-96.841-89.779-96.841-89.779l 119.033-48.42 C 492.802,368.099, 548.283,478.053, 470.609,506.298zM 1.074,95.524C 13.20,20.628, 86.67-35.723, 143.735,27.047c 57.061,62.77, 27.905,173.24, 73.867,235.695l-113.099,48.91 C 83.10,273.135-11.054,170.42, 1.074,95.524zM 227.187,420.078c-74.894,34.951-113.415-82.033-113.415-82.033l 118.411-49.934 C 232.183,288.111, 315.365,378.924, 227.187,420.078z" ></path></svg>