<?xml version="1.0" encoding="utf-8"?> <!-- Generator: IcoMoon.io --> <!DOCTYPE svg PUBLIC "-//W3C//DTD SVG 1.1//EN" "http://www.w3.org/Graphics/SVG/1.1/DTD/svg11.dtd"> <svg width="512" height="512" viewBox="0 0 512 512" xmlns="http://www.w3.org/2000/svg" xmlns:xlink="http://www.w3.org/1999/xlink" fill="#242424"><path d="M 97.009,416.00l 28.80-96.00l 132.382,0.00 l 28.80,96.00l 56.817,0.00 l-96.00-320.00L 136.191,96.00 l-96.00,320.00L 97.009,416.00 z M 173.809,160.00l 36.382,0.00 l 28.80,96.00l-93.982,0.00 L 173.809,160.00zM 422.00,416.00 C 453.90,416.00 480.00,437.60 480.00,464.00 C 480.00,490.40 453.90,512.00 422.00,512.00 L 410.00,512.00 C 384.872,512.00 363.354,498.594 355.345,480.00 L 422.00,480.00 C 436.643,480.00 448.00,471.398 448.00,464.00 C 448.00,456.602 436.643,448.00 422.00,448.00 L 410.00,448.00 C 378.10,448.00 352.00,426.40 352.00,400.00 C 352.00,373.60 378.10,352.00 410.00,352.00 L 422.00,352.00 C 447.128,352.00 468.646,365.406 476.655,384.00 L 410.00,384.00 C 395.357,384.00 384.00,392.602 384.00,400.00 C 384.00,407.398 395.357,416.00 410.00,416.00 L 422.00,416.00 ZM 512.00,96.00L 432.00,224.00L 352.00,96.00 z" ></path></svg>