<?xml version="1.0" encoding="utf-8"?> <!-- Generator: IcoMoon.io --> <!DOCTYPE svg PUBLIC "-//W3C//DTD SVG 1.1//EN" "http://www.w3.org/Graphics/SVG/1.1/DTD/svg11.dtd"> <svg width="512" height="512" viewBox="0 0 512 512" xmlns="http://www.w3.org/2000/svg" xmlns:xlink="http://www.w3.org/1999/xlink" fill="#242424"><path d="M 352.00,160.00L 352.00,0.00 L0.00,0.00 l0.00,352.00 l 160.00,0.00 l0.00,160.00 l 352.00,0.00 L 512.00,160.00 L 352.00,160.00 z M 288.00,128.00L 128.00,128.00 l0.00,4.00 L 64.00,132.00 l0.00-8.00 l 224.00,0.00 L 288.00,128.00 z M 64.00,288.00l0.00-4.00 l 64.00,0.00 l0.00,4.00 L 64.00,288.00 z M 64.00,276.00l0.00-8.00 l 64.00,0.00 l0.00,8.00 L 64.00,276.00 z M 64.00,260.00l0.00-8.00 l 64.00,0.00 l0.00,8.00 L 64.00,260.00 z M 64.00,244.00l0.00-8.00 l 64.00,0.00 l0.00,8.00 L 64.00,244.00 z M 64.00,228.00l0.00-8.00 l 64.00,0.00 l0.00,8.00 L 64.00,228.00 z M 64.00,212.00l0.00-8.00 l 64.00,0.00 l0.00,8.00 L 64.00,212.00 z M 64.00,196.00l0.00-8.00 l 64.00,0.00 l0.00,8.00 L 64.00,196.00 z M 64.00,180.00l0.00-8.00 l 64.00,0.00 l0.00,8.00 L 64.00,180.00 z M 64.00,164.00l0.00-8.00 l 64.00,0.00 l0.00,8.00 L 64.00,164.00 z M 64.00,148.00l0.00-8.00 l 64.00,0.00 l0.00,8.00 L 64.00,148.00 z M 288.00,116.00L 64.00,116.00 l0.00-8.00 l 224.00,0.00 L 288.00,116.00 z M 288.00,100.00L 64.00,100.00 l0.00-8.00 l 224.00,0.00 L 288.00,100.00 z M 288.00,84.00L 64.00,84.00 l0.00-8.00 l 224.00,0.00 L 288.00,84.00 z M 288.00,68.00L 64.00,68.00 l0.00-4.00 l 224.00,0.00 L 288.00,68.00 z M 480.00,480.00 L 192.00,480.00 L 192.00,192.00 l 288.00,0.00 L 480.00,480.00 z" ></path></svg>