<?xml version="1.0" encoding="utf-8"?> <!-- Generator: IcoMoon.io --> <!DOCTYPE svg PUBLIC "-//W3C//DTD SVG 1.1//EN" "http://www.w3.org/Graphics/SVG/1.1/DTD/svg11.dtd"> <svg width="512" height="512" viewBox="0 0 512 512" xmlns="http://www.w3.org/2000/svg" xmlns:xlink="http://www.w3.org/1999/xlink" fill="#242424"><path d="M 510.33,173.193c-31.538-3.68-77.793-5.78-96.188-5.78c-18.399,0.00-78.318,2.103-95.665,10.51 c-17.224,8.352-34.455,20.322-62.479,20.492c-28.023-0.17-45.26-12.141-62.481-20.491c-17.346-8.406-77.266-10.51-95.662-10.51 c-18.397,0.00-64.65,2.102-96.188,5.779c0.00,0.00-3.753,29.049,0.00,38.368c 16.208,9.591, 17.098,54.853, 31.176,93.845 c 14.079,38.987, 79.877,38.987, 94.50,38.987c 14.624,0.00, 50.787,2.41, 68.427-9.761c 17.64-12.171, 32.963-71.558, 37.17-88.903 c 3.576-14.755, 18.181-15.435, 22.462-15.31c0.00,0.043,0.00,0.067,0.00,0.067s 0.219-0.022, 0.599-0.044c 0.378,0.021, 0.596,0.044, 0.596,0.044 s0.00-0.024,0.00-0.067c 4.283-0.125, 18.885,0.555, 22.463,15.31c 4.203,17.348, 19.528,76.733, 37.17,88.903 c 17.639,12.171, 53.804,9.761, 68.425,9.761c 14.623,0.00, 80.421,0.00, 94.503-38.987c 14.079-38.992, 14.965-84.253, 31.177-93.845 C 514.085,202.241, 510.33,173.193, 510.33,173.193z" ></path></svg>