<?xml version="1.0" encoding="utf-8"?> <!-- Generator: IcoMoon.io --> <!DOCTYPE svg PUBLIC "-//W3C//DTD SVG 1.1//EN" "http://www.w3.org/Graphics/SVG/1.1/DTD/svg11.dtd"> <svg width="512" height="512" viewBox="0 0 512 512" xmlns="http://www.w3.org/2000/svg" xmlns:xlink="http://www.w3.org/1999/xlink" fill="#242424"><path d="M 459.975,256.00l 45.606-56.965l-65.807-31.536l 16.375-71.112l-72.974,0.14l-16.102-71.174L 301.389,57.14L 256.00,0.00l-45.389,57.14 l-65.686-31.788l-16.102,71.174l-72.973-0.14l 16.374,71.112L 6.419,199.035L 52.026,256.00L 6.419,312.965l 65.807,31.536l-16.374,71.112 l 72.973-0.14l 16.102,71.175l 65.686-31.788L 256.00,512.00l 45.389-57.14l 65.686,31.788l 16.102-71.175l 72.974,0.14l-16.375-71.112 l 65.807-31.536L 459.975,256.00z M 256.00,420.50c-87.765,0.00-158.913-73.649-158.913-164.50c0.00-90.851, 71.148-164.50, 158.913-164.50 c 87.766,0.00, 158.913,73.649, 158.913,164.50C 414.913,346.851, 343.766,420.50, 256.00,420.50zM 128.00,256.00A128.00,128.00 4680.00 1 1 384.00,256A128.00,128.00 4680.00 1 1 128.00,256z" ></path></svg>