<?xml version="1.0" encoding="utf-8"?> <!-- Generator: IcoMoon.io --> <!DOCTYPE svg PUBLIC "-//W3C//DTD SVG 1.1//EN" "http://www.w3.org/Graphics/SVG/1.1/DTD/svg11.dtd"> <svg width="512" height="512" viewBox="0 0 512 512" xmlns="http://www.w3.org/2000/svg" xmlns:xlink="http://www.w3.org/1999/xlink" fill="#242424"><path d="M 97.009,416.00l 28.80-96.00l 132.382,0.00 l 28.80,96.00l 56.817,0.00 l-96.00-320.00L 136.191,96.00 l-96.00,320.00L 97.009,416.00 z M 173.809,160.00l 36.382,0.00 l 28.80,96.00l-93.982,0.00 L 173.809,160.00zM 422.00,64.00 C 453.90,64.00 480.00,85.60 480.00,112.00 C 480.00,138.40 453.90,160.00 422.00,160.00 L 410.00,160.00 C 384.872,160.00 363.354,146.594 355.345,128.00 L 422.00,128.00 C 436.643,128.00 448.00,119.399 448.00,112.00 C 448.00,104.601 436.643,96.00 422.00,96.00 L 410.00,96.00 C 378.10,96.00 352.00,74.40 352.00,48.00 C 352.00,21.60 378.10,0.00 410.00,0.00 L 422.00,0.00 C 447.128,0.00 468.646,13.406 476.655,32.00 L 410.00,32.00 C 395.357,32.00 384.00,40.601 384.00,48.00 C 384.00,55.399 395.357,64.00 410.00,64.00 L 422.00,64.00 ZM 352.00,416.00L 432.00,288.00L 512.00,416.00 z" ></path></svg>