<?xml version="1.0" encoding="utf-8"?> <!-- Generator: IcoMoon.io --> <!DOCTYPE svg PUBLIC "-//W3C//DTD SVG 1.1//EN" "http://www.w3.org/Graphics/SVG/1.1/DTD/svg11.dtd"> <svg width="512" height="512" viewBox="0 0 512 512" xmlns="http://www.w3.org/2000/svg" xmlns:xlink="http://www.w3.org/1999/xlink" fill="#242424"><path d="M 500.32,243.716L 380.744,124.284C 365.168,108.728, 334.403,96.00, 312.377,96.00L 40.048,96.00 C 18.022,96.00,0.00,114.00,0.00,136.00l0.00,272.00 c0.00,22.00, 18.022,40.00, 40.048,40.00l 272.329,0.00 c 22.026,0.00, 52.791-12.728, 68.367-28.284L 500.32,300.284 C 515.896,284.728, 515.896,259.272, 500.32,243.716z M 368.00,320.00c-26.51,0.00-48.00-21.49-48.00-48.00s 21.49-48.00, 48.00-48.00s 48.00,21.49, 48.00,48.00 S 394.51,320.00, 368.00,320.00z" ></path></svg>