<?xml version="1.0" encoding="utf-8"?> <!-- Generator: IcoMoon.io --> <!DOCTYPE svg PUBLIC "-//W3C//DTD SVG 1.1//EN" "http://www.w3.org/Graphics/SVG/1.1/DTD/svg11.dtd"> <svg width="512" height="512" viewBox="0 0 512 512" xmlns="http://www.w3.org/2000/svg" xmlns:xlink="http://www.w3.org/1999/xlink" fill="#242424"><path d="M 312.279,160.00 L 64.00,160.00 L 64.00,384.00 L 312.28,384.00 C 318.076,383.738 331.297,378.271 335.588,374.362 L 438.074,272.00 L 335.589,169.639 C 331.297,165.729 318.076,160.262 312.279,160.00 Z M 312.377,96.00 L 312.377,96.00 C 334.403,96.00 365.168,108.728 380.744,124.284 L 500.32,243.716 C 515.895,259.272 515.895,284.727 500.32,300.284 L 380.744,419.716 C 365.168,435.272 334.403,448.00 312.377,448.00 L 40.048,448.00 C 18.022,448.00 0.00,430.00 0.00,408.00 L 0.00,136.00 C 0.00,114.00 18.022,96.00 40.048,96.00 L 312.377,96.00 ZM 256.00,272.00A48.00,48.00 2520.00 1 1 352.00,272A48.00,48.00 2520.00 1 1 256.00,272z" ></path></svg>