<?xml version="1.0" encoding="utf-8"?> <!-- Generator: IcoMoon.io --> <!DOCTYPE svg PUBLIC "-//W3C//DTD SVG 1.1//EN" "http://www.w3.org/Graphics/SVG/1.1/DTD/svg11.dtd"> <svg width="512" height="512" viewBox="0 0 512 512" xmlns="http://www.w3.org/2000/svg" xmlns:xlink="http://www.w3.org/1999/xlink" fill="#242424"><path d="M 312.377,128.00 L 40.048,128.00 C 35.686,128.00 32.00,131.664 32.00,136.00 L 32.00,408.00 C 32.00,412.336 35.685,416.00 40.048,416.00 L 312.377,416.00 C 325.904,416.00 348.567,406.626 358.131,397.074 L 477.707,277.643 C 479.703,275.648 480.002,273.251 480.002,272.00 C 480.002,270.749 479.703,268.351 477.706,266.356 L 358.131,146.925 C 348.567,137.375 325.904,128.00 312.377,128.00 Z M 312.377,96.00 L 312.377,96.00 C 334.403,96.00 365.168,108.728 380.744,124.284 L 500.32,243.716 C 515.895,259.272 515.895,284.727 500.32,300.284 L 380.744,419.716 C 365.168,435.272 334.403,448.00 312.377,448.00 L 40.048,448.00 C 18.022,448.00 0.00,430.00 0.00,408.00 L 0.00,136.00 C 0.00,114.00 18.022,96.00 40.048,96.00 L 312.377,96.00 ZM 288.00,272.00A48.00,48.00 2520.00 1 1 384.00,272A48.00,48.00 2520.00 1 1 288.00,272z" ></path></svg>