<?xml version="1.0" encoding="utf-8"?> <!-- Generator: IcoMoon.io --> <!DOCTYPE svg PUBLIC "-//W3C//DTD SVG 1.1//EN" "http://www.w3.org/Graphics/SVG/1.1/DTD/svg11.dtd"> <svg width="512" height="512" viewBox="0 0 512 512" xmlns="http://www.w3.org/2000/svg" xmlns:xlink="http://www.w3.org/1999/xlink" fill="#242424"><path d="M 447.875,64.126 L 319.625,64.126 C 316.777,64.126 309.256,65.487 300.207,69.235 C 291.16,72.983 284.881,77.338 282.867,79.351 L 70.707,291.511 L 220.49,441.293 L 432.649,229.134 C 434.662,227.12 439.018,220.841 442.766,211.792 C 446.516,202.743 447.875,195.223 447.875,192.376 L 447.875,64.125 Z M 463.906,0.00 L 463.906,0.00 C 490.357,0.00 512.00,21.643 512.00,48.094 L 512.00,192.376 C 512.00,218.827 496.697,255.772 477.993,274.478 L 254.498,497.972 C 245.146,507.324 232.817,512.00 220.49,512.00 C 208.163,512.00 195.835,507.325 186.483,497.972 L 14.028,325.519 C -4.676,306.815 -4.676,276.207 14.028,257.503 L 237.523,34.008 C 256.227,15.304 293.172,0.00 319.625,0.00 L 463.906,0.00 ZM 320.00,144.00A48.00,48.00 2520.00 1 1 416.00,144A48.00,48.00 2520.00 1 1 320.00,144z" ></path></svg>