<?xml version="1.0" encoding="utf-8"?> <!-- Generator: IcoMoon.io --> <!DOCTYPE svg PUBLIC "-//W3C//DTD SVG 1.1//EN" "http://www.w3.org/Graphics/SVG/1.1/DTD/svg11.dtd"> <svg width="544" height="512" viewBox="0 0 544 512" xmlns="http://www.w3.org/2000/svg" xmlns:xlink="http://www.w3.org/1999/xlink" fill="#242424"><path d="M 480.00,96.00 L 384.00,96.00 C 381.158,96.00 373.652,97.357 364.621,101.098 C 355.59,104.839 349.322,109.187 347.312,111.196 L 170.509,288.00 L 288.00,405.49 L 464.803,228.686 C 466.813,226.677 471.161,220.409 474.901,211.378 C 478.643,202.348 480.00,194.842 480.00,192.00 L 480.00,96.00 Z M 496.00,32.00 L 496.00,32.00 C 522.40,32.00 544.00,53.60 544.00,80.00 L 544.00,192.00 C 544.00,218.40 528.727,255.273 510.058,273.941 L 321.941,462.058 C 312.607,471.392 300.304,476.059 288.00,476.059 C 275.696,476.059 263.392,471.392 254.059,462.058 L 113.941,321.941 C 95.274,303.273 95.274,272.726 113.941,254.059 L 302.059,65.941 C 320.727,47.273 357.60,32.00 384.00,32.00 L 496.00,32.00 ZM 43.313,299.313 L 214.502,470.502 C 196.37,480.082 173.271,477.271 158.059,462.058 L 17.941,321.941 C -0.726,303.273 -0.726,272.726 17.941,254.059 L 206.059,65.941 C 224.727,47.273 261.60,32.00 288.00,32.00 L 43.313,276.686 C 37.091,282.909 37.091,293.09 43.313,299.313 ZM 384.00,160.00A32.00,32.00 2520.00 1 1 448.00,160A32.00,32.00 2520.00 1 1 384.00,160z" ></path></svg>