<?xml version="1.0" encoding="utf-8"?> <!-- Generator: IcoMoon.io --> <!DOCTYPE svg PUBLIC "-//W3C//DTD SVG 1.1//EN" "http://www.w3.org/Graphics/SVG/1.1/DTD/svg11.dtd"> <svg width="512" height="512" viewBox="0 0 512 512" xmlns="http://www.w3.org/2000/svg" xmlns:xlink="http://www.w3.org/1999/xlink" fill="#242424"><path d="M 256.00,0.00C 114.844,0.00,0.00,114.838,0.00,256.001C0.00,397.162, 114.844,512.00, 256.00,512.00c 141.155,0.00, 256.00-114.838, 256.00-255.999 C 512.00,114.838, 397.156,0.00, 256.00,0.00z M 256.00,455.111c-109.789,0.00-199.11-89.323-199.11-199.11c0.00-109.79, 89.322-199.112, 199.11-199.112 s 199.11,89.322, 199.11,199.112C 455.113,365.788, 365.788,455.111, 256.00,455.111zM 256.00,113.777c-78.422,0.00-142.224,63.801-142.224,142.224c0.00,78.421, 63.801,142.224, 142.224,142.224 s 142.223-63.803, 142.223-142.224C 398.223,177.578, 334.423,113.777, 256.00,113.777z M 256.00,341.334 c-47.058,0.00-85.334-38.277-85.334-85.333c0.00-47.058, 38.276-85.335, 85.334-85.335c 47.056,0.00, 85.335,38.277, 85.335,85.335 C 341.335,303.057, 303.056,341.334, 256.00,341.334zM 224.00,256.00A32.00,32.00 12600.00 1 1 288.00,256A32.00,32.00 12600.00 1 1 224.00,256z" ></path></svg>