<?xml version="1.0" encoding="utf-8"?> <!-- Generator: IcoMoon.io --> <!DOCTYPE svg PUBLIC "-//W3C//DTD SVG 1.1//EN" "http://www.w3.org/Graphics/SVG/1.1/DTD/svg11.dtd"> <svg width="512" height="512" viewBox="0 0 512 512" xmlns="http://www.w3.org/2000/svg" xmlns:xlink="http://www.w3.org/1999/xlink" fill="#242424"><path d="M 256.00,0.00C 114.615,0.00,0.00,114.615,0.00,256.00s 114.615,256.00, 256.00,256.00s 256.00-114.615, 256.00-256.00S 397.385,0.00, 256.00,0.00z M 391.765,391.765 C 363.16,420.369, 327.117,438.826, 288.00,445.352L 288.00,352.00 l-64.00,0.00 l0.00,93.352 c-39.117-6.525-75.16-24.982-103.765-53.587 C 91.632,363.16, 73.174,327.117, 66.649,288.00L 160.00,288.00 l0.00-64.00 L 66.649,224.00 c 6.525-39.117, 24.983-75.16, 53.587-103.765 C 148.84,91.631, 184.883,73.174, 224.00,66.648L 224.00,160.00 l 64.00,0.00 L 288.00,66.648 c 39.117,6.525, 75.16,24.983, 103.765,53.587 c 28.604,28.604, 47.062,64.647, 53.587,103.765L 352.00,224.00 l0.00,64.00 l 93.352,0.00 C 438.826,327.117, 420.369,363.16, 391.765,391.765z" ></path></svg>