<?xml version="1.0" encoding="utf-8"?> <!-- Generator: IcoMoon.io --> <!DOCTYPE svg PUBLIC "-//W3C//DTD SVG 1.1//EN" "http://www.w3.org/Graphics/SVG/1.1/DTD/svg11.dtd"> <svg width="512" height="512" viewBox="0 0 512 512" xmlns="http://www.w3.org/2000/svg" xmlns:xlink="http://www.w3.org/1999/xlink" fill="#242424"><path d="M 192.00,360.564L 192.00,64.00 c0.00-17.673-14.326-32.00-32.00-32.00c-17.673,0.00-32.00,14.327-32.00,32.00l0.00,296.564 C 108.871,371.631, 96.00,392.313, 96.00,416.00 c0.00,35.347, 28.653,64.00, 64.00,64.00s 64.00-28.653, 64.00-64.00C 224.00,392.313, 211.13,371.631, 192.00,360.564zM 256.00,64.00L 416.00,64.00L 416.00,96.00L 256.00,96.00zM 256.00,160.00L 416.00,160.00L 416.00,192.00L 256.00,192.00zM 256.00,256.00L 416.00,256.00L 416.00,288.00L 256.00,288.00z" ></path></svg>