<?xml version="1.0" encoding="utf-8"?> <!-- Generator: IcoMoon.io --> <!DOCTYPE svg PUBLIC "-//W3C//DTD SVG 1.1//EN" "http://www.w3.org/Graphics/SVG/1.1/DTD/svg11.dtd"> <svg width="512" height="512" viewBox="0 0 512 512" xmlns="http://www.w3.org/2000/svg" xmlns:xlink="http://www.w3.org/1999/xlink" fill="#242424"><path d="M 288.00,345.859L 288.00,160.00 c0.00-17.673-14.326-32.00-32.00-32.00c-17.673,0.00-32.00,14.327-32.00,32.00l0.00,185.859 c-10.869,9.131-17.78,22.822-17.78,38.129 c0.00,27.492, 22.287,49.779, 49.78,49.779c 27.494,0.00, 49.779-22.287, 49.779-49.779C 305.781,368.682, 298.869,354.99, 288.00,345.859zM 352.00,299.316L 352.00,102.40 c0.00-56.32-43.199-102.40-96.00-102.40c-52.80,0.00-96.00,46.08-96.00,102.40l0.00,196.917 c-19.919,22.565-32.014,52.205-32.014,84.672C 127.988,454.688, 185.302,512.00, 256.001,512.00c 70.699,0.00, 128.013-57.313, 128.013-128.012 C 384.014,351.521, 371.92,321.883, 352.00,299.316z M 256.001,480.00c-53.026,0.00-96.014-42.986-96.014-96.012 c0.00-28.438, 12.367-53.982, 32.014-71.564L 192.001,102.40 c0.00-19.079, 6.94-36.99, 19.546-50.435C 223.617,39.091, 239.404,32.00, 256.001,32.00 c 16.595,0.00, 32.384,7.091, 44.455,19.966C 313.061,65.41, 320.00,83.321, 320.00,102.40l0.00,210.023 c 19.646,17.582, 32.014,43.127, 32.014,71.563 C 352.014,437.014, 309.028,480.00, 256.001,480.00z" ></path></svg>