<?xml version="1.0" encoding="utf-8"?> <!-- Generator: IcoMoon.io --> <!DOCTYPE svg PUBLIC "-//W3C//DTD SVG 1.1//EN" "http://www.w3.org/Graphics/SVG/1.1/DTD/svg11.dtd"> <svg width="512" height="512" viewBox="0 0 512 512" xmlns="http://www.w3.org/2000/svg" xmlns:xlink="http://www.w3.org/1999/xlink" fill="#242424"><path d="M 496.00,336.00c0.00-16.458-8.978-30.977-22.654-39.624C 477.568,289.23, 480.00,280.90, 480.00,272.00c0.00-26.51-21.49-48.00-48.00-48.00l-93.904,0.00 C 349.324,183.545, 355.00,141.704, 355.00,99.00c0.00-36.944-30.056-67.00-67.00-67.00c-36.943,0.00-67.00,30.056-67.00,67.00c0.00,51.986-19.361,91.975-57.545,118.855 c-10.50,7.392-22.371,13.743-35.455,19.033L 128.00,192.00 L0.00,192.00 l0.00,320.00 l 128.00,0.00 l0.00-31.499 c 29.945,1.966, 44.484,9.461, 58.595,16.747 C 200.639,504.501, 215.161,512.00, 240.00,512.00l 80.00,0.00 l 80.00,0.00 c 26.51,0.00, 48.00-21.49, 48.00-48.00c0.00-6.249-1.207-12.213-3.38-17.688 C 465.005,440.769, 480.00,422.141, 480.00,400.00c0.00-8.90-2.432-17.23-6.654-24.376C 487.022,366.977, 496.00,352.458, 496.00,336.00z M 336.00,256.00l 96.00,0.00 c 8.822,0.00, 16.00,7.178, 16.00,16.00s-7.178,16.00-16.00,16.00l-96.00,0.00 c-8.822,0.00-16.00-7.178-16.00-16.00S 327.178,256.00, 336.00,256.00z M 278.545,359.312 C 265.008,367.799, 256.00,382.844, 256.00,400.00c0.00,17.00, 8.846,31.925, 22.177,40.453C 274.251,447.411, 272.00,455.44, 272.00,464.00 c0.00,5.611, 0.973,10.994, 2.742,16.00L 240.00,480.00 c-17.064,0.00-26.149-4.691-38.723-11.185c-15.874-8.196-35.193-18.16-73.277-20.364L 128.00,277.34 c 21.468-7.214, 40.714-16.715, 57.329-28.412C 233.525,215.00, 259.00,163.156, 259.00,99.00c0.00-15.991, 13.01-29.00, 29.00-29.00s 29.00,13.009, 29.00,29.00 c0.00,42.83-6.207,84.706-18.48,125.00c-3.33,12.37-6.47,24.614-8.438,33.995c-1.271,4.17-1.98,8.582-2.061,13.147 c-0.015,0.301-0.021,0.59-0.021,0.855c0.00,8.90, 2.432,17.229, 6.654,24.376C 280.979,305.023, 272.00,319.542, 272.00,336.00 C 272.00,344.462, 274.381,352.408, 278.545,359.312z M 400.00,480.00l-80.00,0.00 c-8.822,0.00-16.00-7.178-16.00-16.00s 7.178-16.00, 16.00-16.00l 80.00,0.00 c 8.822,0.00, 16.00,7.178, 16.00,16.00 S 408.822,480.00, 400.00,480.00z M 432.00,416.00L 304.00,416.00 c-8.822,0.00-16.00-7.178-16.00-16.00s 7.178-16.00, 16.00-16.00l 128.00,0.00 c 8.822,0.00, 16.00,7.178, 16.00,16.00S 440.822,416.00, 432.00,416.00z M 444.00,352.00L 324.00,352.00 c-10.841,0.00-20.00-7.327-20.00-16.00s 9.159-16.00, 20.00-16.00l 120.00,0.00 c 10.841,0.00, 20.00,7.327, 20.00,16.00S 454.841,352.00, 444.00,352.00z M 64.00,464.00 c0.00,8.837-7.164,16.00-16.00,16.00s-16.00-7.163-16.00-16.00s 7.164-16.00, 16.00-16.00S 64.00,455.163, 64.00,464.00z" ></path></svg>