<?xml version="1.0" encoding="utf-8"?>
<!-- Generator: IcoMoon.io -->
<!DOCTYPE svg PUBLIC "-//W3C//DTD SVG 1.1//EN" "http://www.w3.org/Graphics/SVG/1.1/DTD/svg11.dtd">
<svg xmlns="http://www.w3.org/2000/svg" xmlns:xlink="http://www.w3.org/1999/xlink" width="640" height="512" viewBox="0 0 640 512" fill="#666"><path d="M 246.278,352.277 L 319.723,425.722 L 261.385,500.634 C 250.694,514.615 231.764,515.871 219.319,503.427 L 168.574,452.681 C 156.129,440.237 157.386,421.307 171.366,410.616 L 246.278,352.277 ZM 636.756,131.246L 560.00,208.001l-96.00-96.00l 76.756-76.755c-9.244-2.122-18.869-3.245-28.756-3.245c-70.692,0.00-128.00,57.308-128.00,128.00 c0.00,25.498, 7.458,49.253, 20.309,69.208l-71.454,55.646L 224.00,176.001l 144.00-144.00L 208.00,32.001 l-71.029,71.029l-7.03-7.029L 96.00,96.001 l0.00,33.941 l 7.029,7.029 L0.00,240.001l 80.00,80.00l 96.00-96.00l 169.116,169.115L 464.00,511.999l 48.00-47.998L 387.146,339.146l 55.646-71.454 c 19.954,12.851, 43.71,20.309, 69.208,20.309c 70.692,0.00, 128.00-57.308, 128.00-128.00C 640.00,150.114, 638.877,140.489, 636.756,131.246z"/></svg>
