<?xml version="1.0" encoding="utf-8"?>
<!-- Generator: Adobe Illustrator 17.0.0, SVG Export Plug-In . SVG Version: 6.00 Build 0)  -->
<!DOCTYPE svg PUBLIC "-//W3C//DTD SVG 1.1//EN" "http://www.w3.org/Graphics/SVG/1.1/DTD/svg11.dtd">
<svg version="1.1" id="Capa_1" xmlns="http://www.w3.org/2000/svg" xmlns:xlink="http://www.w3.org/1999/xlink" x="0px" y="0px"
	 width="100px" height="100px" viewBox="0 0 100 100" enable-background="new 0 0 100 100" xml:space="preserve">
<path fill="#1D1D1B" enable-background="new    " d="M84.056,83.41c-3.056-5.763-2.406-4.225-2.957-7.072
	c-0.501-2.569-0.249-5.54-0.388-8.615c-0.208-4.649-0.643-9.535-0.643-13.632c0-3.6-1.503-4.745-2.315-7.072
	c-1.181-3.388-2.128-6.486-3.729-8.102c-1.941-1.961-4.069-0.716-4.069-0.716c-1.402-3.629-1.77-4.553-3.246-6.345
	c-1.418-1.725-3.559-1.492-3.559-1.492s-1.049-5.209-3.445-7.838c-1.278-1.403-3.913-1.387-4.905-0.907
	c-0.717,0.349-1.678,1.467-2.684,2.202c-1.934,1.413-4.267,4.057-4.271,4.062l0,0c0,0-0.396-1.207-1.499-3.363
	c-0.3-0.586-0.691-1.235-1.119-1.917c2.238-2.354,3.62-5.529,3.62-9.033c0-7.251-5.878-13.128-13.126-13.128
	c-7.251,0-13.126,5.877-13.126,13.128c0,7.079,5.607,12.834,12.622,13.101c0.622,1.845,1.378,3.858,2.039,5.556
	c1.232,3.165,2.269,5.748,2.859,9.074c0.432,2.439,0.177,5.228,0.072,7.558c-0.089,1.978-0.235,3.884-0.464,5.45
	c-0.313,2.138-0.991,3.64-1.353,4.6c-0.271,0.717-0.225,1.321-0.225,1.321s-0.498-0.008-1.09,0.186
	c-0.591,0.195-0.965,0.692-0.965,0.692l-0.983-0.661c0,0,0.185-0.357,0-0.996c-0.201-0.697-0.552-1.676-1.048-2.987
	c-0.202-0.535-0.395-1.6-0.553-2.104c-0.417-1.333-0.967-1.827-0.967-1.827s0.57-1.83-0.194-3.812
	c-0.801-2.076-2.561-4.868-4.518-6.72c-1.612-1.526-2.926-1.925-4.32-1.714c-1.735,0.263-2.398,2.273-2.075,4.39
	c0.195,1.28,0.765,3.001,0.9,3.886c0.321,2.112-0.844,4.61-0.801,6.066c0.056,1.887,1.039,2.933,1.94,6.919
	c0.321,1.424,1.251,2.982,1.677,4.613c0.631,2.41,1.018,4.709,1.298,5.29c1.486,3.076,7.383,6.939,12.86,11.959
	c3.085,2.828,6.736,2.842,9.258,5.401c1.545,1.566,2.394,4.186,3.986,6.558c6.6,9.83,25.938,0.226,31.02-7.061
	C84.778,86.579,84.531,84.307,84.056,83.41z M24.242,13.57c0-6.34,5.137-11.48,11.478-11.48c6.341,0,11.478,5.14,11.478,11.48
	c0,2.915-1.095,5.568-2.886,7.593c-0.511-0.8-1.031-1.625-1.503-2.451c1.051-1.445,1.677-3.218,1.677-5.142
	c0-4.843-3.925-8.767-8.767-8.768c-4.842,0-8.766,3.925-8.766,8.768c0,4.198,2.953,7.703,6.895,8.56
	c0.227,0.805,0.463,1.623,0.708,2.463c0.038,0.13,0.082,0.269,0.123,0.403C28.827,24.47,24.242,19.557,24.242,13.57z M41.846,16.882
	c-1.973-4.005-3.405-8.035-7.116-6.929c-1.109,0.331-2.234,1.444-2.411,3.273c-0.174,1.779,0.277,4.164,0.976,6.864
	c-2.649-0.986-4.539-3.529-4.539-6.52c0-3.847,3.118-6.965,6.964-6.965c3.846,0,6.964,3.118,6.963,6.965
	C42.683,14.769,42.38,15.897,41.846,16.882z"/>
</svg>
