<?xml version="1.0" encoding="utf-8"?> <!-- Generator: IcoMoon.io --> <!DOCTYPE svg PUBLIC "-//W3C//DTD SVG 1.1//EN" "http://www.w3.org/Graphics/SVG/1.1/DTD/svg11.dtd"> <svg width="512" height="512" viewBox="0 0 512 512" xmlns="http://www.w3.org/2000/svg" xmlns:xlink="http://www.w3.org/1999/xlink" fill="#242424"><path d="M 416.00,272.00l0.00-42.00 c0.00-21.00-16.00-38.00-36.00-38.00l-28.00,0.00 L 352.00,96.00 l 32.00-64.00L 256.00,32.00 l 32.00,64.00l0.00,96.00 L 128.00,192.00 l0.00-64.00 L0.00,128.00 l0.00,288.00 l 32.00,0.00 c0.00,35.347, 28.653,64.00, 64.00,64.00s 64.00-28.653, 64.00-64.00 c0.00,35.347, 28.653,64.00, 64.00,64.00s 64.00-28.653, 64.00-64.00c0.00,35.347, 28.653,64.00, 64.00,64.00s 64.00-28.653, 64.00-64.00l 96.00,0.00 L 416.00,272.00z M 96.00,448.00 c-17.673,0.00-32.00-14.326-32.00-32.00s 14.327-32.00, 32.00-32.00s 32.00,14.326, 32.00,32.00S 113.673,448.00, 96.00,448.00z M 224.00,448.00c-17.673,0.00-32.00-14.326-32.00-32.00 s 14.327-32.00, 32.00-32.00s 32.00,14.326, 32.00,32.00S 241.673,448.00, 224.00,448.00z M 352.00,448.00c-17.674,0.00-32.00-14.326-32.00-32.00s 14.326-32.00, 32.00-32.00s 32.00,14.326, 32.00,32.00 S 369.674,448.00, 352.00,448.00z" ></path></svg>