<?xml version="1.0" encoding="utf-8"?> <!-- Generator: IcoMoon.io --> <!DOCTYPE svg PUBLIC "-//W3C//DTD SVG 1.1//EN" "http://www.w3.org/Graphics/SVG/1.1/DTD/svg11.dtd"> <svg width="512" height="512" viewBox="0 0 512 512" xmlns="http://www.w3.org/2000/svg" xmlns:xlink="http://www.w3.org/1999/xlink" fill="#242424"><path d="M 256.00,42.521L 353.691,128.00l-73.145,0.00 l 64.095,56.083L 390.262,224.00l-24.548,0.00 l-85.167,0.00 l 64.095,56.083L 390.262,320.00L 317.12,320.00 l 64.094,56.082L 426.834,416.00l-101.44,0.00 l-35.88,0.00 l 4.088,35.646c 1.156,10.074, 2.31,19.565, 3.792,28.354l-82.788,0.00 c 1.482-8.788, 2.637-18.279, 3.792-28.354L 222.486,416.00l-35.88,0.00 L 85.167,416.00 l 45.62-39.918L 194.881,320.00l-73.143,0.00 l 45.62-39.918L 231.452,224.00 l-85.167,0.00 l-24.548,0.00 l 45.62-39.917L 231.452,128.00l-73.143,0.00 L 256.00,42.521 M 256.00,0.00L 73.143,160.00l 73.143,0.00 L 36.571,256.00l 109.714,0.00 L 36.571,352.00l 73.143,0.00 L0.00,448.00l 186.606,0.00 c-4.043,35.249-8.033,64.00-26.606,64.00c 28.735,0.00, 163.265,0.00, 192.00,0.00c-18.574,0.00-22.563-28.751-26.606-64.00L 512.00,448.00 l-109.714-96.00 l 73.143,0.00 l-109.715-96.00l 109.715,0.00 l-109.715-96.00l 73.144,0.00 L 256.00,0.00L 256.00,0.00z" ></path></svg>