<?xml version="1.0" encoding="utf-8"?> <!-- Generator: IcoMoon.io --> <!DOCTYPE svg PUBLIC "-//W3C//DTD SVG 1.1//EN" "http://www.w3.org/Graphics/SVG/1.1/DTD/svg11.dtd"> <svg width="512" height="512" viewBox="0 0 512 512" xmlns="http://www.w3.org/2000/svg" xmlns:xlink="http://www.w3.org/1999/xlink" fill="#242424"><path d="M 488.00,352.00l-50.411,0.00 L 320.00,156.02L 320.00,56.00 c0.00-13.20-10.80-24.00-24.00-24.00l-80.00,0.00 c-13.20,0.00-24.00,10.80-24.00,24.00l0.00,100.019 L 74.412,352.00L 24.00,352.00 c-13.20,0.00-24.00,10.80-24.00,24.00l0.00,80.00 c0.00,13.20, 10.80,24.00, 24.00,24.00l 80.00,0.00 c 13.20,0.00, 24.00-10.80, 24.00-24.00L 128.00,355.98 L 245.588,160.00l 20.823,0.00 L 384.00,355.98L 384.00,456.00 c0.00,13.20, 10.80,24.00, 24.00,24.00l 80.00,0.00 c 13.20,0.00, 24.00-10.80, 24.00-24.00l0.00-80.00 C 512.00,362.80, 501.20,352.00, 488.00,352.00z" ></path></svg>