<?xml version="1.0" encoding="utf-8"?> <!-- Generator: IcoMoon.io --> <!DOCTYPE svg PUBLIC "-//W3C//DTD SVG 1.1//EN" "http://www.w3.org/Graphics/SVG/1.1/DTD/svg11.dtd"> <svg width="512" height="512" viewBox="0 0 512 512" xmlns="http://www.w3.org/2000/svg" xmlns:xlink="http://www.w3.org/1999/xlink" fill="#242424"><path d="M 64.00,448.00L 448.00,448.00L 448.00,512.00L 64.00,512.00zM 352.00,0.00 L 448.00,0.00 L 448.00,32.00 L 416.00,32.00 L 416.00,256.00 C 416.00,344.365 344.365,416.00 256.00,416.00 C 167.634,416.00 96.00,344.365 96.00,256.00 L 96.00,32.00 L 64.00,32.00 L 64.00,0.00 L 192.00,0.00 L 192.00,32.00 L 160.00,32.00 L 160.00,256.00 C 160.00,308.935 210.243,356.00 272.00,356.00 C 333.757,356.00 384.00,308.935 384.00,256.00 L 384.00,32.00 L 352.00,32.00 L 352.00,0.00 Z" ></path></svg>