<?xml version="1.0" encoding="utf-8"?> <!-- Generator: IcoMoon.io --> <!DOCTYPE svg PUBLIC "-//W3C//DTD SVG 1.1//EN" "http://www.w3.org/Graphics/SVG/1.1/DTD/svg11.dtd"> <svg width="512" height="512" viewBox="0 0 512 512" xmlns="http://www.w3.org/2000/svg" xmlns:xlink="http://www.w3.org/1999/xlink" fill="#242424"><path d="M 352.00,128.00L 352.00,0.00 L0.00,0.00 l0.00,352.00 l 128.00,0.00 l0.00,160.00 l 384.00,0.00 L 512.00,128.00 L 352.00,128.00 z M 320.00,164.00L 160.00,164.00 l0.00-4.00 l 160.00,0.00 L 320.00,164.00 z M 448.00,196.00l-96.00,0.00 l0.00-4.00 l 96.00,0.00 L 448.00,196.00 z M 160.00,316.00l 160.00,0.00 l0.00,4.00 L 160.00,320.00 L 160.00,316.00 z M 64.00,284.00 l 64.00,0.00 l0.00,4.00 L 64.00,288.00 L 64.00,284.00 z M 128.00,188.00l0.00,8.00 L 64.00,196.00 l0.00-8.00 L 128.00,188.00 z M 64.00,180.00l0.00-8.00 l 64.00,0.00 l0.00,8.00 L 64.00,180.00 z M 128.00,204.00l0.00,8.00 L 64.00,212.00 l0.00-8.00 L 128.00,204.00 z M 160.00,260.00l0.00-8.00 l 160.00,0.00 l0.00,8.00 L 160.00,260.00 z M 320.00,268.00l0.00,8.00 L 160.00,276.00 l0.00-8.00 L 320.00,268.00 z M 160.00,244.00l0.00-8.00 l 160.00,0.00 l0.00,8.00 L 160.00,244.00 z M 160.00,228.00l0.00-8.00 l 160.00,0.00 l0.00,8.00 L 160.00,228.00 z M 160.00,212.00l0.00-8.00 l 160.00,0.00 l0.00,8.00 L 160.00,212.00 z M 128.00,220.00l0.00,8.00 L 64.00,228.00 l0.00-8.00 L 128.00,220.00 z M 128.00,236.00l0.00,8.00 L 64.00,244.00 l0.00-8.00 L 128.00,236.00 z M 128.00,252.00l0.00,8.00 L 64.00,260.00 l0.00-8.00 L 128.00,252.00 z M 128.00,268.00l0.00,8.00 L 64.00,276.00 l0.00-8.00 L 128.00,268.00 z M 160.00,284.00l 160.00,0.00 l0.00,8.00 L 160.00,292.00 L 160.00,284.00 z M 320.00,300.00l0.00,8.00 L 160.00,308.00 l0.00-8.00 L 320.00,300.00 z M 192.00,448.00l0.00-4.00 l 256.00,0.00 l0.00,4.00 L 192.00,448.00 z M 192.00,436.00l0.00-8.00 l 256.00,0.00 l0.00,8.00 L 192.00,436.00 z M 192.00,420.00l0.00-8.00 l 256.00,0.00 l0.00,8.00 L 192.00,420.00 z M 192.00,404.00l0.00-8.00 l 256.00,0.00 l0.00,8.00 L 192.00,404.00 z M 192.00,388.00l0.00-8.00 l 256.00,0.00 l0.00,8.00 L 192.00,388.00 z M 192.00,372.00l0.00-8.00 l 256.00,0.00 l0.00,8.00 L 192.00,372.00 z M 192.00,356.00l0.00-4.00 l 160.00,0.00 l0.00-4.00 l 96.00,0.00 l0.00,8.00 L 192.00,356.00 z M 352.00,340.00l0.00-8.00 l 96.00,0.00 l0.00,8.00 L 352.00,340.00 z M 352.00,324.00l0.00-8.00 l 96.00,0.00 l0.00,8.00 L 352.00,324.00 z M 352.00,308.00l0.00-8.00 l 96.00,0.00 l0.00,8.00 L 352.00,308.00 z M 352.00,292.00l0.00-8.00 l 96.00,0.00 l0.00,8.00 L 352.00,292.00 z M 352.00,276.00l0.00-8.00 l 96.00,0.00 l0.00,8.00 L 352.00,276.00 z M 352.00,260.00l0.00-8.00 l 96.00,0.00 l0.00,8.00 L 352.00,260.00 z M 352.00,244.00l0.00-8.00 l 96.00,0.00 l0.00,8.00 L 352.00,244.00 z M 352.00,228.00l0.00-8.00 l 96.00,0.00 l0.00,8.00 L 352.00,228.00 z M 352.00,212.00l0.00-8.00 l 96.00,0.00 l0.00,8.00 L 352.00,212.00 z M 320.00,196.00L 160.00,196.00 l0.00-8.00 l 160.00,0.00 L 320.00,196.00 z M 160.00,180.00l0.00-8.00 l 160.00,0.00 l0.00,8.00 L 160.00,180.00 z M 128.00,164.00L 64.00,164.00 l0.00-8.00 l 64.00,0.00 L 128.00,164.00 z M 288.00,64.00l0.00,4.00 L 64.00,68.00 l0.00-4.00 L 288.00,64.00 z M 288.00,76.00l0.00,8.00 L 64.00,84.00 l0.00-8.00 L 288.00,76.00 z M 288.00,92.00l0.00,8.00 L 64.00,100.00 l0.00-8.00 L 288.00,92.00 z M 288.00,108.00l0.00,8.00 L 64.00,116.00 l0.00-8.00 L 288.00,108.00 z M 288.00,124.00l0.00,4.00 L 128.00,128.00 l0.00,4.00 L 64.00,132.00 l0.00-8.00 L 288.00,124.00 z M 128.00,140.00l0.00,8.00 L 64.00,148.00 l0.00-8.00 L 128.00,140.00 z" ></path></svg>