<?xml version="1.0" encoding="utf-8"?> <!-- Generator: IcoMoon.io --> <!DOCTYPE svg PUBLIC "-//W3C//DTD SVG 1.1//EN" "http://www.w3.org/Graphics/SVG/1.1/DTD/svg11.dtd"> <svg width="512" height="512" viewBox="0 0 512 512" xmlns="http://www.w3.org/2000/svg" xmlns:xlink="http://www.w3.org/1999/xlink" fill="#242424"><path d="M 384.00,32.00 C 436.935,32.00 480.00,75.065 480.00,128.00 L 480.00,224.00 L 416.00,224.00 L 416.00,128.00 C 416.00,110.355 401.645,96.00 384.00,96.00 L 320.00,96.00 C 302.355,96.00 288.00,110.355 288.00,128.00 L 288.00,224.00 L 296.00,224.00 C 309.20,224.00 320.00,234.80 320.00,248.00 L 320.00,488.00 C 320.00,501.20 309.20,512.00 296.00,512.00 L 24.00,512.00 C 10.80,512.00 0.00,501.20 0.00,488.00 L 0.00,248.00 C 0.00,234.80 10.80,224.00 24.00,224.00 L 224.00,224.00 L 224.00,128.00 C 224.00,75.065 267.065,32.00 320.00,32.00 L 384.00,32.00 Z" ></path></svg>