<?xml version="1.0" encoding="utf-8"?> <!-- Generator: IcoMoon.io --> <!DOCTYPE svg PUBLIC "-//W3C//DTD SVG 1.1//EN" "http://www.w3.org/Graphics/SVG/1.1/DTD/svg11.dtd"> <svg width="512" height="512" viewBox="0 0 512 512" xmlns="http://www.w3.org/2000/svg" xmlns:xlink="http://www.w3.org/1999/xlink" fill="#242424"><path d="M 96.00,512.00l 320.00,0.00 c 53.019,0.00, 96.00-42.981, 96.00-96.00L0.00,416.00 C0.00,469.019, 42.981,512.00, 96.00,512.00z M 416.00,448.00l 32.00,0.00 l0.00,32.00 l-32.00,0.00 L 416.00,448.00 zM 112.00,160.00 L 256.00,16.00 L 400.00,160.00 L 288.00,160.00 L 288.00,256.00 L 224.00,256.00 L 224.00,160.00 ZM 511.40,368.615 C 513.854,377.077 508.553,384.00 499.62,384.00 L 12.379,384.00 C 3.447,384.00 -1.854,377.077 0.60,368.615 L 56.642,207.384 C 59.096,198.923 68.413,192.00 77.345,192.00 L 192.00,192.00 L 192.00,288.00 L 320.00,288.00 L 320.00,192.00 L 434.655,192.00 C 443.588,192.00 452.904,198.923 455.358,207.384 L 511.40,368.615 Z" ></path></svg>