<?xml version="1.0" encoding="utf-8"?> <!-- Generator: IcoMoon.io --> <!DOCTYPE svg PUBLIC "-//W3C//DTD SVG 1.1//EN" "http://www.w3.org/Graphics/SVG/1.1/DTD/svg11.dtd"> <svg width="512" height="512" viewBox="0 0 512 512" xmlns="http://www.w3.org/2000/svg" xmlns:xlink="http://www.w3.org/1999/xlink" fill="#242424"><path d="M 224.00,320.00L 288.00,320.00L 288.00,192.00L 400.00,192.00L 256.00,64.00L 112.00,192.00L 224.00,192.00 zM 320.00,259.024l0.00,16.622 c 74.569,8.786, 128.00,32.488, 128.00,60.354c0.00,35.347-85.961,64.00-192.00,64.00c-106.039,0.00-192.00-28.653-192.00-64.00 c0.00-27.865, 53.431-51.566, 128.00-60.354l0.00-16.622 C 81.585,269.682,0.00,307.268,0.00,352.00c0.00,53.02, 114.615,96.00, 256.00,96.00s 256.00-42.98, 256.00-96.00 C 512.00,307.268, 430.414,269.682, 320.00,259.024z" ></path></svg>