<?xml version="1.0" encoding="utf-8"?>
<!-- Generator: IcoMoon.io -->
<!DOCTYPE svg PUBLIC "-//W3C//DTD SVG 1.1//EN" "http://www.w3.org/Graphics/SVG/1.1/DTD/svg11.dtd">
<svg xmlns="http://www.w3.org/2000/svg" xmlns:xlink="http://www.w3.org/1999/xlink" width="512" height="512" viewBox="0 0 512 512" fill="#666"><path d="M 448.00,288.00L 448.00,224.00L 384.00,224.00L 384.00,288.00L 320.00,288.00L 320.00,352.00L 384.00,352.00L 384.00,416.00L 448.00,416.00L 448.00,352.00L 512.00,352.00L 512.00,288.00 zM 384.00,422.743c-41.683-38.573-112.118-67.481-136.587-71.375c-11.056-1.759-11.308-32.157-11.308-32.157 s 32.484-32.158, 39.564-75.401c 19.045,0.00, 30.809-45.973, 11.761-62.148C 288.227,164.635, 311.911,48.00, 192.00,48.00 S 95.775,164.635, 96.568,181.662c-19.047,16.175-7.285,62.148, 11.761,62.148c 7.079,43.243, 39.564,75.401, 39.564,75.401 s-0.252,30.398-11.307,32.157C 112.118,355.262, 41.682,384.17,0.00,422.743L0.00,480.00 l 192.00,0.00 l 192.00,0.00 L 384.00,422.743 z"/></svg>
