<?xml version="1.0" encoding="utf-8"?> <!-- Generator: IcoMoon.io --> <!DOCTYPE svg PUBLIC "-//W3C//DTD SVG 1.1//EN" "http://www.w3.org/Graphics/SVG/1.1/DTD/svg11.dtd"> <svg width="544" height="512" viewBox="0 0 544 512" xmlns="http://www.w3.org/2000/svg" xmlns:xlink="http://www.w3.org/1999/xlink" fill="#242424"><path d="M 218.00,368.00 C 218.00,396.688 224.681,423.841 236.555,448.00 L 192.00,448.00 L 0.00,448.00 L 0.00,390.743 C 41.682,352.17 112.118,323.262 136.586,319.368 C 147.641,317.609 147.893,287.211 147.893,287.211 C 147.893,287.211 115.408,255.053 108.329,211.81 C 89.283,211.81 77.521,165.837 96.568,149.662 C 95.775,132.635 72.089,16.00 192.00,16.00 C 311.911,16.00 288.227,132.635 287.43,149.662 C 306.478,165.837 294.714,211.81 275.669,211.81 C 273.538,224.827 269.098,236.827 263.942,247.261 C 253.726,258.761 244.935,271.551 237.865,285.366 C 236.756,286.563 236.105,287.211 236.105,287.211 C 236.105,287.211 236.11,287.808 236.148,288.815 C 224.526,312.77 218.00,339.636 218.00,368.00 ZM 400.00,224.00c-79.529,0.00-144.00,64.471-144.00,144.00s 64.471,144.00, 144.00,144.00s 144.00-64.471, 144.00-144.00S 479.529,224.00, 400.00,224.00z M 480.00,384.00L 320.00,384.00 l0.00-32.00 l 160.00,0.00 L 480.00,384.00 z" ></path></svg>