<?xml version="1.0" encoding="utf-8"?> <!-- Generator: IcoMoon.io --> <!DOCTYPE svg PUBLIC "-//W3C//DTD SVG 1.1//EN" "http://www.w3.org/Graphics/SVG/1.1/DTD/svg11.dtd"> <svg width="512" height="512" viewBox="0 0 512 512" xmlns="http://www.w3.org/2000/svg" xmlns:xlink="http://www.w3.org/1999/xlink" fill="#242424"><path d="M 206.92,464.00L 51.037,464.00 c 4.614-19.67, 14.259-41.192, 27.38-60.255c 20.728-30.113, 46.589-49.811, 72.82-55.463 c 11.053-2.382, 18.944-12.155, 18.944-23.462l0.00-17.146 c0.00-8.63-4.633-16.595-12.134-20.861c-29.74-16.917-48.957-54.133-48.957-94.813 c0.00-57.346, 37.193-104.00, 82.909-104.00c 45.717,0.00, 82.909,46.654, 82.909,104.00c0.00,4.599-0.258,9.15-0.737,13.636 c 15.016-8.696, 31.351-15.361, 48.629-19.638c-1.249-37.569-14.193-72.845-36.784-99.893C 261.184,56.374, 227.795,40.00, 192.00,40.00 s-69.184,16.374-94.017,46.105C 74.193,114.589, 61.091,152.197, 61.091,192.00c0.00,28.64, 6.872,56.533, 19.873,80.664 c 8.107,15.048, 18.355,28.238, 30.254,39.061c-26.997,12.995-51.993,35.246-72.339,64.805C 14.534,411.898,0.00,453.569,0.00,488.00 c0.00,13.255, 10.745,24.00, 24.00,24.00l 223.923,0.00 C 231.704,498.46, 217.81,482.232, 206.92,464.00zM 288.00,352.00L 448.00,352.00L 448.00,384.00L 288.00,384.00zM 368.00,262.00c 58.448,0.00, 106.00,47.552, 106.00,106.00s-47.552,106.00-106.00,106.00s-106.00-47.552-106.00-106.00S 309.552,262.00, 368.00,262.00 M 368.00,224.00 c-79.529,0.00-144.00,64.471-144.00,144.00s 64.471,144.00, 144.00,144.00s 144.00-64.471, 144.00-144.00S 447.529,224.00, 368.00,224.00L 368.00,224.00z" ></path></svg>