<?xml version="1.0" encoding="utf-8"?> <!-- Generator: IcoMoon.io --> <!DOCTYPE svg PUBLIC "-//W3C//DTD SVG 1.1//EN" "http://www.w3.org/Graphics/SVG/1.1/DTD/svg11.dtd"> <svg width="512" height="512" viewBox="0 0 512 512" xmlns="http://www.w3.org/2000/svg" xmlns:xlink="http://www.w3.org/1999/xlink" fill="#242424"><path d="M 288.00,321.922l0.00-14.768 c 19.129-16.60, 32.00-47.621, 32.00-83.154c0.00-53.02-28.653-96.00-64.00-96.00c-35.346,0.00-64.00,42.98-64.00,96.00 c0.00,35.535, 12.872,66.558, 32.003,83.156l0.00,14.766 c-73.031,8.895-128.00,47.634-128.00,94.078L 416.00,416.00 C 416.00,369.556, 361.031,330.816, 288.00,321.922zM 160.84,304.806c-13.354-8.158-30.188-13.814-48.839-15.902l0.00-7.341 c 9.562-8.301, 16.00-23.799, 16.00-41.563 c0.00-26.51-14.327-48.00-32.00-48.00s-32.00,21.49-32.00,48.00c0.00,17.764, 6.438,33.262, 16.00,41.563l0.00,7.327 c-45.402,5.079-80.00,31.397-80.00,63.109l 89.713,0.00 C 106.735,332.386, 131.324,316.057, 160.84,304.806zM 432.00,288.89l0.00-7.327 c 9.563-8.301, 16.00-23.799, 16.00-41.563c0.00-26.51-14.327-48.00-32.00-48.00s-32.00,21.49-32.00,48.00 c0.00,17.764, 6.438,33.262, 16.00,41.563l0.00,7.341 c-18.65,2.088-35.485,7.744-48.84,15.902c 29.516,11.251, 54.104,27.58, 71.127,47.193L 512.00,351.999 C 512.00,320.287, 477.403,293.969, 432.00,288.89z" ></path></svg>