<?xml version="1.0" encoding="utf-8"?> <!-- Generator: IcoMoon.io --> <!DOCTYPE svg PUBLIC "-//W3C//DTD SVG 1.1//EN" "http://www.w3.org/Graphics/SVG/1.1/DTD/svg11.dtd"> <svg width="512" height="512" viewBox="0 0 512 512" xmlns="http://www.w3.org/2000/svg" xmlns:xlink="http://www.w3.org/1999/xlink" fill="#242424"><path d="M 96.00,192.00A64.00,64.00 12600.00 1 1 224.00,192A64.00,64.00 12600.00 1 1 96.00,192zM 288.00,96.00A64.00,64.00 12600.00 1 1 416.00,96A64.00,64.00 12600.00 1 1 288.00,96zM 160.00,288.00C 71.635,288.00,0.00,373.961,0.00,480.00l 48.00,0.00 c0.00-20.471, 3.312-40.247, 9.844-58.779c 6.155-17.461, 14.866-33.023, 25.894-46.257 C 104.677,349.838, 131.76,336.00, 160.00,336.00s 55.324,13.838, 76.263,38.964c 11.027,13.233, 19.739,28.796, 25.894,46.257 C 268.689,439.753, 272.00,459.529, 272.00,480.00l 48.00,0.00 C 320.00,373.961, 248.366,288.00, 160.00,288.00zM 352.00,192.00c-47.088,0.00-89.423,24.413-118.701,63.264c 3.598,1.559, 7.168,3.228, 10.705,5.022 c 10.877,5.521, 21.24,12.047, 31.037,19.535c 0.233-0.285, 0.462-0.575, 0.697-0.857C 296.677,253.838, 323.761,240.00, 352.00,240.00 c 28.24,0.00, 55.324,13.838, 76.263,38.964c 11.027,13.233, 19.739,28.796, 25.894,46.257C 460.689,343.753, 464.00,363.529, 464.00,384.00l 48.00,0.00 C 512.00,277.961, 440.366,192.00, 352.00,192.00z" ></path></svg>