<?xml version="1.0" encoding="utf-8"?> <!-- Generator: IcoMoon.io --> <!DOCTYPE svg PUBLIC "-//W3C//DTD SVG 1.1//EN" "http://www.w3.org/Graphics/SVG/1.1/DTD/svg11.dtd"> <svg width="512" height="512" viewBox="0 0 512 512" xmlns="http://www.w3.org/2000/svg" xmlns:xlink="http://www.w3.org/1999/xlink" fill="#242424"><path d="M 256.00,64.00c 52.935,0.00, 96.00,43.065, 96.00,96.00s-43.065,96.00-96.00,96.00s-96.00-43.065-96.00-96.00S 203.065,64.00, 256.00,64.00 M 256.00,32.00 c-70.692,0.00-128.00,57.308-128.00,128.00s 57.308,128.00, 128.00,128.00s 128.00-57.308, 128.00-128.00S 326.692,32.00, 256.00,32.00L 256.00,32.00zM 384.00,352.00c 52.935,0.00, 96.00,43.065, 96.00,96.00L 32.00,448.00 c0.00-52.935, 43.065-96.00, 96.00-96.00L 384.00,352.00 M 384.00,320.00L 128.00,320.00 C 57.308,320.00,0.00,377.309,0.00,448.00l0.00,32.00 l 4.033,0.00 l 503.934,0.00 L 512.00,480.00 l0.00-32.00 C 512.00,377.309, 454.692,320.00, 384.00,320.00L 384.00,320.00z" ></path></svg>