<?xml version="1.0" encoding="utf-8"?> <!-- Generator: IcoMoon.io --> <!DOCTYPE svg PUBLIC "-//W3C//DTD SVG 1.1//EN" "http://www.w3.org/Graphics/SVG/1.1/DTD/svg11.dtd"> <svg width="512" height="512" viewBox="0 0 512 512" xmlns="http://www.w3.org/2000/svg" xmlns:xlink="http://www.w3.org/1999/xlink" fill="#242424"><path d="M 448.00,96.00L 64.00,96.00 c-35.20,0.00-64.00,28.80-64.00,64.00l0.00,224.00 c0.00,35.20, 28.80,64.00, 64.00,64.00l 384.00,0.00 c 35.20,0.00, 64.00-28.80, 64.00-64.00L 512.00,160.00 C 512.00,124.80, 483.20,96.00, 448.00,96.00z M 64.00,384.00c0.00-70.692, 35.817-128.00, 80.00-128.00c-26.51,0.00-48.00-21.49-48.00-48.00s 21.49-48.00, 48.00-48.00s 48.00,21.49, 48.00,48.00s-21.49,48.00-48.00,48.00 c 44.183,0.00, 80.00,57.308, 80.00,128.00L 64.00,384.00 z M 448.00,384.00L 288.00,384.00 l0.00-32.00 l 160.00,0.00 L 448.00,384.00 z M 448.00,288.00L 288.00,288.00 l0.00-32.00 l 160.00,0.00 L 448.00,288.00 z M 448.00,192.00L 288.00,192.00 l0.00-32.00 l 160.00,0.00 L 448.00,192.00 z" ></path></svg>