<?xml version="1.0" encoding="utf-8"?> <!-- Generator: IcoMoon.io --> <!DOCTYPE svg PUBLIC "-//W3C//DTD SVG 1.1//EN" "http://www.w3.org/Graphics/SVG/1.1/DTD/svg11.dtd"> <svg width="512" height="512" viewBox="0 0 512 512" xmlns="http://www.w3.org/2000/svg" xmlns:xlink="http://www.w3.org/1999/xlink" fill="#242424"><path d="M 214.082,31.959c-3.802,0.00-8.433,2.392-13.416,7.375L 80.00,160.00L0.00,160.00 l0.00,192.00 l 80.00,0.00 l 120.666,120.665c 4.983,4.982, 9.615,7.376, 13.417,7.376 c 5.99,0.00, 9.918-5.938, 9.918-17.041L 224.001,49.00 C 224.00,37.898, 220.07,31.959, 214.082,31.959z M 160.00,364.117L 99.882,304.00L 64.00,304.00 l0.00-96.00 l 35.882,0.00 L 160.00,147.882 L 160.00,364.117 zM 512.00,288.00 L 416.00,288.00 L 416.00,384.00 L 352.00,384.00 L 352.00,288.00 L 256.00,288.00 L 256.00,224.00 L 352.00,224.00 L 352.00,128.00 L 416.00,128.00 L 416.00,224.00 L 512.00,224.00 Z" ></path></svg>