<?xml version="1.0" encoding="utf-8"?> <!-- Generator: IcoMoon.io --> <!DOCTYPE svg PUBLIC "-//W3C//DTD SVG 1.1//EN" "http://www.w3.org/Graphics/SVG/1.1/DTD/svg11.dtd"> <svg width="512" height="512" viewBox="0 0 512 512" xmlns="http://www.w3.org/2000/svg" xmlns:xlink="http://www.w3.org/1999/xlink" fill="#242424"><path d="M 359.765,415.765c-6.143,0.00-12.284-2.343-16.971-7.029c-9.372-9.372-9.372-24.568,0.00-33.941 c 65.503-65.503, 65.503-172.085,0.00-237.588c-9.372-9.373-9.372-24.569,0.00-33.941c 9.372-9.371, 24.569-9.372, 33.941,0.00 C 417.532,144.062, 440.00,198.304, 440.00,256.00c0.00,57.695-22.468,111.938-63.265,152.735C 372.049,413.422, 365.907,415.765, 359.765,415.765zM 274.51,370.51c-6.143,0.00-12.284-2.343-16.971-7.029c-9.373-9.373-9.373-24.568,0.00-33.941 c 40.55-40.55, 40.55-106.529,0.00-147.078c-9.373-9.373-9.373-24.569,0.00-33.941c 9.373-9.372, 24.568-9.372, 33.941,0.00 c 59.265,59.265, 59.265,155.696,0.00,214.961C 286.794,368.167, 280.652,370.51, 274.51,370.51zM 214.082,31.959c-3.802,0.00-8.433,2.392-13.416,7.375L 80.00,160.00L0.00,160.00 l0.00,192.00 l 80.00,0.00 l 120.666,120.665c 4.983,4.982, 9.615,7.376, 13.417,7.376 c 5.99,0.00, 9.918-5.938, 9.918-17.041L 224.001,49.00 C 224.00,37.898, 220.07,31.959, 214.082,31.959z M 160.00,364.117L 99.882,304.00L 64.00,304.00 l0.00-96.00 l 35.882,0.00 L 160.00,147.882 L 160.00,364.117 z" ></path></svg>