<?xml version="1.0" encoding="utf-8"?> <!-- Generator: IcoMoon.io --> <!DOCTYPE svg PUBLIC "-//W3C//DTD SVG 1.1//EN" "http://www.w3.org/Graphics/SVG/1.1/DTD/svg11.dtd"> <svg width="512" height="512" viewBox="0 0 512 512" xmlns="http://www.w3.org/2000/svg" xmlns:xlink="http://www.w3.org/1999/xlink" fill="#242424"><path d="M 288.00,224.00 L 352.00,224.00 L 352.00,288.00 L 224.00,288.00 L 224.00,160.00 L 288.00,160.00 ZM 448.00,256.00c0.00-71.066-38.613-133.109-96.00-166.308L 352.00,0.00 L 160.00,0.00 l0.00,89.692 C 102.613,122.89, 64.00,184.934, 64.00,256.00 c0.00,71.065, 38.613,133.109, 96.00,166.308L 160.00,512.00 l 192.00,0.00 l0.00-89.692 C 409.387,389.109, 448.00,327.065, 448.00,256.00z M 256.00,384.00c-70.692,0.00-128.00-57.308-128.00-128.00 s 57.308-128.00, 128.00-128.00s 128.00,57.308, 128.00,128.00S 326.692,384.00, 256.00,384.00z" ></path></svg>