<?xml version="1.0" encoding="utf-8"?> <!-- Generator: IcoMoon.io --> <!DOCTYPE svg PUBLIC "-//W3C//DTD SVG 1.1//EN" "http://www.w3.org/Graphics/SVG/1.1/DTD/svg11.dtd"> <svg width="576" height="512" viewBox="0 0 576 512" xmlns="http://www.w3.org/2000/svg" xmlns:xlink="http://www.w3.org/1999/xlink" fill="#242424"><path d="M 512.00,128.00 L 576.00,128.00 L 576.00,384.00 C 576.00,436.935 532.935,480.00 480.00,480.00 C 427.065,480.00 384.00,436.935 384.00,384.00 L 384.00,128.00 C 384.00,110.355 369.645,96.00 352.00,96.00 C 334.355,96.00 320.00,110.355 320.00,128.00 L 320.00,384.00 C 320.00,436.935 276.935,480.00 224.00,480.00 C 171.065,480.00 128.00,436.935 128.00,384.00 L 128.00,128.00 C 128.00,110.355 113.645,96.00 96.00,96.00 C 78.355,96.00 64.00,110.355 64.00,128.00 L 64.00,384.00 L 0.00,384.00 L 0.00,128.00 C 0.00,75.065 43.065,32.00 96.00,32.00 C 148.935,32.00 192.00,75.065 192.00,128.00 L 192.00,384.00 C 192.00,401.645 206.355,416.00 224.00,416.00 C 241.645,416.00 256.00,401.645 256.00,384.00 L 256.00,128.00 C 256.00,75.065 299.065,32.00 352.00,32.00 C 404.935,32.00 448.00,75.065 448.00,128.00 L 448.00,384.00 C 448.00,401.645 462.355,416.00 480.00,416.00 C 497.645,416.00 512.00,401.645 512.00,384.00 L 512.00,128.00 Z" ></path></svg>