<?xml version="1.0" encoding="utf-8"?> <!-- Generator: IcoMoon.io --> <!DOCTYPE svg PUBLIC "-//W3C//DTD SVG 1.1//EN" "http://www.w3.org/Graphics/SVG/1.1/DTD/svg11.dtd"> <svg width="512" height="512" viewBox="0 0 512 512" xmlns="http://www.w3.org/2000/svg" xmlns:xlink="http://www.w3.org/1999/xlink" fill="#242424"><path d="M 416.00,160.00 L 480.00,160.00 L 480.00,352.00 C 480.00,369.251 476.607,386.021 469.915,401.843 C 463.465,417.093 454.244,430.776 442.51,442.51 C 430.776,454.244 417.093,463.465 401.843,469.915 C 386.021,476.607 369.252,480.00 352.00,480.00 C 334.748,480.00 317.979,476.607 302.157,469.915 C 286.907,463.465 273.224,454.244 261.49,442.51 C 249.756,430.776 240.535,417.093 234.085,401.843 C 227.393,386.021 224.00,369.252 224.00,352.00 L 224.00,160.00 C 224.00,124.654 195.346,96.00 160.00,96.00 C 124.654,96.00 96.00,124.654 96.00,160.00 L 96.00,352.00 L 32.00,352.00 L 32.00,160.00 C 32.00,142.749 35.393,125.979 42.085,110.157 C 48.535,94.907 57.756,81.225 69.49,69.49 C 81.225,57.756 94.907,48.535 110.157,42.085 C 125.979,35.393 142.749,32.00 160.00,32.00 C 177.251,32.00 194.021,35.393 209.843,42.085 C 225.093,48.535 238.775,57.756 250.51,69.49 C 262.244,81.225 271.465,94.907 277.915,110.157 C 284.607,125.979 288.00,142.749 288.00,160.00 L 288.00,352.00 C 288.00,387.347 316.654,416.00 352.00,416.00 C 387.346,416.00 416.00,387.346 416.00,352.00 L 416.00,160.00 Z" ></path></svg>