<?xml version="1.0" encoding="utf-8"?> <!-- Generator: IcoMoon.io --> <!DOCTYPE svg PUBLIC "-//W3C//DTD SVG 1.1//EN" "http://www.w3.org/Graphics/SVG/1.1/DTD/svg11.dtd"> <svg width="512" height="512" viewBox="0 0 512 512" xmlns="http://www.w3.org/2000/svg" xmlns:xlink="http://www.w3.org/1999/xlink" fill="#242424"><path d="M 445.502,148.031C 443.881,83.681, 391.273,32.00, 326.57,32.00c-37.896,0.00-71.632,17.747-93.426,45.366 c-12.221-15.80-31.345-25.98-52.854-25.98c-36.905,0.00-66.821,29.938-66.821,66.861c0.00,3.218, 0.24,6.38, 0.682,9.477 c-5.61-1.012-11.383-1.569-17.284-1.569C 43.367,126.154,0.00,169.548,0.00,223.076C0.00,276.607, 43.367,320.00, 96.865,320.00l 82.737,0.00 l 21.333-64.00 l 170.842,0.00 l-32.00,64.00l 85.219,0.00 l0.00-0.007 C 473.065,319.902, 512.00,280.889, 512.00,232.771C 512.00,191.727, 483.66,157.321, 445.502,148.031zM 320.00,288.00L 224.00,288.00L 192.00,384.00L 256.00,384.00L 224.00,480.00L 352.00,352.00L 288.00,352.00 z" ></path></svg>