<?xml version="1.0" encoding="utf-8"?> <!-- Generator: IcoMoon.io --> <!DOCTYPE svg PUBLIC "-//W3C//DTD SVG 1.1//EN" "http://www.w3.org/Graphics/SVG/1.1/DTD/svg11.dtd"> <svg width="512" height="512" viewBox="0 0 512 512" xmlns="http://www.w3.org/2000/svg" xmlns:xlink="http://www.w3.org/1999/xlink" fill="#242424"><path d="M 445.502,148.031 C 483.66,157.321 512.00,191.727 512.00,232.771 C 512.00,280.889 473.065,319.902 424.996,319.994 L 424.996,320.00 L 96.865,320.00 C 43.367,320.00 0.00,276.607 0.00,223.076 C 0.00,169.548 43.367,126.154 96.867,126.155 C 102.768,126.155 108.541,126.712 114.151,127.724 C 113.709,124.627 113.469,121.465 113.469,118.247 C 113.469,81.324 143.385,51.386 180.29,51.386 C 201.799,51.386 220.923,61.567 233.144,77.366 C 254.938,49.747 288.675,32.00 326.571,32.00 C 391.273,32.00 443.881,83.681 445.502,148.031 ZM 112.00,352.00 C 112.00,352.00 160.00,416.00 160.00,464.00 C 160.00,490.51 138.51,512.00 112.00,512.00 C 85.49,512.00 64.00,490.51 64.00,464.00 C 64.00,416.00 112.00,352.00 112.00,352.00 ZM 400.00,352.00 C 400.00,352.00 448.00,416.00 448.00,464.00 C 448.00,490.51 426.51,512.00 400.00,512.00 C 373.49,512.00 352.00,490.51 352.00,464.00 C 352.00,416.00 400.00,352.00 400.00,352.00 ZM 256.00,320.00 C 256.00,320.00 304.00,384.00 304.00,432.00 C 304.00,458.51 282.51,480.00 256.00,480.00 C 229.49,480.00 208.00,458.51 208.00,432.00 C 208.00,384.00 256.00,320.00 256.00,320.00 Z" ></path></svg>