<?xml version="1.0" encoding="utf-8"?>
<!-- Generator: Adobe Illustrator 16.0.0, SVG Export Plug-In . SVG Version: 6.00 Build 0)  -->
<!DOCTYPE svg PUBLIC "-//W3C//DTD SVG 1.1//EN" "http://www.w3.org/Graphics/SVG/1.1/DTD/svg11.dtd">
<svg version="1.1" id="Layer_1" xmlns="http://www.w3.org/2000/svg" xmlns:xlink="http://www.w3.org/1999/xlink" x="0px" y="0px"
	 width="100px" height="100px" viewBox="0 0 100 100" enable-background="new 0 0 100 100" xml:space="preserve">
<g>
	<g>
		<path d="M50,100C22.43,100,0,77.57,0,50C0,22.43,22.43,0,50,0c27.57,0,50,22.43,50,50C100,77.57,77.57,100,50,100z M50,6
			C25.738,6,6,25.738,6,50c0,24.262,19.738,44,44,44c24.262,0,44-19.738,44-44C94,25.738,74.262,6,50,6z"/>
	</g>
	<g>
		<path d="M57.754,76.838c-1.04-0.766-1.15-1.914-1.15-1.914l-0.39-2.492H43.785l-0.391,2.491c0,0-0.108,1.149-1.148,1.915
			c-1.039,0.766-1.859,1.422-1.039,1.531c0.79,0.105,8.244,0.01,8.793,0c0.551,0.01,8.003,0.105,8.793,0
			C59.611,78.26,58.792,77.604,57.754,76.838z"/>
		<g>
			<path d="M36,56.923c3.321-0.024,3.734-0.825,4.816-4.159c1.996-5.261,10.985,1.377,5.414,3.682S32.679,56.947,36,56.923z"/>
			<path d="M70.046,22.253c-1.61-1.298-4.28-0.659-5.962,1.428L47.049,47.883c-1.682,2.086-1.673,1.688-0.063,2.985
				c1.611,1.298,1.223,1.392,2.904-0.695l20.027-21.79C71.6,26.295,71.657,23.551,70.046,22.253z M65.666,25.15
				c0,0-0.249-0.29-1.079-0.954c1.244-2.032,3.69-1.659,3.69-1.659C65.957,23.907,65.666,25.15,65.666,25.15z"/>
		</g>
		<path d="M77.6,30.432h-7.49l-3.309,3.6h9.6v28.799H23.601V34.032h30.715l2.535-3.6H22.4c-1.325,0-2.4,1.075-2.4,2.4v34.8
			c0,1.325,1.075,2.399,2.4,2.399h55.2c1.326,0,2.4-1.074,2.4-2.399v-34.8C80,31.506,78.926,30.432,77.6,30.432z"/>
	</g>
</g>
</svg>
