<?xml version="1.0" encoding="utf-8"?> <!-- Generator: IcoMoon.io --> <!DOCTYPE svg PUBLIC "-//W3C//DTD SVG 1.1//EN" "http://www.w3.org/Graphics/SVG/1.1/DTD/svg11.dtd"> <svg width="512" height="512" viewBox="0 0 512 512" xmlns="http://www.w3.org/2000/svg" xmlns:xlink="http://www.w3.org/1999/xlink" fill="#242424"><path d="M 336.00,160.00c-26.51,0.00-48.00-21.49-48.00-48.00s 21.49-48.00, 48.00-48.00s 48.00,21.49, 48.00,48.00c0.00,2.305-0.173,4.569-0.486,6.788l 31.675,4.525 C 415.713,119.615, 416.00,115.842, 416.00,112.00c0.00-44.183-35.817-80.00-80.00-80.00s-80.00,35.817-80.00,80.00s 35.817,80.00, 80.00,80.00l 176.00,0.00 l0.00-32.00 L 336.00,160.00 zM 64.00,384.00c0.00,53.019, 42.981,96.00, 96.00,96.00s 96.00-42.981, 96.00-96.00c0.00-8.032-0.992-15.831-2.851-23.287l-31.056,7.764 C 223.333,373.447, 224.00,378.646, 224.00,384.00c0.00,35.347-28.654,64.00-64.00,64.00s-64.00-28.653-64.00-64.00s 28.654-64.00, 64.00-64.00l 352.00,0.00 l0.00-32.00 L 160.00,288.00 C 106.981,288.00, 64.00,330.979, 64.00,384.00zM 32.00,144.00c0.00-44.183, 35.817-80.00, 80.00-80.00s 80.00,35.817, 80.00,80.00c0.00,11.811-2.58,23.012-7.174,33.103l 29.157,13.253 C 220.415,176.229, 224.00,160.534, 224.00,144.00c0.00-61.856-50.144-112.00-112.00-112.00S0.00,82.144,0.00,144.00c0.00,61.855, 50.144,112.00, 112.00,112.00l 400.00,0.00 l0.00-32.00 L 112.00,224.00 C 67.818,224.00, 32.00,188.183, 32.00,144.00z" ></path></svg>