<?xml version="1.0" encoding="utf-8"?> <!-- Generator: IcoMoon.io --> <!DOCTYPE svg PUBLIC "-//W3C//DTD SVG 1.1//EN" "http://www.w3.org/Graphics/SVG/1.1/DTD/svg11.dtd"> <svg width="512" height="512" viewBox="0 0 512 512" xmlns="http://www.w3.org/2000/svg" xmlns:xlink="http://www.w3.org/1999/xlink" fill="#242424"><path d="M 405.369,221.499l-62.063-62.063c-0.07-0.07-0.138,0.145-0.207,0.075C 320.554,136.966, 311.237,128.00, 288.679,128.00l-64.00,0.00 c-22.557,0.00-31.875,8.966-54.42,31.511l-0.704,0.066l-62.555,61.925l0.00-0.003 c-13.00,13.575-10.816,33.939, 0.497,45.253l 93.188-92.66 L 126.365,320.00l 65.636,0.00 l0.00,159.436 c0.00,13.257, 10.745,24.00, 24.00,24.00c 13.254,0.00, 24.00-10.743, 24.00-24.00L 240.001,320.00 l 32.00,0.00 l0.00,159.436 c0.00,13.257, 10.745,24.00, 24.00,24.00 s 24.00-10.743, 24.00-24.00L 320.001,320.00 l 64.68,0.00 l-73.372-147.027l 94.059,93.917l 0.005-0.076C 416.68,255.501, 418.938,235.071, 405.369,221.499zM 208.411,64.00A48.00,48.00 12600.00 1 1 304.411,64A48.00,48.00 12600.00 1 1 208.411,64z" ></path></svg>