<?xml version="1.0" encoding="utf-8"?>
<!-- Generator: Adobe Illustrator 16.0.0, SVG Export Plug-In . SVG Version: 6.00 Build 0)  -->
<!DOCTYPE svg PUBLIC "-//W3C//DTD SVG 1.1//EN" "http://www.w3.org/Graphics/SVG/1.1/DTD/svg11.dtd">
<svg version="1.1" id="Layer_1" xmlns="http://www.w3.org/2000/svg" xmlns:xlink="http://www.w3.org/1999/xlink" x="0px" y="0px"
	 width="64px" height="64px" viewBox="0 0 64 64" enable-background="new 0 0 64 64" xml:space="preserve">
<g>
	<g>
		<g>
			<path d="M55.586,43.102c-0.525,1.121-0.817,1.62-1.326,2.486c-2.181-0.6-6.254-1.435-9.151-1.827c0.18-1,0.209-1.044,0.451-2.557
				l0.013-0.095l-1.431-4.751l-0.247,2.024c-0.207,1.712-0.484,3.453-0.813,5.103c-3.729-0.475-7.104-0.591-10.083-0.725v-2.542
				l-1.116-3.566c-1.11,4.239-0.899,2.826-0.927,6.094l-3.931,0.112c-2.424,0.117-4.664,0.319-6.351,0.534l-0.03-0.155
				c-0.313-1.609-0.574-3.271-0.774-4.938l-0.231-1.936l-1.469,4.552l0.015,0.102c0.181,1.157,0.278,1.661,0.462,2.654
				c-3.012,0.479-5.806,1.022-8.949,1.917c-0.455-0.76-0.826-1.429-1.327-2.486l-0.116-0.245H6.007l0.268,0.604
				c9.956,22.226,41.476,22.18,51.408-0.002l0.267-0.604h-2.247L55.586,43.102z M32.999,58.084V44.849
				c2.771,0.048,6.148,0.27,9.64,0.688c-0.942,3.919-2.449,8.09-3.924,11.676C36.655,57.764,34.881,57.991,32.999,58.084z
				 M41.407,56.338c0.318-1,2.169-5.42,3.266-10.536c2.555,0.352,5.284,0.862,8.378,1.593C49.979,51.564,46.11,54.442,41.407,56.338
				z M22.365,56.27c-4.541-1.867-8.359-4.688-11.47-8.898c2.295-0.63,5.371-1.281,8.179-1.683
				C19.881,49.346,21.005,52.813,22.365,56.27z M30.956,44.831v13.252c-1.957-0.1-3.823-0.333-6.055-0.963
				c-1.415-3.47-2.892-7.847-3.795-11.706C24.122,45.031,27.941,44.831,30.956,44.831z"/>
		</g>
		<g>
			<path d="M59.367,25.528C56.353,12.766,45.09,3.85,31.979,3.85c-13.008,0-24.25,8.829-27.341,21.469l-0.024,0.106l1.251,4.816
				l0.31-2.074c0.564-3.774,1.863-7.147,3.848-10.258c2.266,0.588,5.302,1.208,8.044,1.622c-0.276,1.911-0.435,3.726-0.564,5.543
				h2.04c0.118-1.68,0.297-3.623,0.538-5.256c3.613,0.495,7.291,0.744,10.874,0.819v4.438h2.045v-4.422
				c3.556-0.021,7.228-0.231,10.712-0.7c0.225,1.584,0.375,3.141,0.491,4.724l0.026,0.397h2.041l-0.032-0.458
				c-0.148-2.09-0.363-3.961-0.514-4.961c2.45-0.374,5.836-1.091,8.194-1.769c1.984,3.166,3.316,6.505,3.879,10.381l0.287,1.983
				l1.31-4.61L59.367,25.528z M52.675,16.118c-2.454,0.647-5.123,1.184-7.264,1.504c-0.636-3.5-1.083-5.585-2.19-9.177
				C46.854,10.252,49.809,12.495,52.675,16.118z M43.393,17.907c-3.43,0.443-7.121,0.659-10.394,0.659V5.918
				c2.639,0.11,5.159,0.585,7.632,1.459l0.074,0.025l0.025,0.073C41.864,10.566,42.896,14.798,43.393,17.907z M20.52,8.554
				c-0.812,2.623-1.457,5.112-2.131,8.918c-2.437-0.376-4.706-0.797-7.099-1.363C14.014,12.622,16.978,10.364,20.52,8.554z
				 M23.044,7.473c2.3-0.859,5.01-1.433,7.912-1.554V18.55c-3.995-0.102-7.05-0.342-10.55-0.792
				C21.017,14.282,21.858,10.75,23.044,7.473z"/>
		</g>
	</g>
	<g>
		<path d="M9.175,34.091c0.485-1.49,0.917-2.924,1.26-4.589h0.06c0.342,1.634,0.743,3.013,1.231,4.562l2.122,6.624h2.294
			l4.475-13.88h-2.495l-1.979,6.967c-0.46,1.637-0.831,3.1-1.063,4.505h-0.084c-0.314-1.405-0.717-2.868-1.231-4.529l-2.155-6.942
			H9.49l-2.269,7.083c-0.457,1.492-0.917,2.982-1.231,4.388H5.901c-0.255-1.435-0.63-2.868-1.031-4.416l-1.835-7.056H0.455
			l4.186,13.88h2.295L9.175,34.091z"/>
	</g>
	<g>
		<path d="M36.546,38.278H36.46c-0.314-1.404-0.717-2.868-1.233-4.529l-2.153-6.942h-2.117l-2.268,7.083
			c-0.458,1.492-0.92,2.983-1.234,4.388h-0.085c-0.257-1.435-0.631-2.868-1.033-4.417l-1.838-7.054h-2.581l4.188,13.88H28.4
			l2.237-6.597c0.488-1.49,0.92-2.924,1.264-4.589h0.055c0.346,1.634,0.748,3.013,1.234,4.562l2.118,6.624h2.298l4.476-13.88h-2.497
			l-1.979,6.967C37.148,35.41,36.776,36.874,36.546,38.278z"/>
	</g>
	<g>
		<path d="M61.049,26.807l-1.979,6.967c-0.461,1.637-0.832,3.1-1.06,4.505h-0.086c-0.314-1.405-0.716-2.868-1.234-4.529
			l-2.151-6.942H52.42l-2.267,7.083c-0.458,1.492-0.919,2.982-1.233,4.388h-0.088c-0.256-1.435-0.631-2.868-1.032-4.416
			l-1.835-7.055h-2.579l4.184,13.88h2.296l2.237-6.597c0.486-1.49,0.918-2.924,1.264-4.589h0.058
			c0.344,1.634,0.745,3.013,1.232,4.563l2.119,6.623h2.295l4.478-13.88L61.049,26.807L61.049,26.807z"/>
	</g>
</g>
</svg>
