<?xml version="1.0" encoding="utf-8"?> <!-- Generator: IcoMoon.io --> <!DOCTYPE svg PUBLIC "-//W3C//DTD SVG 1.1//EN" "http://www.w3.org/Graphics/SVG/1.1/DTD/svg11.dtd"> <svg width="512" height="512" viewBox="0 0 512 512" xmlns="http://www.w3.org/2000/svg" xmlns:xlink="http://www.w3.org/1999/xlink" fill="#242424"><path d="M 480.895,365.861L 294.502,213.748c-6.183-5.045-12.183-9.551-17.906-13.495C 283.937,182.971, 288.00,163.96, 288.00,144.00 C 288.00,64.471, 223.529,0.00, 144.00,0.00c-14.547,0.00-28.586,2.166-41.823,6.177L 192.00,96.00l0.00,96.00 L 96.00,192.00 L 6.177,102.177C 2.166,115.414,0.00,129.453,0.00,144.00 c0.00,79.529, 64.471,144.00, 144.00,144.00c 19.96,0.00, 38.97-4.063, 56.252-11.404c 3.944,5.724, 8.449,11.724, 13.494,17.906L 365.86,480.896 c 31.645,38.776, 86.336,41.702, 121.536,6.502S 519.671,397.506, 480.895,365.861z M 432.00,480.00l-48.00-48.00l 48.00-48.00l 48.00,48.00L 432.00,480.00z" ></path></svg>