<?xml version="1.0" encoding="utf-8"?> <!-- Generator: IcoMoon.io --> <!DOCTYPE svg PUBLIC "-//W3C//DTD SVG 1.1//EN" "http://www.w3.org/Graphics/SVG/1.1/DTD/svg11.dtd"> <svg width="512" height="512" viewBox="0 0 512 512" xmlns="http://www.w3.org/2000/svg" xmlns:xlink="http://www.w3.org/1999/xlink" fill="#242424"><path d="M 507.882,68.117L 448.00,128.00l-64.00-64.00l 59.882-59.883C 435.057,1.443, 425.698,0.00, 416.00,0.00c-53.021,0.00-96.00,42.98-96.00,96.00 c0.00,9.697, 1.442,19.057, 4.116,27.882L 123.882,324.117C 115.057,321.443, 105.698,320.00, 96.00,320.00c-53.021,0.00-96.00,42.98-96.00,96.00 c0.00,9.697, 1.442,19.058, 4.117,27.882L 64.00,384.00l 64.00,64.00l-59.883,59.882C 76.943,510.556, 86.302,512.00, 96.00,512.00c 53.02,0.00, 96.00-42.981, 96.00-96.00 c0.00-9.698-1.444-19.059-4.118-27.883l 200.234-200.235C 396.943,190.556, 406.302,192.00, 416.00,192.00c 53.02,0.00, 96.00-42.981, 96.00-96.00 C 512.00,86.302, 510.556,76.942, 507.882,68.117z" ></path></svg>