<?xml version="1.0" encoding="utf-8"?> <!-- Generator: IcoMoon.io --> <!DOCTYPE svg PUBLIC "-//W3C//DTD SVG 1.1//EN" "http://www.w3.org/Graphics/SVG/1.1/DTD/svg11.dtd"> <svg width="512" height="512" viewBox="0 0 512 512" xmlns="http://www.w3.org/2000/svg" xmlns:xlink="http://www.w3.org/1999/xlink" fill="#242424"><path d="M 224.00,128.00A32.00,32.00 2520.00 1 1 288.00,128A32.00,32.00 2520.00 1 1 224.00,128zM 256.00,0.00C 114.615,0.00,0.00,114.615,0.00,256.00s 114.615,256.00, 256.00,256.00s 256.00-114.615, 256.00-256.00S 397.385,0.00, 256.00,0.00z M 256.00,416.00 c-17.674,0.00-32.00-14.326-32.00-32.00s 14.326-32.00, 32.00-32.00c 17.673,0.00, 32.00,14.326, 32.00,32.00S 273.673,416.00, 256.00,416.00z M 256.00,256.00c-57.438,0.00-104.00,46.562-104.00,104.00 s 46.562,104.00, 104.00,104.00c-114.875,0.00-208.00-93.125-208.00-208.00S 141.125,48.00, 256.00,48.00c 57.438,0.00, 104.00,46.562, 104.00,104.00S 313.438,256.00, 256.00,256.00z" ></path></svg>