<?xml version="1.0" encoding="utf-8"?> <!-- Generator: IcoMoon.io --> <!DOCTYPE svg PUBLIC "-//W3C//DTD SVG 1.1//EN" "http://www.w3.org/Graphics/SVG/1.1/DTD/svg11.dtd"> <svg width="512" height="512" viewBox="0 0 512 512" xmlns="http://www.w3.org/2000/svg" xmlns:xlink="http://www.w3.org/1999/xlink" fill="#242424"><path d="M 96.00,160.00L 256.00,160.00L 256.00,192.00L 96.00,192.00zM 318.771,278.924C 339.674,249.979, 352.00,214.432, 352.00,176.00C 352.00,78.798, 273.202,0.00, 176.00,0.00S0.00,78.798,0.00,176.00s 78.798,176.00, 176.00,176.00 c 38.432,0.00, 73.979-12.326, 102.924-33.229L 448.00,512.00l 64.00-64.00L 318.771,278.924z M 176.00,304.00c-70.692,0.00-128.00-57.308-128.00-128.00S 105.308,48.00, 176.00,48.00 s 128.00,57.308, 128.00,128.00S 246.693,304.00, 176.00,304.00z" ></path></svg>